<?xml version="1.0" encoding="UTF-8" standalone="no"?>
<!-- Created with Inkscape (http://www.inkscape.org/) -->

<svg
   viewBox="0 0 210 297"
   version="1.1"
   id="svg5"
   xmlns:xlink="http://www.w3.org/1999/xlink"
   xmlns="http://www.w3.org/2000/svg"
   xmlns:svg="http://www.w3.org/2000/svg">
  <defs
     id="defs2" />
  <g
     id="layer1">
    <g
       id="g160"
       transform="matrix(0.0242363,0,0,0.0242363,9.649306,109.01662)">
      <rect
         width="7410"
         height="3900"
         fill="#b22234"
         id="rect105"
         x="0"
         y="0" />
      <path
         d="m 0,450 h 7410 m 0,600 H 0 m 0,600 h 7410 m 0,600 H 0 m 0,600 h 7410 m 0,600 H 0"
         stroke="#ffffff"
         stroke-width="300"
         id="path107" />
      <rect
         width="2964"
         height="2100"
         fill="#3c3b6e"
         id="rect109"
         x="0"
         y="0" />
      <g
         fill="#ffffff"
         id="g134">
        <g
           id="s18">
          <g
             id="s9">
            <g
               id="s5">
              <g
                 id="s4">
                <path
                   id="s"
                   d="M 247,90 317.53423,307.08204 132.87322,172.91796 H 361.12678 L 176.46577,307.08204 Z" />
                <use
                   xlink:href="#s"
                   y="420"
                   id="use112"
                   x="0"
                   width="100%"
                   height="100%" />
                <use
                   xlink:href="#s"
                   y="840"
                   id="use114"
                   x="0"
                   width="100%"
                   height="100%" />
                <use
                   xlink:href="#s"
                   y="1260"
                   id="use116"
                   x="0"
                   width="100%"
                   height="100%" />
              </g>
              <use
                 xlink:href="#s"
                 y="1680"
                 id="use119"
                 x="0"
                 width="100%"
                 height="100%" />
            </g>
            <use
               xlink:href="#s4"
               x="247"
               y="210"
               id="use122"
               width="100%"
               height="100%" />
          </g>
          <use
             xlink:href="#s9"
             x="494"
             id="use125"
             y="0"
             width="100%"
             height="100%" />
        </g>
        <use
           xlink:href="#s18"
           x="988"
           id="use128"
           y="0"
           width="100%"
           height="100%" />
        <use
           xlink:href="#s9"
           x="1976"
           id="use130"
           y="0"
           width="100%"
           height="100%" />
        <use
           xlink:href="#s5"
           x="2470"
           id="use132"
           y="0"
           width="100%"
           height="100%" />
      </g>
    </g>
    <g
       id="svgg"
       transform="matrix(0.28272647,0,0,0.28782654,43.346065,108.99595)">
      <path
         id="path0"
         d="m 248.465,31.27 c -2.931,0.223 -4.334,0.485 -5.311,0.991 -2.477,1.281 -5.303,2.191 -7.967,2.566 -1.461,0.206 -3.136,0.451 -3.723,0.546 -0.604,0.097 -1.826,0.82 -2.819,1.667 -1.245,1.063 -2.42,1.699 -4.06,2.197 -1.559,0.474 -2.636,1.041 -3.322,1.748 -1.223,1.264 -3.226,2.617 -4.907,3.316 -0.68,0.283 -1.449,0.925 -1.708,1.427 -0.648,1.253 -1.526,1.989 -2.964,2.487 -0.926,0.321 -1.398,0.779 -1.97,1.913 -0.507,1.006 -1.189,1.73 -2.098,2.227 -0.991,0.541 -1.541,1.164 -2.078,2.353 -0.414,0.917 -1.308,2.081 -2.063,2.688 -0.875,0.703 -1.78,1.963 -2.64,3.673 -0.77,1.532 -1.721,2.896 -2.309,3.315 -0.65,0.463 -1.129,1.199 -1.372,2.106 -0.808,3.015 -1.459,4.4 -2.708,5.754 -1.256,1.362 -1.322,1.552 -1.91,5.496 -0.782,5.245 -1.117,6.715 -2.412,10.559 -1.605,4.765 -1.615,14.728 -0.018,19.585 1.288,3.92 1.976,6.936 2.459,10.788 0.401,3.192 0.794,4.259 1.959,5.312 0.961,0.869 1.877,2.694 2.172,4.33 0.324,1.787 0.698,2.47 1.994,3.636 0.609,0.548 1.65,2.042 2.313,3.32 0.694,1.336 1.839,2.888 2.693,3.651 0.846,0.756 1.669,1.867 1.909,2.579 0.325,0.964 0.76,1.422 1.89,1.992 1.064,0.537 1.671,1.144 2.208,2.208 0.557,1.105 1.037,1.57 1.94,1.881 1.348,0.463 2.688,1.593 2.98,2.514 0.107,0.339 1.265,1.135 2.594,1.783 1.319,0.643 3.086,1.828 3.925,2.632 0.992,0.95 2.032,1.59 2.972,1.829 2.201,0.558 3.818,1.335 4.664,2.241 1.194,1.278 2.376,1.744 5.332,2.104 3.529,0.429 7.534,1.455 9.49,2.432 3.581,1.788 19.453,1.99 22.771,0.289 1.854,-0.95 5.457,-2.022 8.044,-2.394 5.226,-0.75 5.893,-0.961 7.353,-2.323 1.259,-1.173 2.891,-1.915 5.477,-2.489 0.516,-0.114 1.487,-0.792 2.158,-1.506 0.67,-0.713 2.37,-1.912 3.776,-2.663 1.435,-0.766 2.646,-1.648 2.761,-2.009 0.26,-0.82 2.04,-2.182 3.242,-2.482 0.57,-0.142 1.125,-0.629 1.449,-1.271 0.744,-1.473 1.776,-2.522 2.976,-3.025 0.678,-0.284 1.114,-0.752 1.266,-1.361 0.327,-1.302 1.404,-2.719 2.496,-3.284 0.637,-0.329 1.296,-1.258 2.112,-2.976 0.702,-1.48 1.779,-3.074 2.643,-3.914 1.118,-1.086 1.512,-1.754 1.688,-2.859 0.292,-1.824 1.313,-3.85 2.746,-5.447 0.615,-0.686 1.121,-1.433 1.124,-1.66 0.041,-2.738 1.321,-9.062 2.771,-13.692 1.596,-5.092 1.583,-14.91 -0.026,-19.917 -1.218,-3.791 -1.857,-6.692 -2.407,-10.931 -0.409,-3.155 -0.743,-4.076 -1.73,-4.777 -0.769,-0.545 -2.108,-3.16 -2.411,-4.707 -0.393,-2.008 -0.914,-3.004 -1.815,-3.47 -0.534,-0.276 -1.32,-1.331 -2.028,-2.72 -0.636,-1.248 -2.019,-3.205 -3.073,-4.348 -1.071,-1.16 -2.005,-2.512 -2.115,-3.062 -0.148,-0.745 -0.541,-1.152 -1.61,-1.669 -1.02,-0.494 -1.633,-1.103 -2.201,-2.19 -0.62,-1.184 -1.127,-1.652 -2.382,-2.196 -1.095,-0.474 -1.906,-1.144 -2.589,-2.136 -0.547,-0.795 -1.174,-1.446 -1.393,-1.446 -0.668,0 -4.414,-2.441 -5.452,-3.552 -0.647,-0.693 -1.634,-1.232 -2.94,-1.605 -1.776,-0.508 -4.113,-1.863 -4.402,-2.554 -0.278,-0.662 -2.387,-1.347 -5.488,-1.782 -3.846,-0.538 -4.79,-0.811 -8.009,-2.311 -3.448,-1.607 -10.629,-2.114 -19.917,-1.407 M 69.735,82.459 c -0.287,0.345 -0.406,6.663 -0.456,24.164 -0.063,22.329 -0.102,23.75 -0.674,24.623 -1.245,1.899 -0.781,1.866 -26.204,1.866 -17.716,0 -23.443,0.096 -23.745,0.398 -0.601,0.601 -0.571,30.249 0.03,30.748 0.294,0.244 7.896,0.388 24.165,0.456 22.335,0.093 23.79,0.135 24.661,0.706 1.87,1.226 1.837,0.755 1.822,26.281 -0.011,19.246 0.067,23.545 0.43,23.775 0.738,0.468 30.278,0.365 30.751,-0.107 0.302,-0.302 0.398,-6.066 0.398,-23.911 0,-26.388 -0.095,-25.307 2.292,-26.261 1.232,-0.493 3.769,-0.55 24.702,-0.55 17.703,0 23.426,-0.096 23.728,-0.398 0.573,-0.573 0.573,-30.165 0,-30.739 -0.302,-0.302 -6.066,-0.398 -23.911,-0.398 -19.893,0 -23.692,-0.075 -24.676,-0.486 -2.197,-0.918 -2.135,-0.161 -2.135,-26.325 0,-17.845 -0.096,-23.609 -0.398,-23.911 -0.634,-0.633 -30.252,-0.567 -30.78,0.069 m 177.236,119.377 c -2.1,0.164 -4.49,0.453 -5.311,0.642 -4.422,1.02 -14.652,2.388 -21.079,2.819 -7.646,0.513 -9.524,0.84 -10.622,1.85 -1.288,1.182 -3.465,1.739 -9.614,2.459 -2.801,0.328 -4.636,0.716 -5.439,1.151 -3.321,1.797 -4.724,2.347 -6.856,2.685 -4.314,0.683 -6.956,1.415 -7.408,2.051 -0.691,0.973 -2.761,1.869 -5.243,2.27 -3.663,0.592 -5.69,1.286 -6.848,2.345 -0.595,0.544 -1.829,1.208 -2.742,1.475 -0.913,0.268 -2.635,0.772 -3.828,1.12 -1.585,0.463 -2.523,0.984 -3.486,1.936 -1.121,1.109 -1.775,1.42 -4.397,2.09 -2.625,0.67 -3.201,0.944 -3.893,1.852 -0.569,0.746 -1.535,1.34 -3.227,1.985 -1.778,0.678 -2.912,1.395 -4.304,2.721 -1.039,0.989 -2.446,1.99 -3.127,2.224 -0.793,0.273 -1.548,0.886 -2.104,1.71 -0.513,0.76 -1.535,1.625 -2.5,2.115 -1.165,0.593 -1.826,1.209 -2.315,2.158 -0.418,0.813 -1.167,1.585 -1.932,1.991 -1.032,0.549 -1.347,0.977 -1.819,2.468 -0.37,1.166 -1.113,2.397 -2.104,3.485 -1.66,1.823 -2.624,3.448 -2.624,4.425 0,1.297 -1.383,5.818 -2.337,7.639 -1.4,2.672 -1.621,5.874 -1.635,23.675 -0.01,13.927 0.025,14.836 0.596,15.352 0.994,0.9 268.237,0.842 269.051,-0.057 0.495,-0.547 0.549,-2.171 0.549,-16.408 0,-17.822 -0.16,-19.835 -1.855,-23.313 -0.624,-1.28 -1.362,-3.448 -1.64,-4.817 -0.682,-3.362 -1.046,-4.175 -2.706,-6.043 -1.6,-1.802 -2.243,-2.922 -2.583,-4.504 -0.177,-0.823 -0.552,-1.249 -1.543,-1.754 -0.942,-0.481 -1.514,-1.102 -2.047,-2.224 -0.612,-1.289 -0.992,-1.65 -2.208,-2.099 -1.499,-0.554 -3.011,-1.96 -3.011,-2.801 0,-0.259 -0.614,-0.65 -1.384,-0.88 -0.83,-0.249 -2.144,-1.119 -3.283,-2.174 -1.16,-1.073 -2.875,-2.203 -4.401,-2.899 -1.54,-0.701 -2.786,-1.524 -3.241,-2.14 -0.42,-0.567 -1.184,-1.096 -1.767,-1.222 -3.327,-0.717 -5.395,-1.598 -6.505,-2.768 -0.992,-1.046 -1.669,-1.365 -4.628,-2.179 -2.695,-0.741 -3.741,-1.201 -4.705,-2.072 -1.392,-1.258 -2.122,-1.516 -6.341,-2.245 -3.184,-0.549 -4.571,-1.106 -5.938,-2.383 -0.644,-0.601 -1.709,-0.974 -4.15,-1.451 -6.064,-1.185 -6.598,-1.33 -7.931,-2.147 -2.512,-1.541 -3.492,-1.833 -7.881,-2.343 -6.212,-0.722 -8.126,-1.254 -10.128,-2.814 -0.931,-0.725 -4.401,-1.206 -12.032,-1.667 -3.195,-0.194 -7.527,-0.65 -9.627,-1.014 -3.546,-0.616 -7.253,-1.219 -12.116,-1.971 -2.946,-0.455 -15.362,-0.646 -19.751,-0.304"
         stroke="none"
         fill="#252525"
         fill-rule="evenodd" />
      <path
         id="path1"
         d="m 248.382,30.117 c 0.684,0.072 1.805,0.072 2.489,0 0.685,-0.071 0.125,-0.13 -1.244,-0.13 -1.37,0 -1.93,0.059 -1.245,0.13 m 11.286,0 c 0.685,0.072 1.805,0.072 2.49,0 0.684,-0.071 0.124,-0.13 -1.245,-0.13 -1.369,0 -1.93,0.059 -1.245,0.13 m -15.436,0.325 c 0.411,0.079 1.083,0.079 1.494,0 0.411,-0.079 0.075,-0.144 -0.747,-0.144 -0.821,0 -1.157,0.065 -0.747,0.144 m 20.752,0.004 c 0.504,0.076 1.251,0.074 1.66,-0.005 0.408,-0.079 -0.005,-0.141 -0.918,-0.139 -0.913,0.003 -1.247,0.067 -0.742,0.144 m -24.32,0.404 c -0.457,0.139 -1.494,0.592 -2.306,1.007 -0.811,0.415 -2.006,0.962 -2.655,1.217 -1.078,0.423 -1.094,0.447 -0.184,0.279 0.547,-0.101 1.742,-0.576 2.655,-1.055 0.913,-0.479 2.482,-1.059 3.486,-1.287 1.215,-0.277 1.493,-0.416 0.83,-0.415 -0.548,0 -1.37,0.114 -1.826,0.254 m 28.382,0.142 c 0.913,0.249 2.63,0.912 3.817,1.474 1.187,0.561 2.755,1.106 3.486,1.21 1.031,0.146 0.883,0.053 -0.664,-0.419 -1.096,-0.334 -2.764,-1.003 -3.707,-1.488 -0.944,-0.485 -2.363,-0.959 -3.154,-1.055 l -1.438,-0.174 1.66,0.452 M 228.89,34.72 c -0.725,0.265 -1.696,0.837 -2.158,1.271 -0.462,0.433 -1.363,1.101 -2.002,1.484 -0.639,0.383 -1.04,0.697 -0.891,0.698 0.519,0.002 1.728,-0.748 2.729,-1.694 0.554,-0.524 1.823,-1.242 2.821,-1.596 0.998,-0.354 1.59,-0.644 1.316,-0.644 -0.273,-10e-4 -1.091,0.216 -1.815,0.481 m 53.434,0.532 c 0.365,0.208 1.245,0.871 1.957,1.474 0.711,0.603 1.831,1.271 2.489,1.483 1.947,0.629 3.771,1.64 5.077,2.812 0.674,0.604 1.72,1.334 2.324,1.621 0.604,0.286 0.816,0.332 0.471,0.101 -0.345,-0.231 -1.315,-1.003 -2.155,-1.716 -1.471,-1.249 -5.074,-3.184 -5.93,-3.184 -0.228,-0.001 -0.975,-0.502 -1.66,-1.115 -1.254,-1.121 -2.465,-1.882 -2.966,-1.863 -0.149,0.005 0.028,0.18 0.393,0.387 m -61.411,3.804 c -0.548,0.288 -1.444,0.939 -1.992,1.448 -0.548,0.508 -1.743,1.388 -2.655,1.955 -0.913,0.567 -2.514,1.814 -3.558,2.771 -3.273,3.001 -8.227,7.863 -8.227,8.073 0,0.111 1.284,-1.105 2.853,-2.703 1.569,-1.597 3.399,-3.271 4.066,-3.72 0.668,-0.449 1.639,-1.326 2.159,-1.949 0.52,-0.623 1.535,-1.434 2.256,-1.801 0.721,-0.368 1.875,-1.179 2.565,-1.803 0.691,-0.624 1.916,-1.512 2.724,-1.973 1.592,-0.91 1.436,-1.153 -0.191,-0.298 m 76.462,6.089 c 1.082,1.096 2.053,1.992 2.159,1.992 0.106,0 -0.693,-0.896 -1.775,-1.992 -1.082,-1.095 -2.053,-1.991 -2.159,-1.991 -0.106,0 0.693,0.896 1.775,1.991 m 3.538,2.998 c 0.548,0.607 1.834,1.935 2.858,2.953 1.025,1.017 2.193,2.408 2.596,3.089 0.404,0.681 1.159,1.542 1.68,1.912 0.52,0.371 1.479,1.627 2.13,2.792 0.651,1.164 1.685,2.716 2.296,3.448 0.612,0.732 1.306,1.799 1.543,2.371 0.236,0.572 0.496,0.974 0.576,0.894 0.23,-0.231 -0.896,-2.24 -2.07,-3.693 -0.59,-0.731 -1.559,-2.197 -2.153,-3.26 -0.595,-1.062 -1.517,-2.254 -2.05,-2.648 -0.533,-0.395 -1.394,-1.407 -1.913,-2.251 -0.52,-0.844 -1.604,-2.075 -2.41,-2.735 -0.806,-0.661 -1.668,-1.578 -1.914,-2.04 -0.247,-0.461 -0.835,-1.084 -1.307,-1.386 -0.815,-0.52 -0.809,-0.493 0.138,0.554 m -98.13,7.263 c -0.844,0.856 -2.121,2.52 -2.839,3.698 -0.718,1.177 -1.858,2.862 -2.533,3.743 -0.676,0.881 -1.228,1.777 -1.227,1.992 0,0.214 0.314,-0.134 0.698,-0.773 0.383,-0.639 1.043,-1.535 1.468,-1.991 0.424,-0.457 1.318,-1.801 1.985,-2.988 0.668,-1.187 1.725,-2.58 2.35,-3.096 0.625,-0.517 1.291,-1.226 1.478,-1.577 0.458,-0.856 0.39,-0.807 -1.38,0.992 m -7.442,11.706 c -0.131,0.424 -0.743,1.465 -1.36,2.313 -1.157,1.589 -2.126,3.593 -2.098,4.34 0.008,0.234 0.292,-0.281 0.629,-1.145 0.338,-0.864 1.026,-2.059 1.529,-2.656 0.951,-1.128 1.963,-3.2 1.693,-3.469 -0.085,-0.085 -0.262,0.192 -0.393,0.617 m 119.694,0.17 c -0.008,0.217 0.651,1.365 1.464,2.553 0.813,1.187 1.698,2.877 1.968,3.755 0.27,0.878 0.501,1.354 0.514,1.058 0.041,-0.954 -0.959,-3.365 -1.892,-4.562 -0.499,-0.639 -1.162,-1.62 -1.473,-2.18 -0.312,-0.56 -0.574,-0.841 -0.581,-0.624 m 4.641,11.999 c -0.004,0.243 0.422,1.515 0.947,2.826 0.95,2.373 1.607,4.972 1.816,7.188 0.077,0.805 0.121,0.653 0.144,-0.498 0.019,-0.913 -0.237,-2.631 -0.57,-3.818 -0.657,-2.348 -2.324,-6.413 -2.337,-5.698 m -129.74,1.991 c -1.009,2.471 -1.718,4.998 -1.69,6.031 0.012,0.456 0.218,-0.069 0.458,-1.168 0.239,-1.099 0.832,-2.943 1.318,-4.098 0.486,-1.154 0.839,-2.222 0.784,-2.373 -0.055,-0.15 -0.447,0.573 -0.87,1.608 M 75.353,80.903 c 14.036,0.232 25.151,0.236 25.011,0.01 -0.085,-0.137 -6.979,-0.216 -15.321,-0.175 -8.342,0.041 -12.703,0.115 -9.69,0.165 m 26.713,25.487 c 0,12.963 0.041,18.314 0.092,11.892 0.05,-6.423 0.05,-17.028 0,-23.569 -0.051,-6.54 -0.092,-1.286 -0.092,11.677 m 85.917,-16.431 c 0,1.004 0.063,1.414 0.139,0.912 0.076,-0.502 0.076,-1.323 0,-1.825 -0.076,-0.502 -0.139,-0.092 -0.139,0.913 m 134.775,2.821 c 0.002,1.096 0.064,1.504 0.138,0.907 0.074,-0.597 0.073,-1.493 -0.003,-1.992 -0.076,-0.499 -0.136,-0.01 -0.135,1.085 m -135.069,5.311 c 0,3.287 0.05,4.586 0.11,2.888 0.061,-1.698 0.06,-4.387 0,-5.975 -0.061,-1.588 -0.11,-0.199 -0.11,3.087 m 135.073,5.146 c 0,1.186 0.06,1.672 0.134,1.078 0.073,-0.593 0.073,-1.564 0,-2.157 -0.074,-0.594 -0.134,-0.108 -0.134,1.079 m -134.775,3.153 c 0.002,1.095 0.064,1.504 0.137,0.907 0.074,-0.597 0.073,-1.493 -0.003,-1.992 -0.076,-0.499 -0.136,-0.01 -0.134,1.085 m 134.432,0.996 c 0.002,0.913 0.067,1.247 0.143,0.742 0.076,-0.504 0.074,-1.251 -0.005,-1.66 -0.078,-0.408 -0.141,0.005 -0.138,0.918 m -134.17,1.56 c -0.052,0.879 0.672,4.038 1.026,4.479 0.175,0.218 0.599,1.114 0.942,1.992 0.343,0.877 0.629,1.371 0.636,1.098 0.006,-0.274 -0.371,-1.32 -0.84,-2.324 -0.468,-1.004 -1.049,-2.722 -1.291,-3.818 -0.242,-1.095 -0.455,-1.737 -0.473,-1.427 m 133.602,1.704 c -0.118,0.791 -0.499,1.967 -0.846,2.615 -0.782,1.458 -1.768,4.78 -1.582,5.331 0.075,0.224 0.249,-0.189 0.385,-0.92 0.136,-0.73 0.677,-2.31 1.203,-3.511 0.891,-2.038 1.613,-4.953 1.227,-4.953 -0.094,0 -0.268,0.647 -0.387,1.438 M 191.89,122.49 c -0.004,0.273 0.284,1.095 0.642,1.825 0.772,1.579 2.987,4.701 2.987,4.211 0,-0.188 -0.551,-1.063 -1.225,-1.945 -0.673,-0.881 -1.488,-2.274 -1.81,-3.096 -0.322,-0.821 -0.589,-1.269 -0.594,-0.995 m 125.619,2.431 c -1.073,1.426 -2.486,3.724 -2.475,4.024 0.007,0.192 0.253,-0.099 0.546,-0.646 0.292,-0.548 0.958,-1.487 1.48,-2.086 0.522,-0.6 0.948,-1.235 0.948,-1.411 0,-0.43 -0.106,-0.404 -0.499,0.119 m -249.738,3.747 c -0.039,1 -0.298,1.614 -0.966,2.29 -0.678,0.686 -0.739,0.833 -0.236,0.569 0.98,-0.514 1.552,-1.782 1.393,-3.088 -0.132,-1.09 -0.14,-1.081 -0.191,0.229 m 246.423,2.443 c -0.123,0.388 -0.941,1.641 -1.818,2.785 -0.876,1.143 -1.901,2.681 -2.276,3.418 -0.376,0.736 -1.2,1.792 -1.831,2.346 -0.631,0.554 -1.422,1.436 -1.757,1.96 -0.336,0.524 0.266,0.016 1.337,-1.13 1.07,-1.145 2.46,-2.937 3.087,-3.983 0.628,-1.046 1.488,-2.275 1.911,-2.731 0.879,-0.948 1.97,-2.97 1.731,-3.209 -0.088,-0.089 -0.261,0.157 -0.384,0.544 m -118.011,0.213 c 0,0.199 0.449,0.944 0.999,1.656 0.55,0.711 1.596,2.176 2.324,3.254 0.728,1.078 1.324,1.823 1.324,1.656 0,-0.167 -0.486,-1.004 -1.079,-1.858 -2.76,-3.976 -3.568,-5.042 -3.568,-4.708 m -165.868,0.709 c 6.358,0.051 16.665,0.051 22.904,0 6.24,-0.05 1.038,-0.092 -11.559,-0.092 -12.598,0 -17.703,0.042 -11.345,0.092 m 82.216,-0.006 c 22.003,0.229 39.093,0.232 38.953,0.006 -0.085,-0.137 -10.788,-0.214 -23.786,-0.172 -12.997,0.043 -19.822,0.117 -15.167,0.166 m -95.522,16.878 -0.08,15.295 0.913,0.804 0.913,0.805 -0.743,-0.848 -0.744,-0.847 -0.09,-15.252 -0.089,-15.252 -0.08,15.295 m 136.02,0.207 c -0.091,8.344 -0.052,15.057 0.086,14.918 0.139,-0.139 0.214,-6.966 0.166,-15.17 l -0.086,-14.918 -0.166,15.17 m 49.378,-9.061 c 0.958,0.944 1.742,1.867 1.742,2.052 0,0.739 10.216,10.224 11.951,11.096 0.639,0.322 1.715,1.08 2.391,1.687 1.172,1.05 3.593,2.475 4.151,2.444 0.145,-0.008 -0.335,-0.33 -1.065,-0.715 -0.731,-0.384 -2,-1.258 -2.822,-1.941 -0.821,-0.683 -2.122,-1.556 -2.89,-1.94 -0.767,-0.385 -1.813,-1.229 -2.323,-1.878 -0.51,-0.648 -1.451,-1.503 -2.09,-1.901 -1.52,-0.945 -6.289,-5.724 -7.214,-7.228 -0.398,-0.648 -1.365,-1.676 -2.149,-2.285 -1.334,-1.036 -1.314,-0.997 0.318,0.609 m 100.364,5.592 c -4.93,4.705 -7.106,6.608 -8.179,7.152 -0.556,0.281 -1.751,1.126 -2.656,1.876 -0.905,0.751 -2.203,1.612 -2.884,1.914 -0.682,0.303 -1.174,0.616 -1.094,0.696 0.25,0.25 2.948,-1.277 3.992,-2.259 0.548,-0.515 1.818,-1.416 2.822,-2.002 1.004,-0.586 2.318,-1.639 2.919,-2.341 0.602,-0.702 1.682,-1.606 2.401,-2.01 0.719,-0.404 1.664,-1.274 2.1,-1.932 0.436,-0.659 1.316,-1.557 1.955,-1.995 0.995,-0.682 2.177,-2.003 1.792,-2.003 -0.068,0 -1.494,1.307 -3.168,2.904 m -16.796,12.162 c -0.548,0.24 -1.444,0.81 -1.992,1.267 -0.547,0.457 -1.444,1.071 -1.991,1.364 -0.548,0.293 -0.839,0.539 -0.646,0.547 0.192,0.007 1.07,-0.473 1.95,-1.066 0.88,-0.593 2.217,-1.409 2.97,-1.812 1.494,-0.8 1.304,-0.996 -0.291,-0.3 m -60.426,0.95 c 0.887,0.594 1.999,1.34 2.472,1.658 0.472,0.319 1.008,0.574 1.191,0.568 0.182,-0.007 -0.117,-0.248 -0.664,-0.536 -0.548,-0.288 -1.37,-0.861 -1.826,-1.274 -0.85,-0.768 -2.082,-1.495 -2.533,-1.495 -0.139,0 0.473,0.486 1.36,1.079 m 48.476,3.702 c -0.73,0.232 -1.96,0.746 -2.734,1.144 -0.773,0.397 -1.968,0.868 -2.655,1.045 l -1.25,0.322 1.438,-0.169 c 0.791,-0.092 2.21,-0.561 3.154,-1.042 0.943,-0.48 2.387,-1.061 3.209,-1.29 0.821,-0.229 1.195,-0.419 0.83,-0.423 -0.366,-0.005 -1.262,0.182 -1.992,0.413 m -37.226,0.383 c 0.704,0.258 1.757,0.764 2.339,1.124 0.582,0.359 1.724,0.734 2.537,0.833 l 1.479,0.179 -1.494,-0.456 c -0.822,-0.251 -2.316,-0.846 -3.32,-1.323 -1.004,-0.477 -2.05,-0.858 -2.323,-0.847 -0.274,0.011 0.078,0.232 0.782,0.49 m -84.716,2.222 c -0.321,0.321 -5.804,0.454 -24.216,0.586 l -23.801,0.17 23.615,0.078 c 23.055,0.077 23.633,0.064 24.398,-0.574 0.431,-0.359 0.702,-0.658 0.601,-0.664 -0.1,-0.006 -0.369,0.176 -0.597,0.404 m 91.821,0.152 c 0.413,0.079 1.011,0.076 1.328,-0.007 0.317,-0.083 -0.02,-0.148 -0.751,-0.144 -0.73,0.004 -0.99,0.072 -0.577,0.151 m 21.577,0 c 0.413,0.079 1.01,0.076 1.328,-0.007 0.317,-0.083 -0.021,-0.148 -0.751,-0.144 -0.73,0.004 -0.99,0.072 -0.577,0.151 m -18.261,0.337 c 0.593,0.074 1.564,0.074 2.158,0 0.593,-0.073 0.107,-0.134 -1.079,-0.134 -1.187,0 -1.672,0.061 -1.079,0.134 m 13.942,0 c 0.593,0.074 1.564,0.074 2.158,0 0.593,-0.073 0.107,-0.134 -1.079,-0.134 -1.187,0 -1.673,0.061 -1.079,0.134 m -231.013,0.341 c 6.266,0.051 16.424,0.051 22.572,0 6.149,-0.051 1.022,-0.092 -11.393,-0.092 -12.415,0 -17.446,0.041 -11.179,0.092 m 223.556,-0.003 c 1.057,0.066 2.7,0.065 3.652,-0.002 0.951,-0.066 0.087,-0.12 -1.921,-0.12 -2.009,0.001 -2.787,0.056 -1.731,0.122 m -151.419,1.526 c -0.424,0.51 -0.717,48.065 -0.294,47.803 0.137,-0.084 0.249,-10.795 0.249,-23.802 0,-17.951 0.096,-23.744 0.398,-24.047 0.219,-0.219 0.312,-0.398 0.207,-0.398 -0.106,0 -0.358,0.2 -0.56,0.444 m 150.411,32.998 c 1.598,0.061 4.212,0.061 5.809,0 1.598,-0.061 0.291,-0.111 -2.904,-0.111 -3.195,0 -4.502,0.05 -2.905,0.111 m -9.295,0.329 c 0.868,0.068 2.287,0.068 3.154,0 0.867,-0.068 0.158,-0.124 -1.577,-0.124 -1.734,0 -2.444,0.056 -1.577,0.124 m 20.913,0 c 0.868,0.068 2.287,0.068 3.154,0 0.867,-0.068 0.158,-0.124 -1.577,-0.124 -1.734,0 -2.444,0.056 -1.577,0.124 m -30.456,0.466 c -1.278,0.162 -3.016,0.523 -3.862,0.802 -0.846,0.279 -2.938,0.798 -4.647,1.154 -2.544,0.529 -2.748,0.61 -1.122,0.45 1.093,-0.108 3.11,-0.495 4.481,-0.861 3.721,-0.991 5.442,-1.288 9.119,-1.571 3.204,-0.248 3.237,-0.258 0.844,-0.263 -1.369,-0.003 -3.535,0.127 -4.813,0.289 m 39.502,-0.007 c 2.191,0.152 4.805,0.507 5.809,0.791 3.077,0.867 7.746,1.818 8.797,1.791 0.548,-0.014 -0.199,-0.241 -1.66,-0.504 -1.461,-0.264 -3.627,-0.764 -4.813,-1.112 -2.82,-0.827 -6.761,-1.349 -9.734,-1.289 -1.979,0.039 -1.707,0.094 1.601,0.323 m -53.357,2.851 c 0.413,0.08 1.01,0.077 1.328,-0.006 0.317,-0.084 -0.021,-0.149 -0.751,-0.145 -0.73,0.004 -0.99,0.072 -0.577,0.151 m 69.706,0 c 0.41,0.079 1.083,0.079 1.493,0 0.411,-0.079 0.075,-0.144 -0.747,-0.144 -0.821,0 -1.157,0.065 -0.746,0.144 m -73.361,0.332 c 0.41,0.079 1.083,0.079 1.493,0 0.411,-0.079 0.075,-0.144 -0.747,-0.144 -0.821,0 -1.157,0.065 -0.746,0.144 m 76.851,0.004 c 0.504,0.076 1.251,0.074 1.659,-0.005 0.409,-0.079 -0.004,-0.141 -0.917,-0.139 -0.913,0.003 -1.247,0.067 -0.742,0.144 m -80.337,0.322 c 0.32,0.084 0.842,0.084 1.162,0 0.319,-0.083 0.058,-0.152 -0.581,-0.152 -0.639,0 -0.9,0.069 -0.581,0.152 m 83.983,0 c 0.32,0.084 0.843,0.084 1.162,0 0.32,-0.083 0.058,-0.152 -0.581,-0.152 -0.639,0 -0.9,0.069 -0.581,0.152 m 4.233,0.745 c 1.187,0.333 3.054,0.993 4.149,1.467 1.096,0.475 2.216,0.863 2.49,0.863 0.623,0 -2.836,-1.491 -5.424,-2.337 -1.066,-0.349 -2.261,-0.626 -2.656,-0.616 -0.394,0.011 0.254,0.291 1.441,0.623 m -93.112,0.243 c -0.73,0.287 -2.523,0.95 -3.984,1.472 -1.46,0.522 -2.356,0.947 -1.991,0.945 0.365,-0.002 1.41,-0.282 2.323,-0.623 3.987,-1.487 5.94,-2.312 5.478,-2.315 -0.274,-0.001 -1.096,0.233 -1.826,0.521 m -17.992,5.007 c -1.496,0.673 -2.665,1.279 -2.597,1.348 0.068,0.068 1.292,-0.396 2.721,-1.031 1.429,-0.635 2.822,-1.234 3.096,-1.331 0.443,-0.158 0.443,-0.18 0,-0.194 -0.274,-0.008 -1.723,0.535 -3.22,1.208 m 128.033,-1.017 c 0.274,0.097 1.768,0.747 3.32,1.445 1.552,0.698 3.419,1.355 4.149,1.461 1.04,0.15 0.896,0.058 -0.664,-0.426 -1.095,-0.34 -2.962,-1.088 -4.149,-1.662 -1.187,-0.575 -2.382,-1.033 -2.656,-1.019 -0.442,0.023 -0.442,0.045 0,0.201 m -132.78,2.76 c -0.667,0.214 -0.699,0.268 -0.166,0.276 0.365,0.005 0.963,-0.119 1.328,-0.276 0.846,-0.363 -0.027,-0.363 -1.162,0 m -5.975,1.607 c -0.639,0.322 -1.583,0.863 -2.097,1.202 -0.515,0.339 -1.86,0.893 -2.988,1.23 -1.556,0.466 -1.731,0.57 -0.724,0.434 1.272,-0.172 8.398,-3.491 7.437,-3.464 -0.256,0.007 -0.989,0.277 -1.628,0.598 m 153.527,0.883 c 1.974,1.143 4.784,2.179 5.786,2.134 0.287,-0.013 -0.375,-0.285 -1.471,-0.603 -1.095,-0.319 -2.825,-1.055 -3.844,-1.637 -1.019,-0.581 -1.99,-1.054 -2.158,-1.052 -0.167,0.002 0.592,0.523 1.687,1.158 m -247.635,1.825 -15.269,0.177 15.167,0.077 c 9.838,0.051 15.239,-0.038 15.372,-0.254 0.113,-0.182 0.159,-0.296 0.103,-0.254 -0.057,0.043 -6.974,0.158 -15.373,0.254 m 83.917,0.951 c -0.949,0.328 -2.294,0.984 -2.987,1.458 -0.694,0.473 -1.785,1.095 -2.424,1.381 -0.735,0.329 -0.857,0.449 -0.331,0.328 0.456,-0.106 1.723,-0.732 2.815,-1.393 1.093,-0.66 2.885,-1.458 3.984,-1.773 1.098,-0.315 1.698,-0.578 1.333,-0.585 -0.365,-0.007 -1.44,0.256 -2.39,0.584 m 172.096,0.021 c 1.138,0.326 2.657,0.999 3.374,1.496 1.424,0.986 4.882,2.502 5.675,2.487 0.274,-0.006 -0.419,-0.351 -1.541,-0.768 -1.122,-0.417 -2.759,-1.234 -3.637,-1.816 -1.541,-1.021 -4.347,-2.064 -5.421,-2.015 -0.287,0.013 0.411,0.29 1.55,0.616 m -181.738,4.17 c -0.593,0.258 -1.651,0.929 -2.351,1.492 -0.701,0.563 -2.008,1.31 -2.906,1.661 -0.897,0.35 -1.408,0.641 -1.134,0.645 0.819,0.014 3.424,-1.285 4.346,-2.166 0.474,-0.453 1.594,-1.109 2.49,-1.459 0.896,-0.35 1.405,-0.637 1.131,-0.639 -0.274,-0.001 -0.983,0.209 -1.576,0.466 m 193.443,1.122 c 1.263,1.11 3.914,2.547 4.189,2.272 0.094,-0.094 -0.344,-0.34 -0.973,-0.548 -0.629,-0.208 -1.423,-0.686 -1.764,-1.063 -0.341,-0.377 -1.069,-0.909 -1.617,-1.183 -0.983,-0.491 -0.981,-0.484 0.165,0.522 m -203.319,3.75 c -0.366,0.201 -1.038,0.711 -1.494,1.133 -0.457,0.422 -1.95,1.285 -3.32,1.918 -1.538,0.712 -2.963,1.666 -3.73,2.499 -0.682,0.741 -1.831,1.649 -2.553,2.018 -0.722,0.368 -1.72,1.203 -2.217,1.854 -0.496,0.652 -1.364,1.414 -1.927,1.695 -1.483,0.739 -5.767,5.322 -6.713,7.18 -0.444,0.874 -1.307,2.144 -1.916,2.822 -1.073,1.194 -3.184,4.99 -3.184,5.725 0,0.199 -0.391,1.187 -0.868,2.196 -0.938,1.983 -1.792,4.86 -1.76,5.926 0.012,0.365 0.288,-0.382 0.613,-1.66 0.326,-1.278 0.986,-3.145 1.466,-4.149 0.481,-1.005 0.876,-2.017 0.877,-2.251 0.006,-0.792 2.075,-4.548 3.185,-5.784 0.608,-0.677 1.43,-1.866 1.826,-2.644 0.991,-1.942 4.851,-6.164 6.343,-6.937 0.674,-0.35 1.619,-1.152 2.101,-1.784 0.482,-0.631 1.679,-1.602 2.661,-2.156 0.982,-0.554 2.127,-1.469 2.544,-2.033 0.475,-0.643 1.872,-1.571 3.748,-2.49 1.644,-0.805 3.507,-1.914 4.139,-2.465 1.217,-1.059 1.261,-1.211 0.179,-0.613 m 211.95,0.544 c 0.639,0.572 2.431,1.706 3.983,2.52 1.552,0.814 3.345,2.026 3.984,2.693 0.639,0.668 1.46,1.376 1.825,1.574 0.365,0.198 -0.157,-0.415 -1.162,-1.363 -1.004,-0.948 -2.871,-2.259 -4.149,-2.913 -1.278,-0.654 -2.622,-1.453 -2.987,-1.774 -0.366,-0.321 -1.112,-0.853 -1.66,-1.181 -0.936,-0.561 -0.926,-0.534 0.166,0.444 m 12.417,8.719 c 0.679,0.835 1.71,1.787 2.292,2.117 1.078,0.61 4.858,4.32 5.937,5.826 0.327,0.457 0.595,0.653 0.596,0.436 0.002,-0.216 -0.894,-1.321 -1.989,-2.454 -1.096,-1.134 -1.992,-2.177 -1.992,-2.318 0,-0.141 -0.56,-0.59 -1.245,-0.998 -0.684,-0.408 -2.052,-1.503 -3.039,-2.434 l -1.795,-1.692 1.235,1.517 m 8.838,9.114 c -0.014,0.46 0.85,1.704 2.298,3.311 0.659,0.73 1.4,1.818 1.647,2.417 0.247,0.599 0.514,1.024 0.594,0.945 0.277,-0.277 -1.287,-2.942 -2.53,-4.308 -0.69,-0.758 -1.421,-1.677 -1.626,-2.042 -0.205,-0.365 -0.378,-0.51 -0.383,-0.323 m 4.659,7.159 c -0.04,0.355 1.22,3.82 1.791,4.924 0.307,0.594 0.834,2.299 1.17,3.789 0.337,1.489 0.623,2.41 0.635,2.045 0.043,-1.219 -0.958,-4.955 -1.911,-7.137 -0.519,-1.187 -1.105,-2.532 -1.303,-2.988 -0.197,-0.456 -0.369,-0.741 -0.382,-0.633 m 3.713,13.081 c 0.004,0.73 0.072,0.99 0.151,0.577 0.08,-0.413 0.077,-1.01 -0.007,-1.328 -0.083,-0.317 -0.148,0.021 -0.144,0.751 m -271.851,1.494 c 0,1.004 0.062,1.415 0.138,0.913 0.076,-0.502 0.076,-1.324 0,-1.826 -0.076,-0.502 -0.138,-0.091 -0.138,0.913 m 272.253,17.427 c 0,8.764 0.043,12.301 0.095,7.861 0.052,-4.44 0.052,-11.61 0,-15.933 -0.052,-4.324 -0.095,-0.691 -0.095,8.072 M 119.17,300.367 c 0,0.176 0.46,0.708 1.021,1.18 l 1.022,0.86 134.165,-0.083 134.166,-0.082 -134.386,-0.166 -134.386,-0.167 -0.801,-0.932 c -0.44,-0.512 -0.801,-0.787 -0.801,-0.61"
         stroke="none"
         fill="#8c8c8c"
         fill-rule="evenodd" />
      <path
         id="path2"
         d="m 248.367,30.225 c -5.273,0.354 -7.83,0.862 -9.904,1.969 -0.989,0.528 -2.952,1.205 -4.362,1.505 -4.222,0.898 -6.535,1.762 -7.546,2.817 -0.515,0.538 -1.969,1.372 -3.231,1.854 -1.262,0.482 -2.918,1.384 -3.68,2.004 -0.763,0.62 -2.047,1.536 -2.853,2.036 -0.807,0.5 -2.36,1.768 -3.452,2.818 -1.092,1.05 -2.113,1.909 -2.27,1.909 -0.483,0 -5.826,5.502 -6.725,6.925 -0.468,0.742 -1.291,1.673 -1.829,2.071 -0.538,0.398 -1.44,1.589 -2.003,2.646 -0.564,1.058 -1.551,2.553 -2.194,3.322 -1.424,1.704 -1.685,2.18 -2.507,4.569 -0.355,1.032 -1.097,2.438 -1.649,3.125 -1.36,1.693 -1.871,3.023 -2.676,6.972 -0.377,1.848 -1.107,4.415 -1.623,5.703 -2.641,6.605 -2.616,26.236 0.041,31.444 0.384,0.753 1.059,3.074 1.501,5.159 0.934,4.409 1.385,5.608 2.757,7.315 0.552,0.687 1.301,2.113 1.665,3.169 0.669,1.946 1.425,3.218 3.019,5.082 0.485,0.567 1.219,1.728 1.632,2.582 0.414,0.854 1.257,1.938 1.874,2.409 0.618,0.471 1.458,1.4 1.867,2.065 0.94,1.531 5.698,6.306 7.233,7.26 0.639,0.398 1.58,1.253 2.09,1.901 0.51,0.649 1.556,1.493 2.323,1.878 0.768,0.384 2.069,1.257 2.89,1.94 1.7,1.412 2.832,2.041 5.405,3.004 0.994,0.372 2.09,0.988 2.434,1.368 1.064,1.177 3.023,1.962 6.91,2.768 2.055,0.426 4.394,1.111 5.199,1.523 5.898,3.015 26.222,3.106 32.832,0.147 1.37,-0.613 3.834,-1.362 5.477,-1.664 3.471,-0.639 5.105,-1.289 7.164,-2.851 0.817,-0.62 2.326,-1.408 3.353,-1.751 1.028,-0.343 2.592,-1.196 3.477,-1.895 0.884,-0.7 2.28,-1.677 3.102,-2.173 2.438,-1.472 10.836,-9.206 12.149,-11.189 0.464,-0.702 1.365,-1.733 2.002,-2.292 0.637,-0.56 1.465,-1.619 1.841,-2.355 0.375,-0.737 1.403,-2.279 2.283,-3.428 0.881,-1.149 1.94,-3.016 2.353,-4.15 0.413,-1.133 1.252,-2.717 1.864,-3.519 1.418,-1.857 1.631,-2.432 2.577,-6.97 0.429,-2.057 1.146,-4.521 1.593,-5.477 2.931,-6.26 2.856,-24.048 -0.133,-31.612 -0.505,-1.278 -1.156,-3.594 -1.447,-5.146 -0.734,-3.918 -1.07,-4.809 -2.723,-7.224 -0.795,-1.162 -1.448,-2.289 -1.449,-2.506 -0.007,-0.762 -1.68,-3.984 -2.632,-5.068 -0.53,-0.603 -1.51,-2.075 -2.178,-3.27 -0.668,-1.195 -1.651,-2.483 -2.183,-2.862 -0.533,-0.379 -1.354,-1.348 -1.826,-2.153 -0.472,-0.805 -1.56,-2.052 -2.419,-2.771 -0.859,-0.719 -1.754,-1.665 -1.988,-2.103 -0.234,-0.438 -1.163,-1.278 -2.063,-1.868 -0.9,-0.589 -1.973,-1.528 -2.384,-2.086 -0.411,-0.559 -1.719,-1.584 -2.907,-2.279 -1.188,-0.694 -2.458,-1.592 -2.822,-1.995 -0.722,-0.799 -2.957,-2.006 -4.846,-2.617 -0.658,-0.213 -1.778,-0.883 -2.489,-1.488 -1.858,-1.581 -2.377,-1.799 -6.415,-2.692 -1.997,-0.441 -4.499,-1.241 -5.561,-1.776 -3.915,-1.972 -13.141,-2.754 -23.938,-2.029 m 12.829,1.008 c 4.385,0.326 5.09,0.468 7.186,1.444 3.219,1.5 4.163,1.773 8.009,2.311 3.101,0.435 5.21,1.12 5.488,1.782 0.289,0.691 2.626,2.046 4.402,2.554 1.306,0.373 2.293,0.912 2.94,1.605 1.038,1.111 4.784,3.552 5.452,3.552 0.219,0 0.846,0.651 1.393,1.446 0.683,0.992 1.494,1.662 2.589,2.136 1.255,0.544 1.762,1.012 2.382,2.196 0.568,1.087 1.181,1.696 2.201,2.19 1.069,0.517 1.462,0.924 1.61,1.669 0.11,0.55 1.044,1.902 2.115,3.062 1.054,1.143 2.437,3.1 3.073,4.348 0.708,1.389 1.494,2.444 2.028,2.72 0.901,0.466 1.422,1.462 1.815,3.47 0.303,1.547 1.642,4.162 2.411,4.707 0.987,0.701 1.321,1.622 1.73,4.777 0.55,4.239 1.189,7.14 2.407,10.931 1.609,5.007 1.622,14.825 0.026,19.917 -1.45,4.63 -2.73,10.954 -2.771,13.692 -0.003,0.227 -0.509,0.974 -1.124,1.66 -1.433,1.597 -2.454,3.623 -2.746,5.447 -0.176,1.105 -0.57,1.773 -1.688,2.859 -0.864,0.84 -1.941,2.434 -2.643,3.914 -0.816,1.718 -1.475,2.647 -2.112,2.976 -1.092,0.565 -2.169,1.982 -2.496,3.284 -0.152,0.609 -0.588,1.077 -1.266,1.361 -1.2,0.503 -2.232,1.552 -2.976,3.025 -0.324,0.642 -0.879,1.129 -1.449,1.271 -1.202,0.3 -2.982,1.662 -3.242,2.482 -0.115,0.361 -1.326,1.243 -2.761,2.009 -1.406,0.751 -3.106,1.95 -3.776,2.663 -0.671,0.714 -1.642,1.392 -2.158,1.506 -2.586,0.574 -4.218,1.316 -5.477,2.489 -1.46,1.362 -2.127,1.573 -7.353,2.323 -2.587,0.372 -6.19,1.444 -8.044,2.394 -3.318,1.701 -19.19,1.499 -22.771,-0.289 -1.956,-0.977 -5.961,-2.003 -9.49,-2.432 -2.956,-0.36 -4.138,-0.826 -5.332,-2.104 -0.846,-0.906 -2.463,-1.683 -4.664,-2.241 -0.94,-0.239 -1.98,-0.879 -2.972,-1.829 -0.839,-0.804 -2.606,-1.989 -3.925,-2.632 -1.329,-0.648 -2.487,-1.444 -2.594,-1.783 -0.292,-0.921 -1.632,-2.051 -2.98,-2.514 -0.903,-0.311 -1.383,-0.776 -1.94,-1.881 -0.537,-1.064 -1.144,-1.671 -2.208,-2.208 -1.13,-0.57 -1.565,-1.028 -1.89,-1.992 -0.24,-0.712 -1.063,-1.823 -1.909,-2.579 -0.854,-0.763 -1.999,-2.315 -2.693,-3.651 -0.663,-1.278 -1.704,-2.772 -2.313,-3.32 -1.296,-1.166 -1.67,-1.849 -1.994,-3.636 -0.295,-1.636 -1.211,-3.461 -2.172,-4.33 -1.165,-1.053 -1.558,-2.12 -1.959,-5.312 -0.483,-3.852 -1.171,-6.868 -2.459,-10.788 -1.597,-4.857 -1.587,-14.82 0.018,-19.585 1.295,-3.844 1.63,-5.314 2.412,-10.559 0.588,-3.944 0.654,-4.134 1.91,-5.496 1.249,-1.354 1.9,-2.739 2.708,-5.754 0.243,-0.907 0.722,-1.643 1.372,-2.106 0.588,-0.419 1.539,-1.783 2.309,-3.315 0.86,-1.71 1.765,-2.97 2.64,-3.673 0.755,-0.607 1.649,-1.771 2.063,-2.688 0.537,-1.189 1.087,-1.812 2.078,-2.353 0.909,-0.497 1.591,-1.221 2.098,-2.227 0.572,-1.134 1.044,-1.592 1.97,-1.913 1.438,-0.498 2.316,-1.234 2.964,-2.487 0.259,-0.502 1.028,-1.144 1.708,-1.427 1.681,-0.699 3.684,-2.052 4.907,-3.316 0.686,-0.707 1.763,-1.274 3.322,-1.748 1.64,-0.498 2.815,-1.134 4.06,-2.197 0.993,-0.847 2.215,-1.57 2.819,-1.667 0.587,-0.095 2.262,-0.34 3.723,-0.546 2.664,-0.375 5.49,-1.285 7.967,-2.566 0.977,-0.506 2.38,-0.768 5.311,-0.991 5.735,-0.436 7.3,-0.441 12.731,-0.037 m -192.287,50.784 -0.859,1.021 -0.008,23.46 c -0.008,26.574 0.184,24.754 -2.675,25.306 -0.807,0.156 -11.636,0.29 -24.064,0.298 l -22.598,0.014 -0.722,0.768 c -0.719,0.766 -0.722,0.817 -0.722,16.042 V 164.2 l 0.769,0.721 0.768,0.722 22.219,0.024 c 12.221,0.014 23.028,0.139 24.016,0.28 3.271,0.464 3.017,-1.678 3.017,25.397 v 23.636 l 0.931,0.892 0.931,0.891 h 15.183 15.184 l 0.815,-0.814 0.815,-0.815 v -23.715 -23.715 l 1.173,-1.031 1.173,-1.03 h 23.572 23.572 l 0.815,-0.815 0.815,-0.814 v -15.071 -15.07 l -0.814,-0.878 -0.814,-0.879 h -23.618 -23.617 l -1.129,-1.128 -1.128,-1.129 V 106.306 82.753 l -0.814,-0.879 -0.814,-0.878 H 85.025 69.769 l -0.86,1.021 m 31.606,0.373 c 0.302,0.302 0.398,6.066 0.398,23.911 0,26.164 -0.062,25.407 2.135,26.325 0.984,0.411 4.783,0.486 24.676,0.486 17.845,0 23.609,0.096 23.911,0.398 0.573,0.574 0.573,30.166 0,30.739 -0.302,0.302 -6.025,0.398 -23.728,0.398 -20.933,0 -23.47,0.057 -24.702,0.55 -2.387,0.954 -2.292,-0.127 -2.292,26.261 0,17.845 -0.096,23.609 -0.398,23.911 -0.473,0.472 -30.013,0.575 -30.751,0.107 -0.363,-0.23 -0.441,-4.529 -0.43,-23.775 0.015,-25.526 0.048,-25.055 -1.822,-26.281 -0.871,-0.571 -2.326,-0.613 -24.661,-0.706 -16.269,-0.068 -23.871,-0.212 -24.165,-0.456 -0.601,-0.499 -0.631,-30.147 -0.03,-30.748 0.302,-0.302 6.029,-0.398 23.745,-0.398 25.423,0 24.959,0.033 26.204,-1.866 0.572,-0.873 0.611,-2.294 0.674,-24.623 0.05,-17.501 0.169,-23.819 0.456,-24.164 0.528,-0.636 30.146,-0.702 30.78,-0.069 M 242.49,200.866 c -6.159,0.347 -10.284,0.918 -14.063,1.944 -1.344,0.366 -4.63,0.894 -7.303,1.174 -10.746,1.126 -11.701,1.316 -15.691,3.119 -0.846,0.382 -3.834,1.086 -6.639,1.564 -4.923,0.838 -5.738,1.073 -10.08,2.901 -1.096,0.461 -3.385,1.143 -5.088,1.514 -2.053,0.448 -3.901,1.12 -5.485,1.994 -1.605,0.886 -3.583,1.601 -6.032,2.179 -2.577,0.609 -4.276,1.236 -5.802,2.141 -1.187,0.704 -3.404,1.686 -4.928,2.183 -1.523,0.497 -3.241,1.314 -3.817,1.815 -1.357,1.182 -2.579,1.786 -5.031,2.486 -1.143,0.327 -2.705,1.117 -3.666,1.855 -0.921,0.708 -2.789,1.796 -4.15,2.42 -1.572,0.72 -2.752,1.513 -3.235,2.174 -0.418,0.573 -1.564,1.495 -2.546,2.049 -0.982,0.554 -2.179,1.525 -2.661,2.156 -0.482,0.632 -1.427,1.434 -2.101,1.784 -1.492,0.773 -5.352,4.995 -6.343,6.937 -0.396,0.778 -1.218,1.967 -1.826,2.644 -1.114,1.24 -3.181,4.998 -3.182,5.784 0,0.234 -0.447,1.371 -0.994,2.527 -2.211,4.672 -2.397,6.571 -2.567,26.191 l -0.153,17.67 1.002,1.002 1.002,1.002 h 134.237 134.237 l 0.915,-0.955 0.915,-0.955 -0.136,-18.05 c -0.147,-19.445 -0.315,-21.388 -2.168,-25.076 -0.351,-0.699 -0.903,-2.093 -1.227,-3.097 -0.863,-2.676 -1.749,-4.304 -3.213,-5.902 -0.715,-0.782 -1.575,-2.051 -1.911,-2.822 -0.684,-1.568 -4.876,-6.063 -6.66,-7.14 -0.639,-0.386 -1.58,-1.232 -2.09,-1.88 -0.51,-0.649 -1.481,-1.464 -2.158,-1.813 -0.676,-0.349 -1.752,-1.183 -2.391,-1.855 -0.639,-0.672 -2.208,-1.747 -3.486,-2.389 -1.278,-0.642 -3.07,-1.729 -3.983,-2.415 -0.929,-0.699 -2.811,-1.629 -4.273,-2.113 -1.536,-0.508 -3.315,-1.4 -4.315,-2.163 -0.972,-0.742 -2.554,-1.543 -3.684,-1.866 -2.159,-0.617 -3.797,-1.382 -5.642,-2.634 -0.703,-0.477 -2.709,-1.163 -4.902,-1.677 -2.528,-0.593 -4.472,-1.291 -6.096,-2.187 -1.687,-0.931 -3.456,-1.553 -6.05,-2.127 -2.016,-0.446 -4.535,-1.246 -5.597,-1.777 -2.676,-1.339 -3.564,-1.585 -9.193,-2.546 -2.879,-0.491 -5.785,-1.203 -6.971,-1.708 -3.413,-1.453 -6.089,-2.014 -12.386,-2.596 -5.72,-0.529 -9.612,-1.191 -13.695,-2.33 -3.929,-1.096 -25.538,-1.765 -36.698,-1.136 m 24.232,1.274 c 4.863,0.752 8.57,1.355 12.116,1.971 2.1,0.364 6.432,0.82 9.627,1.014 7.631,0.461 11.101,0.942 12.032,1.667 2.002,1.56 3.916,2.092 10.128,2.814 4.389,0.51 5.369,0.802 7.881,2.343 1.333,0.817 1.867,0.962 7.931,2.147 2.441,0.477 3.506,0.85 4.15,1.451 1.367,1.277 2.754,1.834 5.938,2.383 4.219,0.729 4.949,0.987 6.341,2.245 0.964,0.871 2.01,1.331 4.705,2.072 2.959,0.814 3.636,1.133 4.628,2.179 1.11,1.17 3.178,2.051 6.505,2.768 0.583,0.126 1.347,0.655 1.767,1.222 0.455,0.616 1.701,1.439 3.241,2.14 1.526,0.696 3.241,1.826 4.401,2.899 1.139,1.055 2.453,1.925 3.283,2.174 0.77,0.23 1.384,0.621 1.384,0.88 0,0.841 1.512,2.247 3.011,2.801 1.216,0.449 1.596,0.81 2.208,2.099 0.533,1.122 1.105,1.743 2.047,2.224 0.991,0.505 1.366,0.931 1.543,1.754 0.34,1.582 0.983,2.702 2.583,4.504 1.66,1.868 2.024,2.681 2.706,6.043 0.278,1.369 1.016,3.537 1.64,4.817 1.695,3.478 1.855,5.491 1.855,23.313 0,14.237 -0.054,15.861 -0.549,16.408 -0.814,0.899 -268.057,0.957 -269.051,0.057 -0.571,-0.516 -0.606,-1.425 -0.596,-15.352 0.014,-17.801 0.235,-21.003 1.635,-23.675 0.954,-1.821 2.337,-6.342 2.337,-7.639 0,-0.977 0.964,-2.602 2.624,-4.425 0.991,-1.088 1.734,-2.319 2.104,-3.485 0.472,-1.491 0.787,-1.919 1.819,-2.468 0.765,-0.406 1.514,-1.178 1.932,-1.991 0.489,-0.949 1.15,-1.565 2.315,-2.158 0.965,-0.49 1.987,-1.355 2.5,-2.115 0.556,-0.824 1.311,-1.437 2.104,-1.71 0.681,-0.234 2.088,-1.235 3.127,-2.224 1.392,-1.326 2.526,-2.043 4.304,-2.721 1.692,-0.645 2.658,-1.239 3.227,-1.985 0.692,-0.908 1.268,-1.182 3.893,-1.852 2.622,-0.67 3.276,-0.981 4.397,-2.09 0.963,-0.952 1.901,-1.473 3.486,-1.936 1.193,-0.348 2.915,-0.852 3.828,-1.12 0.913,-0.267 2.147,-0.931 2.742,-1.475 1.158,-1.059 3.185,-1.753 6.848,-2.345 2.482,-0.401 4.552,-1.297 5.243,-2.27 0.452,-0.636 3.094,-1.368 7.408,-2.051 2.132,-0.338 3.535,-0.888 6.856,-2.685 0.803,-0.435 2.638,-0.823 5.439,-1.151 6.149,-0.72 8.326,-1.277 9.614,-2.459 1.098,-1.01 2.976,-1.337 10.622,-1.85 6.427,-0.431 16.657,-1.799 21.079,-2.819 3.979,-0.917 19.924,-1.132 25.062,-0.338"
         stroke="none"
         fill="#847c7c"
         fill-rule="evenodd" />
      <path
         id="path3"
         d="M 0,165.975 V 331.95 H 200 400 V 165.975 0 H 200 0 V 165.975 M 269.131,29.222 c 2.843,0.303 5.372,1.203 6.585,2.343 0.456,0.429 1.86,0.891 3.988,1.314 4.232,0.842 4.916,1.138 6.109,2.645 0.707,0.892 1.344,1.313 2.235,1.477 2.131,0.393 4.189,1.461 5.295,2.749 0.584,0.68 1.774,1.612 2.645,2.073 0.937,0.495 1.962,1.401 2.513,2.221 0.587,0.875 1.339,1.52 2.037,1.751 1.259,0.415 2.35,1.455 2.798,2.667 0.169,0.454 0.887,1.127 1.597,1.493 0.913,0.472 1.539,1.154 2.138,2.327 0.513,1.004 1.346,1.986 2.109,2.484 0.773,0.505 1.585,1.469 2.098,2.49 0.461,0.916 1.482,2.358 2.27,3.206 1.078,1.16 1.614,2.14 2.169,3.968 0.538,1.77 1.082,2.786 2.007,3.749 1.447,1.506 1.657,2.052 2.61,6.8 0.474,2.362 0.945,3.777 1.5,4.504 2.019,2.648 2.686,8.955 2.371,22.426 -0.232,9.961 -0.534,12.024 -2.092,14.34 -0.884,1.314 -1.273,2.432 -1.81,5.202 -0.876,4.523 -1.071,5.001 -2.647,6.495 -0.72,0.682 -1.397,1.638 -1.504,2.124 -0.618,2.81 -1.323,4.291 -2.681,5.635 -0.796,0.786 -1.82,2.168 -2.277,3.069 -0.523,1.033 -1.309,1.941 -2.123,2.455 -0.845,0.533 -1.425,1.218 -1.676,1.981 -0.396,1.199 -2.036,2.848 -2.831,2.848 -0.246,0 -0.795,0.635 -1.22,1.411 -0.554,1.013 -1.223,1.635 -2.374,2.205 -1.006,0.499 -1.903,1.27 -2.408,2.07 -0.488,0.774 -1.423,1.591 -2.38,2.081 -0.867,0.444 -2.121,1.387 -2.786,2.097 -1.255,1.338 -2.762,2.138 -5.176,2.749 -0.93,0.236 -1.889,0.846 -2.828,1.798 -1.177,1.194 -1.76,1.508 -3.406,1.836 -4.825,0.961 -6.218,1.375 -7.244,2.158 -4.08,3.112 -32.751,3.619 -37.585,0.665 -2.272,-1.389 -3.511,-1.855 -6.263,-2.353 -3.606,-0.653 -4.433,-1.02 -6.051,-2.683 -0.76,-0.781 -1.688,-1.42 -2.062,-1.42 -1.477,0 -4.276,-1.358 -5.416,-2.628 -0.637,-0.709 -1.929,-1.68 -2.87,-2.157 -1.109,-0.562 -2.003,-1.328 -2.536,-2.172 -0.539,-0.854 -1.333,-1.529 -2.304,-1.959 -1.078,-0.477 -1.662,-1.012 -2.152,-1.971 -0.425,-0.833 -1.133,-1.55 -1.929,-1.954 -0.878,-0.445 -1.499,-1.117 -2.054,-2.224 -0.484,-0.966 -1.31,-1.928 -2.111,-2.458 -0.886,-0.586 -1.593,-1.455 -2.162,-2.657 -0.465,-0.983 -1.285,-2.109 -1.822,-2.504 -1.148,-0.844 -1.965,-2.331 -2.734,-4.975 -0.386,-1.329 -0.944,-2.298 -1.827,-3.172 -1.209,-1.198 -2.325,-3.801 -2.325,-5.426 0,-1.277 -1.11,-5.096 -1.667,-5.735 -2.032,-2.33 -2.422,-5.298 -2.421,-18.423 0.001,-13.422 0.408,-16.519 2.467,-18.776 0.407,-0.446 0.955,-2.286 1.57,-5.269 0.921,-4.468 0.979,-4.616 2.321,-5.893 1.009,-0.96 1.521,-1.813 1.919,-3.196 0.736,-2.558 1.638,-4.263 2.581,-4.881 0.432,-0.283 1.255,-1.396 1.829,-2.473 0.574,-1.077 1.637,-2.428 2.361,-3.001 0.724,-0.574 1.659,-1.729 2.077,-2.567 0.515,-1.032 1.163,-1.733 2.008,-2.172 0.776,-0.402 1.502,-1.145 1.919,-1.964 0.49,-0.959 1.074,-1.494 2.152,-1.971 0.971,-0.429 1.765,-1.104 2.304,-1.958 0.506,-0.802 1.431,-1.616 2.399,-2.113 0.866,-0.445 2.206,-1.487 2.977,-2.315 1.19,-1.28 1.816,-1.633 4.159,-2.348 2.234,-0.681 2.866,-1.023 3.324,-1.799 0.748,-1.265 2.174,-1.901 5.984,-2.667 2.421,-0.487 3.544,-0.905 4.851,-1.804 1.003,-0.69 2.48,-1.334 3.604,-1.572 4.152,-0.879 22.692,-1.063 29.874,-0.296 M 101.538,80.209 c 1.71,1.198 1.699,1.016 1.699,25.931 0,20.436 0.061,23.26 0.516,23.911 l 0.517,0.737 h 23.808 c 26.412,0 24.845,-0.133 25.816,2.191 0.709,1.696 0.679,30.62 -0.033,31.997 -1.09,2.107 0.352,1.995 -25.693,1.995 -21.603,0 -23.771,0.049 -24.324,0.549 -0.578,0.523 -0.607,1.706 -0.607,24.083 0,25.824 0.068,24.925 -1.981,25.985 -1.484,0.767 -31.098,0.752 -32.585,-0.017 -1.987,-1.027 -1.949,-0.52 -1.949,-26.337 0,-18.484 -0.089,-23.618 -0.415,-23.829 -0.228,-0.147 -11.17,-0.343 -24.315,-0.434 -25.966,-0.18 -24.89,-0.092 -25.849,-2.113 -0.875,-1.844 -0.797,-29.988 0.088,-31.937 0.989,-2.178 0.102,-2.103 25.959,-2.205 19.272,-0.077 23.532,-0.175 23.983,-0.549 0.501,-0.416 0.549,-2.498 0.549,-23.85 0,-25.643 -0.043,-25.066 1.952,-26.15 1.398,-0.76 31.775,-0.721 32.864,0.042 m 173.483,119.277 c 5.792,0.308 9.738,0.981 11.784,2.01 1.677,0.844 4.076,1.261 10.456,1.817 6.336,0.553 9.073,1.148 10.818,2.353 1.605,1.109 2.744,1.406 7.586,1.983 5.318,0.634 6.327,0.923 7.948,2.277 1.161,0.971 1.849,1.213 5.252,1.854 4.52,0.85 5.722,1.287 7.265,2.642 0.615,0.54 1.681,1.072 2.369,1.182 5.424,0.873 7.362,1.526 8.665,2.921 0.458,0.491 1.743,1.125 3.153,1.557 3.632,1.113 4.012,1.287 5.21,2.381 1.191,1.088 3.122,2.03 4.984,2.432 1.503,0.324 2.593,0.897 3.749,1.969 0.517,0.48 1.982,1.398 3.256,2.039 1.622,0.817 2.516,1.507 2.986,2.302 0.446,0.757 1.276,1.423 2.485,1.995 1.154,0.546 2.045,1.246 2.446,1.921 0.348,0.584 1.42,1.513 2.384,2.065 0.963,0.551 2.101,1.522 2.529,2.157 0.427,0.635 1.137,1.374 1.577,1.642 0.704,0.429 1.398,1.566 2.604,4.272 0.19,0.426 0.775,0.996 1.299,1.267 0.903,0.468 1.23,1.026 3.365,5.758 0.288,0.639 0.878,1.643 1.312,2.232 1.723,2.338 2.188,8.579 2.191,29.403 0.003,18.136 0.023,17.947 -1.978,18.982 -1.59,0.822 -269.515,0.76 -270.908,-0.063 -2.071,-1.223 -2.047,-0.957 -1.875,-20.963 0.188,-21.976 0.465,-25.002 2.567,-28.097 0.496,-0.73 1.335,-2.299 1.864,-3.486 1.245,-2.791 1.418,-3.046 2.667,-3.917 0.677,-0.472 1.236,-1.283 1.58,-2.292 0.527,-1.547 1.983,-3.416 2.663,-3.418 0.194,0 0.651,-0.561 1.016,-1.245 0.472,-0.883 1.166,-1.488 2.393,-2.087 1.02,-0.497 2.046,-1.315 2.499,-1.992 0.424,-0.631 1.541,-1.563 2.483,-2.071 0.956,-0.515 2.014,-1.411 2.396,-2.029 0.487,-0.789 1.42,-1.461 3.246,-2.34 1.409,-0.678 3.119,-1.736 3.8,-2.351 0.68,-0.615 1.88,-1.281 2.667,-1.48 2.857,-0.722 4.441,-1.441 5.593,-2.538 0.865,-0.824 2.021,-1.384 4.371,-2.118 2.195,-0.687 3.625,-1.359 4.573,-2.151 0.759,-0.634 1.98,-1.314 2.713,-1.512 1.015,-0.273 6.404,-1.31 6.823,-1.313 0.04,0 0.583,-0.449 1.207,-0.997 1.55,-1.361 2.782,-1.823 7.031,-2.635 2.263,-0.433 3.955,-0.945 4.471,-1.353 1.91,-1.509 3.43,-2.04 7.254,-2.53 4.825,-0.619 7.975,-1.313 8.655,-1.907 1.604,-1.401 5.35,-2.327 10.813,-2.671 5.176,-0.327 8.463,-0.866 10.542,-1.73 3.033,-1.26 6.029,-1.819 11.201,-2.09 6.945,-0.364 33.376,-0.389 40,-0.037"
         stroke="none"
         fill="#fcfcfc"
         fill-rule="evenodd" />
      <path
         id="path4"
         d="m 246.639,28.868 c -6.781,0.305 -8.79,0.712 -10.986,2.222 -1.307,0.899 -2.43,1.317 -4.851,1.804 -3.81,0.766 -5.236,1.402 -5.984,2.667 -0.458,0.776 -1.09,1.118 -3.324,1.799 -2.343,0.715 -2.969,1.068 -4.159,2.348 -0.771,0.828 -2.111,1.87 -2.977,2.315 -0.968,0.497 -1.893,1.311 -2.399,2.113 -0.539,0.854 -1.333,1.529 -2.304,1.958 -1.078,0.477 -1.662,1.012 -2.152,1.971 -0.417,0.819 -1.143,1.562 -1.919,1.964 -0.845,0.439 -1.493,1.14 -2.008,2.172 -0.418,0.838 -1.353,1.993 -2.077,2.567 -0.724,0.573 -1.787,1.924 -2.361,3.001 -0.574,1.077 -1.397,2.19 -1.829,2.473 -0.943,0.618 -1.845,2.323 -2.581,4.881 -0.398,1.383 -0.91,2.236 -1.919,3.196 -1.342,1.277 -1.4,1.425 -2.321,5.893 -0.615,2.983 -1.163,4.823 -1.57,5.269 -2.059,2.257 -2.466,5.354 -2.467,18.776 -0.001,13.125 0.389,16.093 2.421,18.423 0.557,0.639 1.667,4.458 1.667,5.735 0,1.625 1.116,4.228 2.325,5.426 0.883,0.874 1.441,1.843 1.827,3.172 0.769,2.644 1.586,4.131 2.734,4.975 0.537,0.395 1.357,1.521 1.822,2.504 0.569,1.202 1.276,2.071 2.162,2.657 0.801,0.53 1.627,1.492 2.111,2.458 0.555,1.107 1.176,1.779 2.054,2.224 0.796,0.404 1.504,1.121 1.929,1.954 0.49,0.959 1.074,1.494 2.152,1.971 0.971,0.43 1.765,1.105 2.304,1.959 0.533,0.844 1.427,1.61 2.536,2.172 0.941,0.477 2.233,1.448 2.87,2.157 1.14,1.27 3.939,2.628 5.416,2.628 0.374,0 1.302,0.639 2.062,1.42 1.618,1.663 2.445,2.03 6.051,2.683 2.752,0.498 3.991,0.964 6.263,2.353 2.007,1.226 4.564,1.534 14.461,1.739 14.31,0.297 20.415,-0.338 23.124,-2.404 1.026,-0.783 2.419,-1.197 7.244,-2.158 1.646,-0.328 2.229,-0.642 3.406,-1.836 0.939,-0.952 1.898,-1.562 2.828,-1.798 2.414,-0.611 3.921,-1.411 5.176,-2.749 0.665,-0.71 1.919,-1.653 2.786,-2.097 0.957,-0.49 1.892,-1.307 2.38,-2.081 0.505,-0.8 1.402,-1.571 2.408,-2.07 1.151,-0.57 1.82,-1.192 2.374,-2.205 0.425,-0.776 0.974,-1.411 1.22,-1.411 0.795,0 2.435,-1.649 2.831,-2.848 0.251,-0.763 0.831,-1.448 1.676,-1.981 0.814,-0.514 1.6,-1.422 2.123,-2.455 0.457,-0.901 1.481,-2.283 2.277,-3.069 1.358,-1.344 2.063,-2.825 2.681,-5.635 0.107,-0.486 0.784,-1.442 1.504,-2.124 1.576,-1.494 1.771,-1.972 2.647,-6.495 0.537,-2.77 0.926,-3.888 1.81,-5.202 3.247,-4.825 3.038,-32.417 -0.279,-36.766 -0.555,-0.727 -1.026,-2.142 -1.5,-4.504 -0.953,-4.748 -1.163,-5.294 -2.61,-6.8 -0.925,-0.963 -1.469,-1.979 -2.007,-3.749 -0.555,-1.828 -1.091,-2.808 -2.169,-3.968 -0.788,-0.848 -1.809,-2.29 -2.27,-3.206 -0.513,-1.021 -1.325,-1.985 -2.098,-2.49 -0.763,-0.498 -1.596,-1.48 -2.109,-2.484 -0.599,-1.173 -1.225,-1.855 -2.138,-2.327 -0.71,-0.366 -1.428,-1.039 -1.597,-1.493 -0.448,-1.212 -1.539,-2.252 -2.798,-2.667 -0.698,-0.231 -1.45,-0.876 -2.037,-1.751 -0.551,-0.82 -1.576,-1.726 -2.513,-2.221 -0.871,-0.461 -2.061,-1.393 -2.645,-2.073 -1.106,-1.288 -3.164,-2.356 -5.295,-2.749 -0.891,-0.164 -1.528,-0.585 -2.235,-1.477 -1.193,-1.507 -1.877,-1.803 -6.109,-2.645 -2.128,-0.423 -3.532,-0.885 -3.988,-1.314 -2.577,-2.421 -13.233,-3.41 -29.077,-2.697 m 21.727,1.665 c 1.087,0.218 2.846,0.836 3.909,1.372 1.063,0.537 3.51,1.349 5.438,1.804 4.377,1.034 5.532,1.515 7.146,2.973 0.706,0.638 1.47,1.16 1.698,1.161 0.84,0 4.533,1.965 5.773,3.071 0.704,0.627 1.977,1.544 2.829,2.037 0.852,0.494 1.927,1.392 2.388,1.997 0.461,0.605 1.569,1.568 2.46,2.14 0.892,0.572 1.824,1.42 2.072,1.883 0.248,0.464 1.111,1.383 1.917,2.044 0.806,0.66 1.89,1.891 2.41,2.735 0.519,0.844 1.38,1.856 1.913,2.251 0.533,0.394 1.455,1.586 2.05,2.648 0.594,1.063 1.602,2.575 2.239,3.36 0.637,0.786 1.651,2.616 2.254,4.067 0.603,1.451 1.506,3.124 2.006,3.717 1.258,1.493 1.756,2.817 2.475,6.59 0.341,1.791 1.062,4.27 1.601,5.511 2.878,6.615 2.912,25.751 0.058,32.296 -0.517,1.187 -1.257,3.652 -1.644,5.478 -0.862,4.07 -1.454,5.628 -2.658,6.999 -0.51,0.582 -1.335,2.123 -1.833,3.426 -0.498,1.302 -1.42,2.984 -2.05,3.738 -0.63,0.754 -1.539,2.058 -2.019,2.899 -0.481,0.84 -1.641,2.349 -2.578,3.353 -0.938,1.004 -1.971,2.281 -2.297,2.837 -0.325,0.556 -1.12,1.373 -1.765,1.815 -0.646,0.442 -1.53,1.343 -1.966,2.002 -0.436,0.658 -1.381,1.528 -2.1,1.932 -0.719,0.404 -1.799,1.308 -2.401,2.01 -0.601,0.702 -1.915,1.755 -2.919,2.341 -1.004,0.586 -2.274,1.479 -2.822,1.985 -1.189,1.098 -2.38,1.767 -4.756,2.672 -0.973,0.371 -2.318,1.113 -2.988,1.65 -1.632,1.306 -3.035,1.852 -6.913,2.693 -1.793,0.388 -4.091,1.125 -5.106,1.637 -5.949,3.003 -27.657,3 -33.681,-0.004 -1.095,-0.547 -3.441,-1.289 -5.214,-1.649 -3.87,-0.787 -4.986,-1.228 -6.998,-2.763 -0.844,-0.644 -2.101,-1.355 -2.794,-1.579 -1.978,-0.64 -3.674,-1.58 -5.009,-2.776 -0.676,-0.607 -1.752,-1.365 -2.391,-1.687 -1.826,-0.918 -10.921,-9.41 -12.091,-11.29 -0.341,-0.548 -1.106,-1.405 -1.7,-1.905 -0.594,-0.5 -1.524,-1.695 -2.068,-2.656 -0.543,-0.96 -1.603,-2.489 -2.355,-3.397 -0.782,-0.945 -1.657,-2.523 -2.046,-3.692 -0.373,-1.122 -1.266,-2.827 -1.983,-3.789 -1.509,-2.022 -1.74,-2.643 -2.654,-7.134 -0.371,-1.826 -1.051,-4.092 -1.511,-5.036 -2.963,-6.087 -2.863,-26.053 0.163,-32.724 0.394,-0.867 1.069,-3.28 1.501,-5.361 0.844,-4.07 1.034,-4.557 2.669,-6.837 0.589,-0.822 1.401,-2.39 1.805,-3.486 0.404,-1.095 1.307,-2.738 2.006,-3.651 0.699,-0.913 1.803,-2.573 2.454,-3.69 0.65,-1.116 1.57,-2.283 2.044,-2.594 0.474,-0.31 1.263,-1.195 1.753,-1.967 1.399,-2.2 9.459,-9.837 12.179,-11.54 0.912,-0.571 2.195,-1.521 2.85,-2.11 0.655,-0.589 2.226,-1.466 3.491,-1.949 1.265,-0.484 3.001,-1.459 3.859,-2.167 1.541,-1.274 2.11,-1.482 7.799,-2.847 1.137,-0.273 2.957,-0.945 4.045,-1.494 1.794,-0.906 3.934,-1.398 7.831,-1.8 2.809,-0.29 20.304,0.065 22.225,0.45 M 68.674,80.167 c -1.995,1.084 -1.952,0.507 -1.952,26.15 0,21.352 -0.048,23.434 -0.549,23.85 -0.451,0.374 -4.711,0.472 -23.983,0.549 -25.857,0.102 -24.97,0.027 -25.959,2.205 -0.885,1.949 -0.963,30.093 -0.088,31.937 0.959,2.021 -0.117,1.933 25.849,2.113 13.145,0.091 24.087,0.287 24.315,0.434 0.326,0.211 0.415,5.345 0.415,23.829 0,25.817 -0.038,25.31 1.949,26.337 1.487,0.769 31.101,0.784 32.585,0.017 2.049,-1.06 1.981,-0.161 1.981,-25.985 0,-22.377 0.029,-23.56 0.607,-24.083 0.553,-0.5 2.721,-0.549 24.324,-0.549 26.045,0 24.603,0.112 25.693,-1.995 0.712,-1.377 0.742,-30.301 0.033,-31.997 -0.971,-2.324 0.596,-2.191 -25.816,-2.191 H 104.27 l -0.517,-0.737 c -0.455,-0.651 -0.516,-3.475 -0.516,-23.911 0,-24.915 0.011,-24.733 -1.699,-25.931 -1.089,-0.763 -31.466,-0.802 -32.864,-0.042 m 31.922,0.922 c 1.719,1.355 1.645,0.212 1.645,25.44 v 23.393 l 0.892,0.931 0.892,0.931 23.589,0.011 c 25.1,0.011 24.01,-0.06 25.181,1.64 0.513,0.743 0.566,2.221 0.566,15.649 v 14.829 l -0.963,1.031 -0.963,1.031 h -23.722 -23.722 l -0.875,0.875 -0.875,0.875 v 23.664 23.664 l -1.022,1.021 -1.021,1.021 H 85.145 70.092 l -1.021,-0.859 -1.021,-0.859 v -23.738 -23.738 l -1.031,-0.963 -1.031,-0.963 H 42.48 18.972 l -1.021,-0.859 -1.022,-0.86 v -15.265 -15.266 l 0.971,-0.97 0.97,-0.971 h 23.549 23.549 l 0.827,-0.827 C 68,129.752 68.05,128.7 68.05,104.324 V 82.605 l 0.97,-0.971 0.97,-0.97 15.047,0.01 c 11.312,0.008 15.173,0.111 15.559,0.415 m 134.425,118.434 c -5.172,0.271 -8.168,0.83 -11.201,2.09 -2.079,0.864 -5.366,1.403 -10.542,1.73 -5.463,0.344 -9.209,1.27 -10.813,2.671 -0.68,0.594 -3.83,1.288 -8.655,1.907 -3.824,0.49 -5.344,1.021 -7.254,2.53 -0.516,0.408 -2.208,0.92 -4.471,1.353 -4.249,0.812 -5.481,1.274 -7.031,2.635 -0.624,0.548 -1.167,0.997 -1.207,0.997 -0.419,0.003 -5.808,1.04 -6.823,1.313 -0.733,0.198 -1.954,0.878 -2.713,1.512 -0.948,0.792 -2.378,1.464 -4.573,2.151 -2.35,0.734 -3.506,1.294 -4.371,2.118 -1.152,1.097 -2.736,1.816 -5.593,2.538 -0.787,0.199 -1.987,0.865 -2.667,1.48 -0.681,0.615 -2.391,1.673 -3.8,2.351 -1.826,0.879 -2.759,1.551 -3.246,2.34 -0.382,0.618 -1.44,1.514 -2.396,2.029 -0.942,0.508 -2.059,1.44 -2.483,2.071 -0.453,0.677 -1.479,1.495 -2.499,1.992 -1.227,0.599 -1.921,1.204 -2.393,2.087 -0.365,0.684 -0.822,1.245 -1.016,1.245 -0.68,0.002 -2.136,1.871 -2.663,3.418 -0.344,1.009 -0.903,1.82 -1.58,2.292 -1.249,0.871 -1.422,1.126 -2.667,3.917 -0.529,1.187 -1.368,2.756 -1.864,3.486 -2.102,3.095 -2.379,6.121 -2.567,28.097 -0.172,20.006 -0.196,19.74 1.875,20.963 1.393,0.823 269.318,0.885 270.908,0.063 2.001,-1.035 1.981,-0.846 1.978,-18.982 -0.003,-20.824 -0.468,-27.065 -2.191,-29.403 -0.434,-0.589 -1.024,-1.593 -1.312,-2.232 -2.135,-4.732 -2.462,-5.29 -3.365,-5.758 -0.524,-0.271 -1.109,-0.841 -1.299,-1.267 -1.206,-2.706 -1.9,-3.843 -2.604,-4.272 -0.44,-0.268 -1.15,-1.007 -1.577,-1.642 -0.428,-0.635 -1.566,-1.606 -2.529,-2.157 -0.964,-0.552 -2.036,-1.481 -2.384,-2.065 -0.401,-0.675 -1.292,-1.375 -2.446,-1.921 -1.209,-0.572 -2.039,-1.238 -2.485,-1.995 -0.47,-0.795 -1.364,-1.485 -2.986,-2.302 -1.274,-0.641 -2.739,-1.559 -3.256,-2.039 -1.156,-1.072 -2.246,-1.645 -3.749,-1.969 -1.862,-0.402 -3.793,-1.344 -4.984,-2.432 -1.198,-1.094 -1.578,-1.268 -5.21,-2.381 -1.41,-0.432 -2.695,-1.066 -3.153,-1.557 -1.303,-1.395 -3.241,-2.048 -8.665,-2.921 -0.688,-0.11 -1.754,-0.642 -2.369,-1.182 -1.543,-1.355 -2.745,-1.792 -7.265,-2.642 -3.403,-0.641 -4.091,-0.883 -5.252,-1.854 -1.621,-1.354 -2.63,-1.643 -7.948,-2.277 -4.842,-0.577 -5.981,-0.874 -7.586,-1.983 -1.745,-1.205 -4.482,-1.8 -10.818,-2.353 -6.38,-0.556 -8.779,-0.973 -10.456,-1.817 -4.123,-2.074 -30.616,-3.083 -51.784,-1.973 m 30.871,0.983 c 8.975,0.393 12.567,0.771 15.602,1.641 3.479,0.997 5.221,1.283 12.323,2.023 6.609,0.689 8.44,1.093 12.407,2.741 1.11,0.46 4.263,1.211 7.12,1.694 4.072,0.689 5.713,1.134 7.967,2.158 1.561,0.71 4.323,1.622 6.138,2.028 2.099,0.468 4.203,1.212 5.779,2.042 1.531,0.806 3.804,1.619 5.944,2.124 3.56,0.841 4.509,1.219 6.558,2.609 0.651,0.442 2.186,1.133 3.411,1.535 2.798,0.919 3.951,1.495 5.242,2.62 0.562,0.489 2.115,1.241 3.451,1.67 1.335,0.43 3.116,1.27 3.957,1.867 0.84,0.598 2.574,1.637 3.852,2.311 1.278,0.673 3.191,2.026 4.251,3.006 1.061,0.98 2.08,1.782 2.266,1.782 0.185,0 1.185,0.796 2.221,1.768 1.037,0.973 2.445,2.105 3.129,2.517 0.685,0.411 1.245,0.869 1.245,1.017 0,0.147 0.816,1.097 1.813,2.11 0.997,1.013 2.04,2.387 2.319,3.053 0.278,0.666 1.167,1.946 1.974,2.844 0.91,1.012 1.865,2.613 2.507,4.204 0.571,1.413 1.407,3.391 1.858,4.396 2.045,4.553 2.469,9.499 2.472,28.829 l 0.003,15.054 -1.128,1.129 -1.129,1.129 H 255.328 121.213 l -1.041,-0.876 -1.041,-0.876 0.129,-18.792 c 0.142,-20.657 0.21,-21.434 2.264,-25.827 0.531,-1.137 0.966,-2.226 0.966,-2.422 0,-0.729 2.116,-4.529 3.184,-5.718 0.609,-0.678 1.472,-1.948 1.916,-2.822 0.946,-1.858 5.23,-6.441 6.713,-7.18 0.563,-0.281 1.431,-1.043 1.927,-1.695 0.497,-0.651 1.495,-1.486 2.217,-1.854 0.722,-0.369 1.871,-1.275 2.553,-2.014 0.775,-0.84 2.237,-1.812 3.896,-2.59 1.461,-0.685 2.87,-1.506 3.132,-1.825 0.624,-0.759 2.321,-1.595 5.089,-2.505 1.235,-0.406 3.017,-1.318 3.961,-2.027 1.061,-0.797 2.776,-1.626 4.497,-2.175 1.531,-0.487 3.3,-1.237 3.932,-1.666 2.02,-1.371 2.981,-1.749 6.647,-2.615 2.009,-0.475 4.251,-1.245 5.095,-1.749 2.231,-1.336 2.898,-1.582 6.51,-2.401 1.812,-0.41 4.576,-1.321 6.141,-2.023 2.146,-0.963 4.024,-1.484 7.635,-2.117 4.944,-0.867 7.245,-1.491 9.298,-2.521 1.605,-0.805 5.546,-1.532 10.76,-1.984 4.634,-0.401 10.251,-1.366 12.431,-2.135 3.922,-1.384 21.576,-2.118 35.868,-1.492"
         stroke="none"
         fill="#949494"
         fill-rule="evenodd" />
    </g>
  </g>
</svg>
