<svg id="svg" version="1.1" xmlns="http://www.w3.org/2000/svg" xmlns:xlink="http://www.w3.org/1999/xlink" viewBox="0, 0, 400,391.27272727272725"><g id="svgg"><path id="path0" d="M379.061 96.086 C 379.061 96.798,379.193 97.300,379.354 97.200 C 379.516 97.100,379.648 96.599,379.648 96.086 C 379.648 95.573,379.516 95.072,379.354 94.972 C 379.193 94.873,379.061 95.374,379.061 96.086 M164.658 181.983 C 161.281 182.636,158.362 188.696,159.278 193.151 C 160.447 198.834,160.415 198.774,164.570 203.039 C 169.801 208.408,170.836 211.038,169.533 215.656 C 168.511 219.278,165.176 220.137,164.245 217.018 C 163.345 214.009,163.378 214.039,161.154 214.167 C 157.105 214.401,158.848 220.644,163.542 222.721 C 171.228 226.121,177.174 217.995,174.584 207.630 C 173.721 204.178,172.714 202.701,168.617 198.880 C 164.616 195.148,163.357 191.220,165.035 187.702 C 165.797 186.103,166.381 185.796,167.703 186.299 C 168.594 186.637,168.853 187.157,169.168 189.237 C 169.271 189.919,169.587 190.020,171.630 190.020 L 173.973 190.020 174.095 188.540 C 174.378 185.106,169.796 181.010,166.385 181.650 C 166.253 181.674,165.476 181.824,164.658 181.983 M259.566 181.986 C 253.634 182.915,251.224 194.331,253.160 212.329 C 254.125 221.301,258.953 225.563,264.898 222.691 C 267.330 221.516,269.881 216.622,269.109 214.611 C 268.786 213.770,265.006 213.911,264.715 214.775 C 263.219 219.207,261.085 220.146,259.316 217.151 C 258.451 215.687,257.952 200.465,258.503 192.377 C 259.032 184.609,263.010 183.319,264.562 190.411 C 265.053 192.655,269.048 192.032,269.033 189.713 C 269.009 186.010,266.831 182.622,264.187 182.176 C 261.591 181.737,261.247 181.723,259.566 181.986 M114.971 182.246 C 113.998 182.529,113.901 221.503,114.871 222.308 C 115.295 222.659,116.878 222.749,120.609 222.633 L 125.762 222.472 127.362 220.651 C 128.893 218.909,129.442 217.764,130.419 214.286 C 131.011 212.176,131.022 193.302,130.432 191.194 C 128.456 184.124,126.335 182.326,119.765 182.154 C 117.505 182.095,115.347 182.136,114.971 182.246 M143.037 182.485 C 142.934 182.754,142.895 191.869,142.951 202.740 L 143.053 222.505 145.401 222.505 L 147.750 222.505 147.851 202.569 C 147.931 186.880,147.847 182.567,147.460 182.321 C 146.657 181.811,143.246 181.938,143.037 182.485 M183.719 182.542 C 182.976 184.479,183.723 186.103,185.414 186.226 C 188.354 186.439,188.258 185.800,188.258 205.168 L 188.258 222.294 189.176 222.525 C 189.681 222.651,190.782 222.699,191.622 222.630 L 193.151 222.505 193.346 204.958 C 193.562 185.669,193.474 186.301,195.933 186.301 C 197.657 186.301,198.043 185.907,198.043 184.149 C 198.043 181.978,198.108 181.996,190.367 181.996 C 185.221 181.996,183.886 182.106,183.719 182.542 M208.414 182.445 C 208.302 182.736,208.257 191.869,208.313 202.740 L 208.415 222.505 210.763 222.505 L 213.112 222.505 213.218 214.316 C 213.323 206.182,213.501 205.088,214.720 205.088 C 215.426 205.088,216.402 207.461,216.893 210.372 C 217.110 211.663,217.525 213.425,217.814 214.286 C 218.104 215.147,218.447 216.644,218.577 217.613 C 218.707 218.581,219.098 220.130,219.447 221.054 L 220.080 222.735 222.467 222.620 C 225.365 222.480,225.350 222.657,223.084 215.068 C 222.698 213.777,222.262 212.016,222.115 211.155 C 221.968 210.294,221.667 209.371,221.447 209.104 C 220.600 208.079,220.567 203.570,221.399 202.628 C 223.576 200.164,223.680 199.758,223.670 193.738 C 223.660 187.185,222.960 185.280,219.816 183.252 C 217.887 182.009,208.827 181.368,208.414 182.445 M236.286 182.240 C 236.133 182.393,236.008 191.567,236.008 202.628 L 236.008 222.738 238.454 222.621 L 240.900 222.505 240.900 202.348 L 240.900 182.192 238.732 182.077 C 237.540 182.014,236.439 182.087,236.286 182.240 M278.044 182.542 C 277.363 184.317,278.059 186.093,279.529 186.330 C 282.351 186.784,282.191 185.686,282.198 204.647 C 282.205 223.889,282.023 222.786,285.164 222.624 L 287.476 222.505 287.671 204.892 C 287.886 185.541,287.781 186.301,290.238 186.301 C 291.194 186.301,292.002 186.169,292.032 186.008 C 292.299 184.603,292.234 182.893,291.898 182.489 C 291.275 181.738,278.333 181.788,278.044 182.542 M124.535 189.590 C 125.415 191.468,125.440 191.836,125.439 202.708 L 125.437 213.894 124.359 215.942 C 122.864 218.782,120.630 219.301,119.759 217.010 C 119.532 216.413,119.374 210.279,119.374 202.109 L 119.374 188.223 120.329 187.267 C 121.644 185.953,123.247 186.838,124.535 189.590 M216.696 187.150 C 219.701 189.547,218.838 199.010,215.508 200.182 C 213.620 200.845,213.307 199.903,213.307 193.554 C 213.307 186.624,214.117 185.093,216.696 187.150 " stroke="none" fill="#f8f7f6" fill-rule="evenodd"></path><path id="path1" d="M202.438 1.320 C 201.958 2.020,201.566 2.790,201.566 3.031 C 201.566 3.272,201.213 3.582,200.783 3.718 C 200.352 3.855,200.000 4.198,200.000 4.482 C 200.000 4.765,199.648 5.089,199.217 5.201 C 198.787 5.314,198.434 5.687,198.434 6.030 C 198.434 6.373,198.191 6.654,197.893 6.654 C 197.595 6.654,197.259 7.006,197.147 7.436 C 197.034 7.867,196.661 8.219,196.318 8.219 C 195.975 8.219,195.695 8.483,195.695 8.806 C 195.695 9.129,195.425 9.393,195.095 9.393 C 194.766 9.393,194.387 9.677,194.254 10.023 C 193.909 10.922,192.359 12.524,191.834 12.524 C 191.589 12.524,191.389 12.965,191.389 13.503 C 191.389 14.077,191.187 14.441,190.900 14.384 C 190.631 14.330,190.455 14.506,190.509 14.775 C 190.563 15.044,190.249 15.264,189.812 15.264 C 189.374 15.264,188.908 15.546,188.776 15.890 C 188.468 16.694,186.952 18.212,186.151 18.519 C 185.789 18.658,185.628 19.007,185.763 19.359 C 185.890 19.690,185.799 19.961,185.560 19.961 C 185.322 19.961,185.171 20.181,185.225 20.450 C 185.280 20.723,185.021 20.889,184.638 20.824 C 184.261 20.761,183.931 20.893,183.904 21.118 C 183.877 21.343,183.833 21.747,183.806 22.016 C 183.779 22.285,183.552 22.505,183.301 22.505 C 182.573 22.505,176.921 28.306,176.914 29.061 C 176.909 29.676,176.474 29.924,175.636 29.792 C 175.475 29.766,175.342 30.098,175.342 30.528 C 175.342 30.959,175.090 31.311,174.782 31.311 C 174.473 31.311,174.109 31.663,173.973 32.094 C 173.836 32.524,173.569 32.877,173.379 32.877 C 172.860 32.877,171.037 34.663,171.037 35.172 C 171.037 35.817,169.908 35.717,169.201 35.010 C 168.867 34.677,168.087 34.302,167.468 34.178 C 166.848 34.054,166.341 33.711,166.341 33.415 C 166.341 33.119,165.988 32.855,165.558 32.828 C 164.256 32.746,164.071 32.695,163.731 32.325 C 163.537 32.112,163.642 32.103,163.992 32.302 C 164.498 32.590,164.505 32.544,164.042 31.973 C 163.737 31.597,162.955 31.311,162.230 31.311 C 161.190 31.311,160.869 31.100,160.481 30.165 C 160.108 29.263,159.682 28.965,158.479 28.761 C 156.839 28.484,156.263 28.016,157.001 27.560 C 157.287 27.383,157.355 27.446,157.180 27.728 C 157.027 27.977,157.102 28.180,157.348 28.180 C 157.594 28.180,157.721 27.960,157.631 27.691 C 157.475 27.227,157.269 27.158,155.702 27.051 C 155.339 27.026,154.931 26.654,154.795 26.223 C 154.612 25.648,154.202 25.440,153.248 25.440 C 152.259 25.440,151.899 25.245,151.735 24.618 C 151.617 24.166,151.355 23.898,151.153 24.023 C 150.951 24.148,150.384 23.901,149.893 23.475 C 149.402 23.049,148.695 22.701,148.322 22.701 C 147.950 22.701,147.548 22.331,147.430 21.878 C 147.312 21.426,147.038 21.166,146.821 21.300 C 146.604 21.434,146.108 21.203,145.718 20.787 C 145.329 20.371,144.393 19.855,143.640 19.640 C 142.886 19.425,142.534 19.230,142.857 19.207 C 143.942 19.131,142.391 18.408,141.129 18.401 C 140.501 18.398,140.103 18.279,140.244 18.138 C 140.728 17.654,139.632 16.830,138.504 16.830 C 137.639 16.830,137.378 16.648,137.378 16.047 C 137.378 15.413,137.117 15.264,136.008 15.264 C 135.080 15.264,134.638 15.083,134.638 14.703 C 134.638 14.395,134.286 14.031,133.855 13.894 C 133.425 13.758,133.072 13.394,133.072 13.085 C 133.072 12.764,132.695 12.524,132.188 12.524 C 131.702 12.524,131.084 12.172,130.815 11.742 C 130.546 11.311,130.014 10.959,129.633 10.959 C 129.252 10.959,128.686 10.607,128.376 10.176 C 128.044 9.716,127.363 9.393,126.724 9.393 C 126.018 9.393,125.636 9.187,125.636 8.806 C 125.636 8.483,125.399 8.219,125.109 8.219 C 124.819 8.219,124.175 7.867,123.679 7.436 C 121.557 5.596,117.025 6.779,117.025 9.175 C 117.025 9.700,116.822 10.256,116.574 10.409 C 116.275 10.594,116.229 10.515,116.438 10.176 C 116.648 9.837,116.602 9.758,116.303 9.943 C 116.055 10.097,115.851 10.786,115.851 11.475 C 115.851 12.304,115.586 12.893,115.068 13.216 C 114.504 13.569,114.286 14.129,114.286 15.222 C 114.286 16.409,114.116 16.783,113.503 16.943 C 112.941 17.090,112.720 17.477,112.720 18.313 C 112.720 19.100,112.495 19.537,112.025 19.660 C 111.561 19.781,111.297 20.282,111.229 21.165 C 111.174 21.893,110.870 22.633,110.554 22.810 C 110.239 22.986,109.980 23.469,109.980 23.882 C 109.980 24.357,109.783 24.557,109.444 24.427 C 109.149 24.314,108.799 24.505,108.666 24.851 C 108.525 25.217,108.586 25.381,108.811 25.242 C 109.024 25.110,109.198 25.189,109.198 25.417 C 109.198 25.645,109.041 25.832,108.849 25.832 C 108.657 25.832,108.387 26.279,108.250 26.826 C 108.113 27.373,107.832 27.716,107.625 27.589 C 107.419 27.461,107.348 27.612,107.468 27.924 C 107.587 28.237,107.497 28.609,107.267 28.751 C 107.037 28.893,106.849 29.527,106.849 30.160 C 106.849 30.922,106.651 31.311,106.262 31.311 C 105.939 31.311,105.648 31.619,105.616 31.996 C 105.583 32.373,105.515 32.857,105.465 33.072 C 105.415 33.288,105.354 33.694,105.329 33.976 C 105.304 34.258,105.106 34.379,104.890 34.245 C 104.469 33.985,104.196 34.490,103.994 35.900 C 103.925 36.379,103.719 36.907,103.535 37.074 C 103.352 37.241,103.331 37.114,103.489 36.791 C 103.647 36.468,103.499 36.545,103.160 36.963 C 102.821 37.381,102.544 37.935,102.544 38.193 C 102.544 38.452,102.315 38.752,102.036 38.859 C 101.415 39.097,100.523 41.844,100.875 42.432 C 101.014 42.666,100.858 42.638,100.526 42.369 C 100.009 41.951,99.912 42.062,99.843 43.152 C 99.699 45.418,99.702 45.412,99.214 45.007 C 98.560 44.464,98.239 44.938,98.239 46.445 C 98.239 47.162,98.063 47.750,97.847 47.750 C 97.632 47.750,97.456 47.936,97.456 48.164 C 97.456 48.392,97.659 48.453,97.908 48.299 C 98.190 48.125,98.253 48.192,98.076 48.478 C 97.921 48.730,97.628 48.834,97.426 48.710 C 97.224 48.585,96.957 48.802,96.832 49.192 C 96.707 49.583,96.257 50.562,95.832 51.368 C 95.407 52.175,95.165 53.005,95.293 53.213 C 95.422 53.421,95.186 53.933,94.769 54.350 C 94.352 54.767,93.893 55.481,93.748 55.936 C 93.604 56.391,93.322 56.662,93.123 56.538 C 92.923 56.415,92.732 56.544,92.700 56.826 C 92.667 57.108,92.599 57.515,92.549 57.730 C 92.499 57.945,92.438 58.440,92.413 58.829 C 92.388 59.219,92.204 59.436,92.004 59.312 C 91.573 59.046,91.213 59.550,90.983 60.742 C 90.892 61.217,90.552 62.164,90.228 62.847 C 89.904 63.530,89.582 64.459,89.513 64.911 C 89.444 65.363,89.237 65.870,89.054 66.037 C 88.870 66.204,88.849 66.076,89.007 65.753 C 89.165 65.431,89.018 65.508,88.679 65.926 C 88.340 66.344,88.063 66.929,88.063 67.226 C 88.063 67.523,87.790 68.039,87.456 68.373 C 87.123 68.706,86.748 69.490,86.623 70.114 C 86.498 70.738,86.215 71.361,85.995 71.497 C 85.747 71.650,85.715 71.549,85.910 71.233 C 86.119 70.894,86.074 70.815,85.775 71.000 C 85.526 71.153,85.323 71.623,85.323 72.043 C 85.323 72.463,84.971 73.108,84.540 73.476 C 83.682 74.211,83.525 74.755,84.172 74.755 C 84.400 74.755,84.461 74.552,84.307 74.304 C 84.122 74.005,84.201 73.959,84.539 74.168 C 84.949 74.421,84.931 74.571,84.449 74.923 C 84.119 75.164,83.784 75.675,83.705 76.058 C 83.626 76.441,83.405 76.729,83.214 76.700 C 82.682 76.617,82.204 77.574,82.198 78.735 C 82.194 79.309,82.060 79.837,81.898 79.909 C 81.268 80.189,79.452 84.206,79.452 85.320 C 79.452 86.373,79.120 86.692,78.180 86.543 C 78.019 86.518,77.886 86.761,77.886 87.084 C 77.886 87.407,77.534 88.023,77.104 88.454 C 76.673 88.885,76.321 89.677,76.321 90.215 C 76.321 90.843,76.101 91.194,75.707 91.194 C 75.272 91.194,75.166 91.421,75.342 91.977 C 75.489 92.439,75.413 92.759,75.156 92.759 C 74.917 92.759,74.767 92.979,74.824 93.249 C 74.881 93.518,74.635 94.178,74.278 94.716 C 73.920 95.254,73.565 96.172,73.489 96.756 C 73.412 97.340,73.198 97.957,73.011 98.126 C 72.823 98.298,72.814 98.191,72.992 97.885 C 73.198 97.530,73.161 97.427,72.889 97.596 C 72.657 97.739,72.352 98.383,72.210 99.026 C 72.069 99.669,71.791 100.196,71.593 100.196 C 71.395 100.196,71.233 100.460,71.233 100.783 C 71.233 101.106,71.057 101.370,70.841 101.370 C 70.626 101.370,70.450 101.800,70.450 102.325 C 70.450 102.851,70.247 103.406,69.998 103.560 C 69.695 103.747,69.650 103.658,69.860 103.289 C 70.080 102.903,70.046 102.856,69.744 103.132 C 69.507 103.348,69.268 104.197,69.213 105.018 C 69.106 106.607,68.729 107.157,68.264 106.404 C 68.075 106.098,68.152 106.051,68.493 106.262 C 68.835 106.473,68.911 106.426,68.722 106.121 C 68.315 105.462,67.711 105.966,67.704 106.970 C 67.700 107.590,67.607 107.683,67.367 107.305 C 67.185 107.018,66.923 106.798,66.786 106.816 C 65.607 106.974,64.185 106.779,64.367 106.485 C 64.491 106.285,64.425 106.018,64.221 105.892 C 64.017 105.765,63.735 105.850,63.593 106.079 C 63.412 106.371,63.178 106.365,62.808 106.058 C 61.684 105.126,59.359 108.006,60.158 109.340 C 60.311 109.595,60.159 109.570,59.803 109.282 C 59.297 108.872,59.186 108.872,59.203 109.282 C 59.264 110.794,59.026 111.517,58.402 111.715 C 58.006 111.841,57.669 112.373,57.621 112.950 C 57.516 114.217,57.197 114.757,56.724 114.465 C 56.524 114.341,56.347 114.382,56.331 114.556 C 56.125 116.797,55.669 117.907,55.091 117.575 C 54.820 117.419,54.729 117.435,54.889 117.612 C 55.049 117.788,54.983 118.168,54.743 118.457 C 54.503 118.746,54.423 118.982,54.565 118.982 C 54.706 118.982,54.631 119.340,54.397 119.776 C 54.164 120.213,53.835 120.485,53.666 120.380 C 53.497 120.276,53.340 120.403,53.317 120.663 C 53.225 121.693,52.975 122.497,52.656 122.787 C 52.470 122.956,52.469 122.830,52.654 122.505 C 52.944 121.995,52.899 121.990,52.311 122.467 C 51.939 122.769,51.680 123.297,51.736 123.641 C 51.792 123.985,51.490 124.668,51.066 125.159 C 50.261 126.090,50.227 126.189,50.147 127.789 C 50.117 128.376,49.863 128.767,49.511 128.767 C 49.162 128.767,48.924 129.126,48.924 129.651 C 48.924 130.138,48.571 130.756,48.141 131.025 C 47.571 131.381,47.358 131.937,47.358 133.076 C 47.358 134.513,47.097 134.844,46.086 134.684 C 45.813 134.641,45.613 135.944,45.768 136.759 C 45.806 136.957,45.595 136.918,45.300 136.673 C 44.335 135.873,44.411 139.417,45.378 140.292 C 45.811 140.684,46.071 141.157,45.956 141.344 C 45.841 141.530,46.207 141.683,46.771 141.683 C 47.454 141.683,47.701 141.836,47.513 142.141 C 47.324 142.446,47.441 142.518,47.861 142.357 C 48.310 142.184,48.428 142.283,48.269 142.697 C 48.146 143.018,48.199 143.252,48.386 143.218 C 49.371 143.038,50.028 143.331,50.211 144.031 C 50.324 144.462,50.697 144.814,51.040 144.814 C 51.383 144.814,51.663 145.078,51.663 145.401 C 51.663 145.724,51.920 145.988,52.233 145.988 C 52.782 145.988,53.960 147.005,55.186 148.536 C 55.509 148.940,55.565 149.145,55.311 148.992 C 55.057 148.840,54.736 148.897,54.599 149.119 C 54.461 149.342,54.198 149.430,54.013 149.316 C 53.828 149.202,53.564 149.463,53.426 149.896 C 53.289 150.330,52.930 150.685,52.629 150.685 C 52.328 150.685,51.894 151.037,51.663 151.468 C 51.416 151.930,50.844 152.250,50.267 152.250 C 49.730 152.250,49.192 152.508,49.071 152.823 C 48.950 153.137,48.515 153.501,48.105 153.632 C 47.694 153.762,47.358 154.121,47.358 154.430 C 47.358 154.738,47.106 154.990,46.797 154.990 C 46.489 154.990,46.125 155.342,45.988 155.773 C 45.852 156.204,45.576 156.578,45.375 156.605 C 45.174 156.632,44.790 156.676,44.521 156.703 C 44.251 156.729,43.767 157.320,43.444 158.015 C 43.121 158.710,42.570 159.282,42.220 159.287 C 41.870 159.292,41.341 159.593,41.046 159.958 C 40.588 160.522,40.590 160.571,41.059 160.289 C 41.434 160.062,41.519 160.102,41.325 160.416 C 41.169 160.668,40.890 160.780,40.705 160.665 C 40.519 160.551,40.255 160.639,40.117 160.861 C 39.980 161.083,39.692 161.157,39.477 161.024 C 39.262 160.891,38.990 161.152,38.871 161.604 C 38.749 162.073,38.339 162.427,37.919 162.427 C 37.514 162.427,37.182 162.670,37.182 162.968 C 37.182 163.266,36.830 163.602,36.399 163.714 C 35.922 163.839,35.616 164.248,35.616 164.761 C 35.616 165.225,35.474 165.516,35.300 165.409 C 35.126 165.301,34.664 165.640,34.273 166.161 C 33.881 166.682,33.407 167.013,33.219 166.897 C 33.031 166.781,32.877 167.043,32.877 167.479 C 32.877 168.037,32.696 168.203,32.266 168.039 C 31.863 167.884,31.585 168.076,31.447 168.602 C 31.333 169.040,30.885 169.492,30.453 169.605 C 30.021 169.718,29.778 169.989,29.913 170.208 C 30.048 170.427,29.802 170.798,29.365 171.031 C 28.929 171.265,28.571 171.714,28.571 172.029 C 28.571 172.345,28.219 172.603,27.789 172.603 C 27.267 172.603,27.006 172.864,27.006 173.386 C 27.006 173.816,26.819 174.168,26.591 174.168 C 26.363 174.168,26.284 174.342,26.416 174.555 C 26.553 174.777,26.396 174.843,26.048 174.709 C 25.579 174.529,25.440 174.754,25.440 175.692 C 25.440 176.647,25.272 176.908,24.658 176.908 C 24.216 176.908,23.875 177.169,23.875 177.507 C 23.875 177.837,23.611 178.208,23.288 178.332 C 22.965 178.456,22.701 178.791,22.701 179.076 C 22.701 179.362,22.336 179.711,21.890 179.852 C 21.390 180.011,21.162 180.328,21.296 180.676 C 21.415 180.988,21.257 181.341,20.945 181.461 C 20.632 181.581,20.162 182.270,19.902 182.991 C 19.641 183.712,19.288 184.217,19.119 184.112 C 18.949 184.007,18.550 184.545,18.231 185.307 C 17.913 186.069,17.545 186.693,17.414 186.693 C 17.282 186.693,17.301 186.489,17.454 186.241 C 17.627 185.961,17.562 185.895,17.282 186.068 C 17.033 186.222,16.830 186.845,16.830 187.453 C 16.830 188.229,16.597 188.619,16.047 188.763 C 15.495 188.907,15.264 189.297,15.264 190.084 C 15.264 190.777,14.967 191.387,14.481 191.690 C 14.051 191.959,13.699 192.442,13.699 192.763 C 13.699 193.084,13.486 193.302,13.227 193.249 C 12.765 193.153,12.672 193.383,12.573 194.866 C 12.546 195.272,12.167 195.697,11.730 195.811 C 11.294 195.925,10.962 196.166,10.994 196.346 C 11.223 197.649,10.871 198.801,10.176 199.022 C 9.590 199.207,9.393 199.614,9.393 200.637 C 9.393 201.388,9.229 201.902,9.029 201.778 C 8.496 201.449,8.177 202.157,8.067 203.915 C 8.014 204.769,7.822 205.603,7.640 205.767 C 7.459 205.932,7.438 205.846,7.592 205.577 C 7.747 205.308,7.706 205.088,7.501 205.088 C 7.064 205.088,6.654 206.030,6.654 207.035 C 6.654 207.425,6.371 207.852,6.026 207.985 C 5.681 208.117,5.495 208.477,5.613 208.784 C 5.730 209.091,5.653 209.401,5.440 209.472 C 5.227 209.543,5.025 209.982,4.989 210.448 C 4.954 210.915,4.750 211.264,4.535 211.225 C 4.321 211.186,4.115 211.375,4.078 211.644 C 4.042 211.913,3.963 212.265,3.903 212.427 C 3.685 213.016,3.612 213.529,3.568 214.775 C 3.537 215.625,3.328 216.047,2.935 216.047 C 2.485 216.047,2.348 216.545,2.348 218.177 C 2.348 219.888,2.189 220.420,1.538 220.875 C 0.948 221.289,0.868 221.499,1.245 221.649 C 1.628 221.803,1.635 221.864,1.272 221.887 C 0.938 221.908,0.783 222.665,0.783 224.266 C 0.783 225.881,0.630 226.616,0.294 226.620 C -0.033 226.624,0.000 226.753,0.391 227.006 C 0.783 227.259,0.815 227.387,0.489 227.391 C 0.110 227.396,0.000 229.736,0.000 237.769 L 0.000 248.141 1.719 248.141 C 2.816 248.141,3.513 248.336,3.645 248.679 C 3.759 248.974,4.464 249.331,5.213 249.472 C 5.962 249.612,6.790 249.987,7.054 250.304 C 7.342 250.651,8.214 250.881,9.246 250.881 C 10.437 250.881,11.197 251.119,11.742 251.663 C 12.267 252.189,13.046 252.446,14.113 252.446 C 15.017 252.446,15.603 252.607,15.472 252.818 C 15.174 253.300,16.423 253.944,17.363 253.793 C 17.816 253.721,18.167 253.963,18.289 254.431 C 18.433 254.982,18.832 255.186,19.765 255.186 C 20.715 255.186,21.096 255.387,21.248 255.969 C 21.361 256.399,21.713 256.751,22.031 256.751 C 22.349 256.751,22.711 257.140,22.835 257.615 C 22.959 258.090,23.170 258.370,23.302 258.237 C 23.569 257.970,25.832 260.194,25.832 260.723 C 25.832 260.907,26.084 261.057,26.392 261.057 C 26.701 261.057,27.065 261.409,27.202 261.840 C 27.338 262.270,27.702 262.622,28.011 262.622 C 28.319 262.622,28.571 262.886,28.571 263.209 C 28.571 263.532,28.792 263.817,29.061 263.842 C 29.330 263.866,29.726 263.928,29.941 263.978 C 30.157 264.028,30.553 264.095,30.822 264.128 C 31.091 264.161,31.311 264.452,31.311 264.775 C 31.311 265.098,31.619 265.686,31.996 266.081 C 32.373 266.477,32.908 267.137,33.185 267.549 C 33.462 267.961,33.581 268.033,33.449 267.710 C 33.289 267.316,33.394 267.348,33.771 267.808 C 34.080 268.185,34.579 268.493,34.881 268.493 C 35.182 268.493,35.648 268.845,35.917 269.276 C 36.186 269.706,36.669 270.059,36.990 270.059 C 37.311 270.059,37.529 270.271,37.476 270.530 C 37.379 270.996,37.613 271.089,39.139 271.184 C 39.644 271.216,39.922 271.510,39.922 272.016 C 39.922 272.538,40.183 272.798,40.705 272.798 C 41.145 272.798,41.487 273.059,41.487 273.395 C 41.487 273.746,41.974 274.090,42.670 274.229 C 43.320 274.359,43.945 274.616,44.060 274.801 C 44.174 274.986,43.965 275.022,43.596 274.880 C 43.140 274.705,43.015 274.770,43.207 275.080 C 43.363 275.332,44.008 275.538,44.641 275.538 C 45.675 275.538,45.992 275.882,45.833 276.829 C 45.804 277.000,46.003 277.105,46.276 277.061 C 47.030 276.938,48.164 277.532,47.923 277.923 C 47.805 278.113,47.982 278.164,48.316 278.036 C 48.650 277.908,48.924 277.998,48.924 278.236 C 48.924 278.474,49.286 278.669,49.730 278.669 C 50.173 278.669,50.437 278.829,50.317 279.023 C 50.068 279.426,53.256 281.409,54.153 281.409 C 54.477 281.409,54.861 281.785,55.007 282.243 C 55.174 282.772,55.372 282.915,55.546 282.634 C 55.722 282.349,56.130 282.609,56.687 283.362 C 57.163 284.007,57.681 284.514,57.837 284.491 C 58.737 284.354,59.478 284.602,59.393 285.012 C 59.293 285.497,59.539 285.581,61.294 285.665 C 62.020 285.700,62.251 285.880,62.094 286.289 C 61.973 286.605,62.027 286.958,62.215 287.074 C 62.402 287.190,62.645 287.063,62.754 286.793 C 62.911 286.402,62.958 286.402,62.983 286.791 C 63.000 287.060,63.382 287.280,63.833 287.280 C 64.323 287.280,64.735 287.594,64.857 288.063 C 65.034 288.740,65.898 289.070,67.025 288.892 C 67.187 288.866,67.275 289.066,67.221 289.335 C 67.167 289.604,67.343 289.780,67.613 289.726 C 67.882 289.672,68.102 289.815,68.102 290.043 C 68.102 290.271,68.290 290.341,68.519 290.199 C 68.750 290.057,69.034 290.310,69.152 290.763 C 69.317 291.394,69.675 291.585,70.691 291.585 C 71.755 291.585,72.016 291.739,72.016 292.368 C 72.016 292.947,72.277 293.151,73.017 293.151 C 73.568 293.151,73.915 293.318,73.789 293.522 C 73.506 293.981,74.809 294.716,75.904 294.716 C 76.348 294.716,76.668 294.936,76.614 295.205 C 76.554 295.509,77.057 295.740,77.944 295.814 C 78.969 295.899,79.428 296.148,79.571 296.694 C 79.688 297.143,80.107 297.456,80.590 297.456 C 81.040 297.456,81.365 297.676,81.311 297.945 C 81.257 298.214,81.433 298.390,81.703 298.337 C 81.972 298.283,82.192 298.423,82.192 298.647 C 82.192 298.872,82.412 299.027,82.681 298.992 C 83.608 298.872,84.148 299.022,84.051 299.374 C 83.997 299.568,84.058 299.700,84.186 299.667 C 84.315 299.635,84.667 299.806,84.969 300.048 C 85.271 300.289,85.820 300.438,86.189 300.378 C 86.576 300.315,86.963 300.597,87.105 301.045 C 87.241 301.471,87.434 301.737,87.536 301.636 C 87.917 301.255,89.824 302.036,89.824 302.572 C 89.824 302.949,90.360 303.170,91.467 303.250 C 92.795 303.347,93.063 303.491,92.867 304.003 C 92.685 304.477,92.789 304.573,93.278 304.386 C 93.639 304.247,93.933 304.305,93.933 304.513 C 93.933 304.722,94.286 304.892,94.716 304.892 C 95.151 304.892,95.499 305.153,95.499 305.479 C 95.499 305.875,95.894 306.067,96.710 306.067 C 97.591 306.067,97.976 306.279,98.125 306.849 C 98.284 307.458,98.659 307.632,99.806 307.632 C 100.972 307.632,101.271 307.776,101.229 308.317 C 101.187 308.836,101.555 309.050,102.740 309.198 C 103.783 309.328,104.306 309.589,104.306 309.980 C 104.307 310.303,104.571 310.591,104.893 310.620 C 105.216 310.649,105.788 310.693,106.164 310.718 C 106.541 310.743,106.849 311.017,106.849 311.328 C 106.849 311.712,107.380 311.931,108.513 312.013 C 109.845 312.109,110.153 312.270,110.061 312.818 C 109.984 313.279,110.200 313.503,110.723 313.503 C 111.150 313.503,111.610 313.682,111.746 313.901 C 111.881 314.119,112.160 314.194,112.366 314.067 C 112.571 313.940,112.691 314.046,112.632 314.302 C 112.573 314.559,112.872 314.826,113.297 314.897 C 113.721 314.967,114.282 315.316,114.542 315.673 C 114.803 316.029,115.162 316.231,115.340 316.121 C 115.801 315.836,118.200 316.907,118.200 317.398 C 118.200 317.624,118.686 317.808,119.280 317.808 C 119.936 317.808,120.552 318.115,120.849 318.591 C 121.160 319.090,121.761 319.374,122.508 319.374 C 123.236 319.374,123.642 319.559,123.581 319.863 C 123.527 320.132,123.704 320.308,123.973 320.254 C 124.242 320.201,124.462 320.333,124.462 320.548 C 124.462 320.763,124.902 320.939,125.440 320.939 C 125.978 320.939,126.375 321.138,126.321 321.381 C 126.267 321.623,126.742 321.898,127.377 321.992 C 128.012 322.085,128.770 322.503,129.063 322.920 C 129.355 323.338,130.013 323.679,130.524 323.679 C 131.088 323.679,131.545 323.967,131.686 324.410 C 131.814 324.812,132.222 325.140,132.593 325.139 C 134.209 325.135,134.638 325.280,134.638 325.832 C 134.638 326.155,134.902 326.441,135.225 326.468 C 135.548 326.495,135.988 326.561,136.204 326.614 C 136.419 326.668,136.771 326.734,136.986 326.761 C 137.202 326.788,137.378 327.074,137.378 327.397 C 137.378 327.821,137.813 327.984,138.943 327.984 C 140.229 327.984,140.509 328.119,140.509 328.740 C 140.509 329.223,140.827 329.544,141.389 329.630 C 141.874 329.704,142.222 329.993,142.163 330.273 C 142.103 330.553,142.223 330.678,142.429 330.551 C 142.635 330.424,142.914 330.499,143.049 330.718 C 143.184 330.936,143.637 331.115,144.054 331.115 C 144.472 331.115,144.814 331.380,144.814 331.703 C 144.814 332.051,145.173 332.290,145.698 332.290 C 146.185 332.290,146.803 332.642,147.072 333.072 C 147.348 333.515,147.984 333.855,148.536 333.855 C 149.072 333.855,149.511 334.031,149.511 334.247 C 149.511 334.462,149.697 334.638,149.925 334.638 C 150.153 334.638,150.213 334.418,150.058 334.149 C 149.895 333.864,149.926 333.796,150.133 333.986 C 150.329 334.165,150.489 334.517,150.489 334.768 C 150.489 335.020,150.886 335.281,151.370 335.350 C 151.854 335.419,152.250 335.685,152.250 335.942 C 152.250 336.388,153.217 337.044,154.697 337.602 C 155.073 337.744,155.382 338.108,155.382 338.410 C 155.382 338.713,155.866 339.174,156.458 339.435 C 157.050 339.696,157.764 340.221,158.046 340.601 C 158.327 340.981,158.889 341.292,159.295 341.292 C 159.700 341.292,160.158 341.495,160.311 341.743 C 160.499 342.046,160.409 342.092,160.041 341.882 C 159.661 341.665,159.612 341.697,159.883 341.984 C 160.098 342.212,160.714 342.463,161.252 342.540 C 161.791 342.617,162.186 342.900,162.130 343.169 C 162.075 343.437,162.472 343.826,163.014 344.031 C 163.555 344.237,163.953 344.605,163.897 344.850 C 163.842 345.094,164.233 345.367,164.767 345.457 C 165.300 345.546,165.917 345.801,166.136 346.023 C 166.410 346.299,166.289 346.353,165.753 346.195 C 165.275 346.054,165.350 346.159,165.946 346.465 C 166.482 346.741,167.231 347.275,167.609 347.652 C 167.988 348.028,168.562 348.337,168.885 348.337 C 169.211 348.337,169.472 348.684,169.472 349.119 C 169.472 349.840,170.329 350.167,171.593 349.926 C 171.791 349.889,171.702 350.166,171.397 350.542 C 171.091 350.919,171.049 351.102,171.304 350.949 C 171.558 350.797,171.876 350.851,172.012 351.070 C 172.147 351.289,172.581 351.468,172.975 351.468 C 173.370 351.468,173.795 351.732,173.918 352.055 C 174.042 352.378,174.393 352.642,174.697 352.642 C 175.002 352.642,175.343 352.994,175.456 353.425 C 175.577 353.888,175.990 354.207,176.468 354.207 C 177.073 354.207,177.211 354.378,177.018 354.892 C 176.792 355.495,176.841 355.512,177.431 355.033 C 178.022 354.551,178.069 354.570,177.829 355.195 C 177.653 355.654,177.706 355.810,177.980 355.640 C 178.634 355.236,179.548 355.741,179.782 356.634 C 179.908 357.117,180.209 357.357,180.533 357.233 C 180.830 357.119,181.275 357.348,181.521 357.742 C 181.767 358.136,182.459 358.514,183.059 358.583 C 183.824 358.671,184.116 358.904,184.040 359.365 C 183.970 359.790,184.246 360.069,184.823 360.157 C 185.313 360.231,185.674 360.498,185.624 360.749 C 185.575 361.000,185.867 361.310,186.273 361.439 C 186.679 361.568,187.111 361.931,187.231 362.246 C 187.357 362.574,187.958 362.818,188.637 362.818 C 189.699 362.818,190.019 363.148,189.870 364.090 C 189.845 364.251,190.245 364.384,190.760 364.384 C 191.276 364.384,191.803 364.659,191.932 364.995 C 192.061 365.332,192.344 365.498,192.561 365.364 C 192.778 365.230,192.955 365.307,192.955 365.535 C 192.955 365.763,193.219 365.949,193.542 365.949 C 193.865 365.949,194.129 366.177,194.129 366.455 C 194.129 366.733,195.186 367.445,196.477 368.038 C 197.777 368.635,198.826 369.370,198.826 369.685 C 198.826 370.029,199.208 370.254,199.792 370.254 C 200.511 370.254,200.698 370.412,200.522 370.871 C 200.370 371.265,200.480 371.454,200.827 371.396 C 201.574 371.271,202.870 371.849,203.248 372.475 C 203.421 372.761,203.905 372.994,204.325 372.994 C 204.745 372.994,205.044 373.202,204.990 373.455 C 204.936 373.709,205.421 374.104,206.067 374.334 C 206.712 374.563,207.474 375.016,207.759 375.340 C 208.217 375.861,208.248 375.861,208.023 375.342 C 207.884 375.020,208.055 375.108,208.403 375.538 C 208.751 375.969,209.116 376.277,209.214 376.223 C 209.696 375.960,210.176 376.182,210.176 376.670 C 210.176 377.117,211.376 377.706,212.590 377.855 C 212.733 377.872,212.997 378.047,213.177 378.243 C 213.370 378.454,213.264 378.470,212.916 378.283 C 212.509 378.064,212.449 378.095,212.720 378.383 C 212.935 378.612,213.552 378.858,214.090 378.930 C 214.641 379.003,215.068 379.317,215.068 379.648 C 215.068 380.022,215.523 380.279,216.322 380.356 C 217.135 380.435,217.657 380.735,217.808 381.213 C 217.960 381.691,218.481 381.992,219.295 382.071 C 220.042 382.143,220.508 382.389,220.450 382.681 C 220.396 382.950,220.749 383.197,221.233 383.230 C 221.717 383.263,222.328 383.309,222.589 383.332 C 222.851 383.356,223.291 383.678,223.568 384.048 C 223.844 384.418,224.462 384.779,224.941 384.849 C 225.420 384.919,225.948 385.127,226.115 385.310 C 226.283 385.494,226.155 385.494,225.832 385.311 C 225.326 385.023,225.319 385.068,225.782 385.639 C 226.077 386.003,226.738 386.301,227.249 386.301 C 227.761 386.301,228.180 386.449,228.180 386.630 C 228.180 387.102,230.007 387.867,231.134 387.867 C 231.726 387.867,232.094 388.092,232.094 388.454 C 232.094 388.888,232.549 389.041,233.843 389.041 C 235.313 389.041,235.552 389.145,235.342 389.692 C 235.174 390.130,235.242 390.251,235.550 390.061 C 235.802 389.905,236.008 389.964,236.008 390.192 C 236.008 390.429,236.848 390.607,237.965 390.607 C 239.266 390.607,239.924 390.771,239.928 391.096 C 239.932 391.422,240.060 391.389,240.313 390.998 C 240.566 390.607,240.695 390.574,240.699 390.900 C 240.703 391.279,243.004 391.389,250.881 391.389 C 257.404 391.389,261.057 391.249,261.057 390.998 C 261.057 390.783,262.011 390.607,263.177 390.607 C 264.507 390.607,265.370 390.424,265.494 390.117 C 265.652 389.726,265.698 389.726,265.723 390.117 C 265.740 390.386,265.959 390.607,266.210 390.607 C 266.461 390.607,266.558 390.498,266.424 390.364 C 265.834 389.774,267.398 389.041,269.248 389.041 C 270.751 389.041,271.233 388.899,271.233 388.454 C 271.233 388.045,271.677 387.853,272.701 387.822 C 274.128 387.778,274.638 387.711,275.245 387.486 C 275.406 387.427,275.758 387.348,276.027 387.311 C 276.296 387.274,276.473 387.032,276.419 386.773 C 276.362 386.501,276.778 386.288,277.397 386.269 C 279.621 386.201,280.364 386.015,280.803 385.415 C 281.052 385.075,281.862 384.739,282.604 384.669 C 283.425 384.590,283.915 384.348,283.855 384.051 C 283.801 383.782,284.066 383.550,284.442 383.535 C 284.819 383.520,285.656 383.421,286.301 383.314 C 286.947 383.208,287.686 383.103,287.943 383.080 C 288.200 383.058,288.376 382.849,288.334 382.616 C 288.291 382.371,289.076 382.140,290.191 382.070 C 291.526 381.985,292.332 381.706,292.801 381.165 C 293.268 380.627,293.987 380.375,295.102 380.360 C 296.250 380.344,296.859 380.122,297.184 379.601 C 297.516 379.070,298.103 378.865,299.288 378.865 C 300.192 378.865,301.058 378.662,301.212 378.413 C 301.378 378.143,301.320 378.067,301.066 378.224 C 300.832 378.368,300.536 378.317,300.408 378.109 C 300.280 377.902,300.488 377.789,300.870 377.860 C 301.919 378.054,303.327 377.403,303.327 376.725 C 303.327 376.261,303.802 376.125,305.432 376.125 C 306.936 376.125,307.689 375.936,308.073 375.463 C 308.536 374.892,308.530 374.847,308.023 375.134 C 307.674 375.333,307.568 375.324,307.763 375.112 C 308.140 374.700,308.272 374.674,310.372 374.609 C 311.416 374.576,311.937 374.380,311.937 374.022 C 311.937 373.485,313.550 372.994,315.313 372.994 C 315.878 372.994,316.243 372.764,316.243 372.407 C 316.243 371.972,316.699 371.820,318.004 371.820 C 318.983 371.820,319.765 371.636,319.765 371.405 C 319.765 371.178,319.969 371.117,320.217 371.270 C 320.487 371.437,320.563 371.378,320.406 371.125 C 320.076 370.590,320.434 370.369,321.918 370.196 C 322.564 370.120,323.298 369.795,323.550 369.472 C 324.007 368.885,324.165 368.830,325.636 368.738 C 326.067 368.711,326.419 368.425,326.419 368.102 C 326.419 367.561,328.140 367.257,329.874 367.492 C 330.160 367.531,330.488 367.200,330.604 366.756 C 330.781 366.082,331.126 365.949,332.700 365.949 C 334.241 365.949,334.631 365.806,334.834 365.166 C 335.033 364.539,335.426 364.384,336.817 364.384 C 337.878 364.384,338.552 364.206,338.552 363.927 C 338.552 363.676,338.667 363.585,338.807 363.725 C 338.947 363.865,339.255 363.722,339.492 363.407 C 339.728 363.092,340.494 362.793,341.194 362.743 C 341.923 362.691,342.466 362.436,342.466 362.148 C 342.466 361.871,342.818 361.622,343.249 361.595 C 344.648 361.507,344.774 361.457,345.286 360.777 C 345.601 360.361,346.428 360.072,347.468 360.015 C 348.693 359.948,349.089 359.781,348.940 359.394 C 348.829 359.102,348.899 358.964,349.097 359.086 C 349.295 359.208,349.567 359.129,349.703 358.910 C 349.838 358.692,350.554 358.513,351.295 358.513 C 352.231 358.513,352.642 358.334,352.642 357.926 C 352.642 357.391,354.052 357.102,355.663 357.307 C 355.925 357.340,356.364 357.009,356.638 356.570 C 357.012 355.971,357.549 355.773,358.803 355.773 C 359.719 355.773,360.470 355.586,360.470 355.359 C 360.470 355.131,360.266 355.070,360.018 355.223 C 359.731 355.400,359.672 355.330,359.857 355.032 C 360.082 354.667,360.275 354.666,360.709 355.027 C 361.165 355.405,361.224 355.371,361.024 354.850 C 360.830 354.344,361.036 354.197,361.993 354.159 C 364.036 354.076,364.190 354.016,364.134 353.317 C 364.092 352.802,364.388 352.642,365.386 352.642 C 366.150 352.642,366.832 352.394,367.027 352.046 C 367.222 351.697,367.967 351.427,368.824 351.395 C 369.629 351.364,370.380 351.189,370.494 351.006 C 370.607 350.822,370.868 350.776,371.074 350.903 C 371.280 351.030,371.400 350.901,371.340 350.616 C 371.268 350.265,371.761 350.059,372.866 349.979 C 373.783 349.912,374.726 349.579,375.018 349.219 C 375.456 348.679,375.451 348.630,374.988 348.909 C 374.657 349.109,374.531 349.092,374.670 348.866 C 374.797 348.661,375.648 348.449,376.561 348.395 C 378.434 348.284,378.980 348.057,378.653 347.527 C 378.529 347.326,378.658 347.148,378.940 347.130 C 381.071 346.994,382.779 346.475,382.779 345.962 C 382.779 345.761,383.219 345.597,383.757 345.597 C 384.475 345.597,384.736 345.388,384.736 344.814 C 384.736 344.134,384.997 344.031,386.729 344.031 C 388.394 344.031,388.757 343.902,388.928 343.249 C 389.065 342.723,389.462 342.466,390.132 342.466 C 390.682 342.466,391.447 342.181,391.832 341.832 C 392.248 341.456,393.179 341.208,394.125 341.221 C 395.293 341.237,395.845 341.040,396.192 340.484 C 396.469 340.041,397.101 339.726,397.713 339.726 C 398.289 339.726,398.849 339.506,398.958 339.237 C 399.116 338.845,399.162 338.845,399.186 339.237 C 399.203 339.506,399.393 339.726,399.609 339.726 C 399.854 339.726,400.000 337.312,400.000 333.268 C 400.000 329.374,399.850 326.810,399.622 326.810 C 399.409 326.810,399.195 324.972,399.133 322.603 C 399.042 319.173,398.913 318.395,398.434 318.395 C 397.960 318.395,397.826 317.661,397.735 314.579 C 397.646 311.541,397.507 310.763,397.050 310.763 C 396.655 310.763,396.468 310.309,396.446 309.295 C 396.408 307.524,396.148 303.314,396.036 302.664 C 395.992 302.407,395.765 302.230,395.532 302.272 C 395.283 302.317,395.026 301.377,394.910 300.000 C 394.802 298.708,394.571 297.432,394.398 297.162 C 394.217 296.881,394.259 296.673,394.497 296.673 C 394.725 296.673,394.912 296.484,394.912 296.254 C 394.912 295.675,393.886 294.699,393.589 294.996 C 393.455 295.129,393.324 294.240,393.297 293.020 C 393.220 289.499,393.178 289.225,392.670 288.911 C 392.377 288.730,392.124 287.334,392.020 285.325 C 391.895 282.918,391.683 281.914,391.228 281.582 C 390.738 281.223,390.605 280.353,390.601 277.452 C 390.595 273.746,390.276 272.473,389.476 272.967 C 389.127 273.183,388.828 268.035,389.067 265.913 C 389.081 265.786,388.773 265.421,388.382 265.102 C 387.956 264.753,387.906 264.623,388.258 264.775 C 388.670 264.953,388.647 264.866,388.182 264.483 C 387.664 264.057,387.503 263.195,387.444 260.550 C 387.403 258.687,387.222 257.253,387.043 257.364 C 386.669 257.595,386.377 256.508,386.170 254.107 C 386.092 253.191,385.736 252.120,385.381 251.728 C 384.887 251.182,384.736 250.227,384.736 247.647 C 384.736 244.623,384.656 244.254,383.953 244.031 C 383.247 243.807,383.170 243.439,383.170 240.287 C 383.170 237.754,383.035 236.789,382.681 236.785 C 382.355 236.781,382.387 236.652,382.779 236.399 C 383.205 236.124,383.226 236.018,382.854 236.014 C 382.572 236.011,382.441 235.847,382.563 235.650 C 382.684 235.453,382.600 235.231,382.375 235.156 C 382.150 235.081,381.889 233.551,381.795 231.757 C 381.701 229.963,381.362 227.969,381.041 227.327 C 380.709 226.661,380.430 224.908,380.391 223.246 C 380.354 221.643,380.169 220.237,379.979 220.120 C 379.790 220.003,379.755 219.713,379.901 219.476 C 380.073 219.199,379.935 219.134,379.516 219.295 C 378.951 219.512,378.865 219.215,378.865 217.036 C 378.865 215.656,378.680 214.413,378.455 214.274 C 378.175 214.101,378.191 213.843,378.508 213.462 C 378.876 213.018,378.800 212.755,378.135 212.179 C 377.453 211.587,377.299 211.017,377.299 209.077 C 377.299 207.702,377.109 206.582,376.848 206.421 C 376.545 206.233,376.499 206.323,376.709 206.691 C 376.930 207.078,376.896 207.125,376.591 206.847 C 376.346 206.623,376.131 204.872,376.093 202.786 C 376.034 199.561,375.938 199.095,375.293 198.926 C 374.649 198.758,374.236 194.226,374.585 191.164 C 374.600 191.040,374.266 190.640,373.845 190.274 C 373.210 189.723,373.055 188.987,372.939 185.967 C 372.837 183.321,372.638 182.199,372.211 181.866 C 371.888 181.615,371.601 180.881,371.573 180.235 C 371.544 179.589,371.473 177.969,371.414 176.635 C 371.348 175.144,371.142 174.239,370.878 174.286 C 370.620 174.333,370.404 173.479,370.333 172.134 C 370.239 170.325,370.072 169.858,369.453 169.661 C 368.759 169.441,368.689 169.041,368.689 165.299 C 368.689 161.508,368.626 161.163,367.906 160.974 C 367.211 160.793,366.677 155.863,367.077 153.327 C 367.102 153.165,366.937 153.033,366.709 153.033 C 366.481 153.033,366.403 152.857,366.536 152.642 C 366.669 152.427,366.582 152.250,366.343 152.250 C 365.788 152.250,365.897 146.458,366.458 146.111 C 366.699 145.962,366.729 146.067,366.536 146.380 C 366.324 146.723,366.372 146.798,366.682 146.606 C 366.936 146.449,367.119 146.114,367.087 145.861 C 366.852 143.958,367.181 140.107,367.558 140.340 C 368.282 140.787,368.677 139.661,368.683 137.130 C 368.688 135.134,368.810 134.698,369.406 134.542 C 369.924 134.406,370.139 133.953,370.178 132.914 C 370.207 132.122,370.501 131.204,370.830 130.875 C 371.339 130.367,371.627 128.257,371.534 125.734 C 371.524 125.465,371.682 125.245,371.887 125.245 C 372.091 125.245,372.146 125.064,372.010 124.844 C 371.873 124.623,371.995 124.491,372.280 124.550 C 372.666 124.630,372.828 123.911,372.915 121.746 C 373.009 119.384,373.176 118.733,373.796 118.299 C 374.430 117.855,374.560 117.298,374.560 115.023 C 374.560 113.516,374.716 112.379,374.907 112.497 C 375.441 112.827,376.195 111.694,376.113 110.686 C 375.916 108.292,376.141 106.849,376.712 106.849 C 377.128 106.849,377.314 106.393,377.348 105.284 C 377.420 102.978,377.438 102.914,378.147 102.395 C 378.599 102.065,378.800 101.342,378.800 100.048 C 378.800 98.890,379.036 97.916,379.419 97.492 C 381.041 95.701,379.726 93.933,376.771 93.933 C 375.255 93.933,374.571 93.744,374.098 93.191 C 373.556 92.558,372.868 92.441,369.449 92.399 C 366.222 92.360,365.344 92.225,364.967 91.709 C 364.592 91.197,363.604 91.039,360.047 90.925 C 356.644 90.815,355.521 90.646,355.274 90.205 C 355.017 89.745,353.967 89.628,350.105 89.628 C 345.716 89.628,345.236 89.559,345.026 88.897 C 344.899 88.495,344.490 88.167,344.119 88.168 C 336.620 88.189,335.117 88.051,334.927 87.324 C 334.762 86.689,334.328 86.578,331.868 86.541 C 330.269 86.517,328.820 86.299,328.591 86.048 C 328.292 85.722,328.330 85.685,328.730 85.913 C 329.040 86.090,329.184 86.072,329.061 85.873 C 328.870 85.564,326.540 85.342,321.722 85.175 C 320.969 85.149,320.119 84.863,319.834 84.540 C 319.373 84.018,319.344 84.018,319.569 84.540 C 319.735 84.924,319.629 84.890,319.262 84.442 C 318.793 83.871,318.034 83.757,314.677 83.757 C 311.320 83.757,310.561 83.644,310.092 83.072 C 309.784 82.696,309.624 82.578,309.738 82.811 C 309.853 83.045,309.706 83.235,309.413 83.235 C 309.121 83.235,308.974 82.993,309.087 82.698 C 309.201 82.402,309.140 82.188,308.952 82.222 C 306.940 82.589,300.196 82.114,300.196 81.605 C 300.196 81.282,300.020 80.996,299.804 80.969 C 299.589 80.942,299.268 80.898,299.091 80.871 C 298.915 80.844,298.462 80.514,298.085 80.137 C 297.708 79.760,297.060 79.452,296.645 79.452 C 296.132 79.452,295.890 79.181,295.890 78.604 C 295.890 78.138,295.779 77.867,295.643 78.003 C 295.221 78.425,293.890 77.491,294.193 76.986 C 294.349 76.726,294.136 76.773,293.715 77.091 C 293.297 77.407,293.084 77.512,293.242 77.325 C 293.689 76.797,291.660 75.147,290.563 75.147 C 290.024 75.147,289.679 74.991,289.796 74.800 C 289.996 74.476,288.888 73.268,288.590 73.483 C 288.067 73.860,287.280 73.448,287.280 72.798 C 287.280 72.277,287.019 72.016,286.497 72.016 C 286.067 72.016,285.714 71.763,285.714 71.455 C 285.714 71.147,285.378 70.788,284.968 70.657 C 284.557 70.527,284.122 70.163,284.001 69.848 C 283.876 69.520,283.275 69.276,282.595 69.276 C 281.670 69.276,281.409 69.104,281.409 68.493 C 281.409 67.971,281.148 67.710,280.626 67.710 C 280.191 67.710,279.843 67.449,279.843 67.123 C 279.843 66.800,279.711 66.523,279.550 66.506 C 277.795 66.327,276.616 65.834,276.889 65.393 C 277.013 65.192,276.777 64.920,276.363 64.788 C 275.949 64.657,275.512 64.292,275.391 63.977 C 275.265 63.649,274.665 63.405,273.985 63.405 C 273.059 63.405,272.798 63.233,272.798 62.622 C 272.798 62.172,272.538 61.840,272.183 61.840 C 271.405 61.840,270.398 60.858,270.762 60.454 C 270.913 60.286,270.746 60.253,270.390 60.380 C 270.035 60.508,269.418 60.359,269.020 60.050 C 268.322 59.508,268.323 59.498,269.047 59.752 C 269.564 59.934,269.708 59.874,269.513 59.558 C 269.357 59.306,268.712 59.100,268.079 59.100 C 267.189 59.100,266.928 58.922,266.928 58.317 C 266.928 57.743,266.667 57.534,265.949 57.534 C 265.379 57.534,265.011 57.332,265.068 57.049 C 265.122 56.782,264.594 56.394,263.894 56.185 C 263.195 55.977,262.622 55.579,262.622 55.301 C 262.622 54.841,262.126 54.626,261.350 54.748 C 261.189 54.774,261.057 54.530,261.057 54.207 C 261.057 53.885,260.887 53.620,260.681 53.620 C 260.474 53.620,259.919 53.224,259.449 52.740 C 258.978 52.255,258.720 52.123,258.876 52.446 C 259.048 52.805,258.940 52.767,258.596 52.348 C 258.288 51.972,257.767 51.663,257.439 51.663 C 257.111 51.663,256.749 51.306,256.635 50.869 C 256.521 50.433,256.280 50.101,256.100 50.133 C 255.425 50.252,254.796 50.088,254.841 49.804 C 254.963 49.031,254.744 48.787,254.403 49.315 C 254.150 49.706,254.022 49.739,254.018 49.413 C 254.014 49.144,253.659 48.924,253.229 48.924 C 252.542 48.924,252.279 48.541,252.385 47.698 C 252.402 47.561,251.882 47.343,251.231 47.213 C 250.454 47.057,250.144 46.817,250.332 46.513 C 250.523 46.203,250.410 46.131,249.986 46.293 C 249.570 46.453,249.273 46.276,249.113 45.773 C 248.980 45.353,248.619 45.010,248.310 45.010 C 248.002 45.010,247.750 44.815,247.750 44.577 C 247.750 44.338,247.485 44.245,247.162 44.369 C 246.840 44.492,246.553 44.423,246.526 44.215 C 246.500 44.006,246.455 43.615,246.429 43.346 C 246.402 43.077,246.174 42.857,245.923 42.857 C 245.672 42.857,245.320 42.697,245.140 42.501 C 244.951 42.294,245.019 42.263,245.303 42.426 C 245.572 42.581,245.793 42.521,245.793 42.293 C 245.793 42.065,245.518 41.879,245.182 41.879 C 244.847 41.879,244.681 41.703,244.814 41.487 C 244.947 41.272,244.859 41.096,244.618 41.096 C 244.378 41.096,244.308 40.890,244.464 40.638 C 244.654 40.330,244.533 40.262,244.096 40.430 C 243.737 40.567,243.422 40.509,243.395 40.301 C 243.368 40.092,243.324 39.746,243.297 39.530 C 243.271 39.315,243.094 39.153,242.906 39.171 C 242.717 39.189,242.253 38.732,241.875 38.155 C 241.394 37.422,241.123 37.265,240.976 37.633 C 240.861 37.923,240.752 37.688,240.735 37.111 C 240.715 36.421,240.436 35.975,239.922 35.812 C 239.491 35.675,239.139 35.318,239.139 35.017 C 239.139 34.716,238.782 34.279,238.345 34.045 C 237.909 33.811,237.645 33.469,237.759 33.284 C 237.873 33.099,237.394 32.466,236.694 31.877 C 235.994 31.288,235.421 30.699,235.421 30.569 C 235.421 30.439,235.289 30.377,235.127 30.431 C 234.859 30.520,234.685 29.945,234.779 29.280 C 234.800 29.132,234.469 28.900,234.043 28.765 C 233.604 28.625,233.268 28.172,233.268 27.720 C 233.268 27.172,233.085 26.993,232.681 27.147 C 232.276 27.303,232.094 27.122,232.094 26.566 C 232.094 26.088,231.775 25.675,231.311 25.554 C 230.881 25.441,230.528 25.117,230.528 24.834 C 230.528 24.551,230.187 24.211,229.770 24.078 C 229.316 23.934,228.962 23.412,228.889 22.780 C 228.802 22.023,228.572 21.755,228.082 21.837 C 227.579 21.922,227.397 21.688,227.397 20.956 C 227.397 20.073,227.040 19.776,226.139 19.910 C 225.986 19.933,225.954 19.705,226.070 19.404 C 226.193 19.083,225.962 18.757,225.511 18.613 C 225.088 18.479,224.651 18.023,224.541 17.600 C 224.430 17.176,224.059 16.830,223.716 16.830 C 223.353 16.830,223.092 16.502,223.092 16.047 C 223.092 15.616,222.842 15.264,222.536 15.264 C 222.230 15.264,221.861 14.724,221.716 14.064 C 221.571 13.404,221.161 12.743,220.805 12.596 C 220.448 12.449,220.157 12.065,220.157 11.742 C 220.157 11.419,219.933 11.200,219.659 11.255 C 219.385 11.311,218.993 10.914,218.788 10.375 C 218.583 9.835,218.146 9.393,217.818 9.393 C 217.490 9.393,217.221 9.129,217.221 8.806 C 217.221 8.483,217.017 8.263,216.767 8.317 C 216.517 8.371,216.208 8.008,216.082 7.511 C 215.955 7.014,215.719 6.618,215.558 6.631 C 214.706 6.698,214.560 6.559,214.344 5.479 C 214.215 4.834,213.919 4.305,213.685 4.305 C 213.452 4.305,213.387 4.509,213.540 4.757 C 213.719 5.046,213.647 5.102,213.342 4.914 C 213.079 4.751,212.956 4.526,213.069 4.413 C 213.182 4.300,212.965 3.922,212.587 3.572 C 212.210 3.222,212.129 3.089,212.408 3.277 C 212.728 3.492,212.916 3.451,212.916 3.167 C 212.916 2.918,212.658 2.616,212.344 2.496 C 212.029 2.375,211.665 1.940,211.535 1.529 C 211.404 1.119,211.045 0.783,210.737 0.783 C 210.428 0.783,210.176 0.607,210.176 0.391 C 210.176 0.163,208.871 0.000,207.045 0.000 C 204.804 0.000,203.912 0.139,203.908 0.489 C 203.903 0.860,203.830 0.866,203.606 0.513 C 203.406 0.198,203.026 0.461,202.438 1.320 M379.648 96.086 C 379.648 96.599,379.516 97.100,379.354 97.200 C 379.193 97.300,379.061 96.798,379.061 96.086 C 379.061 95.374,379.193 94.873,379.354 94.972 C 379.516 95.072,379.648 95.573,379.648 96.086 M170.632 181.059 C 171.829 181.665,172.510 182.278,174.202 184.273 C 174.914 185.112,175.783 189.880,175.324 190.433 C 175.106 190.696,173.937 191.035,172.725 191.186 C 171.514 191.337,170.309 191.543,170.048 191.643 C 169.351 191.911,168.297 190.695,168.297 189.622 C 168.297 189.105,167.910 188.423,167.423 188.082 C 166.337 187.321,166.019 187.887,165.977 190.656 C 165.919 194.466,165.975 194.558,171.630 199.870 C 173.896 201.999,175.033 203.980,176.195 207.828 C 176.782 209.770,176.412 216.917,175.666 218.070 C 175.341 218.572,174.958 219.423,174.814 219.961 C 173.886 223.446,168.435 225.576,163.715 224.299 C 158.709 222.945,155.483 214.419,159.435 212.990 C 162.617 211.839,164.775 212.470,164.775 214.551 C 164.775 215.686,166.010 217.613,166.738 217.613 C 168.014 217.613,168.297 216.733,168.297 212.773 C 168.297 208.505,168.475 208.908,165.215 205.762 C 164.273 204.853,163.040 203.660,162.475 203.111 C 161.188 201.859,159.687 199.771,159.687 199.232 C 159.687 199.007,159.335 198.166,158.904 197.362 C 157.926 195.538,157.750 187.795,158.656 186.486 C 158.950 186.062,159.326 185.281,159.491 184.751 C 160.657 181.020,166.642 179.036,170.632 181.059 M264.894 180.864 C 266.904 181.767,269.136 183.993,269.535 185.493 C 269.674 186.016,270.024 186.897,270.312 187.449 C 272.052 190.783,270.774 192.564,266.640 192.564 C 263.565 192.564,263.016 192.212,263.008 190.235 C 262.995 187.179,261.256 186.796,260.248 189.628 C 259.203 192.566,259.169 211.606,260.203 215.068 C 261.254 218.590,262.988 218.488,263.008 214.904 C 263.023 212.375,267.598 211.717,270.386 213.843 C 272.464 215.427,267.871 223.745,264.553 224.408 C 260.057 225.308,254.012 222.940,254.012 220.279 C 254.012 220.031,253.763 219.549,253.459 219.209 C 253.155 218.869,252.698 217.534,252.443 216.243 C 252.188 214.951,251.828 213.190,251.643 212.329 C 251.199 210.267,251.208 194.376,251.653 192.368 C 251.844 191.507,252.255 189.665,252.565 188.275 C 252.876 186.885,253.328 185.681,253.571 185.600 C 253.813 185.520,254.017 185.160,254.023 184.801 C 254.080 181.578,260.946 179.091,264.894 180.864 M125.273 181.529 C 127.743 182.497,131.507 187.694,131.507 190.136 C 131.507 190.589,131.771 191.974,132.094 193.214 C 132.782 195.857,132.893 208.490,132.253 211.350 C 132.036 212.319,131.701 213.955,131.508 214.986 C 130.732 219.136,128.892 221.818,125.722 223.420 C 123.753 224.414,114.486 224.702,113.581 223.796 C 112.717 222.932,112.925 181.760,113.796 181.215 C 114.630 180.694,123.780 180.944,125.273 181.529 M148.180 181.121 C 149.295 181.866,149.385 183.553,149.351 202.973 C 149.322 219.307,149.217 223.089,148.778 223.618 C 147.935 224.634,142.644 224.548,142.088 223.509 C 141.348 222.127,141.548 182.187,142.298 181.437 C 142.945 180.790,147.331 180.555,148.180 181.121 M198.739 181.431 C 200.800 182.875,199.720 187.863,197.344 187.873 C 194.962 187.883,195.065 187.060,195.087 205.804 C 195.111 225.930,195.497 224.266,190.806 224.266 C 186.779 224.266,187.084 225.778,187.084 205.838 L 187.084 188.350 186.204 188.114 C 185.719 187.984,184.849 187.875,184.270 187.872 C 182.958 187.866,182.858 187.699,182.540 184.996 C 182.340 183.290,182.427 182.582,182.931 181.812 L 183.580 180.822 190.724 180.822 C 196.557 180.822,198.029 180.934,198.739 181.431 M217.731 181.198 C 221.950 181.889,224.045 184.532,224.741 190.043 C 225.555 196.492,224.441 202.172,221.979 204.127 C 221.540 204.475,221.552 204.783,222.050 205.976 C 222.379 206.763,222.774 208.250,222.927 209.281 C 223.081 210.311,223.424 211.507,223.690 211.937 C 223.956 212.368,224.276 213.663,224.402 214.816 C 224.528 215.969,224.822 217.143,225.056 217.426 C 225.290 217.708,225.664 219.106,225.886 220.533 C 226.424 223.989,226.175 224.266,222.525 224.266 C 219.050 224.266,218.231 223.593,217.804 220.390 C 217.649 219.227,217.302 217.730,217.032 217.064 C 216.762 216.397,216.425 214.806,216.282 213.529 C 216.140 212.251,215.818 210.959,215.568 210.657 C 215.317 210.355,214.992 209.375,214.846 208.479 C 214.699 207.581,214.557 210.307,214.530 214.554 C 214.468 224.424,214.526 224.266,210.902 224.266 C 206.259 224.266,206.654 226.288,206.654 202.506 L 206.654 182.040 207.523 181.431 C 208.538 180.720,214.045 180.595,217.731 181.198 M241.443 181.355 C 241.763 181.741,241.857 187.730,241.784 202.980 L 241.683 224.070 238.798 224.186 C 234.037 224.378,234.442 226.395,234.442 202.506 L 234.442 182.040 235.312 181.431 C 236.434 180.646,240.809 180.591,241.443 181.355 M292.842 181.586 C 294.831 183.150,293.624 187.860,291.231 187.872 C 290.672 187.875,289.821 187.983,289.339 188.113 L 288.462 188.348 288.360 206.209 L 288.258 224.070 285.090 224.183 C 280.472 224.347,280.855 225.951,280.626 205.518 L 280.431 188.063 278.865 187.853 C 276.682 187.561,276.402 187.304,276.104 185.319 C 275.475 181.123,275.959 180.879,284.977 180.847 C 291.243 180.824,291.959 180.891,292.842 181.586 M121.186 188.142 C 120.834 188.494,120.879 216.357,121.233 216.562 C 122.276 217.165,123.078 216.047,123.733 213.080 C 124.514 209.542,124.751 195.866,124.075 193.392 C 123.862 192.613,123.504 191.231,123.279 190.320 C 122.897 188.774,121.749 187.579,121.186 188.142 M214.481 193.542 L 214.481 198.826 215.403 198.826 C 216.509 198.826,216.999 195.503,216.572 190.904 C 216.344 188.455,216.257 188.258,215.404 188.258 L 214.481 188.258 214.481 193.542 " stroke="none" fill="#8c744c" fill-rule="evenodd"></path><path id="path2" d="M164.414 181.595 C 156.611 184.236,156.563 195.732,164.321 203.523 C 169.102 208.323,170.506 212.565,168.754 216.917 C 167.959 218.891,165.011 218.683,164.584 216.623 C 164.474 216.091,164.297 215.236,164.192 214.724 C 163.972 213.651,163.076 213.404,160.470 213.697 L 158.708 213.894 158.711 216.243 C 158.717 222.129,165.157 225.771,170.753 223.052 C 177.395 219.825,177.347 206.031,170.672 200.083 C 165.770 195.713,164.400 193.263,165.001 189.943 C 165.805 185.508,167.956 185.288,168.869 189.548 C 169.101 190.629,169.135 190.640,171.734 190.526 L 174.364 190.411 174.485 188.739 C 174.845 183.750,169.418 179.900,164.414 181.595 M258.554 181.620 C 254.238 182.911,252.055 189.873,252.055 202.348 C 252.055 217.675,254.842 223.878,261.726 223.873 C 265.636 223.871,267.940 221.923,269.299 217.467 C 270.263 214.310,270.131 214.059,267.317 213.698 C 264.848 213.382,263.986 213.919,263.657 215.982 C 263.188 218.914,261.006 219.272,259.687 216.634 C 258.579 214.418,258.473 190.414,259.563 188.426 C 261.068 185.680,262.642 185.933,263.573 189.071 C 264.349 191.682,264.796 192.184,266.291 192.121 L 267.515 192.069 266.160 191.827 C 265.051 191.629,264.759 191.372,264.555 190.411 C 263.044 183.315,259.032 184.618,258.503 192.377 C 257.955 200.411,258.451 215.687,259.307 217.135 C 261.091 220.155,263.211 219.230,264.715 214.775 C 265.006 213.911,268.786 213.770,269.109 214.611 C 269.443 215.482,268.541 218.726,267.511 220.359 C 265.148 224.101,258.766 224.451,255.923 220.994 C 252.165 216.425,251.290 195.157,254.507 186.562 C 257.123 179.571,267.472 180.418,268.860 187.738 C 269.295 190.033,269.064 191.278,268.159 191.519 C 267.715 191.637,267.784 191.704,268.382 191.735 C 269.847 191.812,270.140 190.607,269.371 187.663 C 268.029 182.519,263.675 180.087,258.554 181.620 M114.579 181.874 C 113.457 182.168,113.527 222.477,114.651 223.078 C 117.268 224.479,126.063 223.114,127.812 221.036 C 133.820 213.896,133.110 188.588,126.759 183.471 C 124.731 181.837,118.065 180.964,114.579 181.874 M142.955 181.864 C 142.439 182.072,142.197 221.544,142.703 222.864 C 143.046 223.758,147.756 223.758,148.099 222.864 C 148.715 221.259,148.351 182.085,147.718 181.842 C 146.990 181.563,143.663 181.578,142.955 181.864 M168.596 181.979 C 171.696 182.566,174.329 185.708,174.095 188.540 L 173.973 190.020 171.630 190.020 C 169.587 190.020,169.271 189.919,169.168 189.237 C 168.853 187.157,168.594 186.637,167.703 186.299 C 166.381 185.796,165.797 186.103,165.035 187.702 C 163.357 191.220,164.616 195.148,168.617 198.880 C 172.714 202.701,173.721 204.178,174.584 207.630 C 177.174 217.995,171.228 226.121,163.542 222.721 C 158.848 220.644,157.105 214.401,161.154 214.167 C 163.378 214.039,163.345 214.009,164.245 217.018 C 165.176 220.137,168.511 219.278,169.533 215.656 C 170.836 211.038,169.801 208.408,164.570 203.039 C 160.415 198.774,160.447 198.834,159.278 193.151 C 158.747 190.570,160.204 185.146,161.860 183.542 C 162.989 182.448,163.688 182.155,166.385 181.650 C 166.517 181.625,167.512 181.773,168.596 181.979 M183.640 182.074 C 182.098 183.617,183.398 187.084,185.519 187.084 C 187.901 187.084,187.867 186.819,187.867 205.571 C 187.867 224.561,187.689 223.483,190.833 223.483 C 194.088 223.483,193.907 224.501,194.129 204.940 L 194.325 187.690 195.499 187.348 C 198.213 186.559,198.623 186.181,198.755 184.346 C 198.848 183.042,198.708 182.487,198.191 182.108 C 197.249 181.420,184.325 181.390,183.640 182.074 M208.095 182.176 C 207.495 182.776,207.436 184.574,207.436 202.289 C 207.436 224.834,207.213 223.483,210.939 223.483 C 213.831 223.483,213.697 223.905,213.704 214.743 C 213.712 203.730,214.521 202.305,216.297 210.176 C 216.613 211.575,217.115 213.601,217.413 214.677 C 217.710 215.753,218.076 217.515,218.226 218.591 C 218.376 219.667,218.831 221.208,219.237 222.016 L 219.977 223.483 222.505 223.483 C 225.626 223.483,225.879 222.965,224.720 218.941 C 224.293 217.457,223.553 214.746,223.076 212.916 C 222.598 211.086,221.966 208.925,221.671 208.113 C 220.792 205.695,220.995 204.201,222.505 201.957 C 223.305 200.767,223.853 199.490,223.821 198.884 C 223.769 197.868,223.765 197.866,223.589 198.797 C 223.390 199.857,222.552 201.323,221.399 202.628 C 220.567 203.570,220.600 208.079,221.447 209.104 C 221.667 209.371,221.968 210.294,222.115 211.155 C 222.262 212.016,222.698 213.777,223.084 215.068 C 225.350 222.657,225.365 222.480,222.467 222.620 L 220.080 222.735 219.447 221.054 C 219.098 220.130,218.707 218.581,218.577 217.613 C 218.447 216.644,218.104 215.147,217.814 214.286 C 217.525 213.425,217.110 211.663,216.893 210.372 C 216.402 207.461,215.426 205.088,214.720 205.088 C 213.501 205.088,213.323 206.182,213.218 214.316 L 213.112 222.505 210.763 222.505 L 208.415 222.505 208.415 202.348 L 208.415 182.192 213.307 182.194 C 221.326 182.198,223.360 184.266,223.892 192.955 L 224.191 197.847 224.114 192.955 C 224.023 187.191,223.113 184.856,220.201 182.912 C 218.112 181.517,209.291 180.980,208.095 182.176 M235.695 182.074 C 235.098 182.671,235.015 220.923,235.607 222.479 C 236.080 223.724,240.797 224.045,241.250 222.864 C 241.560 222.056,241.560 183.032,241.250 182.224 C 240.956 181.459,236.432 181.337,235.695 182.074 M277.789 182.027 C 275.971 183.086,277.340 187.084,279.520 187.084 C 281.819 187.084,281.800 186.937,281.800 205.242 C 281.800 224.529,281.611 223.483,285.099 223.483 C 288.319 223.483,288.063 225.056,288.063 205.284 C 288.063 186.168,287.959 187.084,290.116 187.084 C 292.425 187.084,293.900 183.684,292.290 182.074 C 291.694 181.479,278.802 181.437,277.789 182.027 M125.474 183.179 C 127.761 184.492,129.216 186.844,130.432 191.194 C 131.022 193.302,131.011 212.176,130.419 214.286 C 129.442 217.764,128.893 218.909,127.362 220.651 L 125.762 222.472 120.609 222.633 C 116.878 222.749,115.295 222.659,114.871 222.308 C 113.901 221.503,113.998 182.529,114.971 182.246 C 116.986 181.659,123.895 182.273,125.474 183.179 M147.460 182.321 C 147.847 182.567,147.931 186.880,147.851 202.569 L 147.750 222.505 145.401 222.505 L 143.053 222.505 142.951 202.740 C 142.895 191.869,142.934 182.754,143.037 182.485 C 143.246 181.938,146.657 181.811,147.460 182.321 M197.424 182.234 C 197.855 182.399,198.043 182.980,198.043 184.149 C 198.043 185.907,197.657 186.301,195.933 186.301 C 193.474 186.301,193.562 185.669,193.346 204.958 L 193.151 222.505 191.622 222.630 C 190.782 222.699,189.681 222.651,189.176 222.525 L 188.258 222.294 188.258 205.168 C 188.258 185.800,188.354 186.439,185.414 186.226 C 183.723 186.103,182.976 184.479,183.719 182.542 C 183.937 181.973,196.036 181.701,197.424 182.234 M240.900 202.348 L 240.900 222.505 238.454 222.621 L 236.008 222.738 236.008 202.628 C 236.008 180.255,235.787 181.921,238.732 182.077 L 240.900 182.192 240.900 202.348 M291.898 182.489 C 292.234 182.893,292.299 184.603,292.032 186.008 C 292.002 186.169,291.194 186.301,290.238 186.301 C 287.781 186.301,287.886 185.541,287.671 204.892 L 287.476 222.505 285.164 222.624 C 282.023 222.786,282.205 223.889,282.198 204.647 C 282.191 185.686,282.351 186.784,279.529 186.330 C 278.059 186.093,277.363 184.317,278.044 182.542 C 278.333 181.788,291.275 181.738,291.898 182.489 M120.329 187.267 L 119.374 188.223 119.374 202.109 C 119.374 210.279,119.532 216.413,119.759 217.010 C 120.630 219.301,122.864 218.782,124.359 215.942 L 125.437 213.894 125.439 202.708 C 125.440 191.836,125.415 191.468,124.535 189.590 C 123.247 186.838,121.644 185.953,120.329 187.267 M213.928 187.155 C 213.077 188.370,213.019 198.673,213.856 199.818 C 216.531 203.476,220.044 193.613,217.772 188.825 C 216.672 186.506,214.917 185.743,213.928 187.155 M124.270 190.470 C 125.526 194.162,125.425 212.221,124.132 215.114 C 123.033 217.572,121.544 218.577,120.704 217.429 C 119.840 216.248,119.900 188.571,120.769 187.702 C 121.864 186.606,123.356 187.786,124.270 190.470 M216.570 187.796 C 218.044 189.424,218.287 195.962,216.970 198.532 C 216.337 199.768,214.350 200.067,213.936 198.990 C 213.476 197.791,213.674 188.048,214.168 187.554 C 214.845 186.877,215.828 186.976,216.570 187.796 " stroke="none" fill="#ccbcac" fill-rule="evenodd"></path><path id="path3" d="M163.622 180.858 C 161.565 181.850,159.910 183.410,159.491 184.751 C 159.326 185.281,158.950 186.062,158.656 186.486 C 157.750 187.795,157.926 195.538,158.904 197.362 C 159.335 198.166,159.687 199.007,159.687 199.232 C 159.687 199.771,161.188 201.859,162.475 203.111 C 163.040 203.660,164.273 204.853,165.215 205.762 C 168.475 208.908,168.297 208.505,168.297 212.773 C 168.297 216.733,168.014 217.613,166.738 217.613 C 166.010 217.613,164.775 215.686,164.775 214.551 C 164.775 212.470,162.617 211.839,159.435 212.990 C 157.529 213.679,157.180 218.102,158.849 220.400 C 163.140 226.308,173.197 226.031,174.814 219.961 C 174.958 219.423,175.341 218.572,175.666 218.070 C 176.412 216.917,176.782 209.770,176.195 207.828 C 175.033 203.980,173.896 201.999,171.630 199.870 C 165.975 194.558,165.919 194.466,165.977 190.656 C 166.019 187.887,166.337 187.321,167.423 188.082 C 167.910 188.423,168.297 189.105,168.297 189.622 C 168.297 190.695,169.351 191.911,170.048 191.643 C 170.309 191.543,171.514 191.337,172.725 191.186 C 173.937 191.035,175.106 190.696,175.324 190.433 C 175.783 189.880,174.914 185.112,174.202 184.273 C 171.674 181.293,170.268 180.461,167.319 180.195 C 165.852 180.063,164.926 180.229,163.622 180.858 M257.943 180.944 C 255.982 181.907,254.041 183.818,254.023 184.801 C 254.017 185.160,253.813 185.520,253.571 185.600 C 253.328 185.681,252.876 186.885,252.565 188.275 C 252.255 189.665,251.844 191.507,251.653 192.368 C 251.208 194.376,251.199 210.267,251.643 212.329 C 251.828 213.190,252.188 214.951,252.443 216.243 C 252.698 217.534,253.155 218.869,253.459 219.209 C 253.763 219.549,254.012 220.031,254.012 220.279 C 254.012 222.940,260.057 225.308,264.553 224.408 C 267.871 223.745,272.464 215.427,270.386 213.843 C 267.598 211.717,263.023 212.375,263.008 214.904 C 262.988 218.488,261.254 218.590,260.203 215.068 C 259.169 211.606,259.203 192.566,260.248 189.628 C 261.256 186.796,262.995 187.179,263.008 190.235 C 263.016 192.212,263.565 192.564,266.640 192.564 C 270.774 192.564,272.052 190.783,270.312 187.449 C 270.024 186.897,269.674 186.016,269.535 185.493 C 268.443 181.388,262.104 178.901,257.943 180.944 M113.796 181.215 C 112.925 181.760,112.717 222.932,113.581 223.796 C 114.486 224.702,123.753 224.414,125.722 223.420 C 128.892 221.818,130.732 219.136,131.508 214.986 C 131.701 213.955,132.036 212.319,132.253 211.350 C 132.893 208.490,132.782 195.857,132.094 193.214 C 131.771 191.974,131.507 190.589,131.507 190.136 C 131.507 187.694,127.743 182.497,125.273 181.529 C 123.780 180.944,114.630 180.694,113.796 181.215 M142.298 181.437 C 141.548 182.187,141.348 222.127,142.088 223.509 C 142.644 224.548,147.935 224.634,148.778 223.618 C 149.444 222.816,149.653 183.513,148.999 182.192 C 148.240 180.661,143.597 180.138,142.298 181.437 M170.474 181.834 C 173.414 183.277,176.267 189.160,174.543 190.226 C 172.364 191.572,168.689 190.922,168.689 189.189 C 168.689 186.816,166.426 186.139,165.678 188.288 C 164.316 192.194,165.179 194.367,170.064 199.335 C 175.734 205.103,177.187 210.277,175.143 217.417 C 172.476 226.728,159.595 226.187,158.338 216.710 C 157.999 214.156,158.536 213.608,161.592 213.387 C 164.120 213.204,164.009 213.109,164.581 215.949 C 165.012 218.088,167.806 219.036,168.499 217.278 C 170.237 212.866,169.007 208.494,164.924 204.568 C 160.068 199.900,158.513 196.775,158.513 191.687 C 158.513 183.499,164.245 178.778,170.474 181.834 M182.931 181.812 C 182.427 182.582,182.340 183.290,182.540 184.996 C 182.858 187.699,182.958 187.866,184.270 187.872 C 184.849 187.875,185.719 187.984,186.204 188.114 L 187.084 188.350 187.084 205.838 C 187.084 225.778,186.779 224.266,190.806 224.266 C 195.497 224.266,195.111 225.930,195.087 205.804 C 195.065 187.060,194.962 187.883,197.344 187.873 C 199.155 187.865,199.609 187.129,199.609 184.197 C 199.609 180.911,199.375 180.822,190.724 180.822 L 183.580 180.822 182.931 181.812 M207.523 181.431 L 206.654 182.040 206.654 202.506 C 206.654 226.288,206.259 224.266,210.902 224.266 C 214.526 224.266,214.468 224.424,214.530 214.554 C 214.557 210.307,214.699 207.581,214.846 208.479 C 214.992 209.375,215.317 210.355,215.568 210.657 C 215.818 210.959,216.140 212.251,216.282 213.529 C 216.425 214.806,216.762 216.397,217.032 217.064 C 217.302 217.730,217.649 219.227,217.804 220.390 C 218.231 223.593,219.050 224.266,222.525 224.266 C 226.175 224.266,226.424 223.989,225.886 220.533 C 225.664 219.106,225.290 217.708,225.056 217.426 C 224.822 217.143,224.528 215.969,224.402 214.816 C 224.276 213.663,223.956 212.368,223.690 211.937 C 223.424 211.507,223.081 210.311,222.927 209.281 C 222.774 208.250,222.379 206.763,222.050 205.976 C 221.552 204.783,221.540 204.475,221.979 204.127 C 226.529 200.515,226.030 186.642,221.202 182.580 C 219.157 180.859,209.499 180.048,207.523 181.431 M235.312 181.431 L 234.442 182.040 234.442 202.506 C 234.442 226.395,234.037 224.378,238.798 224.186 L 241.683 224.070 241.784 202.980 C 241.857 187.730,241.763 181.741,241.443 181.355 C 240.809 180.591,236.434 180.646,235.312 181.431 M264.005 181.257 C 267.925 182.244,271.997 190.325,269.302 191.767 C 266.859 193.074,264.077 192.125,263.608 189.824 C 262.958 186.637,261.371 185.805,260.065 187.965 C 258.908 189.877,258.874 215.229,260.025 216.928 C 261.319 218.835,262.832 218.437,263.407 216.039 C 263.988 213.616,264.764 213.127,267.462 213.485 C 270.391 213.874,270.512 214.073,269.645 217.103 C 268.206 222.137,266.116 223.875,261.502 223.875 C 254.461 223.875,251.928 218.259,251.881 202.544 C 251.830 185.418,255.430 179.098,264.005 181.257 M277.213 181.221 C 276.137 181.654,275.762 183.038,276.104 185.319 C 276.402 187.304,276.682 187.561,278.865 187.853 L 280.431 188.063 280.626 205.518 C 280.855 225.951,280.472 224.347,285.090 224.183 L 288.258 224.070 288.360 206.209 L 288.462 188.348 289.339 188.113 C 289.821 187.983,290.672 187.875,291.231 187.872 C 293.624 187.860,294.831 183.150,292.842 181.586 C 291.778 180.749,279.120 180.454,277.213 181.221 M125.506 182.462 C 129.994 184.703,131.898 190.666,131.898 202.473 C 131.898 219.339,128.702 224.258,118.030 223.819 C 115.200 223.703,114.519 223.549,114.058 222.919 C 113.305 221.888,113.222 182.824,113.973 182.074 C 114.877 181.170,123.499 181.460,125.506 182.462 M148.258 182.074 C 149.201 183.018,148.903 222.134,147.945 223.092 C 146.786 224.252,143.519 224.198,142.684 223.005 C 141.882 221.860,141.749 182.870,142.544 182.074 C 143.157 181.461,147.645 181.461,148.258 182.074 M198.207 181.842 C 200.309 182.649,198.484 187.476,196.077 187.476 C 194.106 187.476,194.129 187.264,194.129 205.429 C 194.129 224.797,194.285 223.875,191.012 223.875 C 187.459 223.875,187.698 225.135,187.476 205.218 L 187.280 187.671 185.719 187.544 C 184.861 187.474,183.936 187.233,183.664 187.007 C 183.149 186.580,182.957 182.340,183.431 181.866 C 183.757 181.540,197.362 181.518,198.207 181.842 M220.497 182.908 C 223.709 185.360,224.070 186.458,224.070 193.751 L 224.070 200.221 222.603 202.264 C 220.898 204.637,220.906 204.576,221.882 207.860 C 222.292 209.241,223.011 211.869,223.478 213.699 C 223.946 215.528,224.579 217.818,224.886 218.787 C 225.640 221.166,225.611 223.334,224.821 223.637 C 222.244 224.626,219.051 223.450,218.580 221.339 C 218.197 219.622,217.116 214.553,216.659 212.329 C 216.015 209.191,214.890 205.871,214.472 205.871 C 214.285 205.871,214.079 209.672,214.014 214.318 C 213.878 223.928,213.897 223.875,210.621 223.875 C 207.228 223.875,207.436 225.271,207.436 202.562 C 207.436 187.072,207.547 182.432,207.926 182.049 C 209.005 180.957,218.820 181.628,220.497 182.908 M241.393 202.304 C 241.466 217.120,241.371 222.956,241.051 223.341 C 240.416 224.107,236.628 224.048,235.840 223.260 C 235.188 222.608,234.860 182.491,235.501 181.850 C 235.654 181.698,237.019 181.625,238.535 181.687 L 241.292 181.800 241.393 202.304 M292.683 183.898 C 292.833 186.523,292.119 187.476,290.001 187.476 C 287.978 187.476,288.063 186.672,288.063 205.825 C 288.063 225.087,288.277 223.875,284.875 223.875 C 281.222 223.875,281.409 224.876,281.409 205.275 C 281.409 187.394,281.418 187.476,279.552 187.476 C 278.068 187.476,276.712 185.812,276.712 183.990 C 276.712 181.704,277.080 181.607,285.323 181.710 L 292.564 181.800 292.683 183.898 M120.809 187.736 C 120.199 188.347,120.518 217.234,121.138 217.472 C 122.320 217.926,123.535 216.582,124.259 214.023 C 125.373 210.077,125.273 194.088,124.114 190.802 C 123.138 188.039,121.773 186.772,120.809 187.736 M214.351 187.736 C 213.784 188.303,214.060 199.230,214.647 199.455 C 216.528 200.177,217.824 196.998,217.528 192.389 C 217.285 188.595,215.746 186.342,214.351 187.736 M123.279 190.320 C 123.504 191.231,123.862 192.613,124.075 193.392 C 124.751 195.866,124.514 209.542,123.733 213.080 C 123.078 216.047,122.276 217.165,121.233 216.562 C 120.879 216.357,120.834 188.494,121.186 188.142 C 121.749 187.579,122.897 188.774,123.279 190.320 M216.572 190.904 C 216.999 195.503,216.509 198.826,215.403 198.826 L 214.481 198.826 214.481 193.542 L 214.481 188.258 215.404 188.258 C 216.257 188.258,216.344 188.455,216.572 190.904 " stroke="none" fill="#b4a288" fill-rule="evenodd"></path><path id="path4" d="M260.568 181.098 C 261.052 181.191,261.844 181.191,262.329 181.098 C 262.813 181.005,262.417 180.929,261.448 180.929 C 260.479 180.929,260.083 181.005,260.568 181.098 M255.748 183.268 L 254.599 184.540 255.871 183.391 C 256.570 182.758,257.143 182.186,257.143 182.119 C 257.143 181.816,256.820 182.082,255.748 183.268 M276.868 182.546 C 276.752 182.848,276.719 183.685,276.794 184.405 C 276.914 185.553,276.954 185.485,277.118 183.855 C 277.310 181.949,277.239 181.579,276.868 182.546 M113.685 202.348 C 113.685 213.434,113.735 217.970,113.796 212.427 C 113.857 206.884,113.857 197.813,113.796 192.270 C 113.735 186.727,113.685 191.262,113.685 202.348 M142.256 202.348 C 142.256 213.434,142.306 217.970,142.368 212.427 C 142.429 206.884,142.429 197.813,142.368 192.270 C 142.306 186.727,142.256 191.262,142.256 202.348 M148.518 202.348 C 148.518 213.434,148.569 217.970,148.630 212.427 C 148.691 206.884,148.691 197.813,148.630 192.270 C 148.569 186.727,148.518 191.262,148.518 202.348 M183.182 186.156 C 183.176 186.398,183.390 186.775,183.659 186.992 C 184.241 187.462,187.493 187.820,187.224 187.385 C 187.122 187.219,186.353 187.084,185.515 187.084 C 184.477 187.084,183.865 186.866,183.593 186.399 C 183.374 186.023,183.189 185.913,183.182 186.156 M198.158 186.343 C 197.919 186.582,197.135 186.916,196.416 187.086 C 195.245 187.363,195.216 187.400,196.141 187.435 C 196.963 187.467,199.600 185.971,198.806 185.923 C 198.688 185.916,198.396 186.105,198.158 186.343 M214.168 187.554 C 213.839 187.883,213.723 189.671,213.780 193.523 L 213.861 199.022 214.074 193.346 C 214.304 187.192,214.930 185.945,216.596 188.323 C 216.940 188.814,217.221 189.027,217.221 188.797 C 217.221 187.568,215.042 186.680,214.168 187.554 M279.452 187.371 C 281.467 187.741,281.409 187.212,281.409 205.245 C 281.409 225.014,281.194 223.919,285.052 223.801 L 287.476 223.727 285.127 223.590 C 281.590 223.385,281.800 224.546,281.800 205.270 C 281.800 186.698,281.840 187.001,279.421 187.137 L 278.474 187.191 279.452 187.371 M289.139 187.360 C 289.623 187.454,290.416 187.454,290.900 187.360 C 291.385 187.267,290.988 187.191,290.020 187.191 C 289.051 187.191,288.655 187.267,289.139 187.360 M174.650 189.041 C 174.650 189.795,174.731 190.103,174.829 189.726 C 174.928 189.349,174.928 188.733,174.829 188.356 C 174.731 187.979,174.650 188.288,174.650 189.041 M120.334 202.544 C 120.334 210.509,120.386 213.712,120.450 209.661 C 120.513 205.611,120.513 199.094,120.449 195.180 C 120.386 191.265,120.334 194.579,120.334 202.544 M187.655 205.284 C 187.655 214.755,187.706 218.574,187.769 213.770 C 187.831 208.966,187.831 201.216,187.769 196.549 C 187.706 191.881,187.655 195.812,187.655 205.284 M169.961 190.876 C 170.338 190.975,170.954 190.975,171.331 190.876 C 171.707 190.778,171.399 190.697,170.646 190.697 C 169.892 190.697,169.584 190.778,169.961 190.876 M217.719 193.346 C 217.719 194.315,217.795 194.711,217.889 194.227 C 217.982 193.743,217.982 192.950,217.889 192.466 C 217.795 191.981,217.719 192.378,217.719 193.346 M258.878 202.153 C 258.878 207.534,258.933 209.790,259.001 207.166 C 259.068 204.541,259.068 200.138,259.001 197.381 C 258.934 194.624,258.878 196.771,258.878 202.153 M252.146 194.521 C 252.146 195.274,252.226 195.582,252.325 195.205 C 252.423 194.829,252.423 194.212,252.325 193.836 C 252.226 193.459,252.146 193.767,252.146 194.521 M124.982 197.456 C 124.983 198.963,125.054 199.531,125.139 198.719 C 125.224 197.907,125.222 196.674,125.136 195.980 C 125.049 195.285,124.980 195.949,124.982 197.456 M251.820 202.153 C 251.820 205.382,251.881 206.650,251.955 204.972 C 252.028 203.294,252.028 200.652,251.954 199.101 C 251.880 197.551,251.819 198.924,251.820 202.153 M163.209 202.935 C 164.379 204.119,165.423 205.088,165.531 205.088 C 165.639 205.088,164.770 204.119,163.601 202.935 C 162.432 201.751,161.387 200.783,161.279 200.783 C 161.172 200.783,162.040 201.751,163.209 202.935 M124.979 207.436 C 124.979 208.836,125.050 209.408,125.136 208.708 C 125.223 208.009,125.223 206.864,125.136 206.164 C 125.050 205.465,124.979 206.037,124.979 207.436 M213.863 214.286 C 213.863 218.591,213.920 220.406,213.990 218.318 C 214.060 216.231,214.061 212.708,213.991 210.490 C 213.921 208.273,213.863 209.980,213.863 214.286 M252.146 210.176 C 252.146 210.930,252.226 211.238,252.325 210.861 C 252.423 210.484,252.423 209.868,252.325 209.491 C 252.226 209.114,252.146 209.423,252.146 210.176 M169.171 212.916 C 169.171 213.669,169.252 213.977,169.350 213.601 C 169.448 213.224,169.448 212.608,169.350 212.231 C 169.252 211.854,169.171 212.162,169.171 212.916 M259.977 217.221 C 260.362 217.869,260.941 218.221,261.688 218.262 C 262.659 218.315,262.681 218.297,261.840 218.134 C 261.301 218.030,260.531 217.561,260.128 217.093 L 259.395 216.243 259.977 217.221 M193.439 222.698 C 193.101 223.238,192.410 223.481,190.910 223.586 L 188.845 223.730 190.840 223.802 C 192.673 223.869,194.748 222.797,194.079 222.129 C 193.983 222.032,193.695 222.288,193.439 222.698 M207.436 222.161 C 207.436 223.211,208.926 223.920,210.820 223.773 L 212.720 223.624 210.688 223.554 C 209.079 223.498,208.528 223.302,208.046 222.614 C 207.711 222.135,207.436 221.932,207.436 222.161 M117.123 223.771 C 118.146 223.852,119.819 223.852,120.841 223.771 C 121.864 223.690,121.027 223.624,118.982 223.624 C 116.937 223.624,116.101 223.690,117.123 223.771 M144.129 223.764 C 144.721 223.853,145.690 223.853,146.282 223.764 C 146.874 223.674,146.389 223.601,145.205 223.601 C 144.022 223.601,143.537 223.674,144.129 223.764 M221.436 223.767 C 222.139 223.854,223.196 223.852,223.784 223.763 C 224.372 223.674,223.796 223.602,222.505 223.605 C 221.213 223.607,220.732 223.680,221.436 223.767 M237.483 223.767 C 238.186 223.854,239.243 223.852,239.831 223.763 C 240.419 223.674,239.843 223.602,238.552 223.605 C 237.260 223.607,236.779 223.680,237.483 223.767 " stroke="none" fill="#c4bca4" fill-rule="evenodd"></path></g></svg>