<svg id="svg" version="1.1" xmlns="http://www.w3.org/2000/svg" xmlns:xlink="http://www.w3.org/1999/xlink" viewBox="0, 0, 400,266.6666666666667"><g id="svgg"><path id="path0" d="M0.051 15.649 L 0.104 31.298 84.035 74.138 L 167.967 116.979 149.084 117.032 L 130.202 117.086 65.674 102.071 C 30.183 93.813,0.888 87.004,0.573 86.940 L 0.000 86.823 0.000 110.078 L 0.000 133.333 76.198 133.333 L 152.396 133.334 162.813 140.958 C 168.542 145.152,173.256 148.654,173.289 148.742 C 173.322 148.829,169.638 160.316,165.104 174.268 C 160.569 188.221,156.886 199.657,156.919 199.683 C 156.952 199.709,166.619 192.666,178.401 184.032 C 190.183 175.398,199.906 168.333,200.008 168.333 C 200.109 168.333,209.829 175.397,221.607 184.030 C 233.384 192.663,243.048 199.707,243.080 199.682 C 243.113 199.658,239.418 188.184,234.869 174.186 C 226.921 149.727,226.613 148.722,226.997 148.446 C 227.216 148.287,231.943 144.823,237.500 140.748 L 247.604 133.337 323.802 133.335 L 400.000 133.333 400.000 110.104 C 400.000 97.328,399.936 86.875,399.858 86.875 C 399.780 86.875,370.498 93.672,334.787 101.980 L 269.857 117.086 250.959 117.032 L 232.060 116.979 315.978 74.145 L 399.896 31.311 399.949 15.655 L 400.003 -0.000 377.084 -0.000 L 354.166 0.000 286.539 58.490 L 218.913 116.979 217.625 117.040 L 216.338 117.100 215.634 114.925 L 214.931 112.750 216.400 110.698 C 217.208 109.569,235.551 84.224,257.163 54.375 L 296.457 0.104 274.334 0.051 C 262.166 0.022,252.148 0.069,252.072 0.155 C 251.995 0.242,243.003 23.188,232.089 51.146 C 221.175 79.104,212.139 102.239,212.008 102.557 C 211.743 103.203,206.667 88.097,206.667 86.660 C 206.667 86.085,218.309 2.727,218.675 0.677 L 218.796 0.000 200.000 0.000 L 181.204 0.000 181.325 0.677 C 181.691 2.727,193.333 86.085,193.333 86.660 C 193.333 88.097,188.257 103.203,187.992 102.557 C 187.861 102.239,178.825 79.104,167.911 51.146 C 156.997 23.188,148.005 0.242,147.928 0.155 C 147.852 0.069,137.834 0.022,125.666 0.051 L 103.543 0.104 142.836 54.375 C 164.448 84.224,182.791 109.569,183.599 110.698 L 185.069 112.750 184.366 114.925 L 183.662 117.100 182.381 117.040 L 181.100 116.979 113.474 58.490 L 45.847 0.000 22.922 0.000 L -0.003 0.000 0.051 15.649 " stroke="none" fill="#c51327" fill-rule="evenodd"></path><path id="path1" d="M46.042 0.084 C 46.042 0.131,76.430 26.451,113.571 58.574 L 181.101 116.979 182.382 117.040 L 183.662 117.100 184.364 114.930 L 185.065 112.760 184.043 111.317 C 183.481 110.523,165.121 85.152,143.244 54.937 L 103.468 0.000 74.755 0.000 C 58.962 0.000,46.042 0.038,46.042 0.084 M148.107 0.469 C 148.949 2.665,188.172 103.030,188.198 103.057 C 188.327 103.193,193.333 87.206,193.333 86.660 C 193.333 86.085,181.691 2.727,181.325 0.677 L 181.204 0.000 164.565 0.000 L 147.927 0.000 148.107 0.469 M218.675 0.677 C 218.309 2.727,206.667 86.085,206.667 86.660 C 206.667 87.206,211.673 103.193,211.802 103.057 C 211.828 103.030,251.051 2.665,251.893 0.469 L 252.073 0.000 235.435 -0.000 L 218.796 -0.000 218.675 0.677 M256.756 54.936 C 234.879 85.151,216.519 110.522,215.957 111.316 L 214.935 112.760 215.636 114.930 L 216.338 117.100 217.625 117.040 L 218.913 116.979 286.436 58.580 C 323.573 26.460,353.958 0.139,353.958 0.090 C 353.958 0.040,341.037 0.000,325.245 0.000 L 296.532 0.000 256.756 54.936 M0.000 59.006 L 0.000 86.796 65.156 101.947 L 130.313 117.098 149.140 117.039 L 167.968 116.979 87.369 75.844 C 43.040 53.220,5.247 33.923,3.385 32.963 L 0.000 31.217 0.000 59.006 M315.978 74.145 L 232.060 116.979 250.959 117.032 L 269.857 117.086 334.877 101.961 C 370.637 93.642,399.920 86.813,399.949 86.785 C 399.978 86.757,399.978 74.264,399.949 59.023 L 399.896 31.311 315.978 74.145 " stroke="none" fill="#fbdb04" fill-rule="evenodd"></path><path id="path2" d="M0.000 200.000 L 0.000 266.667 200.000 266.667 L 400.000 266.667 400.000 200.000 L 400.000 133.333 323.901 133.333 L 247.801 133.333 237.286 141.041 C 231.503 145.281,226.785 148.820,226.803 148.906 C 226.821 148.992,230.547 160.492,235.084 174.462 C 239.621 188.432,243.307 199.887,243.275 199.920 C 243.243 199.952,233.495 192.858,221.612 184.156 L 200.008 168.334 178.399 184.160 C 166.515 192.864,156.763 199.957,156.728 199.923 C 156.674 199.868,169.546 160.057,172.278 151.832 L 173.296 148.769 162.755 141.051 L 152.215 133.333 76.108 133.333 L 0.000 133.333 0.000 200.000 " stroke="none" fill="#04246b" fill-rule="evenodd"></path><path id="path3" d="" stroke="none" fill="#774535" fill-rule="evenodd"></path><path id="path4" d="" stroke="none" fill="#523c48" fill-rule="evenodd"></path></g></svg>