<?xml version="1.0" standalone="no"?>
<!DOCTYPE svg PUBLIC "-//W3C//DTD SVG 20010904//EN"
 "http://www.w3.org/TR/2001/REC-SVG-20010904/DTD/svg10.dtd">
<svg version="1.0" xmlns="http://www.w3.org/2000/svg"
 width="200.000000pt" height="200.000000pt" viewBox="0 0 200.000000 200.000000"
 preserveAspectRatio="xMidYMid meet">

<g transform="translate(0.000000,200.000000) scale(0.100000,-0.100000)"
fill="#000000" stroke="none">
<path d="M616 1552 l-369 -237 377 -3 c207 -1 545 -1 753 0 l376 3 -371 238
c-204 130 -377 237 -384 236 -7 0 -179 -107 -382 -237z"/>
<path d="M370 885 l0 -345 105 0 105 0 0 345 0 345 -105 0 -105 0 0 -345z"/>
<path d="M720 885 l0 -345 110 0 110 0 0 345 0 345 -110 0 -110 0 0 -345z"/>
<path d="M1080 885 l0 -345 110 0 110 0 0 345 0 345 -110 0 -110 0 0 -345z"/>
<path d="M1440 885 l0 -345 110 0 110 0 0 345 0 345 -110 0 -110 0 0 -345z"/>
<path d="M240 420 l0 -50 760 0 760 0 0 50 0 50 -760 0 -760 0 0 -50z"/>
<path d="M100 250 l0 -50 900 0 900 0 0 50 0 50 -900 0 -900 0 0 -50z"/>
</g>
</svg>
