<svg id="svg" version="1.1" xmlns="http://www.w3.org/2000/svg" xmlns:xlink="http://www.w3.org/1999/xlink" viewBox="0, 0, 400,250"><g id="svgg"><path id="path0" d="M83.446 12.106 C 83.388 12.265,82.924 13.615,82.415 15.104 C 81.907 16.594,81.431 17.966,81.357 18.153 C 81.238 18.457,80.827 18.483,77.643 18.389 C 75.317 18.320,74.135 18.355,74.271 18.487 C 74.385 18.598,75.651 19.562,77.083 20.628 C 78.516 21.694,79.725 22.597,79.770 22.634 C 79.816 22.670,79.331 24.202,78.692 26.038 C 78.053 27.873,77.569 29.375,77.615 29.375 C 77.662 29.375,78.966 28.478,80.514 27.382 C 82.300 26.117,83.424 25.447,83.591 25.549 C 83.828 25.694,88.300 28.958,88.889 29.417 C 89.155 29.623,89.143 29.579,87.825 25.364 C 86.917 22.460,86.659 23.017,89.974 20.729 C 91.468 19.698,92.695 18.784,92.700 18.698 C 92.704 18.612,91.130 18.542,89.202 18.542 L 85.695 18.542 84.699 15.260 C 83.623 11.720,83.604 11.672,83.446 12.106 M50.754 22.748 C 51.467 27.246,51.751 26.621,48.184 28.408 C 45.937 29.533,45.228 29.976,45.528 30.064 C 45.753 30.130,47.250 30.387,48.854 30.635 C 50.458 30.884,51.844 31.155,51.934 31.238 C 52.059 31.353,53.108 37.368,53.129 38.090 C 53.131 38.167,53.886 36.799,54.806 35.052 C 55.726 33.305,56.520 31.875,56.569 31.875 C 56.619 31.875,58.087 32.109,59.833 32.396 C 61.578 32.682,63.102 32.917,63.219 32.917 C 63.335 32.917,62.311 31.793,60.941 30.420 L 58.452 27.924 60.075 24.795 C 60.967 23.075,61.621 21.672,61.526 21.678 C 61.431 21.684,59.995 22.379,58.333 23.224 L 55.313 24.759 52.797 22.263 L 50.282 19.767 50.754 22.748 M114.271 22.413 C 111.297 25.231,112.125 25.125,108.519 23.146 C 106.870 22.241,105.497 21.523,105.468 21.550 C 105.438 21.577,106.071 22.975,106.874 24.656 C 107.677 26.337,108.333 27.795,108.333 27.895 C 108.333 27.996,107.206 29.133,105.828 30.422 C 104.449 31.711,103.348 32.792,103.380 32.823 C 103.411 32.855,104.750 32.704,106.354 32.487 C 110.805 31.887,110.172 31.573,111.935 35.257 L 113.455 38.431 114.053 35.101 C 114.778 31.062,114.460 31.387,118.125 30.940 C 119.786 30.737,121.264 30.509,121.408 30.433 C 121.563 30.351,120.429 29.628,118.648 28.672 C 116.985 27.779,115.625 26.972,115.625 26.877 C 115.625 26.782,115.902 25.223,116.242 23.413 C 116.581 21.603,116.839 20.105,116.814 20.084 C 116.790 20.062,115.646 21.111,114.271 22.413 M33.282 41.654 L 31.252 44.538 28.074 43.522 C 26.326 42.963,24.820 42.530,24.727 42.559 C 24.634 42.589,25.454 43.827,26.550 45.312 C 28.936 48.545,28.932 47.759,26.576 51.078 C 25.494 52.600,24.634 53.870,24.664 53.900 C 24.693 53.929,26.113 53.486,27.820 52.914 C 29.526 52.343,31.033 51.875,31.168 51.875 C 31.303 51.875,32.338 53.112,33.467 54.624 L 35.521 57.372 35.578 53.806 L 35.635 50.240 38.984 49.123 L 42.334 48.007 38.880 46.914 L 35.426 45.822 35.369 42.296 L 35.313 38.769 33.282 41.654 M131.595 40.673 C 131.521 41.620,131.460 43.203,131.460 44.189 L 131.458 45.983 128.281 46.878 C 126.534 47.371,124.992 47.830,124.856 47.899 C 124.719 47.968,126.092 48.569,127.907 49.235 L 131.206 50.446 131.093 53.869 C 131.031 55.751,131.034 57.292,131.100 57.292 C 131.166 57.292,132.133 56.120,133.250 54.688 C 134.366 53.255,135.355 52.083,135.447 52.083 C 135.538 52.083,137.025 52.599,138.750 53.229 C 140.475 53.859,141.935 54.375,141.994 54.375 C 142.052 54.375,141.207 53.051,140.116 51.433 L 138.132 48.491 140.293 45.756 C 141.482 44.252,142.428 42.992,142.396 42.957 C 142.351 42.907,139.281 43.749,135.999 44.710 C 135.729 44.789,135.174 44.109,133.687 41.882 L 131.729 38.950 131.595 40.673 M20.150 66.823 C 20.089 67.138,19.874 68.681,19.673 70.251 C 19.471 71.822,19.204 73.144,19.080 73.190 C 18.956 73.236,17.355 73.540,15.524 73.867 L 12.193 74.461 15.367 75.981 C 18.353 77.410,18.542 77.536,18.542 78.089 C 18.542 78.595,18.173 81.564,17.813 83.958 C 17.710 84.649,17.834 84.551,20.186 82.092 L 22.668 79.496 25.757 80.985 C 27.456 81.804,28.881 82.438,28.925 82.395 C 28.968 82.351,28.290 80.999,27.418 79.390 C 25.512 75.872,25.513 76.451,27.411 74.578 C 28.279 73.722,29.353 72.592,29.797 72.067 L 30.604 71.113 27.437 71.700 C 25.696 72.023,24.114 72.289,23.922 72.290 C 23.683 72.291,23.068 71.333,21.983 69.271 C 20.218 65.917,20.303 66.031,20.150 66.823 M144.896 69.533 C 143.997 71.108,143.230 72.436,143.191 72.484 C 143.153 72.533,141.691 72.275,139.944 71.911 C 138.196 71.548,136.640 71.250,136.486 71.250 C 136.332 71.250,136.895 72.009,137.738 72.936 C 138.581 73.863,139.632 75.038,140.074 75.547 L 140.877 76.471 139.110 79.571 L 137.344 82.671 138.203 82.300 C 138.676 82.096,140.126 81.448,141.425 80.860 C 142.724 80.273,143.817 79.792,143.852 79.792 C 143.888 79.792,144.974 80.963,146.265 82.395 C 147.557 83.826,148.632 84.975,148.656 84.947 C 148.679 84.919,148.528 83.351,148.320 81.464 C 148.111 79.576,147.972 78.000,148.010 77.962 C 148.048 77.924,149.505 77.251,151.247 76.466 C 153.406 75.494,154.292 75.003,154.030 74.922 C 153.819 74.857,152.291 74.517,150.635 74.165 C 147.020 73.399,147.532 73.984,147.118 70.139 C 146.927 68.363,146.717 66.856,146.651 66.790 C 146.585 66.724,145.796 67.959,144.896 69.533 M166.667 125.000 L 166.667 166.667 283.333 166.667 L 400.000 166.667 400.000 125.000 L 400.000 83.333 283.333 83.333 L 166.667 83.333 166.667 125.000 M28.157 99.088 L 25.376 101.287 22.638 99.446 C 21.132 98.433,19.785 97.531,19.644 97.441 C 19.503 97.352,19.705 98.149,20.092 99.212 C 20.479 100.276,21.030 101.787,21.316 102.571 L 21.837 103.996 19.045 106.201 C 17.510 107.414,16.276 108.415,16.304 108.426 C 16.332 108.437,17.901 108.397,19.792 108.338 C 21.843 108.273,23.286 108.308,23.371 108.426 C 23.448 108.534,24.009 110.008,24.616 111.701 C 25.224 113.394,25.778 114.712,25.849 114.629 C 25.919 114.547,26.376 113.061,26.865 111.327 L 27.753 108.176 28.697 108.046 C 29.217 107.975,30.800 107.917,32.217 107.917 C 33.633 107.917,34.789 107.846,34.786 107.760 C 34.783 107.674,33.482 106.744,31.894 105.692 L 29.007 103.781 29.582 101.838 C 30.363 99.205,31.017 96.873,30.974 96.882 C 30.954 96.886,29.686 97.879,28.157 99.088 M135.898 97.396 C 136.555 99.676,137.503 103.785,137.408 103.939 C 137.342 104.045,136.070 104.902,134.581 105.842 C 133.093 106.783,131.875 107.622,131.875 107.708 C 131.875 107.793,133.375 107.931,135.209 108.014 C 137.042 108.098,138.587 108.238,138.641 108.325 C 138.695 108.413,139.113 109.916,139.569 111.664 C 140.025 113.413,140.433 114.878,140.475 114.920 C 140.517 114.962,141.097 113.614,141.764 111.925 C 142.430 110.236,143.046 108.775,143.131 108.679 C 143.217 108.583,144.811 108.609,146.672 108.738 C 148.534 108.866,150.086 108.942,150.121 108.907 C 150.173 108.855,146.384 105.662,145.063 104.645 C 144.775 104.422,144.884 104.029,146.012 101.222 C 146.713 99.478,147.249 98.013,147.202 97.966 C 147.156 97.920,145.857 98.686,144.316 99.670 C 142.775 100.654,141.446 101.458,141.361 101.458 C 141.236 101.458,139.437 100.018,136.170 97.305 C 135.806 97.003,135.787 97.009,135.898 97.396 M41.777 123.112 C 40.789 125.291,40.253 126.247,40.021 126.239 C 39.838 126.234,38.246 126.063,36.485 125.860 L 33.283 125.492 34.506 126.655 C 35.179 127.296,36.355 128.385,37.121 129.077 L 38.513 130.335 37.069 133.514 C 36.275 135.263,35.625 136.727,35.625 136.767 C 35.625 136.808,37.008 136.057,38.697 135.099 C 41.667 133.415,41.784 133.370,42.187 133.721 C 42.416 133.921,43.612 135.005,44.844 136.131 C 46.076 137.256,47.083 138.133,47.083 138.079 C 47.083 137.990,45.953 132.516,45.737 131.562 C 45.658 131.211,46.140 130.862,48.745 129.378 C 50.451 128.406,51.830 127.594,51.809 127.574 C 51.788 127.554,50.201 127.369,48.282 127.165 C 45.523 126.870,44.775 126.725,44.704 126.469 C 44.655 126.291,44.360 124.880,44.050 123.333 C 43.739 121.786,43.421 120.398,43.342 120.248 C 43.256 120.084,42.629 121.232,41.777 123.112 M122.611 123.385 C 122.174 125.247,121.799 126.793,121.778 126.821 C 121.757 126.848,120.217 127.004,118.354 127.167 C 116.491 127.330,114.932 127.499,114.888 127.543 C 114.844 127.587,116.117 128.403,117.717 129.358 C 119.700 130.541,120.625 131.210,120.625 131.460 C 120.625 131.662,120.292 133.209,119.885 134.896 C 119.478 136.584,119.174 137.991,119.208 138.023 C 119.243 138.055,120.465 137.052,121.925 135.795 L 124.579 133.510 127.498 135.297 C 129.104 136.279,130.462 137.083,130.516 137.083 C 130.632 137.083,130.590 136.974,129.090 133.383 L 127.936 130.619 130.526 128.396 C 131.951 127.173,133.075 126.130,133.023 126.079 C 132.972 126.027,131.424 126.104,129.583 126.250 C 127.743 126.396,126.210 126.478,126.177 126.434 C 126.144 126.390,125.525 124.924,124.801 123.177 C 124.078 121.430,123.468 120.000,123.446 120.000 C 123.425 120.000,123.049 121.523,122.611 123.385 M64.888 134.635 C 64.945 134.893,65.017 136.507,65.048 138.222 L 65.104 141.340 61.926 142.578 C 60.177 143.259,58.783 143.853,58.827 143.896 C 58.871 143.940,60.337 144.350,62.086 144.806 C 63.834 145.262,65.336 145.679,65.423 145.733 C 65.510 145.787,65.649 147.308,65.732 149.113 C 65.814 150.919,65.925 152.469,65.977 152.557 C 66.030 152.646,66.870 151.474,67.845 149.953 C 68.820 148.432,69.691 147.112,69.779 147.019 C 69.868 146.927,71.416 147.239,73.218 147.712 C 75.021 148.186,76.528 148.542,76.566 148.503 C 76.604 148.465,75.653 147.239,74.452 145.779 C 73.086 144.119,72.324 143.027,72.419 142.864 C 72.502 142.721,73.287 141.479,74.163 140.104 C 75.038 138.729,75.826 137.485,75.913 137.340 C 76.070 137.078,75.640 137.224,71.501 138.840 C 69.204 139.737,69.655 139.949,67.058 136.759 C 64.800 133.987,64.728 133.917,64.888 134.635 M99.450 136.979 C 98.215 138.411,97.121 139.583,97.020 139.583 C 96.919 139.583,95.430 138.979,93.712 138.240 C 91.994 137.501,90.633 137.009,90.686 137.146 C 90.740 137.284,91.541 138.655,92.466 140.193 C 94.105 142.921,94.139 143.002,93.792 143.459 C 93.597 143.716,92.563 144.918,91.495 146.130 C 90.362 147.416,89.687 148.333,89.874 148.333 C 90.051 148.333,91.567 148.005,93.243 147.604 C 96.865 146.738,96.234 146.443,98.347 149.986 C 99.303 151.589,100.108 152.878,100.135 152.851 C 100.162 152.824,100.323 151.273,100.493 149.403 C 100.862 145.353,100.293 145.992,104.394 145.020 C 107.333 144.324,107.739 144.181,107.292 143.998 C 102.291 141.953,101.353 141.485,101.297 141.010 C 101.265 140.741,101.364 139.138,101.516 137.448 C 101.669 135.758,101.771 134.375,101.745 134.375 C 101.719 134.375,100.686 135.547,99.450 136.979 " stroke="none" fill="#f9f7e3" fill-rule="evenodd"></path><path id="path1" d="M0.000 83.333 L 0.000 166.667 83.333 166.667 L 166.667 166.667 166.667 83.333 L 166.667 0.000 83.333 0.000 L 0.000 0.000 0.000 83.333 M84.701 15.000 C 85.245 16.776,85.730 18.276,85.778 18.333 C 85.827 18.391,87.476 18.484,89.443 18.542 L 93.020 18.646 90.520 20.405 C 89.146 21.372,87.821 22.314,87.577 22.498 L 87.133 22.833 88.164 26.125 C 88.731 27.935,89.149 29.462,89.094 29.517 C 89.038 29.573,87.729 28.682,86.186 27.537 L 83.379 25.456 80.491 27.501 C 78.903 28.626,77.579 29.480,77.548 29.398 C 77.518 29.316,77.993 27.775,78.604 25.974 L 79.716 22.699 76.800 20.516 L 73.885 18.333 77.543 18.333 L 81.202 18.333 82.146 15.573 C 83.314 12.157,83.532 11.587,83.632 11.690 C 83.676 11.734,84.157 13.224,84.701 15.000 M58.532 23.026 C 60.281 22.150,61.743 21.465,61.782 21.504 C 61.821 21.543,61.116 22.979,60.216 24.694 L 58.578 27.813 61.102 30.357 C 62.490 31.757,63.583 32.943,63.531 32.992 C 63.480 33.041,61.881 32.829,59.979 32.522 L 56.520 31.962 54.874 35.130 C 53.970 36.872,53.171 38.188,53.099 38.055 C 53.027 37.922,52.754 36.342,52.491 34.545 C 52.062 31.607,51.970 31.267,51.580 31.177 C 51.341 31.121,49.763 30.863,48.073 30.604 C 46.383 30.345,45.000 30.077,45.000 30.009 C 45.000 29.941,46.406 29.187,48.125 28.333 C 49.844 27.480,51.249 26.733,51.248 26.672 C 51.247 26.612,51.012 25.078,50.727 23.264 C 50.442 21.450,50.208 19.857,50.208 19.725 C 50.208 19.593,51.366 20.640,52.781 22.052 L 55.353 24.618 58.532 23.026 M116.272 23.750 C 115.940 25.526,115.682 26.987,115.699 26.996 C 115.716 27.006,117.089 27.746,118.750 28.641 C 122.047 30.418,121.983 30.380,121.858 30.499 C 121.810 30.545,120.234 30.777,118.355 31.016 C 116.477 31.254,114.913 31.476,114.881 31.508 C 114.848 31.541,114.537 33.102,114.190 34.977 C 113.843 36.852,113.522 38.422,113.478 38.466 C 113.434 38.510,112.710 37.092,111.869 35.315 C 111.029 33.538,110.288 32.084,110.223 32.085 C 110.157 32.086,108.711 32.273,107.009 32.501 C 102.902 33.052,102.851 33.050,103.646 32.365 C 103.990 32.069,105.182 30.937,106.296 29.849 L 108.321 27.872 106.836 24.767 C 106.019 23.060,105.399 21.615,105.457 21.557 C 105.552 21.461,106.394 21.896,110.356 24.087 L 111.650 24.803 114.210 22.363 C 115.734 20.910,116.792 20.044,116.823 20.222 C 116.852 20.386,116.604 21.974,116.272 23.750 M89.566 35.513 C 98.307 37.377,105.950 43.340,110.006 51.458 C 110.879 53.206,111.875 55.651,111.875 56.046 C 111.875 56.172,110.367 56.250,107.952 56.250 L 104.030 56.250 103.525 55.156 C 95.865 38.545,71.929 38.482,63.832 55.052 L 63.247 56.250 59.332 56.250 C 57.178 56.250,55.417 56.209,55.417 56.158 C 55.417 55.741,56.702 52.635,57.551 50.998 C 63.628 39.290,76.985 32.829,89.566 35.513 M81.324 38.156 C 81.398 38.860,81.458 39.750,81.458 40.135 C 81.458 40.710,81.537 40.833,81.905 40.833 C 82.331 40.833,82.346 40.767,82.219 39.427 C 82.146 38.654,82.086 37.763,82.085 37.448 C 82.084 37.002,81.985 36.875,81.637 36.875 C 81.215 36.875,81.198 36.944,81.324 38.156 M84.375 37.083 C 84.375 37.198,84.576 37.292,84.821 37.292 C 85.251 37.292,85.263 37.357,85.157 39.063 C 85.057 40.655,85.083 40.833,85.412 40.833 C 85.814 40.833,86.035 39.969,86.039 38.385 C 86.041 37.580,86.089 37.500,86.563 37.500 C 87.211 37.500,87.245 37.175,86.615 37.006 C 85.863 36.805,84.375 36.856,84.375 37.083 M78.021 37.401 C 77.906 37.443,77.414 37.580,76.927 37.705 C 75.989 37.946,75.669 38.453,76.562 38.282 C 77.016 38.196,77.108 38.280,77.277 38.935 C 77.384 39.349,77.576 40.086,77.702 40.573 C 77.875 41.235,78.036 41.458,78.341 41.458 C 78.839 41.458,78.840 41.568,78.333 39.741 C 77.824 37.903,77.824 37.974,78.336 37.812 C 78.567 37.738,78.702 37.591,78.637 37.485 C 78.514 37.286,78.383 37.268,78.021 37.401 M89.186 38.790 C 88.435 41.012,88.631 41.606,90.180 41.814 C 91.132 41.942,91.225 41.829,91.871 39.754 C 92.180 38.760,92.216 38.415,92.023 38.293 C 91.846 38.181,91.633 38.578,91.310 39.623 C 90.821 41.201,90.608 41.469,89.977 41.304 C 89.474 41.173,89.474 40.597,89.974 38.989 C 90.354 37.770,90.302 37.500,89.690 37.500 C 89.652 37.500,89.425 38.081,89.186 38.790 M35.613 43.054 L 35.625 45.795 38.073 46.555 C 39.419 46.973,40.849 47.415,41.250 47.537 C 42.754 47.994,42.691 48.034,38.125 49.552 L 35.729 50.349 35.625 53.934 L 35.521 57.519 33.542 54.873 C 32.453 53.418,31.503 52.136,31.430 52.025 C 31.351 51.905,29.886 52.294,27.833 52.980 C 25.928 53.616,24.434 54.026,24.513 53.891 C 24.592 53.756,25.535 52.411,26.608 50.901 L 28.560 48.157 26.450 45.311 C 25.289 43.746,24.377 42.429,24.422 42.384 C 24.467 42.339,25.981 42.769,27.788 43.339 C 29.594 43.909,31.108 44.375,31.152 44.375 C 31.196 44.375,32.149 43.091,33.270 41.521 L 35.309 38.666 35.455 39.489 C 35.535 39.942,35.606 41.546,35.613 43.054 M72.985 39.054 C 71.764 39.585,71.681 41.189,72.869 41.277 C 74.551 41.401,74.937 41.701,74.196 42.306 C 73.925 42.527,73.519 42.708,73.293 42.708 C 73.054 42.708,72.921 42.817,72.974 42.969 C 73.090 43.296,73.900 43.211,74.517 42.807 C 75.818 41.955,75.462 40.787,73.851 40.625 C 72.569 40.496,72.286 39.915,73.316 39.526 C 73.669 39.393,73.958 39.164,73.958 39.017 C 73.958 38.686,73.818 38.691,72.985 39.054 M135.893 44.583 C 136.038 44.583,137.606 44.167,139.376 43.659 C 141.147 43.150,142.616 42.755,142.640 42.779 C 142.665 42.804,141.702 44.079,140.500 45.612 C 139.298 47.146,138.361 48.522,138.418 48.671 C 138.475 48.820,139.281 50.074,140.208 51.458 C 141.136 52.843,141.946 54.109,142.008 54.272 C 142.123 54.571,141.941 54.513,137.135 52.731 L 135.416 52.093 133.409 54.640 C 132.305 56.041,131.271 57.328,131.110 57.500 C 130.859 57.769,130.838 57.298,130.960 54.155 L 131.103 50.498 127.739 49.269 C 125.890 48.594,124.446 47.982,124.532 47.911 C 124.617 47.840,126.152 47.377,127.941 46.883 L 131.195 45.985 131.325 44.607 C 131.397 43.849,131.456 42.284,131.457 41.128 C 131.459 38.326,131.450 38.323,133.682 41.667 C 134.753 43.271,135.748 44.583,135.893 44.583 M94.375 39.365 C 94.375 39.474,94.539 39.655,94.740 39.767 C 95.074 39.955,95.041 40.098,94.336 41.526 C 93.913 42.381,93.624 43.138,93.693 43.207 C 94.050 43.564,94.439 43.196,95.106 41.872 C 95.776 40.540,95.887 40.422,96.358 40.540 C 97.269 40.769,96.912 40.313,95.725 39.731 C 94.442 39.102,94.375 39.084,94.375 39.365 M68.893 41.176 C 68.819 41.250,69.038 41.691,69.379 42.155 C 70.225 43.305,70.196 43.332,68.598 42.889 C 66.920 42.423,66.798 42.416,66.942 42.790 C 67.190 43.438,69.053 45.833,69.309 45.833 C 69.702 45.833,69.668 45.744,68.827 44.573 L 68.070 43.520 68.671 43.666 C 69.001 43.746,69.693 43.937,70.208 44.091 C 71.799 44.565,71.801 44.519,70.290 42.419 C 69.308 41.054,69.153 40.916,68.893 41.176 M97.748 43.239 C 96.713 44.691,96.553 45.214,97.148 45.204 C 97.595 45.197,99.579 42.225,99.334 41.930 C 98.998 41.525,98.930 41.581,97.748 43.239 M100.778 44.758 C 99.942 45.309,99.597 45.847,99.590 46.615 C 99.572 48.475,102.102 48.651,103.031 46.854 C 103.909 45.157,102.359 43.715,100.778 44.758 M63.786 45.482 C 63.259 46.044,63.212 46.661,63.635 47.479 C 64.564 49.276,67.095 49.100,67.077 47.240 C 67.060 45.554,64.835 44.366,63.786 45.482 M102.668 45.552 C 102.742 46.069,101.673 47.395,101.053 47.557 C 100.460 47.713,99.902 47.031,100.187 46.498 C 100.861 45.239,102.533 44.601,102.668 45.552 M65.722 46.272 C 66.505 46.959,66.675 47.686,66.153 48.119 C 65.537 48.630,63.580 46.748,63.970 46.019 C 64.277 45.447,64.882 45.534,65.722 46.272 M103.906 48.989 C 103.133 49.564,102.500 50.120,102.500 50.225 C 102.500 50.578,103.014 50.410,103.838 49.787 C 104.869 49.006,104.866 48.999,104.353 50.811 C 103.810 52.732,103.857 52.760,105.552 51.536 C 106.325 50.977,107.044 50.461,107.151 50.388 C 107.258 50.315,107.280 50.150,107.201 50.022 C 107.105 49.867,106.755 49.998,106.147 50.416 C 104.951 51.239,104.968 51.257,105.431 49.636 C 106.045 47.489,105.969 47.456,103.906 48.989 M60.753 49.055 C 59.481 50.997,62.197 53.372,63.826 51.742 C 64.392 51.177,64.520 50.739,64.182 50.530 C 64.075 50.464,63.928 50.600,63.855 50.831 C 63.663 51.437,63.051 51.708,62.418 51.467 C 61.220 51.011,60.639 49.760,61.352 49.169 C 61.656 48.916,61.602 48.542,61.262 48.542 C 61.167 48.542,60.938 48.773,60.753 49.055 M116.004 57.088 C 115.899 57.755,51.393 57.755,51.288 57.088 L 51.221 56.667 83.646 56.667 L 116.071 56.667 116.004 57.088 M114.375 58.019 C 114.375 58.075,114.047 58.551,113.646 59.077 C 113.245 59.602,112.917 60.118,112.917 60.224 C 112.917 60.341,101.526 60.417,83.964 60.417 L 55.011 60.417 54.700 59.817 C 54.530 59.487,54.144 58.924,53.843 58.567 L 53.296 57.917 83.836 57.917 C 100.632 57.917,114.375 57.963,114.375 58.019 M113.085 61.094 C 113.152 61.440,111.644 61.458,83.765 61.458 C 53.751 61.458,53.818 61.460,54.515 60.763 C 54.888 60.390,113.013 60.718,113.085 61.094 M56.644 62.008 C 56.912 62.196,57.355 62.855,57.629 63.473 C 58.179 64.718,58.664 65.059,59.078 64.493 C 59.389 64.068,59.253 63.542,58.832 63.542 C 58.471 63.542,58.450 62.996,58.802 62.771 C 58.945 62.679,59.166 62.417,59.294 62.188 C 59.421 61.958,59.645 61.771,59.792 61.771 C 59.939 61.771,60.163 61.958,60.290 62.188 C 60.417 62.417,60.638 62.679,60.781 62.771 C 61.133 62.996,61.112 63.542,60.751 63.542 C 60.330 63.542,60.194 64.068,60.505 64.493 C 60.912 65.050,61.385 64.727,61.894 63.545 C 62.591 61.923,64.332 60.978,64.727 62.007 C 64.928 62.532,64.497 63.021,63.834 63.021 C 63.308 63.021,63.184 63.151,62.801 64.110 C 62.077 65.917,61.883 66.042,59.792 66.042 C 57.700 66.042,57.506 65.917,56.783 64.110 C 56.399 63.151,56.275 63.021,55.749 63.021 C 55.086 63.021,54.655 62.532,54.856 62.007 C 55.026 61.564,56.011 61.564,56.644 62.008 M67.708 61.877 C 67.708 62.206,70.806 65.369,72.120 66.381 C 75.289 68.822,78.663 70.005,82.708 70.091 C 84.141 70.122,84.394 70.111,83.272 70.066 L 81.231 69.985 81.293 68.586 L 81.354 67.188 83.566 67.129 L 85.778 67.070 85.920 68.329 C 85.999 69.022,85.998 69.694,85.918 69.822 C 85.815 69.990,86.057 70.014,86.779 69.906 C 90.717 69.315,95.335 66.688,98.403 63.294 L 99.742 61.811 99.886 63.979 C 100.085 66.984,100.104 67.030,100.828 66.255 C 101.491 65.546,101.977 65.464,102.536 65.970 C 104.859 68.073,93.644 75.507,87.143 76.173 C 86.221 76.268,85.885 76.377,86.016 76.539 C 86.117 76.667,86.261 79.396,86.334 82.604 C 86.407 85.813,86.523 89.211,86.592 90.156 L 86.716 91.875 83.641 91.875 L 80.567 91.875 80.703 86.927 C 80.778 84.206,80.897 80.737,80.968 79.219 L 81.098 76.458 81.747 76.432 C 82.104 76.417,81.740 76.322,80.938 76.219 C 76.009 75.588,71.512 73.778,67.790 70.927 C 63.803 67.873,63.357 65.695,67.031 67.218 C 67.232 67.302,67.292 66.679,67.292 64.497 C 67.292 62.749,67.371 61.667,67.500 61.667 C 67.615 61.667,67.708 61.761,67.708 61.877 M80.404 62.209 C 80.759 62.507,81.248 63.215,81.492 63.782 C 81.995 64.952,82.813 65.190,82.813 64.167 C 82.813 63.861,82.705 63.667,82.552 63.698 C 82.180 63.772,82.229 62.928,82.604 62.784 C 82.776 62.718,82.917 62.545,82.917 62.399 C 82.917 61.845,83.580 61.527,83.832 61.960 C 83.959 62.178,84.227 62.502,84.427 62.682 C 84.909 63.114,84.889 63.483,84.375 63.646 C 83.882 63.802,83.835 64.221,84.268 64.581 C 84.763 64.992,85.172 64.677,85.705 63.473 C 86.423 61.848,87.654 61.161,88.348 61.997 C 88.740 62.470,88.328 63.021,87.582 63.021 C 87.054 63.021,86.933 63.151,86.538 64.140 C 85.806 65.970,85.696 66.042,83.584 66.042 C 81.390 66.042,81.202 65.932,80.561 64.271 C 80.100 63.079,80.044 63.021,79.362 63.021 C 78.766 63.021,78.634 62.938,78.576 62.524 C 78.440 61.563,79.433 61.392,80.404 62.209 M104.465 62.110 C 104.775 62.353,105.254 63.063,105.530 63.687 C 105.950 64.636,106.110 64.811,106.506 64.755 C 107.144 64.664,107.273 63.838,106.679 63.650 C 106.105 63.467,106.133 63.332,106.935 62.431 C 107.596 61.688,108.125 61.668,108.125 62.387 C 108.125 62.509,108.313 62.725,108.542 62.868 C 109.077 63.203,109.071 63.464,108.525 63.606 C 107.915 63.766,108.054 64.663,108.703 64.755 C 109.099 64.811,109.258 64.636,109.678 63.687 C 110.446 61.951,111.804 61.141,112.514 61.997 C 112.884 62.442,112.513 63.017,111.846 63.032 C 111.099 63.048,110.905 63.237,110.541 64.306 C 109.988 65.928,109.796 66.042,107.604 66.042 C 105.413 66.042,105.220 65.928,104.667 64.306 C 104.303 63.237,104.109 63.048,103.363 63.032 C 102.696 63.017,102.324 62.442,102.694 61.997 C 103.074 61.538,103.798 61.585,104.465 62.110 M66.980 65.771 C 66.851 66.823,66.833 66.849,66.327 66.656 C 66.041 66.547,65.578 66.458,65.299 66.458 C 64.651 66.458,64.612 66.616,65.885 64.052 L 66.979 61.850 67.045 63.269 C 67.082 64.049,67.052 65.175,66.980 65.771 M102.292 65.319 C 102.292 65.386,102.213 65.393,102.117 65.333 C 102.021 65.274,101.596 65.410,101.174 65.637 C 100.258 66.127,100.287 66.181,100.111 63.646 L 99.981 61.771 101.136 63.484 C 101.772 64.426,102.292 65.252,102.292 65.319 M22.169 69.423 C 23.872 72.649,23.237 72.367,27.184 71.648 C 29.013 71.314,30.589 71.042,30.687 71.042 C 30.784 71.042,29.755 72.221,28.401 73.662 C 27.046 75.103,25.962 76.372,25.992 76.482 C 26.022 76.591,26.759 77.996,27.629 79.603 C 28.500 81.209,29.178 82.556,29.137 82.595 C 29.096 82.634,27.636 81.980,25.892 81.143 L 22.722 79.621 20.215 82.214 C 17.346 85.182,17.504 85.279,18.122 80.931 C 18.349 79.331,18.537 77.923,18.538 77.803 C 18.540 77.684,17.087 76.896,15.309 76.053 C 13.531 75.210,12.110 74.487,12.151 74.446 C 12.193 74.405,13.756 74.091,15.625 73.750 C 19.686 73.008,19.125 73.542,19.605 69.964 C 20.147 65.926,20.160 65.876,20.500 66.376 C 20.647 66.593,21.398 67.964,22.169 69.423 M62.188 66.667 C 62.188 67.079,57.839 67.243,57.364 66.849 C 56.817 66.395,57.504 66.247,59.896 66.302 C 61.771 66.345,62.188 66.411,62.188 66.667 M86.042 66.563 C 86.042 66.915,81.170 67.042,80.955 66.696 C 80.727 66.326,81.176 66.250,83.576 66.250 C 85.629 66.250,86.042 66.302,86.042 66.563 M110.208 66.563 C 110.208 66.915,105.336 67.042,105.122 66.696 C 104.894 66.326,105.342 66.250,107.743 66.250 C 109.796 66.250,110.208 66.302,110.208 66.563 M147.180 69.854 L 147.548 73.457 151.066 74.172 C 153.000 74.564,154.581 74.935,154.578 74.995 C 154.576 75.055,153.240 75.692,151.610 76.411 C 149.980 77.129,148.513 77.801,148.350 77.903 C 148.095 78.063,148.106 78.573,148.427 81.554 C 148.633 83.460,148.766 85.051,148.723 85.091 C 148.681 85.131,147.571 83.967,146.258 82.506 L 143.870 79.849 142.508 80.466 C 139.004 82.054,137.440 82.718,137.368 82.646 C 137.325 82.603,138.081 81.198,139.048 79.523 L 140.806 76.478 138.425 73.827 C 137.116 72.370,136.079 71.144,136.119 71.103 C 136.179 71.043,140.760 71.950,142.638 72.393 C 143.022 72.483,143.235 72.245,144.073 70.781 C 146.060 67.310,146.686 66.250,146.749 66.250 C 146.784 66.250,146.978 67.872,147.180 69.854 M109.958 68.623 L 110.020 70.058 109.229 69.927 C 108.794 69.855,107.758 69.795,106.927 69.794 L 105.417 69.792 105.420 68.906 C 105.425 67.044,105.402 67.062,107.787 67.128 L 109.896 67.188 109.958 68.623 M62.083 68.750 C 62.083 69.552,62.013 70.211,61.927 70.215 C 61.520 70.232,58.580 70.635,58.073 70.744 L 57.500 70.866 57.500 69.079 L 57.500 67.292 59.792 67.292 L 62.083 67.292 62.083 68.750 M72.963 70.313 C 72.314 71.628,72.039 71.892,71.769 71.455 C 71.630 71.231,71.250 71.370,71.250 71.646 C 71.250 71.887,72.246 72.296,72.550 72.179 C 72.919 72.037,74.232 69.440,74.068 69.176 C 73.816 68.768,73.631 68.958,72.963 70.313 M92.240 69.598 C 91.810 69.824,91.458 70.057,91.458 70.114 C 91.458 70.320,92.924 73.125,93.032 73.125 C 93.331 73.125,94.792 72.257,94.792 72.079 C 94.792 71.807,94.667 71.821,93.988 72.172 C 93.137 72.612,92.598 71.805,93.359 71.230 C 93.948 70.786,93.765 70.491,93.116 70.838 C 92.750 71.034,92.619 71.027,92.477 70.803 C 92.170 70.319,92.272 70.000,92.813 69.754 C 93.099 69.623,93.333 69.438,93.333 69.342 C 93.333 69.085,93.112 69.137,92.240 69.598 M75.311 70.885 C 74.575 72.696,74.558 72.910,75.104 73.456 C 75.697 74.049,76.271 74.099,76.712 73.594 C 77.180 73.057,77.940 70.872,77.709 70.729 C 77.519 70.612,76.989 71.662,76.744 72.636 C 76.589 73.255,76.178 73.581,75.756 73.419 C 75.307 73.247,75.328 72.740,75.836 71.451 C 76.233 70.444,76.235 70.000,75.844 70.000 C 75.748 70.000,75.508 70.398,75.311 70.885 M111.300 70.683 C 114.670 71.773,118.096 74.586,120.585 78.307 C 122.974 81.878,122.077 82.701,115.786 82.707 L 114.177 82.708 114.296 82.114 C 114.903 79.077,107.721 75.263,104.958 77.154 C 104.202 77.671,104.184 77.674,104.052 77.260 C 103.979 77.028,103.265 75.861,102.467 74.667 C 100.831 72.220,100.804 71.968,102.085 71.120 C 103.995 69.856,108.136 69.660,111.300 70.683 M64.683 70.999 C 66.713 71.695,66.587 72.377,63.560 77.067 C 63.399 77.317,63.277 77.302,62.778 76.970 C 61.563 76.161,59.139 76.657,55.639 78.431 C 54.576 78.969,54.375 79.253,54.375 80.215 L 54.375 80.813 53.490 80.541 C 50.913 79.750,48.542 78.429,48.542 77.785 C 48.542 77.249,49.988 75.251,51.012 74.373 C 54.285 71.565,61.290 69.836,64.683 70.999 M88.726 71.274 C 88.191 71.809,88.267 73.309,88.862 73.967 C 89.419 74.583,91.042 74.477,91.042 73.825 C 91.042 73.590,90.952 73.575,90.617 73.754 C 89.937 74.118,89.409 73.809,89.132 72.885 C 88.843 71.919,89.050 71.393,89.761 71.288 C 90.382 71.195,90.324 70.833,89.688 70.833 C 89.401 70.833,88.968 71.032,88.726 71.274 M79.397 71.491 C 78.702 71.748,78.807 72.780,79.583 73.333 C 80.579 74.042,80.238 74.755,79.046 74.456 C 78.744 74.381,78.542 74.421,78.542 74.557 C 78.542 74.682,78.789 74.846,79.092 74.922 C 80.642 75.311,81.482 73.824,80.220 72.925 C 79.326 72.288,79.370 71.805,80.313 71.915 C 80.784 71.970,81.042 71.912,81.042 71.753 C 81.042 71.443,79.982 71.274,79.397 71.491 M86.287 71.644 C 86.065 71.781,86.055 72.127,86.235 73.422 C 86.358 74.307,86.458 75.070,86.458 75.119 C 86.458 75.168,86.606 75.208,86.787 75.208 C 87.069 75.208,87.095 75.009,86.967 73.815 C 86.759 71.874,86.622 71.436,86.287 71.644 M82.292 71.875 C 82.292 71.990,82.479 72.083,82.708 72.083 C 83.088 72.083,83.125 72.222,83.125 73.646 C 83.125 74.896,83.188 75.208,83.438 75.208 C 83.686 75.208,83.750 74.905,83.750 73.730 C 83.750 72.428,83.799 72.240,84.167 72.144 C 84.975 71.932,84.569 71.667,83.438 71.667 C 82.807 71.667,82.292 71.760,82.292 71.875 M106.647 72.240 C 106.527 72.555,106.322 73.211,106.192 73.698 C 105.896 74.805,105.894 74.805,104.939 73.430 C 104.236 72.417,103.416 71.864,103.639 72.552 C 103.685 72.695,103.831 73.492,103.964 74.323 C 104.240 76.060,104.666 76.411,104.469 74.740 L 104.341 73.646 105.007 74.635 C 105.852 75.888,105.921 75.878,106.414 74.427 L 106.820 73.229 106.975 74.219 C 107.082 74.895,107.230 75.208,107.446 75.208 C 107.701 75.208,107.734 75.037,107.620 74.323 C 107.542 73.836,107.423 73.039,107.357 72.552 C 107.217 71.532,106.959 71.419,106.647 72.240 M59.487 72.283 C 58.928 72.901,59.208 73.663,60.104 73.958 C 61.247 74.335,61.017 75.208,59.775 75.208 C 59.555 75.208,59.375 75.302,59.375 75.417 C 59.375 75.531,59.603 75.625,59.882 75.625 C 61.800 75.625,62.278 73.913,60.522 73.334 C 59.625 73.038,59.570 72.534,60.417 72.365 C 60.760 72.296,61.042 72.158,61.042 72.057 C 61.042 71.706,59.853 71.879,59.487 72.283 M108.980 72.478 C 107.896 73.563,108.341 75.625,109.660 75.625 C 110.537 75.625,111.042 75.081,111.190 73.979 C 111.405 72.377,110.021 71.437,108.980 72.478 M56.817 72.656 C 56.647 72.979,57.756 76.042,58.044 76.042 C 58.430 76.042,58.413 75.855,57.865 74.048 C 57.450 72.682,57.070 72.177,56.817 72.656 M110.486 73.603 C 110.447 74.746,110.124 75.256,109.497 75.166 C 109.121 75.113,109.070 74.981,109.121 74.192 C 109.248 72.232,110.553 71.669,110.486 73.603 M111.935 74.567 L 111.060 76.182 111.787 76.528 C 112.836 77.028,113.247 76.961,113.819 76.198 C 114.821 74.860,114.707 74.050,113.409 73.299 L 112.810 72.953 111.935 74.567 M55.000 73.411 C 55.000 73.569,55.136 74.084,55.303 74.557 C 55.674 75.608,55.588 75.620,54.534 74.668 C 53.510 73.743,53.256 73.940,53.633 75.369 C 53.975 76.665,53.905 76.694,52.874 75.687 C 52.352 75.178,52.014 74.986,51.878 75.122 C 51.741 75.259,52.121 75.775,52.998 76.644 C 54.406 78.039,54.758 78.059,54.387 76.722 C 53.955 75.168,54.083 75.039,55.080 76.018 C 56.393 77.306,56.499 76.998,55.701 74.219 C 55.412 73.211,55.000 72.737,55.000 73.411 M113.715 74.359 C 113.870 75.415,112.935 76.648,112.284 76.245 C 112.036 76.092,112.082 75.867,112.561 74.890 C 113.146 73.697,113.588 73.494,113.715 74.359 M114.686 76.460 L 113.448 77.711 114.217 78.481 C 115.056 79.320,115.584 79.281,114.793 78.439 C 114.133 77.737,114.749 76.792,115.452 77.428 C 115.952 77.880,116.213 77.618,115.761 77.118 C 115.149 76.443,116.064 75.794,116.736 76.426 C 117.494 77.138,117.584 76.669,116.838 75.899 C 115.993 75.028,116.141 74.989,114.686 76.460 M91.049 77.636 C 90.337 81.415,90.316 89.674,91.018 89.862 C 91.203 89.911,91.053 89.963,90.684 89.976 C 89.661 90.013,89.161 91.877,90.030 92.415 C 90.181 92.507,90.199 92.391,90.087 92.057 C 89.682 90.850,90.098 89.961,90.921 90.277 C 91.655 90.559,91.278 92.337,90.438 92.554 C 89.570 92.777,89.214 92.486,88.956 91.345 C 88.763 90.490,88.987 89.792,89.455 89.792 C 89.672 89.792,89.725 88.943,89.714 85.677 C 89.698 81.346,89.930 79.321,90.670 77.329 C 91.190 75.932,91.346 76.059,91.049 77.636 M83.277 76.609 C 83.646 76.655,84.303 76.655,84.735 76.610 C 85.167 76.565,84.865 76.528,84.063 76.527 C 83.260 76.526,82.907 76.563,83.277 76.609 M62.319 78.333 C 62.472 79.900,62.193 80.660,61.299 81.118 C 60.797 81.375,57.819 82.083,57.239 82.083 C 57.047 82.083,57.171 78.176,57.369 77.978 C 57.704 77.643,60.491 76.890,61.250 76.930 L 62.188 76.979 62.319 78.333 M109.100 77.187 C 110.274 77.536,110.417 77.903,110.417 80.576 L 110.417 81.719 109.740 81.584 C 109.367 81.509,108.500 81.184,107.813 80.862 C 103.497 78.836,104.548 75.835,109.100 77.187 M96.949 77.961 C 97.161 78.072,97.802 78.633,98.374 79.208 C 99.618 80.458,99.514 80.822,98.010 80.478 C 97.051 80.259,97.051 80.259,97.181 80.779 C 97.267 81.119,97.194 81.429,96.971 81.676 C 96.784 81.883,96.665 82.223,96.708 82.432 C 96.751 82.641,96.642 82.935,96.466 83.084 C 96.190 83.318,96.204 83.330,96.563 83.166 C 97.350 82.806,99.107 83.792,99.351 84.731 C 100.107 87.648,100.058 93.245,99.270 94.034 C 99.137 94.166,99.069 94.396,99.119 94.544 C 99.168 94.693,99.147 95.143,99.072 95.545 C 98.910 96.409,98.497 96.386,98.306 95.504 L 98.174 94.896 98.150 95.482 C 98.136 95.805,98.212 96.232,98.319 96.431 C 98.647 97.044,98.335 98.550,97.835 98.774 C 97.408 98.965,97.408 98.968,97.865 98.880 C 98.505 98.756,98.532 101.555,97.915 104.129 C 97.650 105.236,97.547 106.157,97.631 106.681 L 97.762 107.500 95.443 107.500 C 93.941 107.500,93.125 107.422,93.125 107.278 C 93.125 106.869,93.553 106.250,93.836 106.250 C 94.391 106.250,94.658 105.090,94.400 103.797 C 94.269 103.141,94.070 102.042,93.957 101.354 C 93.844 100.667,93.698 99.870,93.633 99.583 C 93.517 99.076,93.544 99.063,94.674 99.063 L 95.833 99.063 95.875 100.625 L 95.917 102.188 95.988 100.573 C 96.027 99.685,96.153 98.958,96.267 98.958 C 96.381 98.958,96.357 98.832,96.212 98.677 C 95.992 98.441,95.904 98.441,95.668 98.677 C 95.353 98.993,94.009 99.050,93.563 98.767 C 93.345 98.630,93.271 98.063,93.272 96.531 C 93.272 94.974,93.240 94.731,93.137 95.521 C 92.982 96.722,92.848 96.313,92.615 93.924 C 92.467 92.403,92.335 92.083,91.853 92.083 C 91.332 92.083,91.289 90.608,91.797 90.186 C 92.076 89.955,92.114 89.642,92.011 88.419 C 91.779 85.679,92.035 84.188,92.792 83.874 C 93.378 83.630,93.462 83.646,93.707 84.042 L 93.976 84.479 93.854 84.028 C 93.788 83.780,93.831 83.516,93.952 83.442 C 94.289 83.233,94.962 83.520,95.067 83.916 C 95.134 84.171,95.167 84.139,95.184 83.802 C 95.200 83.491,95.086 83.328,94.844 83.317 C 94.597 83.306,94.569 83.265,94.758 83.189 C 94.953 83.112,94.892 83.005,94.559 82.839 C 94.032 82.577,93.460 81.003,93.660 80.371 C 93.725 80.166,93.631 79.852,93.452 79.672 C 93.272 79.492,93.125 79.440,93.125 79.556 C 93.125 79.672,93.219 79.825,93.333 79.896 C 94.059 80.345,92.771 80.504,92.018 80.059 C 91.791 79.925,92.490 79.167,92.840 79.167 C 93.062 79.167,93.067 79.060,92.868 78.623 C 92.391 77.576,95.307 77.103,96.949 77.961 M117.396 78.599 C 116.823 78.945,116.146 79.354,115.892 79.510 C 115.609 79.683,115.477 79.915,115.552 80.111 C 115.658 80.386,115.771 80.372,116.391 80.006 C 117.488 79.358,117.765 80.014,116.735 80.824 C 116.345 81.131,116.244 81.328,116.398 81.481 C 116.703 81.786,117.481 81.280,117.634 80.679 C 117.729 80.306,117.854 80.237,118.254 80.337 C 119.318 80.604,119.615 79.869,118.905 78.725 L 118.438 77.972 117.396 78.599 M64.828 80.781 C 66.976 85.311,66.335 86.198,59.140 88.655 C 53.544 90.565,51.573 91.734,49.164 94.570 C 47.178 96.909,45.817 98.266,44.993 98.729 L 44.136 99.211 44.855 98.199 C 46.073 96.488,46.468 95.495,46.682 93.610 C 46.794 92.631,46.976 91.658,47.088 91.449 C 47.409 90.850,47.331 90.675,46.786 90.779 C 45.966 90.936,44.913 90.466,43.693 89.399 C 42.150 88.048,41.293 87.545,40.251 87.378 C 39.180 87.207,39.138 86.985,40.115 86.663 C 41.023 86.363,41.587 86.493,42.848 87.293 C 44.875 88.578,45.669 88.425,49.486 86.009 C 53.296 83.598,55.326 82.803,60.054 81.872 C 61.628 81.563,62.372 80.915,62.938 79.362 C 63.509 77.795,63.359 77.682,64.828 80.781 M105.079 79.327 C 106.194 80.519,107.935 81.417,110.608 82.177 C 113.166 82.906,114.787 83.665,116.485 84.932 C 119.600 87.256,121.314 87.623,124.740 86.702 C 127.341 86.001,127.482 86.059,126.490 87.417 C 125.037 89.407,122.401 91.243,120.990 91.248 C 120.299 91.250,120.304 91.158,120.919 92.527 C 121.195 93.142,121.487 94.068,121.569 94.583 C 121.741 95.679,122.112 96.470,122.963 97.552 C 123.692 98.481,123.645 98.496,122.233 97.789 C 121.517 97.431,120.398 96.479,118.958 95.003 C 116.176 92.151,114.968 91.385,110.901 89.898 C 102.844 86.950,101.316 84.672,103.650 79.084 C 104.040 78.151,103.968 78.138,105.079 79.327 M118.645 79.585 C 118.447 79.904,117.708 79.829,117.708 79.490 C 117.708 79.027,118.399 78.711,118.605 79.079 C 118.697 79.244,118.715 79.471,118.645 79.585 M105.663 83.436 C 104.763 84.088,104.233 84.600,104.370 84.684 C 104.497 84.763,104.738 84.715,104.904 84.577 C 105.377 84.184,106.237 84.835,106.186 85.547 C 106.124 86.403,106.569 86.354,106.839 85.475 C 106.972 85.042,107.216 84.248,107.380 83.712 C 107.850 82.182,107.476 82.122,105.663 83.436 M59.925 83.906 C 59.854 84.336,59.795 84.992,59.794 85.365 C 59.791 86.290,59.435 86.227,58.334 85.105 C 57.772 84.532,57.340 84.243,57.223 84.361 C 57.005 84.579,58.069 87.708,58.361 87.708 C 58.622 87.708,58.585 87.381,58.226 86.524 C 57.808 85.522,57.911 85.489,58.753 86.357 C 59.710 87.344,59.901 87.279,60.127 85.885 L 60.321 84.688 60.602 85.521 C 60.934 86.503,61.136 86.762,61.428 86.581 C 61.571 86.493,61.553 86.226,61.375 85.777 C 61.229 85.407,60.946 84.659,60.746 84.115 C 60.307 82.921,60.097 82.868,59.925 83.906 M106.641 83.943 C 106.429 84.552,106.373 84.587,106.084 84.298 C 105.795 84.010,105.813 83.937,106.267 83.569 C 106.895 83.060,106.935 83.100,106.641 83.943 M95.556 83.472 C 95.479 83.549,95.417 84.351,95.417 85.255 C 95.417 87.095,95.018 87.369,94.973 85.561 C 94.948 84.597,94.931 84.558,94.816 85.208 L 94.686 85.938 94.398 85.254 C 94.240 84.878,94.067 84.613,94.014 84.666 C 93.753 84.927,95.459 87.555,96.713 88.824 C 97.913 90.037,98.491 91.042,97.990 91.042 C 97.220 91.042,94.504 87.742,93.718 85.851 C 93.474 85.263,93.230 84.826,93.176 84.880 C 93.122 84.934,93.417 85.663,93.831 86.501 C 94.815 88.494,94.845 89.748,93.958 91.979 C 93.615 92.845,93.337 93.714,93.342 93.912 C 93.347 94.109,93.548 93.685,93.788 92.969 L 94.225 91.667 95.260 91.667 C 96.094 91.667,96.271 91.727,96.175 91.979 C 96.109 92.151,96.140 92.292,96.243 92.292 C 96.347 92.292,96.642 92.667,96.900 93.125 C 97.158 93.583,97.448 93.958,97.545 93.958 C 97.642 93.958,97.807 94.169,97.910 94.427 C 98.045 94.762,98.102 94.796,98.112 94.547 C 98.119 94.354,98.289 94.154,98.490 94.102 C 98.764 94.030,98.738 94.001,98.385 93.983 C 98.050 93.965,97.912 93.825,97.902 93.490 C 97.888 93.053,97.876 93.049,97.728 93.430 C 97.541 93.907,97.430 93.767,96.254 91.563 C 95.870 90.842,95.641 90.555,95.714 90.885 C 95.834 91.425,95.799 91.458,95.113 91.458 C 94.418 91.458,94.394 91.434,94.588 90.924 C 94.700 90.630,94.795 89.903,94.798 89.309 C 94.806 88.073,95.388 88.402,95.445 89.675 C 95.468 90.185,95.492 90.216,95.565 89.832 C 95.655 89.364,95.680 89.372,96.543 90.144 C 97.031 90.581,97.633 91.101,97.882 91.300 L 98.333 91.663 98.309 90.154 C 98.292 89.147,98.240 88.854,98.150 89.271 L 98.016 89.896 96.821 88.738 L 95.625 87.581 95.625 85.578 C 95.625 84.172,95.702 83.545,95.885 83.471 C 96.031 83.413,96.046 83.359,95.920 83.350 C 95.796 83.341,95.632 83.396,95.556 83.472 M108.750 83.728 C 108.750 83.830,108.893 83.969,109.067 84.036 C 109.331 84.137,109.263 84.400,108.658 85.601 C 108.032 86.843,107.978 87.062,108.266 87.173 C 108.451 87.244,108.614 87.276,108.630 87.244 C 108.646 87.213,108.933 86.596,109.269 85.873 C 109.744 84.852,109.964 84.580,110.252 84.655 C 110.990 84.848,110.830 84.382,110.016 83.966 C 109.113 83.506,108.750 83.437,108.750 83.728 M111.144 85.961 C 110.409 87.623,110.301 88.125,110.675 88.125 C 110.937 88.125,111.937 86.134,112.127 85.234 C 112.305 84.390,111.613 84.901,111.144 85.961 M54.414 85.142 C 53.651 85.448,53.764 87.306,54.597 88.139 C 55.621 89.163,57.061 88.246,56.780 86.748 C 56.539 85.460,55.456 84.725,54.414 85.142 M55.841 86.266 C 56.378 87.317,56.315 87.997,55.674 88.088 C 54.930 88.193,53.960 85.827,54.635 85.555 C 55.208 85.323,55.426 85.452,55.841 86.266 M113.166 86.311 C 111.800 87.765,112.374 89.676,114.076 89.341 C 114.593 89.240,115.200 88.340,115.341 87.466 C 115.568 86.072,114.115 85.300,113.166 86.311 M114.752 86.809 C 114.849 87.488,114.027 88.958,113.550 88.958 C 112.753 88.958,112.751 88.197,113.543 86.913 C 114.022 86.137,114.648 86.083,114.752 86.809 M50.786 86.992 L 50.217 87.300 50.891 88.494 C 52.151 90.728,51.928 90.547,52.776 90.022 C 54.818 88.761,52.902 85.844,50.786 86.992 M51.971 87.213 C 52.864 87.556,53.298 89.583,52.479 89.583 C 52.124 89.583,51.042 87.421,51.311 87.250 C 51.619 87.054,51.564 87.057,51.971 87.213 M116.030 88.562 C 115.530 89.417,115.244 90.119,115.350 90.225 C 115.456 90.331,115.749 90.015,116.044 89.475 C 116.707 88.261,116.790 88.293,116.950 89.827 C 117.091 91.178,117.157 91.361,117.434 91.182 C 117.793 90.949,119.042 88.349,118.872 88.189 C 118.774 88.096,118.659 88.115,118.616 88.229 C 118.574 88.344,118.331 88.766,118.076 89.167 L 117.611 89.896 117.419 88.490 C 117.178 86.736,117.093 86.741,116.030 88.562 M106.097 88.311 C 106.697 88.642,107.961 89.181,108.906 89.509 C 110.479 90.054,110.624 90.151,110.624 90.660 C 110.625 90.966,110.682 91.364,110.751 91.545 C 110.863 91.837,110.524 91.875,107.835 91.875 L 104.792 91.875 104.792 89.792 C 104.792 88.646,104.840 87.708,104.899 87.708 C 104.958 87.708,105.497 87.979,106.097 88.311 M62.708 89.896 L 62.708 91.875 59.734 91.875 L 56.759 91.875 56.869 90.798 L 56.979 89.721 59.583 88.835 C 61.016 88.348,62.305 87.942,62.448 87.933 C 62.639 87.921,62.708 88.443,62.708 89.896 M63.294 92.760 C 63.358 93.096,63.082 93.125,59.807 93.125 C 56.297 93.125,55.797 93.022,56.394 92.426 C 56.752 92.068,63.221 92.382,63.294 92.760 M86.836 92.760 C 86.900 93.096,86.624 93.125,83.349 93.125 C 79.839 93.125,79.339 93.022,79.936 92.426 C 80.293 92.068,86.763 92.382,86.836 92.760 M94.742 92.439 C 95.001 92.489,95.376 92.487,95.575 92.435 C 95.775 92.383,95.563 92.342,95.104 92.344 C 94.646 92.347,94.483 92.389,94.742 92.439 M111.223 92.571 C 111.631 93.063,111.248 93.125,107.790 93.125 C 104.501 93.125,103.641 92.961,104.400 92.480 C 104.896 92.166,110.954 92.247,111.223 92.571 M63.737 93.737 C 64.694 94.343,63.572 94.583,59.792 94.583 C 56.678 94.583,56.050 94.531,55.820 94.255 C 55.332 93.667,55.999 93.548,59.792 93.548 C 61.797 93.548,63.572 93.633,63.737 93.737 M87.261 93.817 C 87.781 94.444,87.082 94.583,83.413 94.583 C 79.696 94.583,79.167 94.518,79.167 94.058 C 79.167 93.483,86.796 93.256,87.261 93.817 M111.863 93.840 C 112.337 94.411,111.408 94.583,107.843 94.583 C 104.278 94.583,103.750 94.516,103.750 94.058 C 103.750 93.464,111.381 93.259,111.863 93.840 M63.125 100.417 L 63.125 105.833 59.792 105.833 L 56.458 105.833 56.458 100.417 L 56.458 95.000 59.792 95.000 L 63.125 95.000 63.125 100.417 M86.667 100.417 L 86.667 105.833 83.438 105.833 L 80.208 105.833 80.208 100.417 L 80.208 95.000 83.438 95.000 L 86.667 95.000 86.667 100.417 M111.042 100.417 L 111.042 105.833 107.813 105.833 L 104.583 105.833 104.583 100.417 L 104.583 95.000 107.813 95.000 L 111.042 95.000 111.042 100.417 M95.465 96.250 C 95.465 96.651,95.508 96.815,95.560 96.615 C 95.613 96.414,95.613 96.086,95.560 95.885 C 95.508 95.685,95.465 95.849,95.465 96.250 M57.708 100.625 L 57.708 104.583 59.792 104.583 L 61.875 104.583 61.875 100.625 L 61.875 96.667 59.792 96.667 L 57.708 96.667 57.708 100.625 M81.250 100.625 L 81.250 104.583 83.333 104.583 L 85.417 104.583 85.417 100.625 L 85.417 96.667 83.333 96.667 L 81.250 96.667 81.250 100.625 M105.833 100.625 L 105.833 104.583 107.813 104.583 L 109.792 104.583 109.792 100.625 L 109.792 96.667 107.813 96.667 L 105.833 96.667 105.833 100.625 M30.119 100.316 C 29.601 102.122,29.223 103.673,29.280 103.764 C 29.336 103.856,30.670 104.804,32.243 105.871 L 35.104 107.813 34.063 107.877 C 33.490 107.912,31.852 108.006,30.424 108.085 L 27.827 108.229 26.935 111.354 C 26.445 113.073,25.988 114.620,25.920 114.792 C 25.784 115.134,25.626 114.770,24.168 110.757 L 23.270 108.285 19.604 108.433 C 17.252 108.528,16.012 108.509,16.146 108.381 C 16.260 108.270,17.526 107.271,18.958 106.160 C 22.103 103.720,21.899 104.440,20.518 100.636 C 19.881 98.881,19.404 97.401,19.458 97.347 C 19.512 97.293,20.851 98.139,22.434 99.225 L 25.313 101.202 28.103 99.034 C 29.638 97.841,30.931 96.904,30.978 96.950 C 31.024 96.996,30.638 98.511,30.119 100.316 M138.567 99.157 C 140.082 100.412,141.423 101.380,141.547 101.308 C 141.670 101.237,143.018 100.387,144.541 99.419 C 146.065 98.451,147.344 97.694,147.383 97.736 C 147.422 97.778,146.902 99.209,146.227 100.916 C 145.552 102.623,145.000 104.126,145.000 104.254 C 145.000 104.383,146.126 105.411,147.502 106.538 C 148.878 107.665,150.062 108.682,150.134 108.798 C 150.259 109.001,144.307 108.847,143.523 108.627 C 143.263 108.555,142.904 109.266,141.880 111.878 C 141.159 113.717,140.512 115.165,140.441 115.095 C 140.370 115.025,139.938 113.498,139.479 111.702 L 138.646 108.438 137.188 108.288 C 136.385 108.205,134.745 108.065,133.542 107.975 L 131.354 107.813 134.431 105.854 C 136.691 104.415,137.481 103.806,137.407 103.562 C 137.048 102.382,135.671 96.875,135.734 96.875 C 135.777 96.875,137.052 97.902,138.567 99.157 M61.458 100.625 L 61.458 104.167 59.792 104.167 L 58.125 104.167 58.125 100.625 L 58.125 97.083 59.792 97.083 L 61.458 97.083 61.458 100.625 M85.000 100.625 L 85.000 104.167 83.333 104.167 L 81.667 104.167 81.667 100.625 L 81.667 97.083 83.333 97.083 L 85.000 97.083 85.000 100.625 M109.375 100.625 L 109.375 104.167 107.813 104.167 L 106.250 104.167 106.250 100.625 L 106.250 97.083 107.813 97.083 L 109.375 97.083 109.375 100.625 M95.619 106.470 C 95.493 106.705,95.421 106.991,95.458 107.104 C 95.496 107.217,95.635 107.024,95.766 106.676 C 96.040 105.950,95.958 105.836,95.619 106.470 M112.708 106.771 L 112.708 107.500 107.813 107.500 L 102.917 107.500 102.917 106.771 L 102.917 106.042 107.813 106.042 L 112.708 106.042 112.708 106.771 M64.583 106.771 L 64.583 107.292 59.792 107.292 L 55.000 107.292 55.000 106.771 L 55.000 106.250 59.792 106.250 L 64.583 106.250 64.583 106.771 M87.917 106.771 L 87.917 107.292 83.125 107.292 L 78.333 107.292 78.333 106.771 L 78.333 106.250 83.125 106.250 L 87.917 106.250 87.917 106.771 M118.542 108.646 L 118.542 109.583 83.958 109.583 L 49.375 109.583 49.375 108.646 L 49.375 107.708 83.958 107.708 L 118.542 107.708 118.542 108.646 M121.667 111.146 L 121.667 112.293 84.010 112.240 L 46.354 112.188 46.291 111.094 L 46.228 110.000 83.947 110.000 L 121.667 110.000 121.667 111.146 M64.407 116.172 C 65.114 116.289,65.175 116.357,65.246 117.107 C 65.339 118.079,65.034 118.158,64.541 117.290 C 63.552 115.553,61.618 117.437,62.292 119.480 C 62.715 120.761,64.375 121.170,64.375 119.993 C 64.375 119.624,64.245 119.312,64.063 119.242 C 63.420 118.996,63.784 118.750,64.792 118.750 C 65.365 118.750,65.833 118.844,65.833 118.958 C 65.833 119.073,65.740 119.167,65.625 119.167 C 65.510 119.167,65.417 119.491,65.417 119.889 C 65.417 121.451,62.531 121.612,61.544 120.105 C 60.789 118.952,61.187 117.161,62.357 116.448 C 63.079 116.008,63.264 115.983,64.407 116.172 M70.335 116.688 C 71.760 118.026,71.232 120.531,69.420 121.031 C 67.449 121.576,65.841 119.385,66.772 117.423 C 67.434 116.029,69.237 115.657,70.335 116.688 M109.635 116.175 C 110.381 116.299,110.417 116.341,110.417 117.111 C 110.417 118.055,110.136 118.153,109.748 117.344 C 109.539 116.908,109.325 116.771,108.851 116.771 C 107.875 116.771,108.012 117.499,109.087 118.021 C 111.499 119.193,111.149 121.095,108.536 121.017 L 107.292 120.979 107.292 120.073 C 107.292 119.017,107.549 118.903,107.918 119.794 C 108.338 120.809,109.895 120.940,109.754 119.949 C 109.709 119.632,109.351 119.298,108.654 118.922 C 107.212 118.144,106.948 117.408,107.803 116.553 C 108.355 116.001,108.456 115.980,109.635 116.175 M52.969 116.599 C 52.292 117.071,52.249 120.390,52.917 120.565 C 53.725 120.776,53.319 121.042,52.188 121.042 C 51.557 121.042,51.042 120.948,51.042 120.833 C 51.042 120.719,51.182 120.625,51.354 120.625 C 51.610 120.625,51.667 120.266,51.667 118.646 C 51.667 117.025,51.610 116.667,51.354 116.667 C 51.182 116.667,51.042 116.573,51.042 116.458 C 51.042 116.342,51.573 116.255,52.240 116.261 C 53.389 116.271,53.419 116.285,52.969 116.599 M56.519 117.854 L 57.708 119.458 57.708 118.147 C 57.708 117.011,57.653 116.821,57.292 116.727 C 56.513 116.523,56.871 116.250,57.917 116.250 C 58.490 116.250,58.958 116.344,58.958 116.458 C 58.958 116.573,58.818 116.667,58.646 116.667 C 58.388 116.667,58.333 117.049,58.333 118.854 C 58.333 121.568,58.204 121.606,56.563 119.375 C 55.092 117.376,55.208 117.401,55.208 119.082 C 55.208 120.280,55.261 120.470,55.625 120.565 C 56.404 120.768,56.046 121.042,55.000 121.042 C 53.993 121.042,53.629 120.796,54.271 120.550 C 54.811 120.342,54.716 116.871,54.167 116.727 C 53.470 116.545,53.701 116.250,54.540 116.250 C 55.283 116.250,55.401 116.345,56.519 117.854 M75.066 116.483 C 76.721 117.329,76.681 119.860,74.998 120.730 C 74.317 121.083,71.667 121.164,71.667 120.833 C 71.667 120.719,71.807 120.625,71.979 120.625 C 72.235 120.625,72.292 120.266,72.292 118.646 C 72.292 117.025,72.235 116.667,71.979 116.667 C 71.807 116.667,71.667 116.573,71.667 116.458 C 71.667 116.172,74.498 116.192,75.066 116.483 M80.417 116.441 C 80.417 116.546,80.309 116.668,80.178 116.712 C 79.924 116.796,80.304 118.864,80.608 119.052 C 80.691 119.103,80.968 118.494,81.225 117.697 C 81.819 115.852,82.101 115.875,82.710 117.816 C 83.245 119.523,83.366 119.555,83.722 118.085 C 84.029 116.816,84.021 116.667,83.646 116.667 C 83.474 116.667,83.333 116.573,83.333 116.458 C 83.333 116.344,83.755 116.250,84.271 116.250 C 85.259 116.250,85.408 116.368,84.897 116.748 C 84.726 116.875,84.322 117.870,84.000 118.958 C 83.272 121.409,83.022 121.461,82.304 119.308 L 81.761 117.679 81.232 119.308 C 80.606 121.239,80.243 121.392,79.833 119.896 C 79.040 117.004,78.915 116.667,78.631 116.667 C 78.467 116.667,78.333 116.573,78.333 116.458 C 78.333 116.344,78.802 116.250,79.375 116.250 C 79.948 116.250,80.417 116.336,80.417 116.441 M89.375 116.875 C 89.375 117.600,89.168 117.675,88.798 117.083 C 88.279 116.251,87.292 116.524,87.292 117.500 C 87.292 118.434,87.723 118.638,88.173 117.917 C 88.589 117.251,88.750 117.426,88.750 118.542 C 88.750 119.596,88.472 119.930,88.229 119.167 C 87.953 118.298,87.292 118.665,87.292 119.688 C 87.292 120.937,88.276 121.071,89.213 119.950 L 89.780 119.271 89.786 120.156 L 89.792 121.042 87.708 121.042 C 86.458 121.042,85.625 120.958,85.625 120.833 C 85.625 120.719,85.766 120.625,85.938 120.625 C 86.193 120.625,86.250 120.266,86.250 118.646 C 86.250 117.025,86.193 116.667,85.938 116.667 C 85.766 116.667,85.625 116.573,85.625 116.458 C 85.625 116.335,86.389 116.250,87.500 116.250 L 89.375 116.250 89.375 116.875 M96.667 116.979 C 96.667 117.834,96.415 117.923,96.080 117.188 C 95.940 116.882,95.668 116.667,95.421 116.667 C 94.777 116.667,94.773 120.396,95.417 120.565 C 96.253 120.783,95.802 121.042,94.583 121.042 C 93.365 121.042,92.914 120.783,93.750 120.565 C 94.376 120.401,94.392 116.667,93.767 116.667 C 93.548 116.667,93.176 116.924,92.941 117.240 L 92.513 117.813 92.507 117.031 L 92.500 116.250 94.583 116.250 L 96.667 116.250 96.667 116.979 M100.661 116.595 C 101.161 117.047,101.145 117.813,100.625 118.333 C 100.396 118.563,100.208 118.807,100.208 118.876 C 100.208 119.174,101.520 120.625,101.788 120.625 C 101.951 120.625,102.083 120.719,102.083 120.833 C 102.083 121.589,100.496 120.996,99.842 119.996 C 99.021 118.741,98.750 118.690,98.750 119.792 C 98.750 120.394,98.837 120.625,99.063 120.625 C 99.234 120.625,99.375 120.719,99.375 120.833 C 99.375 120.948,98.906 121.042,98.333 121.042 C 97.326 121.042,96.962 120.796,97.604 120.550 C 97.850 120.455,97.917 120.028,97.917 118.548 C 97.917 117.015,97.859 116.667,97.604 116.667 C 97.432 116.667,97.292 116.573,97.292 116.458 C 97.292 116.085,100.229 116.204,100.661 116.595 M103.958 116.458 C 103.958 116.573,103.818 116.667,103.646 116.667 C 103.397 116.667,103.333 116.974,103.333 118.183 C 103.333 120.371,103.985 121.125,105.162 120.301 C 105.830 119.833,105.868 116.899,105.208 116.727 C 104.430 116.523,104.788 116.250,105.833 116.250 C 106.406 116.250,106.875 116.344,106.875 116.458 C 106.875 116.573,106.739 116.667,106.572 116.667 C 106.230 116.667,106.066 117.395,105.989 119.271 C 105.925 120.820,105.028 121.498,103.645 121.042 C 102.666 120.718,102.500 120.328,102.500 118.347 C 102.500 116.992,102.439 116.667,102.188 116.667 C 102.016 116.667,101.875 116.573,101.875 116.458 C 101.875 116.344,102.344 116.250,102.917 116.250 C 103.490 116.250,103.958 116.344,103.958 116.458 M115.417 116.979 C 115.417 117.836,115.181 117.915,114.792 117.188 C 114.638 116.901,114.341 116.667,114.131 116.667 C 113.611 116.667,113.545 120.351,114.063 120.550 C 114.727 120.805,114.325 121.042,113.229 121.042 C 112.599 121.042,112.083 120.948,112.083 120.833 C 112.083 120.719,112.224 120.625,112.396 120.625 C 112.652 120.625,112.708 120.266,112.708 118.646 C 112.708 116.504,112.454 116.115,111.753 117.186 C 111.338 117.819,111.042 117.685,111.042 116.863 L 111.042 116.250 113.229 116.250 L 115.417 116.250 115.417 116.979 M67.923 116.971 C 67.333 117.682,67.400 119.662,68.036 120.298 C 69.282 121.544,70.729 119.359,69.928 117.440 C 69.572 116.589,68.457 116.328,67.923 116.971 M73.125 118.412 C 73.125 120.411,73.346 120.793,74.316 120.473 C 75.943 119.935,75.425 116.667,73.714 116.667 L 73.125 116.667 73.125 118.412 M98.750 117.590 C 98.750 118.114,98.791 118.542,98.841 118.542 C 100.050 118.542,100.496 116.840,99.323 116.705 C 98.772 116.642,98.750 116.675,98.750 117.590 M44.115 123.154 C 44.912 127.182,44.299 126.612,48.319 127.069 C 50.172 127.280,51.736 127.500,51.795 127.559 C 51.853 127.617,50.536 128.444,48.867 129.396 C 47.198 130.349,45.833 131.234,45.833 131.364 C 45.833 131.494,46.118 132.945,46.466 134.588 C 47.312 138.575,47.380 138.532,44.443 135.854 C 41.435 133.111,42.205 133.216,38.879 135.094 C 37.366 135.948,35.969 136.707,35.775 136.782 C 35.521 136.880,35.811 136.070,36.796 133.928 C 37.552 132.283,38.214 130.792,38.266 130.614 C 38.328 130.402,37.454 129.471,35.725 127.906 C 34.276 126.594,33.215 125.498,33.368 125.470 C 33.521 125.442,35.135 125.590,36.956 125.798 L 40.266 126.177 41.142 124.287 C 41.623 123.247,42.279 121.810,42.600 121.094 C 43.379 119.350,43.356 119.318,44.115 123.154 M124.998 123.390 L 126.292 126.467 127.261 126.357 C 131.174 125.912,133.718 125.807,133.316 126.106 C 132.436 126.763,128.217 130.551,128.185 130.713 C 128.160 130.837,128.734 132.344,129.460 134.063 C 130.186 135.781,130.753 137.218,130.720 137.256 C 130.688 137.294,129.339 136.521,127.724 135.538 C 124.165 133.372,124.906 133.310,121.745 136.040 C 120.287 137.299,119.071 138.307,119.043 138.279 C 119.015 138.251,119.360 136.696,119.809 134.824 C 120.777 130.793,121.060 131.467,117.508 129.344 C 115.907 128.387,114.594 127.551,114.590 127.485 C 114.587 127.419,116.154 127.246,118.073 127.100 C 119.992 126.953,121.596 126.801,121.637 126.762 C 121.679 126.723,122.088 125.123,122.548 123.208 C 123.057 121.089,123.447 119.841,123.544 120.019 C 123.632 120.180,124.286 121.697,124.998 123.390 M67.477 137.153 L 69.433 139.555 70.393 139.177 C 74.867 137.421,75.876 137.056,75.979 137.159 C 76.044 137.224,75.251 138.582,74.217 140.175 L 72.337 143.073 74.602 145.847 C 75.847 147.372,76.840 148.646,76.807 148.679 C 76.774 148.712,75.200 148.332,73.308 147.836 L 69.869 146.934 68.027 149.829 C 67.013 151.422,66.115 152.767,66.030 152.820 C 65.945 152.872,65.815 151.720,65.742 150.260 C 65.669 148.799,65.542 147.186,65.460 146.675 L 65.312 145.746 62.031 144.887 C 60.227 144.415,58.702 143.980,58.643 143.921 C 58.584 143.862,60.046 143.226,61.891 142.507 L 65.246 141.199 65.127 139.818 C 64.742 135.347,64.746 133.830,65.144 134.303 C 65.351 134.550,66.401 135.833,67.477 137.153 M101.585 137.942 C 101.415 139.814,101.293 141.361,101.315 141.381 C 101.337 141.400,102.479 141.887,103.854 142.463 C 107.877 144.148,107.965 144.187,107.885 144.268 C 107.843 144.310,106.262 144.696,104.373 145.126 C 102.483 145.556,100.924 145.914,100.908 145.923 C 100.892 145.931,100.770 147.297,100.637 148.958 C 100.255 153.744,100.452 153.651,98.307 150.058 L 96.448 146.946 93.068 147.742 C 91.209 148.180,89.621 148.516,89.539 148.488 C 89.458 148.460,90.414 147.266,91.665 145.833 C 94.389 142.714,94.327 143.417,92.192 139.909 C 91.220 138.312,90.467 136.964,90.518 136.913 C 90.569 136.862,91.762 137.315,93.170 137.920 C 94.577 138.525,96.031 139.147,96.399 139.301 L 97.069 139.583 99.418 136.871 C 100.711 135.379,101.797 134.244,101.832 134.349 C 101.867 134.454,101.756 136.071,101.585 137.942 " stroke="none" fill="#042c53" fill-rule="evenodd"></path><path id="path2" d="M166.667 41.667 L 166.667 83.333 283.333 83.333 L 400.000 83.333 400.000 41.667 L 400.000 0.000 283.333 0.000 L 166.667 0.000 166.667 41.667 M0.000 208.333 L 0.000 250.000 200.000 250.000 L 400.000 250.000 400.000 208.333 L 400.000 166.667 200.000 166.667 L 0.000 166.667 0.000 208.333 " stroke="none" fill="#b40424" fill-rule="evenodd"></path><path id="path3" d="M81.445 35.032 C 71.684 35.638,62.253 41.939,57.551 50.998 C 56.702 52.635,55.417 55.741,55.417 56.158 C 55.417 56.209,57.178 56.250,59.332 56.250 L 63.247 56.250 63.832 55.052 C 71.929 38.482,95.865 38.545,103.525 55.156 L 104.030 56.250 107.952 56.250 C 110.367 56.250,111.875 56.172,111.875 56.046 C 111.875 55.651,110.879 53.206,110.006 51.458 C 104.569 40.575,93.620 34.277,81.445 35.032 M82.085 37.448 C 82.086 37.763,82.146 38.654,82.219 39.427 C 82.346 40.767,82.331 40.833,81.905 40.833 C 81.537 40.833,81.458 40.710,81.458 40.135 C 81.458 39.750,81.398 38.860,81.324 38.156 C 81.198 36.944,81.215 36.875,81.637 36.875 C 81.985 36.875,82.084 37.002,82.085 37.448 M86.615 37.006 C 87.245 37.175,87.211 37.500,86.563 37.500 C 86.089 37.500,86.041 37.580,86.039 38.385 C 86.035 39.969,85.814 40.833,85.412 40.833 C 85.083 40.833,85.057 40.655,85.157 39.063 C 85.263 37.357,85.251 37.292,84.821 37.292 C 84.576 37.292,84.375 37.198,84.375 37.083 C 84.375 36.856,85.863 36.805,86.615 37.006 M78.637 37.485 C 78.702 37.591,78.567 37.738,78.336 37.812 C 77.824 37.974,77.824 37.903,78.333 39.741 C 78.840 41.568,78.839 41.458,78.341 41.458 C 78.036 41.458,77.875 41.235,77.702 40.573 C 77.576 40.086,77.384 39.349,77.277 38.935 C 77.108 38.280,77.016 38.196,76.562 38.282 C 75.669 38.453,75.989 37.946,76.927 37.705 C 77.414 37.580,77.906 37.443,78.021 37.401 C 78.383 37.268,78.514 37.286,78.637 37.485 M90.061 37.617 C 90.322 37.717,90.310 37.911,89.974 38.989 C 89.474 40.597,89.474 41.173,89.977 41.304 C 90.608 41.469,90.821 41.201,91.310 39.623 C 91.633 38.578,91.846 38.181,92.023 38.293 C 92.279 38.455,91.783 40.462,91.233 41.490 C 90.754 42.385,88.750 41.698,88.750 40.640 C 88.750 40.124,89.535 37.500,89.690 37.500 C 89.727 37.500,89.894 37.552,90.061 37.617 M73.958 39.017 C 73.958 39.164,73.669 39.393,73.316 39.526 C 72.286 39.915,72.569 40.496,73.851 40.625 C 75.462 40.787,75.818 41.955,74.517 42.807 C 73.900 43.211,73.090 43.296,72.974 42.969 C 72.921 42.817,73.054 42.708,73.293 42.708 C 73.519 42.708,73.925 42.527,74.196 42.306 C 74.937 41.701,74.551 41.401,72.869 41.277 C 72.278 41.233,71.799 40.324,72.085 39.789 C 72.443 39.121,73.958 38.496,73.958 39.017 M95.725 39.731 C 96.912 40.313,97.269 40.769,96.358 40.540 C 95.887 40.422,95.776 40.540,95.106 41.872 C 94.439 43.196,94.050 43.564,93.693 43.207 C 93.624 43.138,93.913 42.381,94.336 41.526 C 95.041 40.098,95.074 39.955,94.740 39.767 C 94.411 39.583,94.227 39.167,94.475 39.167 C 94.529 39.167,95.092 39.421,95.725 39.731 M70.290 42.419 C 71.801 44.519,71.799 44.565,70.208 44.091 C 69.693 43.937,69.001 43.746,68.671 43.666 L 68.070 43.520 68.827 44.573 C 69.668 45.744,69.702 45.833,69.309 45.833 C 69.053 45.833,67.190 43.438,66.942 42.790 C 66.798 42.416,66.920 42.423,68.598 42.889 C 70.196 43.332,70.225 43.305,69.379 42.155 C 68.826 41.402,68.756 41.042,69.164 41.042 C 69.238 41.042,69.745 41.661,70.290 42.419 M99.334 41.930 C 99.579 42.225,97.595 45.197,97.148 45.204 C 96.553 45.214,96.713 44.691,97.748 43.239 C 98.930 41.581,98.998 41.525,99.334 41.930 M102.784 44.807 C 104.044 45.798,102.827 48.125,101.049 48.125 C 99.241 48.125,99.061 45.890,100.778 44.758 C 101.530 44.262,102.109 44.276,102.784 44.807 M65.889 45.383 C 66.725 45.934,67.069 46.472,67.077 47.240 C 67.095 49.100,64.564 49.276,63.635 47.479 C 62.749 45.766,64.293 44.330,65.889 45.383 M101.066 45.533 C 100.098 46.347,99.891 46.826,100.308 47.286 C 100.762 47.789,101.314 47.616,102.095 46.726 C 103.267 45.390,102.413 44.399,101.066 45.533 M63.970 46.019 C 63.580 46.748,65.537 48.630,66.153 48.119 C 66.675 47.686,66.505 46.959,65.722 46.272 C 64.882 45.534,64.277 45.447,63.970 46.019 M105.833 48.074 C 105.833 48.160,105.652 48.863,105.431 49.636 C 104.968 51.257,104.951 51.239,106.147 50.416 C 106.755 49.998,107.105 49.867,107.201 50.022 C 107.280 50.150,107.258 50.315,107.151 50.388 C 107.044 50.461,106.325 50.977,105.552 51.536 C 103.857 52.760,103.810 52.732,104.353 50.811 C 104.866 48.999,104.869 49.006,103.838 49.787 C 103.014 50.410,102.500 50.578,102.500 50.225 C 102.500 50.120,103.133 49.564,103.906 48.989 C 105.235 48.002,105.833 47.718,105.833 48.074 M61.548 48.726 C 61.611 48.828,61.522 49.027,61.352 49.169 C 60.639 49.760,61.220 51.011,62.418 51.467 C 63.051 51.708,63.663 51.437,63.855 50.831 C 63.928 50.600,64.075 50.464,64.182 50.530 C 64.844 50.939,63.616 52.292,62.583 52.292 C 61.560 52.292,60.417 51.232,60.417 50.284 C 60.417 49.236,61.198 48.160,61.548 48.726 M51.288 57.088 C 51.393 57.755,115.899 57.755,116.004 57.088 L 116.071 56.667 83.646 56.667 L 51.221 56.667 51.288 57.088 M53.843 58.567 C 54.144 58.924,54.530 59.487,54.700 59.817 L 55.011 60.417 83.964 60.417 C 101.526 60.417,112.917 60.341,112.917 60.224 C 112.917 60.118,113.245 59.602,113.646 59.077 C 114.047 58.551,114.375 58.075,114.375 58.019 C 114.375 57.963,100.632 57.917,83.836 57.917 L 53.296 57.917 53.843 58.567 M54.515 60.763 C 53.818 61.460,53.751 61.458,83.765 61.458 C 111.644 61.458,113.152 61.440,113.085 61.094 C 113.013 60.718,54.888 60.390,54.515 60.763 M54.856 62.007 C 54.655 62.532,55.086 63.021,55.749 63.021 C 56.275 63.021,56.399 63.151,56.783 64.110 C 57.506 65.917,57.700 66.042,59.792 66.042 C 61.883 66.042,62.077 65.917,62.801 64.110 C 63.184 63.151,63.308 63.021,63.834 63.021 C 64.497 63.021,64.928 62.532,64.727 62.007 C 64.332 60.978,62.591 61.923,61.894 63.545 C 61.385 64.727,60.912 65.050,60.505 64.493 C 60.194 64.068,60.330 63.542,60.751 63.542 C 61.112 63.542,61.133 62.996,60.781 62.771 C 60.638 62.679,60.417 62.417,60.290 62.188 C 60.163 61.958,59.939 61.771,59.792 61.771 C 59.645 61.771,59.421 61.958,59.294 62.188 C 59.166 62.417,58.945 62.679,58.802 62.771 C 58.450 62.996,58.471 63.542,58.832 63.542 C 59.253 63.542,59.389 64.068,59.078 64.493 C 58.664 65.059,58.179 64.718,57.629 63.473 C 56.920 61.871,55.248 60.987,54.856 62.007 M67.292 64.497 C 67.292 66.679,67.232 67.302,67.031 67.218 C 63.357 65.695,63.803 67.873,67.790 70.927 C 71.512 73.778,76.009 75.588,80.938 76.219 C 81.740 76.322,82.104 76.417,81.747 76.432 L 81.098 76.458 80.968 79.219 C 80.897 80.737,80.778 84.206,80.703 86.927 L 80.567 91.875 83.641 91.875 L 86.716 91.875 86.592 90.156 C 86.523 89.211,86.407 85.813,86.334 82.604 C 86.261 79.396,86.117 76.667,86.016 76.539 C 85.885 76.377,86.221 76.268,87.143 76.173 C 93.644 75.507,104.859 68.073,102.536 65.970 C 101.977 65.464,101.491 65.546,100.828 66.255 C 100.104 67.030,100.085 66.984,99.886 63.979 L 99.742 61.811 98.403 63.294 C 95.335 66.688,90.717 69.315,86.779 69.906 C 86.057 70.014,85.815 69.990,85.918 69.822 C 85.998 69.694,85.999 69.022,85.920 68.329 L 85.778 67.070 83.566 67.129 L 81.354 67.188 81.293 68.586 L 81.231 69.985 83.272 70.066 C 84.394 70.111,84.141 70.122,82.708 70.091 C 78.663 70.005,75.289 68.822,72.120 66.381 C 70.806 65.369,67.708 62.206,67.708 61.877 C 67.708 61.761,67.615 61.667,67.500 61.667 C 67.371 61.667,67.292 62.749,67.292 64.497 M78.784 61.850 C 78.194 62.223,78.588 63.021,79.362 63.021 C 80.044 63.021,80.100 63.079,80.561 64.271 C 81.202 65.932,81.390 66.042,83.584 66.042 C 85.696 66.042,85.806 65.970,86.538 64.140 C 86.933 63.151,87.054 63.021,87.582 63.021 C 88.328 63.021,88.740 62.470,88.348 61.997 C 87.654 61.161,86.423 61.848,85.705 63.473 C 85.172 64.677,84.763 64.992,84.268 64.581 C 83.835 64.221,83.882 63.802,84.375 63.646 C 84.889 63.483,84.909 63.114,84.427 62.682 C 84.227 62.502,83.959 62.178,83.832 61.960 C 83.580 61.527,82.917 61.845,82.917 62.399 C 82.917 62.545,82.776 62.718,82.604 62.784 C 82.229 62.928,82.180 63.772,82.552 63.698 C 82.705 63.667,82.813 63.861,82.813 64.167 C 82.813 65.190,81.995 64.952,81.492 63.782 C 80.815 62.207,79.594 61.336,78.784 61.850 M102.694 61.997 C 102.324 62.442,102.696 63.017,103.363 63.032 C 104.109 63.048,104.303 63.237,104.667 64.306 C 105.220 65.928,105.413 66.042,107.604 66.042 C 109.796 66.042,109.988 65.928,110.541 64.306 C 110.905 63.237,111.099 63.048,111.846 63.032 C 112.513 63.017,112.884 62.442,112.514 61.997 C 111.804 61.141,110.446 61.951,109.678 63.687 C 109.258 64.636,109.099 64.811,108.703 64.755 C 108.054 64.663,107.915 63.766,108.525 63.606 C 109.071 63.464,109.077 63.203,108.542 62.868 C 108.313 62.725,108.125 62.509,108.125 62.387 C 108.125 61.668,107.596 61.688,106.935 62.431 C 106.133 63.332,106.105 63.467,106.679 63.650 C 107.273 63.838,107.144 64.664,106.506 64.755 C 106.110 64.811,105.950 64.636,105.530 63.687 C 104.762 61.951,103.404 61.141,102.694 61.997 M65.885 64.052 C 64.612 66.616,64.651 66.458,65.299 66.458 C 65.578 66.458,66.041 66.547,66.327 66.656 C 66.944 66.891,67.166 65.848,67.045 63.269 L 66.979 61.850 65.885 64.052 M100.111 63.646 C 100.287 66.181,100.258 66.127,101.174 65.637 C 101.596 65.410,102.021 65.274,102.117 65.333 C 102.475 65.554,102.262 65.154,101.136 63.484 L 99.981 61.771 100.111 63.646 M57.334 66.424 C 57.116 66.566,57.122 66.647,57.364 66.849 C 57.839 67.243,62.188 67.079,62.188 66.667 C 62.188 66.312,57.842 66.095,57.334 66.424 M80.978 66.383 C 80.614 66.747,81.284 66.875,83.554 66.875 C 85.626 66.875,86.042 66.823,86.042 66.563 C 86.042 66.239,81.291 66.071,80.978 66.383 M105.145 66.383 C 104.781 66.747,105.450 66.875,107.721 66.875 C 109.793 66.875,110.208 66.823,110.208 66.563 C 110.208 66.239,105.457 66.071,105.145 66.383 M105.550 67.545 C 105.480 67.807,105.421 68.419,105.420 68.906 L 105.417 69.792 106.927 69.794 C 107.758 69.795,108.794 69.855,109.229 69.927 L 110.020 70.058 109.958 68.623 L 109.896 67.188 107.787 67.128 C 105.743 67.071,105.673 67.084,105.550 67.545 M57.500 69.079 L 57.500 70.866 58.073 70.744 C 58.580 70.635,61.520 70.232,61.927 70.215 C 62.013 70.211,62.083 69.552,62.083 68.750 L 62.083 67.292 59.792 67.292 L 57.500 67.292 57.500 69.079 M74.068 69.176 C 74.232 69.440,72.919 72.037,72.550 72.179 C 72.246 72.296,71.250 71.887,71.250 71.646 C 71.250 71.370,71.630 71.231,71.769 71.455 C 72.039 71.892,72.314 71.628,72.963 70.313 C 73.631 68.958,73.816 68.768,74.068 69.176 M93.333 69.342 C 93.333 69.438,93.099 69.623,92.813 69.754 C 92.272 70.000,92.170 70.319,92.477 70.803 C 92.619 71.027,92.750 71.034,93.116 70.838 C 93.765 70.491,93.948 70.786,93.359 71.230 C 92.598 71.805,93.137 72.612,93.988 72.172 C 94.667 71.821,94.792 71.807,94.792 72.079 C 94.792 72.257,93.331 73.125,93.032 73.125 C 92.924 73.125,91.458 70.320,91.458 70.114 C 91.458 69.997,92.936 69.190,93.177 69.176 C 93.263 69.171,93.333 69.245,93.333 69.342 M76.136 70.193 C 76.202 70.299,76.067 70.865,75.836 71.451 C 75.328 72.740,75.307 73.247,75.756 73.419 C 76.178 73.581,76.589 73.255,76.744 72.636 C 76.989 71.662,77.519 70.612,77.709 70.729 C 77.940 70.872,77.180 73.057,76.712 73.594 C 75.974 74.440,74.449 73.470,74.776 72.362 C 75.324 70.506,75.831 69.698,76.136 70.193 M103.891 70.300 C 100.867 71.172,100.626 71.913,102.467 74.667 C 103.265 75.861,103.979 77.028,104.052 77.260 C 104.184 77.674,104.202 77.671,104.958 77.154 C 107.721 75.263,114.903 79.077,114.296 82.114 L 114.177 82.708 115.786 82.707 C 122.077 82.701,122.974 81.878,120.585 78.307 C 116.387 72.032,109.440 68.699,103.891 70.300 M59.248 70.852 C 54.238 71.690,48.542 75.379,48.542 77.785 C 48.542 78.429,50.913 79.750,53.490 80.541 L 54.375 80.813 54.375 80.215 C 54.375 79.253,54.576 78.969,55.639 78.431 C 59.139 76.657,61.563 76.161,62.778 76.970 C 63.277 77.302,63.399 77.317,63.560 77.067 C 65.669 73.800,66.320 72.435,66.023 71.900 C 65.416 70.808,62.349 70.333,59.248 70.852 M90.208 71.027 C 90.208 71.134,90.007 71.251,89.761 71.288 C 89.050 71.393,88.843 71.919,89.132 72.885 C 89.409 73.809,89.937 74.118,90.617 73.754 C 90.952 73.575,91.042 73.590,91.042 73.825 C 91.042 74.477,89.419 74.583,88.862 73.967 C 88.267 73.309,88.191 71.809,88.726 71.274 C 89.166 70.834,90.208 70.660,90.208 71.027 M81.042 71.753 C 81.042 71.912,80.784 71.970,80.313 71.915 C 79.370 71.805,79.326 72.288,80.220 72.925 C 81.482 73.824,80.642 75.311,79.092 74.922 C 78.789 74.846,78.542 74.682,78.542 74.557 C 78.542 74.421,78.744 74.381,79.046 74.456 C 80.238 74.755,80.579 74.042,79.583 73.333 C 78.807 72.780,78.702 71.748,79.397 71.491 C 79.982 71.274,81.042 71.443,81.042 71.753 M86.967 73.815 C 87.095 75.009,87.069 75.208,86.787 75.208 C 86.606 75.208,86.458 75.168,86.458 75.119 C 86.458 75.070,86.358 74.307,86.235 73.422 C 86.055 72.127,86.065 71.781,86.287 71.644 C 86.622 71.436,86.759 71.874,86.967 73.815 M84.583 71.851 C 84.583 71.952,84.396 72.084,84.167 72.144 C 83.799 72.240,83.750 72.428,83.750 73.730 C 83.750 74.905,83.686 75.208,83.438 75.208 C 83.188 75.208,83.125 74.896,83.125 73.646 C 83.125 72.222,83.088 72.083,82.708 72.083 C 82.479 72.083,82.292 71.990,82.292 71.875 C 82.292 71.760,82.807 71.667,83.438 71.667 C 84.068 71.667,84.583 71.749,84.583 71.851 M107.357 72.552 C 107.423 73.039,107.542 73.836,107.620 74.323 C 107.734 75.037,107.701 75.208,107.446 75.208 C 107.230 75.208,107.082 74.895,106.975 74.219 L 106.820 73.229 106.414 74.427 C 105.921 75.878,105.852 75.888,105.007 74.635 L 104.341 73.646 104.469 74.740 C 104.666 76.411,104.240 76.060,103.964 74.323 C 103.831 73.492,103.685 72.695,103.639 72.552 C 103.416 71.864,104.236 72.417,104.939 73.430 C 105.894 74.805,105.896 74.805,106.192 73.698 C 106.786 71.480,107.159 71.112,107.357 72.552 M61.042 72.057 C 61.042 72.158,60.760 72.296,60.417 72.365 C 59.570 72.534,59.625 73.038,60.522 73.334 C 62.278 73.913,61.800 75.625,59.882 75.625 C 59.603 75.625,59.375 75.531,59.375 75.417 C 59.375 75.302,59.555 75.208,59.775 75.208 C 61.017 75.208,61.247 74.335,60.104 73.958 C 59.208 73.663,58.928 72.901,59.487 72.283 C 59.853 71.879,61.042 71.706,61.042 72.057 M110.960 72.609 C 111.728 73.781,110.933 75.625,109.660 75.625 C 108.701 75.625,108.241 74.912,108.440 73.735 C 108.709 72.145,110.215 71.472,110.960 72.609 M57.865 74.048 C 58.413 75.855,58.430 76.042,58.044 76.042 C 57.756 76.042,56.647 72.979,56.817 72.656 C 57.070 72.177,57.450 72.682,57.865 74.048 M109.396 72.878 C 108.954 73.703,109.016 75.098,109.497 75.166 C 110.124 75.256,110.447 74.746,110.486 73.603 C 110.525 72.484,109.848 72.033,109.396 72.878 M114.313 74.104 C 115.232 75.485,113.362 77.279,111.787 76.528 L 111.060 76.182 111.935 74.567 L 112.810 72.953 113.409 73.299 C 113.738 73.490,114.145 73.852,114.313 74.104 M55.701 74.219 C 56.499 76.998,56.393 77.306,55.080 76.018 C 54.083 75.039,53.955 75.168,54.387 76.722 C 54.758 78.059,54.406 78.039,52.998 76.644 C 52.121 75.775,51.741 75.259,51.878 75.122 C 52.014 74.986,52.352 75.178,52.874 75.687 C 53.905 76.694,53.975 76.665,53.633 75.369 C 53.256 73.940,53.510 73.743,54.534 74.668 C 55.588 75.620,55.674 75.608,55.303 74.557 C 54.953 73.564,54.919 73.125,55.194 73.125 C 55.300 73.125,55.528 73.617,55.701 74.219 M112.561 74.890 C 112.082 75.867,112.036 76.092,112.284 76.245 C 112.935 76.648,113.870 75.415,113.715 74.359 C 113.588 73.494,113.146 73.697,112.561 74.890 M116.838 75.899 C 117.584 76.669,117.494 77.138,116.736 76.426 C 116.064 75.794,115.149 76.443,115.761 77.118 C 116.213 77.618,115.952 77.880,115.452 77.428 C 114.749 76.792,114.133 77.737,114.793 78.439 C 115.584 79.281,115.056 79.320,114.217 78.481 L 113.448 77.711 114.686 76.460 C 116.141 74.989,115.993 75.028,116.838 75.899 M90.670 77.329 C 89.930 79.321,89.698 81.346,89.714 85.677 C 89.725 88.943,89.672 89.792,89.455 89.792 C 88.987 89.792,88.763 90.490,88.956 91.345 C 89.214 92.486,89.570 92.777,90.438 92.554 C 91.278 92.337,91.655 90.559,90.921 90.277 C 90.098 89.961,89.682 90.850,90.087 92.057 C 90.199 92.391,90.181 92.507,90.030 92.415 C 89.161 91.877,89.661 90.013,90.684 89.976 C 91.053 89.963,91.203 89.911,91.018 89.862 C 90.316 89.674,90.337 81.415,91.049 77.636 C 91.346 76.059,91.190 75.932,90.670 77.329 M84.735 76.610 C 84.303 76.655,83.646 76.655,83.277 76.609 C 82.907 76.563,83.260 76.526,84.063 76.527 C 84.865 76.528,85.167 76.565,84.735 76.610 M58.872 77.398 C 58.080 77.683,57.403 77.944,57.369 77.978 C 57.171 78.176,57.047 82.083,57.239 82.083 C 57.819 82.083,60.797 81.375,61.299 81.118 C 62.193 80.660,62.472 79.900,62.319 78.333 L 62.188 76.979 61.250 76.930 C 60.667 76.899,59.768 77.076,58.872 77.398 M105.573 77.100 C 103.902 78.074,106.577 80.952,109.740 81.584 L 110.417 81.719 110.417 80.576 C 110.417 77.903,110.274 77.536,109.100 77.187 C 107.900 76.831,106.111 76.787,105.573 77.100 M93.029 77.778 C 92.677 78.038,92.655 78.154,92.868 78.623 C 93.067 79.060,93.062 79.167,92.840 79.167 C 92.490 79.167,91.791 79.925,92.018 80.059 C 92.771 80.504,94.059 80.345,93.333 79.896 C 93.219 79.825,93.125 79.672,93.125 79.556 C 93.125 79.440,93.272 79.492,93.452 79.672 C 93.631 79.852,93.725 80.166,93.660 80.371 C 93.460 81.003,94.032 82.577,94.559 82.839 C 94.892 83.005,94.953 83.112,94.758 83.189 C 94.569 83.265,94.597 83.306,94.844 83.317 C 95.086 83.328,95.200 83.491,95.184 83.802 C 95.167 84.139,95.134 84.171,95.067 83.916 C 94.962 83.520,94.289 83.233,93.952 83.442 C 93.831 83.516,93.788 83.780,93.854 84.028 L 93.976 84.479 93.707 84.042 C 93.462 83.646,93.378 83.630,92.792 83.874 C 92.035 84.188,91.779 85.679,92.011 88.419 C 92.114 89.642,92.076 89.955,91.797 90.186 C 91.289 90.608,91.332 92.083,91.853 92.083 C 92.335 92.083,92.467 92.403,92.615 93.924 C 92.848 96.313,92.982 96.722,93.137 95.521 C 93.240 94.731,93.272 94.974,93.272 96.531 C 93.271 98.063,93.345 98.630,93.563 98.767 C 94.009 99.050,95.353 98.993,95.668 98.677 C 95.904 98.441,95.992 98.441,96.212 98.677 C 96.357 98.832,96.381 98.958,96.267 98.958 C 96.153 98.958,96.027 99.685,95.988 100.573 L 95.917 102.188 95.875 100.625 L 95.833 99.063 94.674 99.063 C 93.544 99.063,93.517 99.076,93.633 99.583 C 93.698 99.870,93.844 100.667,93.957 101.354 C 94.070 102.042,94.269 103.141,94.400 103.797 C 94.658 105.090,94.391 106.250,93.836 106.250 C 93.553 106.250,93.125 106.869,93.125 107.278 C 93.125 107.422,93.941 107.500,95.443 107.500 L 97.762 107.500 97.631 106.681 C 97.547 106.157,97.650 105.236,97.915 104.129 C 98.532 101.555,98.505 98.756,97.865 98.880 C 97.408 98.968,97.408 98.965,97.835 98.774 C 98.335 98.550,98.647 97.044,98.319 96.431 C 98.212 96.232,98.136 95.805,98.150 95.482 L 98.174 94.896 98.306 95.504 C 98.497 96.386,98.910 96.409,99.072 95.545 C 99.147 95.143,99.168 94.693,99.119 94.544 C 99.069 94.396,99.137 94.166,99.270 94.034 C 100.058 93.245,100.107 87.648,99.351 84.731 C 99.107 83.792,97.350 82.806,96.563 83.166 C 96.204 83.330,96.190 83.318,96.466 83.084 C 96.642 82.935,96.751 82.641,96.708 82.432 C 96.665 82.223,96.784 81.883,96.971 81.676 C 97.194 81.429,97.267 81.119,97.181 80.779 C 97.051 80.259,97.051 80.259,98.010 80.478 C 99.514 80.822,99.618 80.458,98.374 79.208 C 96.865 77.691,94.138 76.961,93.029 77.778 M119.374 79.714 C 119.376 80.130,118.771 80.467,118.254 80.337 C 117.854 80.237,117.729 80.306,117.634 80.679 C 117.481 81.280,116.703 81.786,116.398 81.481 C 116.244 81.328,116.345 81.131,116.735 80.824 C 117.765 80.014,117.488 79.358,116.391 80.006 C 115.771 80.372,115.658 80.386,115.552 80.111 C 115.477 79.915,115.609 79.683,115.892 79.510 C 116.146 79.354,116.823 78.945,117.396 78.599 L 118.438 77.972 118.905 78.725 C 119.162 79.140,119.373 79.585,119.374 79.714 M62.938 79.362 C 62.372 80.915,61.628 81.563,60.054 81.872 C 55.326 82.803,53.296 83.598,49.486 86.009 C 45.669 88.425,44.875 88.578,42.848 87.293 C 41.587 86.493,41.023 86.363,40.115 86.663 C 39.138 86.985,39.180 87.207,40.251 87.378 C 41.293 87.545,42.150 88.048,43.693 89.399 C 44.913 90.466,45.966 90.936,46.786 90.779 C 47.331 90.675,47.409 90.850,47.088 91.449 C 46.976 91.658,46.794 92.631,46.682 93.610 C 46.468 95.495,46.073 96.488,44.855 98.199 L 44.136 99.211 44.993 98.729 C 45.817 98.266,47.178 96.909,49.164 94.570 C 51.573 91.734,53.544 90.565,59.140 88.655 C 66.335 86.198,66.976 85.311,64.828 80.781 C 63.359 77.682,63.509 77.795,62.938 79.362 M103.650 79.084 C 101.316 84.672,102.844 86.950,110.901 89.898 C 114.968 91.385,116.176 92.151,118.958 95.003 C 120.398 96.479,121.517 97.431,122.233 97.789 C 123.645 98.496,123.692 98.481,122.963 97.552 C 122.112 96.470,121.741 95.679,121.569 94.583 C 121.487 94.068,121.195 93.142,120.919 92.527 C 120.304 91.158,120.299 91.250,120.990 91.248 C 122.401 91.243,125.037 89.407,126.490 87.417 C 127.482 86.059,127.341 86.001,124.740 86.702 C 121.314 87.623,119.600 87.256,116.485 84.932 C 114.787 83.665,113.166 82.906,110.608 82.177 C 107.935 81.417,106.194 80.519,105.079 79.327 C 103.968 78.138,104.040 78.151,103.650 79.084 M118.073 78.983 C 117.583 79.258,117.609 79.792,118.113 79.792 C 118.611 79.792,118.828 79.477,118.605 79.079 C 118.483 78.862,118.337 78.835,118.073 78.983 M107.380 83.712 C 107.216 84.248,106.972 85.042,106.839 85.475 C 106.569 86.354,106.124 86.403,106.186 85.547 C 106.237 84.835,105.377 84.184,104.904 84.577 C 104.738 84.715,104.497 84.763,104.370 84.684 C 104.233 84.600,104.763 84.088,105.663 83.436 C 107.476 82.122,107.850 82.182,107.380 83.712 M60.746 84.115 C 60.946 84.659,61.229 85.407,61.375 85.777 C 61.553 86.226,61.571 86.493,61.428 86.581 C 61.136 86.762,60.934 86.503,60.602 85.521 L 60.321 84.688 60.127 85.885 C 59.901 87.279,59.710 87.344,58.753 86.357 C 57.911 85.489,57.808 85.522,58.226 86.524 C 58.585 87.381,58.622 87.708,58.361 87.708 C 58.069 87.708,57.005 84.579,57.223 84.361 C 57.340 84.243,57.772 84.532,58.334 85.105 C 59.435 86.227,59.791 86.290,59.794 85.365 C 59.801 83.165,60.203 82.638,60.746 84.115 M106.267 83.569 C 105.813 83.937,105.795 84.010,106.084 84.298 C 106.373 84.587,106.429 84.552,106.641 83.943 C 106.935 83.100,106.895 83.060,106.267 83.569 M95.885 83.471 C 95.702 83.545,95.625 84.172,95.625 85.578 L 95.625 87.581 96.821 88.738 L 98.016 89.896 98.150 89.271 C 98.240 88.854,98.292 89.147,98.309 90.154 L 98.333 91.663 97.882 91.300 C 97.633 91.101,97.031 90.581,96.543 90.144 C 95.680 89.372,95.655 89.364,95.565 89.832 C 95.492 90.216,95.468 90.185,95.445 89.675 C 95.388 88.402,94.806 88.073,94.798 89.309 C 94.795 89.903,94.700 90.630,94.588 90.924 C 94.394 91.434,94.418 91.458,95.113 91.458 C 95.799 91.458,95.834 91.425,95.714 90.885 C 95.641 90.555,95.870 90.842,96.254 91.563 C 97.430 93.767,97.541 93.907,97.728 93.430 C 97.876 93.049,97.888 93.053,97.902 93.490 C 97.912 93.825,98.050 93.965,98.385 93.983 C 98.738 94.001,98.764 94.030,98.490 94.102 C 98.289 94.154,98.119 94.354,98.112 94.547 C 98.102 94.796,98.045 94.762,97.910 94.427 C 97.807 94.169,97.642 93.958,97.545 93.958 C 97.448 93.958,97.158 93.583,96.900 93.125 C 96.642 92.667,96.347 92.292,96.243 92.292 C 96.140 92.292,96.109 92.151,96.175 91.979 C 96.271 91.727,96.094 91.667,95.260 91.667 L 94.225 91.667 93.788 92.969 C 93.548 93.685,93.347 94.109,93.342 93.912 C 93.337 93.714,93.615 92.845,93.958 91.979 C 94.845 89.748,94.815 88.494,93.831 86.501 C 93.417 85.663,93.122 84.934,93.176 84.880 C 93.230 84.826,93.474 85.263,93.718 85.851 C 94.504 87.742,97.220 91.042,97.990 91.042 C 98.491 91.042,97.913 90.037,96.713 88.824 C 95.459 87.555,93.753 84.927,94.014 84.666 C 94.067 84.613,94.240 84.878,94.398 85.254 L 94.686 85.938 94.816 85.208 C 94.931 84.558,94.948 84.597,94.973 85.561 C 95.018 87.369,95.417 87.095,95.417 85.255 C 95.417 83.614,95.495 83.319,95.920 83.350 C 96.046 83.359,96.031 83.413,95.885 83.471 M110.016 83.966 C 110.830 84.382,110.990 84.848,110.252 84.655 C 109.964 84.580,109.744 84.852,109.269 85.873 C 108.933 86.596,108.646 87.213,108.630 87.244 C 108.614 87.276,108.451 87.244,108.266 87.173 C 107.978 87.062,108.032 86.843,108.658 85.601 C 109.263 84.400,109.331 84.137,109.067 84.036 C 108.709 83.898,108.636 83.542,108.967 83.542 C 109.086 83.542,109.558 83.733,110.016 83.966 M112.127 85.234 C 111.937 86.134,110.937 88.125,110.675 88.125 C 110.301 88.125,110.409 87.623,111.144 85.961 C 111.613 84.901,112.305 84.390,112.127 85.234 M56.141 85.498 C 57.260 86.616,56.930 88.542,55.620 88.542 C 54.515 88.542,53.525 86.870,53.957 85.733 C 54.284 84.872,55.396 84.752,56.141 85.498 M54.635 85.555 C 53.960 85.827,54.930 88.193,55.674 88.088 C 56.315 87.997,56.378 87.317,55.841 86.266 C 55.426 85.452,55.208 85.323,54.635 85.555 M115.023 86.273 C 115.547 86.797,115.460 87.897,114.827 88.745 C 113.786 90.142,111.918 89.081,112.496 87.422 C 113.008 85.952,114.173 85.423,115.023 86.273 M113.543 86.913 C 112.751 88.197,112.753 88.958,113.550 88.958 C 114.027 88.958,114.849 87.488,114.752 86.809 C 114.648 86.083,114.022 86.137,113.543 86.913 M52.866 87.135 C 53.955 88.297,53.923 89.313,52.776 90.022 C 51.928 90.547,52.151 90.728,50.891 88.494 L 50.217 87.300 50.786 86.992 C 51.607 86.546,52.363 86.598,52.866 87.135 M51.311 87.250 C 51.042 87.421,52.124 89.583,52.479 89.583 C 53.031 89.583,53.139 88.970,52.730 88.167 C 52.251 87.228,51.801 86.938,51.311 87.250 M117.419 88.490 L 117.611 89.896 118.076 89.167 C 118.331 88.766,118.574 88.344,118.616 88.229 C 118.659 88.115,118.774 88.096,118.872 88.189 C 119.042 88.349,117.793 90.949,117.434 91.182 C 117.157 91.361,117.091 91.178,116.950 89.827 C 116.790 88.293,116.707 88.261,116.044 89.475 C 115.749 90.015,115.456 90.331,115.350 90.225 C 115.158 90.033,116.763 87.083,117.060 87.083 C 117.151 87.083,117.313 87.716,117.419 88.490 M104.792 89.792 L 104.792 91.875 107.835 91.875 C 110.524 91.875,110.863 91.837,110.751 91.545 C 110.682 91.364,110.625 90.966,110.624 90.660 C 110.624 90.151,110.479 90.054,108.906 89.509 C 107.961 89.181,106.697 88.642,106.097 88.311 C 105.497 87.979,104.958 87.708,104.899 87.708 C 104.840 87.708,104.792 88.646,104.792 89.792 M59.583 88.835 L 56.979 89.721 56.869 90.798 L 56.759 91.875 59.734 91.875 L 62.708 91.875 62.708 89.896 C 62.708 88.443,62.639 87.921,62.448 87.933 C 62.305 87.942,61.016 88.348,59.583 88.835 M56.394 92.426 C 55.797 93.022,56.297 93.125,59.807 93.125 C 63.082 93.125,63.358 93.096,63.294 92.760 C 63.221 92.382,56.752 92.068,56.394 92.426 M79.936 92.426 C 79.339 93.022,79.839 93.125,83.349 93.125 C 86.624 93.125,86.900 93.096,86.836 92.760 C 86.763 92.382,80.293 92.068,79.936 92.426 M95.575 92.435 C 95.376 92.487,95.001 92.489,94.742 92.439 C 94.483 92.389,94.646 92.347,95.104 92.344 C 95.563 92.342,95.775 92.383,95.575 92.435 M104.400 92.480 C 103.641 92.961,104.501 93.125,107.790 93.125 C 111.248 93.125,111.631 93.063,111.223 92.571 C 110.954 92.247,104.896 92.166,104.400 92.480 M55.847 93.737 C 54.890 94.343,56.011 94.583,59.792 94.583 C 62.905 94.583,63.534 94.531,63.763 94.255 C 64.251 93.667,63.584 93.548,59.792 93.548 C 57.786 93.548,56.011 93.633,55.847 93.737 M79.427 93.680 C 79.060 93.828,79.103 94.306,79.496 94.457 C 79.677 94.526,81.440 94.583,83.413 94.583 C 87.082 94.583,87.781 94.444,87.261 93.817 C 87.034 93.544,80.068 93.421,79.427 93.680 M104.010 93.680 C 103.644 93.828,103.686 94.306,104.080 94.457 C 104.261 94.526,105.954 94.583,107.843 94.583 C 111.408 94.583,112.337 94.411,111.863 93.840 C 111.619 93.545,104.693 93.404,104.010 93.680 M56.458 100.417 L 56.458 105.833 59.792 105.833 L 63.125 105.833 63.125 100.417 L 63.125 95.000 59.792 95.000 L 56.458 95.000 56.458 100.417 M80.208 100.417 L 80.208 105.833 83.438 105.833 L 86.667 105.833 86.667 100.417 L 86.667 95.000 83.438 95.000 L 80.208 95.000 80.208 100.417 M104.583 100.417 L 104.583 105.833 107.813 105.833 L 111.042 105.833 111.042 100.417 L 111.042 95.000 107.813 95.000 L 104.583 95.000 104.583 100.417 M95.560 96.615 C 95.508 96.815,95.465 96.651,95.465 96.250 C 95.465 95.849,95.508 95.685,95.560 95.885 C 95.613 96.086,95.613 96.414,95.560 96.615 M61.875 100.625 L 61.875 104.583 59.792 104.583 L 57.708 104.583 57.708 100.625 L 57.708 96.667 59.792 96.667 L 61.875 96.667 61.875 100.625 M85.417 100.625 L 85.417 104.583 83.333 104.583 L 81.250 104.583 81.250 100.625 L 81.250 96.667 83.333 96.667 L 85.417 96.667 85.417 100.625 M109.792 100.625 L 109.792 104.583 107.813 104.583 L 105.833 104.583 105.833 100.625 L 105.833 96.667 107.813 96.667 L 109.792 96.667 109.792 100.625 M58.125 100.625 L 58.125 104.167 59.792 104.167 L 61.458 104.167 61.458 100.625 L 61.458 97.083 59.792 97.083 L 58.125 97.083 58.125 100.625 M81.667 100.625 L 81.667 104.167 83.333 104.167 L 85.000 104.167 85.000 100.625 L 85.000 97.083 83.333 97.083 L 81.667 97.083 81.667 100.625 M106.250 100.625 L 106.250 104.167 107.813 104.167 L 109.375 104.167 109.375 100.625 L 109.375 97.083 107.813 97.083 L 106.250 97.083 106.250 100.625 M95.766 106.676 C 95.635 107.024,95.496 107.217,95.458 107.104 C 95.391 106.903,95.771 106.042,95.927 106.042 C 95.970 106.042,95.898 106.327,95.766 106.676 M102.917 106.771 L 102.917 107.500 107.813 107.500 L 112.708 107.500 112.708 106.771 L 112.708 106.042 107.813 106.042 L 102.917 106.042 102.917 106.771 M55.000 106.771 L 55.000 107.292 59.792 107.292 L 64.583 107.292 64.583 106.771 L 64.583 106.250 59.792 106.250 L 55.000 106.250 55.000 106.771 M78.333 106.771 L 78.333 107.292 83.125 107.292 L 87.917 107.292 87.917 106.771 L 87.917 106.250 83.125 106.250 L 78.333 106.250 78.333 106.771 M49.375 108.646 L 49.375 109.583 83.958 109.583 L 118.542 109.583 118.542 108.646 L 118.542 107.708 83.958 107.708 L 49.375 107.708 49.375 108.646 M46.291 111.094 L 46.354 112.188 84.010 112.240 L 121.667 112.293 121.667 111.146 L 121.667 110.000 83.947 110.000 L 46.228 110.000 46.291 111.094 M62.357 116.448 C 61.187 117.161,60.789 118.952,61.544 120.105 C 62.531 121.612,65.417 121.451,65.417 119.889 C 65.417 119.491,65.510 119.167,65.625 119.167 C 65.740 119.167,65.833 119.073,65.833 118.958 C 65.833 118.844,65.365 118.750,64.792 118.750 C 63.784 118.750,63.420 118.996,64.063 119.242 C 64.245 119.312,64.375 119.624,64.375 119.993 C 64.375 121.170,62.715 120.761,62.292 119.480 C 61.618 117.437,63.552 115.553,64.541 117.290 C 65.034 118.158,65.339 118.079,65.246 117.107 C 65.175 116.357,65.114 116.289,64.407 116.172 C 63.264 115.983,63.079 116.008,62.357 116.448 M67.657 116.396 C 65.348 117.875,66.821 121.749,69.420 121.031 C 71.926 120.339,71.616 116.423,69.031 116.123 C 68.490 116.060,68.043 116.149,67.657 116.396 M107.803 116.553 C 106.948 117.408,107.212 118.144,108.654 118.922 C 109.351 119.298,109.709 119.632,109.754 119.949 C 109.895 120.940,108.338 120.809,107.918 119.794 C 107.549 118.903,107.292 119.017,107.292 120.073 L 107.292 120.979 108.536 121.017 C 111.149 121.095,111.499 119.193,109.087 118.021 C 108.012 117.499,107.875 116.771,108.851 116.771 C 109.325 116.771,109.539 116.908,109.748 117.344 C 110.136 118.153,110.417 118.055,110.417 117.111 C 110.417 116.341,110.381 116.299,109.635 116.175 C 108.456 115.980,108.355 116.001,107.803 116.553 M51.042 116.458 C 51.042 116.573,51.182 116.667,51.354 116.667 C 51.610 116.667,51.667 117.025,51.667 118.646 C 51.667 120.266,51.610 120.625,51.354 120.625 C 51.182 120.625,51.042 120.719,51.042 120.833 C 51.042 120.948,51.557 121.042,52.188 121.042 C 53.319 121.042,53.725 120.776,52.917 120.565 C 52.249 120.390,52.292 117.071,52.969 116.599 C 53.419 116.285,53.389 116.271,52.240 116.261 C 51.573 116.255,51.042 116.342,51.042 116.458 M53.750 116.434 C 53.750 116.535,53.938 116.667,54.167 116.727 C 54.716 116.871,54.811 120.342,54.271 120.550 C 53.629 120.796,53.993 121.042,55.000 121.042 C 56.046 121.042,56.404 120.768,55.625 120.565 C 55.261 120.470,55.208 120.280,55.208 119.082 C 55.208 117.401,55.092 117.376,56.563 119.375 C 58.204 121.606,58.333 121.568,58.333 118.854 C 58.333 117.049,58.388 116.667,58.646 116.667 C 58.818 116.667,58.958 116.573,58.958 116.458 C 58.958 116.344,58.490 116.250,57.917 116.250 C 56.871 116.250,56.513 116.523,57.292 116.727 C 57.653 116.821,57.708 117.011,57.708 118.147 L 57.708 119.458 56.519 117.854 C 55.401 116.345,55.283 116.250,54.540 116.250 C 54.106 116.250,53.750 116.333,53.750 116.434 M71.667 116.458 C 71.667 116.573,71.807 116.667,71.979 116.667 C 72.235 116.667,72.292 117.025,72.292 118.646 C 72.292 120.266,72.235 120.625,71.979 120.625 C 71.807 120.625,71.667 120.719,71.667 120.833 C 71.667 121.164,74.317 121.083,74.998 120.730 C 76.681 119.860,76.721 117.329,75.066 116.483 C 74.498 116.192,71.667 116.172,71.667 116.458 M78.333 116.458 C 78.333 116.573,78.467 116.667,78.631 116.667 C 78.915 116.667,79.040 117.004,79.833 119.896 C 80.243 121.392,80.606 121.239,81.232 119.308 L 81.761 117.679 82.304 119.308 C 83.022 121.461,83.272 121.409,84.000 118.958 C 84.322 117.870,84.726 116.875,84.897 116.748 C 85.408 116.368,85.259 116.250,84.271 116.250 C 83.755 116.250,83.333 116.344,83.333 116.458 C 83.333 116.573,83.474 116.667,83.646 116.667 C 84.021 116.667,84.029 116.816,83.722 118.085 C 83.366 119.555,83.245 119.523,82.710 117.816 C 82.101 115.875,81.819 115.852,81.225 117.697 C 80.968 118.494,80.691 119.103,80.608 119.052 C 80.304 118.864,79.924 116.796,80.178 116.712 C 80.776 116.512,80.320 116.250,79.375 116.250 C 78.802 116.250,78.333 116.344,78.333 116.458 M85.625 116.458 C 85.625 116.573,85.766 116.667,85.938 116.667 C 86.193 116.667,86.250 117.025,86.250 118.646 C 86.250 120.266,86.193 120.625,85.938 120.625 C 85.766 120.625,85.625 120.719,85.625 120.833 C 85.625 120.958,86.458 121.042,87.708 121.042 L 89.792 121.042 89.786 120.156 L 89.780 119.271 89.213 119.950 C 88.276 121.071,87.292 120.937,87.292 119.688 C 87.292 118.665,87.953 118.298,88.229 119.167 C 88.472 119.930,88.750 119.596,88.750 118.542 C 88.750 117.426,88.589 117.251,88.173 117.917 C 87.723 118.638,87.292 118.434,87.292 117.500 C 87.292 116.524,88.279 116.251,88.798 117.083 C 89.168 117.675,89.375 117.600,89.375 116.875 L 89.375 116.250 87.500 116.250 C 86.389 116.250,85.625 116.335,85.625 116.458 M92.507 117.031 L 92.513 117.813 92.941 117.240 C 93.176 116.924,93.548 116.667,93.767 116.667 C 94.392 116.667,94.376 120.401,93.750 120.565 C 92.914 120.783,93.365 121.042,94.583 121.042 C 95.802 121.042,96.253 120.783,95.417 120.565 C 94.773 120.396,94.777 116.667,95.421 116.667 C 95.668 116.667,95.940 116.882,96.080 117.188 C 96.415 117.923,96.667 117.834,96.667 116.979 L 96.667 116.250 94.583 116.250 L 92.500 116.250 92.507 117.031 M97.292 116.458 C 97.292 116.573,97.432 116.667,97.604 116.667 C 97.859 116.667,97.917 117.015,97.917 118.548 C 97.917 120.028,97.850 120.455,97.604 120.550 C 96.962 120.796,97.326 121.042,98.333 121.042 C 98.906 121.042,99.375 120.948,99.375 120.833 C 99.375 120.719,99.234 120.625,99.063 120.625 C 98.837 120.625,98.750 120.394,98.750 119.792 C 98.750 118.690,99.021 118.741,99.842 119.996 C 100.496 120.996,102.083 121.589,102.083 120.833 C 102.083 120.719,101.951 120.625,101.788 120.625 C 101.520 120.625,100.208 119.174,100.208 118.876 C 100.208 118.807,100.396 118.563,100.625 118.333 C 101.145 117.813,101.161 117.047,100.661 116.595 C 100.229 116.204,97.292 116.085,97.292 116.458 M101.875 116.458 C 101.875 116.573,102.016 116.667,102.188 116.667 C 102.439 116.667,102.500 116.992,102.500 118.347 C 102.500 120.328,102.666 120.718,103.645 121.042 C 105.028 121.498,105.925 120.820,105.989 119.271 C 106.066 117.395,106.230 116.667,106.572 116.667 C 106.739 116.667,106.875 116.573,106.875 116.458 C 106.875 116.344,106.406 116.250,105.833 116.250 C 104.788 116.250,104.430 116.523,105.208 116.727 C 105.868 116.899,105.830 119.833,105.162 120.301 C 103.985 121.125,103.333 120.371,103.333 118.183 C 103.333 116.974,103.397 116.667,103.646 116.667 C 103.818 116.667,103.958 116.573,103.958 116.458 C 103.958 116.344,103.490 116.250,102.917 116.250 C 102.344 116.250,101.875 116.344,101.875 116.458 M111.042 116.863 C 111.042 117.685,111.338 117.819,111.753 117.186 C 112.454 116.115,112.708 116.504,112.708 118.646 C 112.708 120.266,112.652 120.625,112.396 120.625 C 112.224 120.625,112.083 120.719,112.083 120.833 C 112.083 120.948,112.599 121.042,113.229 121.042 C 114.325 121.042,114.727 120.805,114.063 120.550 C 113.545 120.351,113.611 116.667,114.131 116.667 C 114.341 116.667,114.638 116.901,114.792 117.188 C 115.181 117.915,115.417 117.836,115.417 116.979 L 115.417 116.250 113.229 116.250 L 111.042 116.250 111.042 116.863 M69.928 117.440 C 70.729 119.359,69.282 121.544,68.036 120.298 C 67.400 119.662,67.333 117.682,67.923 116.971 C 68.457 116.328,69.572 116.589,69.928 117.440 M74.733 117.135 C 75.659 118.144,75.413 120.110,74.316 120.473 C 73.346 120.793,73.125 120.411,73.125 118.412 L 73.125 116.667 73.714 116.667 C 74.058 116.667,74.481 116.861,74.733 117.135 M99.961 117.448 C 100.021 118.067,99.534 118.542,98.841 118.542 C 98.791 118.542,98.750 118.114,98.750 117.590 C 98.750 116.340,99.842 116.212,99.961 117.448 " stroke="none" fill="#67752e" fill-rule="evenodd"></path><path id="path4" d="M79.948 18.480 C 80.206 18.530,80.628 18.530,80.885 18.480 C 81.143 18.431,80.932 18.390,80.417 18.390 C 79.901 18.390,79.690 18.431,79.948 18.480 M50.277 20.156 C 50.264 20.503,50.295 20.574,50.356 20.336 C 50.439 20.019,50.945 20.420,52.989 22.420 L 55.521 24.896 52.920 22.240 C 49.865 19.120,50.304 19.466,50.277 20.156 M114.888 21.719 L 113.854 22.813 114.948 21.779 C 115.964 20.818,116.137 20.625,115.982 20.625 C 115.949 20.625,115.457 21.117,114.888 21.719 M60.893 30.323 C 62.243 31.703,63.282 32.899,63.202 32.979 C 63.121 33.059,63.165 33.125,63.299 33.125 C 63.792 33.125,63.486 32.752,60.990 30.309 L 58.438 27.813 60.893 30.323 M106.868 29.323 L 105.729 30.521 106.927 29.382 C 108.040 28.324,108.220 28.125,108.066 28.125 C 108.033 28.125,107.494 28.664,106.868 29.323 M131.544 39.037 C 131.483 39.195,131.464 39.781,131.502 40.339 L 131.570 41.354 131.671 40.052 C 131.772 38.736,131.744 38.514,131.544 39.037 M35.499 42.917 C 35.499 44.578,35.532 45.258,35.571 44.427 C 35.611 43.596,35.611 42.237,35.571 41.406 C 35.532 40.576,35.499 41.255,35.499 42.917 M131.310 45.104 C 131.311 45.677,131.352 45.887,131.399 45.570 C 131.447 45.253,131.446 44.785,131.397 44.528 C 131.347 44.272,131.308 44.531,131.310 45.104 M131.098 51.250 C 131.098 51.766,131.139 51.977,131.189 51.719 C 131.238 51.461,131.238 51.039,131.189 50.781 C 131.139 50.523,131.098 50.734,131.098 51.250 M130.873 56.328 C 130.838 57.579,130.873 57.727,131.146 57.500 C 131.491 57.213,131.572 56.988,131.261 57.181 C 131.147 57.251,131.031 56.789,130.987 56.100 L 130.912 54.896 130.873 56.328 M30.169 71.189 C 30.379 71.269,30.356 71.396,30.066 71.740 C 29.767 72.097,29.806 72.085,30.262 71.682 C 30.946 71.078,30.936 71.135,30.365 71.107 C 30.107 71.095,30.019 71.131,30.169 71.189 M138.542 74.024 C 138.542 74.059,138.846 74.364,139.219 74.701 L 139.896 75.313 139.284 74.635 C 138.714 74.004,138.542 73.863,138.542 74.024 M26.667 75.313 C 26.161 75.828,25.793 76.250,25.851 76.250 C 25.908 76.250,26.369 75.828,26.875 75.313 C 27.381 74.797,27.748 74.375,27.691 74.375 C 27.634 74.375,27.173 74.797,26.667 75.313 M21.555 80.677 L 20.521 81.771 21.615 80.737 C 22.216 80.168,22.708 79.676,22.708 79.643 C 22.708 79.488,22.515 79.661,21.555 80.677 M146.250 82.565 C 146.250 82.601,146.555 82.906,146.927 83.242 L 147.604 83.854 146.992 83.177 C 146.422 82.546,146.250 82.404,146.250 82.565 M29.527 108.067 C 29.896 108.113,30.553 108.114,30.985 108.069 C 31.417 108.024,31.115 107.986,30.313 107.985 C 29.510 107.984,29.157 108.021,29.527 108.067 M134.115 108.064 C 134.372 108.113,134.794 108.113,135.052 108.064 C 135.310 108.014,135.099 107.973,134.583 107.973 C 134.068 107.973,133.857 108.014,134.115 108.064 M136.979 108.231 C 137.455 108.397,138.713 108.442,138.619 108.290 C 138.563 108.199,138.124 108.132,137.644 108.141 C 137.164 108.150,136.865 108.191,136.979 108.231 M17.443 108.484 C 17.813 108.530,18.469 108.530,18.902 108.485 C 19.334 108.440,19.031 108.403,18.229 108.402 C 17.427 108.401,17.073 108.438,17.443 108.484 M143.906 108.689 C 144.164 108.738,144.586 108.738,144.844 108.689 C 145.102 108.639,144.891 108.598,144.375 108.598 C 143.859 108.598,143.648 108.639,143.906 108.689 M147.450 108.897 C 147.709 108.947,148.084 108.945,148.284 108.893 C 148.483 108.841,148.271 108.800,147.813 108.803 C 147.354 108.805,147.191 108.848,147.450 108.897 M33.125 125.526 C 33.125 125.538,33.429 125.822,33.801 126.159 C 34.406 126.706,34.426 126.712,33.989 126.215 L 33.501 125.659 33.990 125.563 C 34.320 125.498,34.258 125.473,33.802 125.486 C 33.430 125.497,33.125 125.515,33.125 125.526 M132.083 125.914 C 132.083 125.958,132.365 126.036,132.708 126.086 C 133.052 126.137,133.333 126.100,133.333 126.006 C 133.333 125.911,133.052 125.833,132.708 125.833 C 132.365 125.833,132.083 125.870,132.083 125.914 M129.844 126.185 C 130.044 126.238,130.372 126.238,130.573 126.185 C 130.773 126.133,130.609 126.090,130.208 126.090 C 129.807 126.090,129.643 126.133,129.844 126.185 M127.344 126.394 C 127.544 126.446,127.872 126.446,128.073 126.394 C 128.273 126.341,128.109 126.298,127.708 126.298 C 127.307 126.298,127.143 126.341,127.344 126.394 M114.583 127.471 C 114.583 127.570,114.818 127.606,115.104 127.551 C 115.391 127.496,115.625 127.415,115.625 127.372 C 115.625 127.328,115.391 127.292,115.104 127.292 C 114.818 127.292,114.583 127.372,114.583 127.471 M35.625 127.774 C 35.625 127.809,35.930 128.114,36.302 128.451 L 36.979 129.063 36.367 128.385 C 35.797 127.754,35.625 127.613,35.625 127.774 M42.708 134.232 C 42.708 134.268,43.013 134.572,43.385 134.909 L 44.063 135.521 43.451 134.844 C 42.880 134.213,42.708 134.071,42.708 134.232 M101.334 134.632 C 101.044 134.972,101.032 135.024,101.288 134.826 C 101.598 134.587,101.649 134.636,101.729 135.247 C 101.802 135.801,101.817 135.763,101.807 135.052 C 101.799 134.565,101.780 134.167,101.762 134.167 C 101.745 134.167,101.553 134.376,101.334 134.632 M64.848 135.417 C 64.848 135.932,64.889 136.143,64.939 135.885 C 64.988 135.628,64.988 135.206,64.939 134.948 C 64.889 134.690,64.848 134.901,64.848 135.417 M45.000 136.315 C 45.000 136.351,45.305 136.656,45.677 136.992 L 46.354 137.604 45.742 136.927 C 45.172 136.296,45.000 136.154,45.000 136.315 M65.057 138.958 C 65.057 139.474,65.097 139.685,65.147 139.427 C 65.197 139.169,65.197 138.747,65.147 138.490 C 65.097 138.232,65.057 138.443,65.057 138.958 M101.298 140.000 C 101.298 140.401,101.341 140.565,101.394 140.365 C 101.446 140.164,101.446 139.836,101.394 139.635 C 101.341 139.435,101.298 139.599,101.298 140.000 M65.392 146.296 C 65.488 146.874,65.517 146.903,65.583 146.486 C 65.625 146.215,65.574 145.908,65.469 145.803 C 65.354 145.687,65.323 145.882,65.392 146.296 M65.678 149.688 C 65.680 150.146,65.723 150.309,65.772 150.050 C 65.822 149.791,65.820 149.416,65.768 149.216 C 65.716 149.017,65.675 149.229,65.678 149.688 " stroke="none" fill="#5e7b95" fill-rule="evenodd"></path></g></svg>