<svg id="svg" version="1.1" xmlns="http://www.w3.org/2000/svg" xmlns:xlink="http://www.w3.org/1999/xlink" viewBox="0, 0, 400,300"><g id="svgg"><path id="path0" d="M0.000 32.708 C 0.000 54.314,0.102 65.416,0.300 65.416 C 0.465 65.416,0.600 65.241,0.600 65.027 C 0.600 64.455,2.675 62.616,3.986 62.026 C 5.479 61.355,136.822 61.221,137.365 61.890 C 137.532 62.097,137.748 64.089,137.845 66.317 C 138.222 75.015,139.206 81.041,140.463 82.356 C 140.613 82.512,140.735 82.879,140.735 83.171 C 140.735 83.462,140.926 84.144,141.160 84.686 C 141.394 85.228,141.816 86.212,142.098 86.872 C 142.379 87.532,143.066 89.009,143.623 90.155 C 144.977 92.938,144.962 93.001,142.461 94.844 C 141.264 95.726,140.218 96.528,140.135 96.627 C 140.053 96.725,139.479 97.186,138.860 97.651 L 137.734 98.496 137.734 111.664 L 137.734 124.831 200.000 124.831 L 262.266 124.831 262.266 111.664 L 262.266 98.497 259.813 96.585 C 254.684 92.588,254.981 93.141,256.377 90.204 C 256.934 89.031,257.620 87.532,257.902 86.872 C 258.184 86.212,258.606 85.228,258.840 84.686 C 259.074 84.144,259.265 83.462,259.265 83.171 C 259.265 82.879,259.381 82.512,259.523 82.356 C 259.763 82.090,260.211 80.798,261.078 77.869 C 261.481 76.505,261.907 71.888,262.155 66.167 C 262.249 64.021,262.463 62.097,262.632 61.890 C 263.241 61.147,394.482 61.365,396.172 62.113 C 397.603 62.745,399.400 64.366,399.400 65.023 C 399.400 65.239,399.535 65.416,399.700 65.416 C 399.898 65.416,400.000 54.314,400.000 32.708 L 400.000 0.000 301.408 0.000 C 235.756 0.000,202.877 0.100,203.001 0.300 C 203.103 0.465,203.383 0.600,203.623 0.600 C 203.863 0.600,204.294 0.729,204.580 0.887 C 205.594 1.445,209.198 3.001,209.477 3.001 C 209.633 3.001,209.995 3.127,210.282 3.282 C 211.268 3.813,212.846 4.501,213.078 4.501 C 213.207 4.501,214.232 4.915,215.358 5.420 C 216.483 5.926,217.674 6.452,218.005 6.590 C 219.784 7.333,221.071 7.870,221.605 8.094 C 224.951 9.493,228.248 10.804,228.424 10.803 C 228.543 10.803,229.421 11.154,230.374 11.584 C 231.328 12.014,232.378 12.479,232.708 12.618 C 233.038 12.757,233.983 13.155,234.809 13.503 C 239.700 15.567,241.296 16.204,241.572 16.204 C 241.841 16.204,244.381 17.309,246.304 18.262 C 247.633 18.922,248.984 20.275,249.686 21.653 C 250.364 22.981,250.583 67.442,249.931 71.418 C 249.344 74.999,249.124 76.058,248.620 77.719 C 248.345 78.627,248.015 79.784,247.885 80.290 C 247.579 81.486,244.538 87.622,244.251 87.622 C 244.130 87.622,243.952 87.858,243.855 88.147 C 243.677 88.675,243.167 89.526,242.611 90.223 C 242.446 90.429,241.838 91.242,241.260 92.029 C 239.386 94.583,232.463 101.266,231.248 101.695 C 231.061 101.761,230.840 101.898,230.758 101.998 C 229.797 103.169,222.151 107.197,218.742 108.328 C 217.676 108.681,216.534 109.085,216.204 109.226 C 215.874 109.367,215.266 109.553,214.854 109.639 C 213.750 109.869,211.256 110.437,210.053 110.732 C 204.002 112.214,192.749 111.734,185.596 109.688 C 184.606 109.405,183.256 109.032,182.596 108.859 C 181.935 108.686,181.267 108.428,181.110 108.286 C 180.953 108.143,180.649 108.027,180.434 108.027 C 179.394 108.027,170.066 103.002,169.242 101.998 C 169.160 101.898,168.939 101.761,168.752 101.695 C 167.537 101.266,160.614 94.583,158.740 92.029 C 158.162 91.242,157.547 90.435,157.373 90.235 C 157.198 90.036,156.793 89.400,156.472 88.822 C 156.151 88.245,155.795 87.701,155.681 87.615 C 155.350 87.365,152.586 81.644,151.988 79.970 C 151.630 78.969,150.910 76.151,150.646 74.719 C 150.510 73.976,150.250 72.558,150.069 71.568 C 149.413 67.968,149.627 22.998,150.307 21.665 C 151.395 19.533,152.326 18.876,157.389 16.662 C 157.884 16.446,158.783 16.052,159.385 15.786 C 159.988 15.521,160.631 15.304,160.815 15.304 C 160.998 15.304,161.383 15.180,161.669 15.029 C 162.136 14.783,162.863 14.471,165.341 13.455 C 165.754 13.286,166.474 12.958,166.941 12.725 C 167.408 12.493,167.911 12.303,168.058 12.303 C 168.205 12.303,169.038 11.984,169.909 11.593 C 170.780 11.203,172.101 10.644,172.843 10.353 C 173.586 10.061,174.906 9.503,175.777 9.112 C 176.648 8.722,177.494 8.402,177.657 8.402 C 177.819 8.402,178.187 8.274,178.474 8.117 C 178.760 7.960,179.501 7.622,180.120 7.366 C 180.739 7.111,181.752 6.690,182.371 6.431 C 182.989 6.173,183.833 5.821,184.246 5.650 C 184.659 5.478,185.401 5.164,185.896 4.951 C 186.392 4.739,188.687 3.788,190.998 2.838 C 193.308 1.888,195.327 0.996,195.484 0.856 C 195.641 0.715,196.004 0.600,196.291 0.600 C 196.579 0.600,196.897 0.465,196.999 0.300 C 197.123 0.100,164.244 -0.000,98.592 -0.000 L 0.000 0.000 0.000 32.708 M0.000 113.146 C 0.000 124.884,0.101 130.806,0.300 130.683 C 0.465 130.581,0.600 130.252,0.600 129.951 C 0.600 128.641,3.451 122.848,4.276 122.481 C 4.400 122.426,4.501 122.215,4.501 122.011 C 4.501 120.546,11.847 114.872,15.904 113.204 C 20.463 111.329,21.040 111.277,39.460 111.066 L 55.964 110.878 55.964 105.176 L 55.964 99.475 30.308 99.325 C 1.943 99.159,3.589 99.280,1.575 97.212 C 1.039 96.661,0.600 96.033,0.600 95.817 C 0.600 95.601,0.465 95.424,0.300 95.424 C 0.103 95.424,0.000 101.531,0.000 113.146 M399.400 95.817 C 399.400 96.033,398.961 96.661,398.425 97.212 C 396.411 99.280,398.057 99.159,369.692 99.325 L 344.036 99.475 344.036 105.176 L 344.036 110.878 360.540 111.061 C 369.617 111.162,377.517 111.340,378.095 111.456 C 380.296 111.900,383.003 112.588,383.465 112.821 C 383.730 112.954,384.824 113.498,385.896 114.029 C 389.398 115.761,395.499 120.835,395.499 122.015 C 395.499 122.216,395.600 122.426,395.724 122.481 C 396.070 122.634,397.443 124.841,398.027 126.182 C 398.314 126.842,398.741 127.825,398.975 128.367 C 399.209 128.909,399.400 129.610,399.400 129.925 C 399.400 130.240,399.535 130.581,399.700 130.683 C 399.899 130.806,400.000 124.884,400.000 113.146 C 400.000 101.531,399.897 95.424,399.700 95.424 C 399.535 95.424,399.400 95.601,399.400 95.817 M69.017 102.041 L 69.017 104.726 69.900 104.726 C 70.385 104.726,70.866 104.861,70.968 105.026 C 71.201 105.403,87.217 105.439,87.449 105.063 C 87.639 104.755,92.352 104.811,93.040 105.130 C 93.535 105.359,107.980 105.206,112.147 104.928 C 113.557 104.834,114.691 104.884,114.790 105.045 C 115.110 105.563,124.528 105.400,124.553 104.876 C 124.564 104.629,124.584 103.312,124.595 101.950 L 124.617 99.475 96.817 99.415 L 69.017 99.355 69.017 102.041 M275.445 99.567 C 275.335 100.508,275.471 104.787,275.618 105.024 C 275.855 105.407,285.570 105.433,285.806 105.051 C 285.901 104.898,287.136 104.849,288.599 104.941 C 291.814 105.141,306.747 105.146,310.358 104.947 C 311.806 104.868,313.063 104.920,313.152 105.064 C 313.241 105.208,316.989 105.326,321.481 105.326 C 331.476 105.326,330.983 105.505,330.983 101.876 L 330.983 99.360 303.226 99.360 C 287.959 99.360,275.458 99.453,275.445 99.567 M166.250 222.350 C 165.652 222.720,165.889 281.468,166.489 281.485 C 166.765 281.493,168.950 281.479,171.343 281.455 C 177.086 281.395,224.109 281.396,229.107 281.455 C 231.253 281.481,233.235 281.495,233.512 281.486 C 234.048 281.469,234.369 222.418,233.833 222.310 C 233.080 222.159,166.496 222.198,166.250 222.350 M202.011 244.273 C 203.184 244.599,205.062 246.215,205.988 247.694 C 206.713 248.852,206.767 264.590,206.051 265.970 C 205.426 267.174,203.183 268.823,201.486 269.326 C 198.768 270.131,194.914 268.298,193.899 265.716 C 193.234 264.028,193.324 248.792,194.004 247.706 C 195.940 244.615,198.811 243.384,202.011 244.273 M0.000 295.556 L 0.000 300.075 4.519 300.075 C 7.455 300.075,8.973 299.970,8.852 299.775 C 8.750 299.610,8.466 299.475,8.220 299.475 C 6.343 299.475,0.600 293.732,0.600 291.855 C 0.600 291.609,0.465 291.325,0.300 291.223 C 0.105 291.102,0.000 292.620,0.000 295.556 M399.600 291.273 C 399.490 291.383,399.400 291.659,399.400 291.887 C 399.400 293.736,393.637 299.475,391.780 299.475 C 391.534 299.475,391.250 299.610,391.148 299.775 C 391.027 299.970,392.545 300.075,395.481 300.075 L 400.000 300.075 400.000 295.574 C 400.000 293.098,399.955 291.073,399.900 291.073 C 399.845 291.073,399.710 291.163,399.600 291.273 " stroke="none" fill="#f3f3f2" fill-rule="evenodd"></path><path id="path1" d="M197.449 13.944 C 196.542 14.345,193.436 15.632,190.548 16.804 C 187.659 17.976,185.026 19.054,184.696 19.199 C 183.593 19.684,180.557 20.946,172.393 24.311 C 167.937 26.148,163.920 27.809,163.466 28.002 L 162.641 28.354 162.646 47.710 C 162.653 73.412,163.186 76.630,168.626 83.876 C 172.349 88.834,182.192 96.024,185.257 96.024 C 185.507 96.024,185.794 96.159,185.896 96.324 C 185.998 96.489,186.445 96.629,186.889 96.635 C 187.334 96.641,188.035 96.838,188.447 97.074 C 188.860 97.310,189.645 97.508,190.192 97.514 C 190.740 97.520,191.439 97.659,191.747 97.824 C 193.528 98.777,205.390 98.799,208.402 97.855 C 209.829 97.408,211.917 96.888,212.981 96.716 C 213.519 96.629,214.033 96.438,214.124 96.291 C 214.215 96.144,214.493 96.024,214.743 96.024 C 215.660 96.024,221.563 92.904,223.801 91.237 C 229.696 86.844,233.454 81.881,235.626 75.619 C 237.149 71.227,237.189 70.584,237.281 48.725 L 237.367 28.283 236.388 27.898 C 235.850 27.686,234.696 27.197,233.825 26.810 C 232.953 26.423,232.167 26.107,232.077 26.107 C 231.891 26.107,220.169 21.259,218.233 20.381 C 217.533 20.064,216.884 19.805,216.791 19.805 C 216.698 19.805,215.987 19.528,215.212 19.188 C 213.114 18.270,212.367 17.950,211.703 17.683 C 211.373 17.551,208.799 16.489,205.983 15.323 C 200.311 12.975,199.821 12.896,197.449 13.944 M205.260 32.018 C 208.045 33.287,211.853 37.294,211.853 38.956 C 211.853 39.548,213.008 40.177,214.646 40.477 C 225.041 42.382,228.404 53.785,221.022 62.096 C 219.831 63.438,219.705 63.709,219.963 64.387 C 221.657 68.844,218.772 76.052,214.228 78.713 C 210.302 81.012,203.625 80.940,200.915 78.569 C 200.453 78.165,199.747 78.278,198.331 78.982 C 188.352 83.946,177.028 75.035,180.027 64.579 C 180.288 63.668,180.210 63.484,178.967 62.085 C 171.584 53.772,174.988 42.376,185.426 40.464 C 187.017 40.172,188.147 39.540,188.147 38.941 C 188.147 38.298,190.850 34.558,191.927 33.710 C 195.710 30.732,200.975 30.064,205.260 32.018 M138.070 74.845 C 138.050 75.327,137.822 75.956,137.563 76.243 C 137.058 76.801,137.655 78.620,138.342 78.620 C 138.503 78.620,138.635 78.902,138.635 79.247 C 138.635 79.593,138.905 80.219,139.235 80.638 C 139.987 81.594,139.983 81.433,139.199 78.802 C 138.850 77.629,138.461 76.062,138.335 75.319 C 138.165 74.320,138.096 74.197,138.070 74.845 M261.706 74.924 C 261.684 75.450,261.520 76.260,261.343 76.725 C 261.166 77.189,260.906 78.110,260.766 78.770 C 260.625 79.430,260.413 80.308,260.294 80.720 L 260.078 81.470 260.722 80.749 C 261.076 80.353,261.365 79.653,261.365 79.194 C 261.365 78.639,261.556 78.300,261.933 78.180 C 262.687 77.941,262.892 77.036,262.404 76.096 C 262.187 75.677,261.950 75.027,261.878 74.652 C 261.780 74.137,261.737 74.205,261.706 74.924 M24.156 124.095 C 19.172 124.981,15.443 127.645,13.557 131.667 L 12.753 133.383 12.681 206.452 C 12.642 246.639,12.709 281.275,12.831 283.421 L 13.053 287.322 68.867 287.322 L 124.681 287.322 124.681 205.551 L 124.681 123.781 75.469 123.751 C 37.449 123.729,25.779 123.807,24.156 124.095 M275.301 124.023 C 275.226 124.220,275.200 161.043,275.242 205.851 L 275.319 287.322 331.133 287.322 L 386.947 287.322 387.169 283.421 C 387.291 281.275,387.358 246.636,387.319 206.445 L 387.247 133.371 386.276 131.400 C 384.368 127.524,380.166 124.662,375.394 123.989 C 371.995 123.509,275.483 123.543,275.301 124.023 M56.244 137.958 C 58.120 138.625,60.554 140.832,61.689 142.894 L 62.565 144.486 62.658 155.567 C 62.760 167.849,62.699 168.364,60.820 170.981 C 57.984 174.930,56.379 175.305,42.835 175.186 L 32.258 175.094 30.551 174.255 C 28.175 173.089,26.078 170.730,25.397 168.459 C 24.504 165.479,24.777 145.040,25.736 143.136 C 26.909 140.803,28.973 138.898,31.358 137.945 C 33.246 137.191,54.118 137.202,56.244 137.958 M106.977 138.327 C 108.891 139.276,110.708 141.092,111.644 142.994 L 112.378 144.486 112.378 156.339 L 112.378 168.192 111.662 169.646 C 110.718 171.565,109.016 173.209,106.898 174.248 L 105.176 175.094 93.773 175.094 L 82.371 175.094 80.675 174.298 C 78.502 173.279,76.821 171.588,75.764 169.359 L 74.926 167.592 74.971 156.099 L 75.016 144.606 75.781 142.989 C 76.700 141.046,79.170 138.692,81.042 137.976 C 82.218 137.526,83.698 137.475,93.923 137.526 L 105.476 137.584 106.977 138.327 M318.653 137.952 C 319.952 138.353,320.742 138.877,322.157 140.277 C 324.977 143.068,324.963 142.990,325.037 156.339 L 325.098 167.592 324.248 169.359 C 323.172 171.595,321.491 173.282,319.325 174.298 L 317.629 175.094 306.227 175.094 L 294.824 175.094 293.057 174.227 C 290.904 173.171,289.316 171.634,288.349 169.669 C 287.394 167.729,287.039 146.155,287.926 143.939 C 289.048 141.133,291.086 139.099,293.923 137.951 C 295.779 137.200,316.220 137.201,318.653 137.952 M369.226 138.216 C 374.472 140.700,374.923 142.048,375.038 155.589 C 375.160 169.989,374.647 171.703,369.449 174.255 L 367.742 175.094 356.189 175.094 L 344.636 175.094 343.175 174.369 C 341.307 173.442,339.087 171.221,338.159 169.353 L 337.434 167.892 337.434 156.339 L 337.434 144.786 338.273 143.079 C 340.796 137.942,342.260 137.484,356.256 137.456 L 367.575 137.434 369.226 138.216 M56.888 188.321 C 58.907 189.276,60.680 191.058,61.720 193.177 L 62.566 194.899 62.566 206.302 L 62.566 217.704 61.720 219.427 C 60.673 221.559,58.904 223.328,56.844 224.302 L 55.273 225.046 43.727 225.074 L 32.180 225.103 30.719 224.356 C 28.424 223.183,26.900 221.681,25.858 219.564 L 24.906 217.631 24.905 206.415 C 24.903 192.534,25.427 190.766,30.243 188.394 C 32.960 187.056,54.090 186.998,56.888 188.321 M107.015 188.331 C 108.874 189.207,111.132 191.542,111.937 193.421 C 112.490 194.710,112.528 195.526,112.528 206.183 L 112.528 217.568 111.667 219.436 C 110.604 221.741,109.031 223.281,106.677 224.322 L 104.876 225.118 93.513 225.079 L 82.150 225.040 80.553 224.285 C 75.532 221.910,74.967 220.098,74.950 206.342 C 74.926 187.328,75.616 186.837,101.425 187.501 C 104.954 187.592,105.675 187.699,107.015 188.331 M319.472 188.330 C 324.482 190.700,325.056 192.553,325.047 206.324 C 325.037 220.084,324.470 221.909,319.463 224.277 L 317.883 225.025 306.503 225.085 L 295.124 225.145 293.323 224.336 C 291.068 223.321,289.470 221.798,288.346 219.588 L 287.472 217.872 287.472 206.335 C 287.472 193.188,287.449 193.330,290.031 190.569 C 292.886 187.517,294.397 187.289,310.412 187.491 C 317.660 187.583,317.949 187.610,319.472 188.330 M368.907 188.035 C 371.004 188.730,373.833 191.581,374.569 193.739 C 375.510 196.499,375.350 216.959,374.370 219.175 C 373.404 221.358,371.495 223.369,369.486 224.320 L 367.844 225.096 356.285 225.071 L 344.726 225.045 343.064 224.259 C 340.941 223.255,339.394 221.700,338.301 219.471 L 337.434 217.704 337.434 206.302 L 337.434 194.899 338.300 193.134 C 339.795 190.086,342.679 187.908,345.686 187.555 C 349.196 187.144,367.351 187.518,368.907 188.035 M56.825 238.234 C 58.693 239.162,60.913 241.382,61.841 243.250 L 62.566 244.711 62.566 256.264 L 62.566 267.817 61.736 269.505 C 59.182 274.704,57.506 275.212,43.247 275.104 C 29.617 275.001,28.264 274.570,25.759 269.530 C 24.781 267.562,24.492 247.182,25.399 244.144 C 26.285 241.177,29.276 238.444,32.523 237.634 C 35.141 236.981,55.303 237.479,56.825 238.234 M106.943 238.376 C 109.096 239.432,110.684 240.970,111.651 242.934 L 112.378 244.411 112.378 256.264 L 112.378 268.117 111.644 269.610 C 110.663 271.603,108.856 273.351,106.743 274.349 L 105.010 275.169 93.727 275.169 L 82.444 275.169 80.550 274.236 C 78.370 273.163,76.903 271.705,75.786 269.501 L 75.002 267.953 74.985 256.442 L 74.969 244.930 75.785 243.204 C 77.118 240.387,79.528 238.386,82.441 237.677 C 83.062 237.526,88.432 237.427,94.374 237.456 L 105.176 237.509 106.943 238.376 M319.324 238.304 C 321.497 239.322,323.180 241.016,324.234 243.244 L 325.070 245.011 325.024 256.469 C 324.966 270.598,324.501 272.051,319.290 274.390 L 317.509 275.189 306.016 275.104 L 294.524 275.019 293.023 274.276 C 291.022 273.285,289.247 271.457,288.260 269.371 L 287.452 267.661 287.537 256.036 C 287.640 241.954,287.963 240.864,292.711 238.565 C 295.038 237.439,295.518 237.401,306.827 237.457 L 317.629 237.509 319.324 238.304 M369.449 238.348 C 374.647 240.900,375.160 242.614,375.038 257.014 C 374.931 269.663,374.956 269.526,372.191 272.291 C 369.452 275.030,369.585 275.006,356.939 275.113 C 342.539 275.235,340.825 274.722,338.273 269.524 L 337.434 267.817 337.434 256.264 C 337.434 243.153,337.379 243.480,340.078 240.569 C 342.899 237.527,343.587 237.400,356.939 237.460 L 367.742 237.509 369.449 238.348 " stroke="none" fill="#f3ce7e" fill-rule="evenodd"></path><path id="path2" d="M237.499 48.612 C 237.499 57.772,237.538 61.519,237.584 56.939 C 237.631 52.359,237.631 44.865,237.584 40.285 C 237.538 35.705,237.499 39.452,237.499 48.612 M206.749 32.920 C 207.160 33.216,208.038 33.925,208.699 34.496 L 209.902 35.534 208.936 34.491 C 208.405 33.918,207.527 33.208,206.986 32.915 C 206.036 32.401,206.028 32.401,206.749 32.920 M162.480 49.212 C 162.480 58.042,162.519 61.654,162.565 57.239 C 162.612 52.824,162.612 45.600,162.565 41.185 C 162.519 36.770,162.480 40.383,162.480 49.212 M190.979 34.584 L 190.098 35.559 191.073 34.678 C 191.609 34.193,192.048 33.754,192.048 33.702 C 192.048 33.470,191.800 33.675,190.979 34.584 M187.562 39.742 C 187.365 39.980,186.909 40.231,186.550 40.301 C 185.915 40.425,185.914 40.430,186.525 40.469 C 186.871 40.492,187.398 40.240,187.697 39.910 C 187.996 39.580,188.168 39.310,188.080 39.310 C 187.992 39.310,187.759 39.504,187.562 39.742 M212.275 39.835 C 212.589 40.206,213.129 40.494,213.475 40.475 C 214.079 40.442,214.081 40.435,213.503 40.294 C 213.173 40.214,212.633 39.926,212.303 39.654 C 211.708 39.164,211.708 39.165,212.275 39.835 M181.020 42.007 C 180.484 42.334,180.045 42.667,180.045 42.746 C 180.045 42.826,180.518 42.612,181.095 42.271 C 181.673 41.930,182.146 41.597,182.146 41.531 C 182.146 41.339,182.051 41.379,181.020 42.007 M217.854 41.533 C 217.854 41.622,218.275 41.912,218.789 42.178 C 219.303 42.444,220.350 43.219,221.115 43.900 L 222.506 45.138 221.365 43.921 C 220.335 42.822,217.854 41.135,217.854 41.533 M178.676 43.886 L 177.794 44.861 178.770 43.980 C 179.306 43.495,179.745 43.056,179.745 43.005 C 179.745 42.773,179.497 42.977,178.676 43.886 M199.095 44.937 C 196.660 51.020,196.268 51.399,191.673 52.096 C 187.307 52.758,187.309 52.747,190.869 56.270 C 193.439 58.813,193.584 59.024,193.448 60.015 C 193.368 60.593,193.081 62.532,192.809 64.324 C 192.161 68.585,191.821 68.472,196.780 65.641 C 199.927 63.845,199.948 63.846,204.000 66.055 C 205.856 67.067,207.445 67.824,207.530 67.738 C 207.664 67.605,207.218 64.149,206.560 60.225 C 206.372 59.106,206.421 59.031,209.261 56.141 C 212.835 52.503,212.883 52.752,208.477 52.102 C 203.713 51.399,203.356 51.062,200.905 44.937 C 200.332 43.503,199.668 43.503,199.095 44.937 M224.826 54.314 C 224.826 54.891,224.888 55.128,224.963 54.839 C 225.039 54.550,225.039 54.077,224.963 53.788 C 224.888 53.500,224.826 53.736,224.826 54.314 M176.294 58.515 C 176.550 59.010,176.827 59.415,176.910 59.415 C 176.992 59.415,176.850 59.010,176.594 58.515 C 176.338 58.020,176.061 57.614,175.979 57.614 C 175.896 57.614,176.038 58.020,176.294 58.515 M222.979 59.169 C 222.447 60.025,222.195 60.573,222.419 60.387 C 222.845 60.033,224.286 57.614,224.070 57.614 C 224.002 57.614,223.511 58.314,222.979 59.169 M179.011 62.135 C 179.662 62.888,180.256 63.457,180.330 63.400 C 180.405 63.342,179.872 62.726,179.147 62.030 L 177.828 60.765 179.011 62.135 M220.711 62.110 C 220.069 62.767,219.603 63.350,219.674 63.404 C 219.746 63.459,220.329 62.921,220.969 62.210 C 222.431 60.584,222.264 60.520,220.711 62.110 M219.860 65.116 C 219.958 65.859,220.087 66.523,220.147 66.592 C 220.373 66.852,220.201 64.939,219.947 64.366 C 219.770 63.965,219.741 64.215,219.860 65.116 M162.673 68.737 C 162.594 71.370,164.910 79.451,165.558 78.803 C 165.651 78.710,165.595 78.462,165.434 78.252 C 164.790 77.412,163.488 73.032,163.108 70.427 C 162.886 68.909,162.691 68.148,162.673 68.737 M236.976 69.767 C 236.869 70.263,236.713 71.343,236.628 72.168 C 236.484 73.570,236.504 73.541,236.924 71.718 C 237.171 70.645,237.328 69.565,237.272 69.317 C 237.216 69.070,237.083 69.272,236.976 69.767 M235.550 75.825 C 235.181 76.949,234.743 78.042,234.576 78.252 C 234.409 78.462,234.349 78.710,234.442 78.803 C 234.534 78.895,234.742 78.723,234.904 78.420 C 235.348 77.587,236.476 74.036,236.340 73.899 C 236.274 73.834,235.919 74.700,235.550 75.825 M12.737 74.502 C 12.656 74.714,12.627 77.516,12.671 80.729 L 12.753 86.572 72.468 86.647 L 132.183 86.721 135.458 84.158 C 137.259 82.749,138.944 81.477,139.203 81.332 C 139.624 81.097,139.619 81.010,139.154 80.496 C 138.868 80.181,138.635 79.630,138.635 79.271 C 138.635 78.913,138.503 78.620,138.342 78.620 C 137.655 78.620,137.058 76.801,137.563 76.243 C 137.822 75.956,138.035 75.361,138.035 74.920 L 138.035 74.119 75.459 74.119 C 24.907 74.119,12.856 74.192,12.737 74.502 M261.965 74.684 C 261.965 74.995,262.153 75.612,262.382 76.054 C 262.890 77.032,262.698 77.937,261.933 78.180 C 261.550 78.301,261.365 78.640,261.365 79.219 C 261.365 79.691,261.138 80.304,260.861 80.581 C 260.389 81.054,260.390 81.104,260.882 81.380 C 261.171 81.542,262.107 82.242,262.962 82.935 C 263.817 83.629,265.272 84.765,266.195 85.460 L 267.873 86.723 327.560 86.647 L 387.247 86.572 387.247 80.420 L 387.247 74.269 324.606 74.193 C 263.377 74.119,261.965 74.130,261.965 74.684 M198.817 78.479 C 198.497 78.721,198.388 78.920,198.575 78.920 C 198.761 78.920,198.998 78.785,199.100 78.620 C 199.202 78.455,199.607 78.320,200.000 78.320 C 200.393 78.320,200.798 78.455,200.900 78.620 C 201.002 78.785,201.239 78.920,201.425 78.920 C 201.612 78.920,201.503 78.721,201.183 78.479 C 200.862 78.237,200.330 78.039,200.000 78.039 C 199.670 78.039,199.138 78.237,198.817 78.479 M189.047 80.106 C 189.295 80.274,189.756 80.413,190.073 80.416 C 190.840 80.422,190.601 80.250,189.497 80.003 C 188.840 79.856,188.719 79.884,189.047 80.106 M194.599 80.120 C 193.768 80.331,193.757 80.351,194.449 80.380 C 194.861 80.397,195.401 80.280,195.649 80.120 C 196.160 79.790,195.896 79.790,194.599 80.120 M204.351 80.106 C 204.599 80.274,205.060 80.413,205.376 80.416 C 206.144 80.422,205.905 80.250,204.801 80.003 C 204.144 79.856,204.022 79.884,204.351 80.106 M171.384 87.472 C 171.909 88.050,172.444 88.522,172.571 88.522 C 172.699 88.522,172.357 88.050,171.812 87.472 C 171.268 86.894,170.733 86.422,170.625 86.422 C 170.517 86.422,170.858 86.894,171.384 87.472 M228.488 87.126 C 227.915 87.822,225.865 89.671,223.843 91.317 C 222.901 92.084,222.930 92.077,224.156 91.239 C 225.832 90.095,229.820 86.422,229.387 86.422 C 229.212 86.422,228.808 86.739,228.488 87.126 M173.808 89.668 C 174.976 90.669,177.326 92.382,176.894 91.916 C 176.402 91.385,173.165 88.822,172.987 88.822 C 172.896 88.822,173.266 89.203,173.808 89.668 M181.545 94.684 C 181.545 94.858,184.167 96.034,184.496 96.008 C 184.680 95.994,181.852 94.524,181.639 94.524 C 181.588 94.524,181.545 94.596,181.545 94.684 M216.654 95.288 C 215.911 95.673,215.394 95.997,215.504 96.006 C 215.830 96.035,218.455 94.859,218.455 94.684 C 218.455 94.423,218.081 94.548,216.654 95.288 M187.397 97.083 C 188.922 97.632,189.416 97.628,188.447 97.074 C 188.035 96.838,187.359 96.647,186.947 96.648 C 186.352 96.650,186.445 96.740,187.397 97.083 M211.403 97.085 C 210.208 97.632,211.083 97.631,212.603 97.083 C 213.531 96.749,213.633 96.653,213.053 96.662 C 212.641 96.668,211.898 96.858,211.403 97.085 M190.848 97.968 C 191.755 98.205,192.836 98.389,193.248 98.377 C 194.183 98.350,192.167 97.843,190.398 97.660 C 189.378 97.555,189.446 97.601,190.848 97.968 M208.252 97.824 C 208.005 97.984,207.397 98.138,206.902 98.165 C 206.117 98.208,206.098 98.228,206.752 98.320 C 207.164 98.378,208.177 98.235,209.002 98.002 C 210.246 97.651,210.349 97.574,209.602 97.556 C 209.107 97.544,208.500 97.664,208.252 97.824 M196.950 98.837 C 198.654 98.990,201.192 98.991,202.952 98.839 C 205.782 98.594,205.570 98.575,200.000 98.573 C 194.503 98.572,194.247 98.594,196.950 98.837 M63.091 123.838 C 63.380 123.913,63.852 123.913,64.141 123.838 C 64.430 123.762,64.194 123.701,63.616 123.701 C 63.038 123.701,62.802 123.762,63.091 123.838 M94.299 123.838 C 94.587 123.913,95.060 123.913,95.349 123.838 C 95.638 123.762,95.401 123.701,94.824 123.701 C 94.246 123.701,94.010 123.762,94.299 123.838 M124.979 205.851 C 124.979 247.854,125.014 265.038,125.056 244.036 C 125.099 223.035,125.099 188.668,125.056 167.667 C 125.014 146.665,124.979 163.848,124.979 205.851 M275.016 205.851 C 275.016 247.854,275.051 265.038,275.094 244.036 C 275.136 223.035,275.136 188.668,275.094 167.667 C 275.051 146.665,275.016 163.848,275.016 205.851 M33.227 137.651 C 33.759 137.717,34.705 137.718,35.327 137.653 C 35.950 137.588,35.514 137.534,34.359 137.533 C 33.203 137.531,32.694 137.585,33.227 137.651 M42.986 137.659 C 45.255 137.710,48.968 137.710,51.238 137.659 C 53.507 137.608,51.650 137.566,47.112 137.566 C 42.573 137.566,40.716 137.608,42.986 137.659 M81.470 137.903 C 80.975 138.145,80.840 138.242,81.170 138.118 C 81.500 137.993,85.349 137.817,89.722 137.726 L 97.674 137.561 90.023 137.511 C 83.823 137.471,82.200 137.545,81.470 137.903 M100.450 137.646 C 100.821 137.718,101.429 137.718,101.800 137.646 C 102.172 137.575,101.868 137.516,101.125 137.516 C 100.383 137.516,100.079 137.575,100.450 137.646 M137.565 137.827 C 137.329 138.442,137.558 287.096,137.796 287.333 C 138.126 287.664,146.877 287.878,150.119 287.635 L 153.038 287.416 153.038 254.499 C 153.038 225.805,153.098 221.352,153.501 219.793 C 154.758 214.940,157.767 211.678,162.487 210.054 C 164.732 209.281,234.067 209.101,236.909 209.860 C 241.222 211.012,244.774 214.337,246.277 218.630 C 246.751 219.985,246.801 222.842,246.886 253.788 L 246.979 287.472 254.590 287.472 L 262.200 287.472 262.400 281.695 C 262.510 278.518,262.559 244.794,262.508 206.752 L 262.416 137.584 200.066 137.509 C 148.835 137.446,137.689 137.503,137.565 137.827 M299.103 137.647 C 299.477 137.718,300.017 137.716,300.304 137.641 C 300.590 137.565,300.285 137.507,299.625 137.510 C 298.965 137.513,298.730 137.575,299.103 137.647 M306.919 137.659 C 308.950 137.711,312.191 137.710,314.121 137.658 C 316.051 137.606,314.389 137.564,310.428 137.564 C 306.467 137.564,304.888 137.607,306.919 137.659 M351.013 137.659 C 353.035 137.710,356.343 137.710,358.365 137.659 C 360.386 137.607,358.732 137.564,354.689 137.564 C 350.645 137.564,348.991 137.607,351.013 137.659 M366.242 137.728 C 367.232 137.839,368.312 138.030,368.642 138.153 C 369.016 138.292,368.959 138.202,368.492 137.916 C 368.031 137.633,367.105 137.469,366.092 137.491 L 364.441 137.526 366.242 137.728 M12.451 209.752 C 12.451 249.115,12.486 265.218,12.528 245.536 C 12.571 225.855,12.571 193.650,12.528 173.968 C 12.486 154.287,12.451 170.390,12.451 209.752 M57.623 138.829 C 58.031 139.101,58.912 139.810,59.582 140.404 C 60.251 140.999,60.076 140.776,59.193 139.910 C 58.309 139.044,57.428 138.335,57.234 138.335 C 57.039 138.335,57.215 138.557,57.623 138.829 M78.242 139.910 C 77.359 140.776,77.183 140.999,77.853 140.404 C 78.522 139.810,79.404 139.101,79.812 138.829 C 80.220 138.557,80.395 138.335,80.201 138.335 C 80.007 138.335,79.125 139.044,78.242 139.910 M320.188 138.829 C 320.596 139.101,321.478 139.810,322.147 140.404 C 322.817 140.999,322.641 140.776,321.758 139.910 C 320.875 139.044,319.993 138.335,319.799 138.335 C 319.605 138.335,319.780 138.557,320.188 138.829 M340.807 139.910 C 339.924 140.776,339.749 140.999,340.418 140.404 C 341.088 139.810,341.969 139.101,342.377 138.829 C 342.785 138.557,342.961 138.335,342.766 138.335 C 342.572 138.335,341.691 139.044,340.807 139.910 M387.531 150.338 C 387.531 155.536,387.571 157.663,387.621 155.064 C 387.671 152.464,387.671 148.211,387.621 145.611 C 387.571 143.012,387.531 145.139,387.531 150.338 M75.206 144.198 C 75.103 144.466,75.030 144.911,75.045 145.186 C 75.059 145.461,75.189 145.288,75.335 144.801 C 75.618 143.854,75.518 143.385,75.206 144.198 M287.659 144.498 C 287.556 144.766,287.483 145.211,287.498 145.486 C 287.512 145.761,287.642 145.588,287.788 145.101 C 288.071 144.154,287.971 143.686,287.659 144.498 M24.999 146.887 C 25.001 147.877,25.057 148.246,25.124 147.707 C 25.190 147.167,25.189 146.357,25.121 145.906 C 25.052 145.455,24.998 145.896,24.999 146.887 M374.875 146.437 C 374.875 147.179,374.934 147.483,375.005 147.112 C 375.077 146.740,375.077 146.133,375.005 145.761 C 374.934 145.390,374.875 145.694,374.875 146.437 M62.551 156.339 C 62.551 162.363,62.591 164.827,62.640 161.815 C 62.689 158.803,62.689 153.875,62.640 150.863 C 62.591 147.851,62.551 150.315,62.551 156.339 M337.420 156.339 C 337.420 162.363,337.460 164.827,337.509 161.815 C 337.558 158.803,337.558 153.875,337.509 150.863 C 337.460 147.851,337.420 150.315,337.420 156.339 M184.996 150.931 C 186.911 151.879,188.727 153.695,189.663 155.597 L 190.398 157.089 190.480 173.193 L 190.563 189.296 189.790 191.047 C 188.772 193.353,187.219 194.931,184.928 195.988 L 183.059 196.849 171.987 196.849 C 158.665 196.849,157.687 196.625,154.986 192.944 C 153.059 190.320,153.002 189.700,153.100 172.635 L 153.188 157.389 154.027 155.682 C 156.556 150.531,158.078 150.067,172.243 150.134 L 183.496 150.188 184.996 150.931 M240.559 150.682 C 242.743 151.499,244.897 153.493,245.982 155.701 L 246.812 157.389 246.812 173.143 C 246.812 190.472,246.820 190.386,244.964 192.979 C 242.365 196.609,241.315 196.849,228.013 196.849 L 216.941 196.849 215.072 195.988 C 212.786 194.933,211.228 193.354,210.218 191.064 L 209.452 189.330 209.452 173.623 C 209.452 156.444,209.425 156.746,211.249 154.094 C 212.309 152.554,214.116 151.217,216.056 150.538 C 218.434 149.706,238.262 149.822,240.559 150.682 M25.037 159.940 C 25.037 164.149,25.079 165.870,25.130 163.766 C 25.182 161.662,25.182 158.218,25.130 156.114 C 25.079 154.010,25.037 155.731,25.037 159.940 M374.923 160.390 C 374.923 164.351,374.966 165.930,375.018 163.899 C 375.070 161.868,375.070 158.627,375.018 156.697 C 374.965 154.767,374.923 156.429,374.923 160.390 M74.800 156.939 C 74.800 157.682,74.859 157.986,74.930 157.614 C 75.002 157.243,75.002 156.635,74.930 156.264 C 74.859 155.893,74.800 156.197,74.800 156.939 M325.067 157.689 C 325.069 158.515,325.128 158.817,325.197 158.360 C 325.266 157.904,325.264 157.229,325.192 156.860 C 325.121 156.491,325.065 156.864,325.067 157.689 M387.530 172.393 C 387.530 177.509,387.571 179.645,387.621 177.138 C 387.671 174.631,387.671 170.445,387.621 167.836 C 387.571 165.226,387.530 167.277,387.530 172.393 M325.057 165.191 C 325.060 165.851,325.122 166.086,325.193 165.713 C 325.265 165.340,325.263 164.800,325.187 164.513 C 325.112 164.226,325.054 164.531,325.057 165.191 M373.362 170.614 C 372.991 171.180,372.747 171.643,372.820 171.643 C 373.029 171.643,374.272 169.821,374.148 169.697 C 374.087 169.635,373.733 170.048,373.362 170.614 M27.594 172.018 C 28.330 172.802,28.972 173.443,29.020 173.443 C 29.245 173.443,29.007 173.174,27.682 171.930 L 26.257 170.593 27.594 172.018 M38.315 175.168 C 41.152 175.218,45.878 175.218,48.818 175.168 C 51.758 175.119,49.437 175.079,43.661 175.079 C 37.884 175.079,35.479 175.119,38.315 175.168 M88.428 175.168 C 91.264 175.218,95.990 175.218,98.930 175.168 C 101.871 175.119,99.550 175.079,93.773 175.079 C 87.997 175.079,85.591 175.119,88.428 175.168 M300.881 175.168 C 303.717 175.218,308.443 175.218,311.383 175.168 C 314.324 175.119,312.003 175.079,306.227 175.079 C 300.450 175.079,298.045 175.119,300.881 175.168 M350.993 175.168 C 353.830 175.218,358.556 175.218,361.496 175.168 C 364.436 175.119,362.116 175.079,356.339 175.079 C 350.563 175.079,348.157 175.119,350.993 175.168 M387.531 194.599 C 387.531 199.880,387.572 201.998,387.621 199.306 C 387.671 196.614,387.671 192.293,387.621 189.704 C 387.571 187.115,387.531 189.317,387.531 194.599 M31.508 187.861 C 31.179 188.083,31.301 188.111,31.958 187.964 C 33.061 187.717,33.301 187.545,32.533 187.551 C 32.217 187.554,31.755 187.693,31.508 187.861 M294.074 187.861 C 293.745 188.083,293.866 188.111,294.524 187.964 C 295.627 187.717,295.867 187.545,295.099 187.551 C 294.782 187.554,294.321 187.693,294.074 187.861 M316.904 187.655 C 316.973 187.714,317.434 187.853,317.929 187.964 C 318.587 188.111,318.708 188.083,318.380 187.861 C 317.974 187.586,316.603 187.395,316.904 187.655 M344.186 187.861 C 343.857 188.083,343.979 188.111,344.636 187.964 C 345.740 187.717,345.979 187.545,345.211 187.551 C 344.895 187.554,344.434 187.693,344.186 187.861 M367.442 187.847 C 367.772 187.989,368.245 188.105,368.492 188.105 C 368.776 188.105,368.720 188.010,368.342 187.847 C 368.012 187.705,367.539 187.589,367.292 187.589 C 367.008 187.589,367.064 187.684,367.442 187.847 M27.337 190.722 C 26.495 191.643,25.806 192.551,25.806 192.739 C 25.806 192.928,26.029 192.748,26.301 192.340 C 26.573 191.932,27.344 191.024,28.014 190.323 C 28.684 189.621,29.150 189.047,29.050 189.047 C 28.950 189.047,28.179 189.801,27.337 190.722 M109.424 190.250 C 110.109 190.992,110.953 192.071,111.298 192.648 C 111.643 193.226,111.926 193.550,111.927 193.368 C 111.929 192.882,110.356 190.832,109.191 189.800 C 108.398 189.099,108.449 189.197,109.424 190.250 M290.173 190.398 C 289.444 191.140,288.915 191.748,288.997 191.748 C 289.080 191.748,289.744 191.140,290.473 190.398 C 291.202 189.655,291.730 189.047,291.648 189.047 C 291.565 189.047,290.901 189.655,290.173 190.398 M372.124 190.381 C 372.718 191.050,373.427 191.932,373.699 192.340 C 373.971 192.748,374.194 192.923,374.194 192.729 C 374.194 192.535,373.485 191.653,372.618 190.770 C 371.752 189.887,371.529 189.712,372.124 190.381 M25.236 194.193 C 25.017 194.822,24.928 198.467,24.972 205.071 L 25.037 215.004 25.197 204.651 C 25.285 198.957,25.472 194.062,25.614 193.773 C 25.755 193.485,25.802 193.248,25.718 193.248 C 25.634 193.248,25.417 193.674,25.236 194.193 M112.111 194.599 C 112.358 195.702,112.530 195.942,112.524 195.174 C 112.521 194.857,112.382 194.396,112.214 194.149 C 111.992 193.820,111.964 193.941,112.111 194.599 M287.659 194.310 C 287.556 194.578,287.483 195.023,287.498 195.298 C 287.512 195.574,287.642 195.401,287.788 194.914 C 288.071 193.967,287.971 193.498,287.659 194.310 M374.695 195.199 C 374.922 196.682,375.095 196.935,375.089 195.774 C 375.087 195.293,374.955 194.696,374.798 194.449 C 374.602 194.142,374.569 194.381,374.695 195.199 M62.550 206.302 C 62.550 211.913,62.591 214.166,62.640 211.309 C 62.690 208.451,62.690 203.860,62.640 201.106 C 62.591 198.352,62.550 200.690,62.550 206.302 M337.419 206.302 C 337.419 211.913,337.460 214.166,337.509 211.309 C 337.558 208.451,337.558 203.860,337.509 201.106 C 337.459 198.352,337.419 200.690,337.419 206.302 M374.926 205.551 C 374.926 210.255,374.967 212.179,375.018 209.827 C 375.069 207.476,375.069 203.627,375.018 201.275 C 374.967 198.923,374.926 200.848,374.926 205.551 M74.800 201.050 C 74.800 201.793,74.859 202.097,74.930 201.725 C 75.002 201.354,75.002 200.746,74.930 200.375 C 74.859 200.004,74.800 200.308,74.800 201.050 M325.057 201.800 C 325.060 202.461,325.122 202.695,325.193 202.322 C 325.265 201.949,325.263 201.409,325.187 201.122 C 325.112 200.835,325.054 201.140,325.057 201.800 M387.532 217.104 C 387.532 222.716,387.572 224.969,387.622 222.111 C 387.671 219.254,387.671 214.663,387.621 211.909 C 387.572 209.155,387.531 211.493,387.532 217.104 M325.063 209.452 C 325.063 210.195,325.121 210.499,325.193 210.128 C 325.265 209.756,325.265 209.149,325.193 208.777 C 325.121 208.406,325.063 208.710,325.063 209.452 M74.800 210.053 C 74.800 210.795,74.859 211.099,74.930 210.728 C 75.002 210.356,75.002 209.749,74.930 209.377 C 74.859 209.006,74.800 209.310,74.800 210.053 M24.911 216.829 C 24.913 217.311,25.045 217.907,25.202 218.155 C 25.398 218.461,25.431 218.222,25.305 217.404 C 25.078 215.921,24.905 215.668,24.911 216.829 M374.839 216.705 C 374.814 217.145,374.716 217.753,374.621 218.055 C 374.458 218.575,374.467 218.575,374.790 218.072 C 374.978 217.779,375.076 217.171,375.008 216.722 L 374.884 215.904 374.839 216.705 M287.496 217.404 C 287.494 217.734,287.686 218.342,287.922 218.755 C 288.470 219.713,288.472 219.508,287.931 218.005 C 287.693 217.344,287.497 217.074,287.496 217.404 M109.695 221.997 C 108.231 223.684,108.228 223.690,109.493 222.506 C 110.560 221.507,111.588 220.209,111.263 220.272 C 111.216 220.281,110.510 221.057,109.695 221.997 M288.908 220.705 C 289.082 221.035,289.805 221.845,290.514 222.506 C 291.787 223.691,291.380 223.178,288.727 220.255 C 288.652 220.173,288.734 220.375,288.908 220.705 M26.707 221.249 C 26.707 221.301,27.146 221.740,27.682 222.224 L 28.657 223.106 27.776 222.131 C 26.954 221.221,26.707 221.017,26.707 221.249 M372.370 221.948 C 371.970 222.384,371.043 223.126,370.309 223.598 C 369.575 224.070,369.116 224.456,369.289 224.456 C 369.709 224.456,371.766 222.930,372.670 221.946 C 373.071 221.511,373.330 221.155,373.248 221.155 C 373.165 221.155,372.770 221.512,372.370 221.948 M339.793 221.987 C 340.030 222.371,341.785 223.670,341.785 223.462 C 341.785 223.388,341.290 222.949,340.684 222.487 C 340.078 222.025,339.677 221.800,339.793 221.987 M31.208 224.606 C 31.620 224.842,32.228 225.034,32.558 225.032 C 32.888 225.031,32.618 224.835,31.958 224.597 C 30.454 224.056,30.249 224.058,31.208 224.606 M81.620 224.742 C 81.868 224.910,82.329 225.049,82.646 225.052 C 83.413 225.058,83.174 224.886,82.071 224.639 C 81.413 224.492,81.292 224.520,81.620 224.742 M317.479 224.756 C 316.861 224.954,316.835 225.001,317.329 225.022 C 317.659 225.036,318.132 224.916,318.380 224.756 C 318.905 224.416,318.540 224.416,317.479 224.756 M367.592 224.756 C 366.974 224.954,366.947 225.001,367.442 225.022 C 367.772 225.036,368.245 224.916,368.492 224.756 C 369.018 224.416,368.653 224.416,367.592 224.756 M387.531 238.860 C 387.531 244.059,387.571 246.185,387.621 243.586 C 387.671 240.986,387.671 236.733,387.621 234.134 C 387.571 231.534,387.531 233.661,387.531 238.860 M38.315 237.584 C 41.152 237.633,45.878 237.633,48.818 237.584 C 51.758 237.535,49.437 237.495,43.661 237.494 C 37.884 237.494,35.479 237.535,38.315 237.584 M88.428 237.584 C 91.264 237.633,95.990 237.633,98.930 237.584 C 101.871 237.535,99.550 237.495,93.773 237.494 C 87.997 237.494,85.591 237.535,88.428 237.584 M300.881 237.584 C 303.717 237.633,308.443 237.633,311.383 237.584 C 314.324 237.535,312.003 237.495,306.227 237.494 C 300.450 237.494,298.045 237.535,300.881 237.584 M350.993 237.584 C 353.830 237.633,358.556 237.633,361.496 237.584 C 364.436 237.535,362.116 237.495,356.339 237.494 C 350.563 237.494,348.157 237.535,350.993 237.584 M290.131 240.285 C 289.267 241.327,288.902 241.860,289.050 241.860 C 289.133 241.860,289.562 241.388,290.002 240.810 C 290.820 239.738,290.919 239.334,290.131 240.285 M25.035 251.913 C 25.035 255.709,25.078 257.220,25.130 255.272 C 25.183 253.323,25.183 250.218,25.130 248.370 C 25.078 246.523,25.035 248.117,25.035 251.913 M374.921 251.463 C 374.921 255.011,374.965 256.463,375.018 254.689 C 375.071 252.914,375.071 250.011,375.018 248.237 C 374.965 246.463,374.921 247.914,374.921 251.463 M337.419 256.414 C 337.420 262.191,337.460 264.511,337.509 261.571 C 337.558 258.631,337.558 253.905,337.509 251.068 C 337.460 248.232,337.419 250.638,337.419 256.414 M62.551 256.714 C 62.551 262.491,62.591 264.811,62.640 261.871 C 62.689 258.931,62.689 254.205,62.640 251.368 C 62.591 248.532,62.551 250.938,62.551 256.714 M387.531 260.915 C 387.531 266.197,387.572 268.315,387.621 265.623 C 387.671 262.930,387.671 258.609,387.621 256.020 C 387.571 253.431,387.531 255.634,387.531 260.915 M325.063 253.563 C 325.063 254.306,325.121 254.610,325.193 254.239 C 325.265 253.867,325.265 253.260,325.193 252.888 C 325.121 252.517,325.063 252.821,325.063 253.563 M74.800 254.464 C 74.800 255.206,74.859 255.510,74.930 255.139 C 75.002 254.767,75.002 254.160,74.930 253.788 C 74.859 253.417,74.800 253.721,74.800 254.464 M25.011 265.266 C 25.011 266.669,25.063 267.243,25.126 266.542 C 25.189 265.840,25.189 264.692,25.126 263.991 C 25.063 263.290,25.011 263.863,25.011 265.266 M374.892 265.416 C 374.893 266.572,374.948 267.007,375.013 266.385 C 375.078 265.762,375.077 264.817,375.010 264.284 C 374.944 263.752,374.891 264.261,374.892 265.416 M287.476 267.242 C 287.479 267.558,287.618 268.020,287.786 268.267 C 288.008 268.596,288.036 268.474,287.889 267.817 C 287.642 266.714,287.470 266.474,287.476 267.242 M324.716 267.417 C 324.697 267.693,324.603 268.165,324.508 268.468 C 324.345 268.989,324.354 268.989,324.679 268.483 C 324.867 268.189,324.961 267.716,324.886 267.432 C 324.764 266.968,324.747 266.966,324.716 267.417 M59.115 272.530 C 58.207 273.376,57.734 273.922,58.065 273.742 C 58.641 273.428,61.180 270.956,60.901 270.979 C 60.826 270.985,60.023 271.683,59.115 272.530 M321.680 272.530 C 320.773 273.376,320.300 273.922,320.630 273.742 C 321.207 273.428,323.745 270.956,323.467 270.979 C 323.392 270.985,322.588 271.683,321.680 272.530 M340.807 272.693 C 341.691 273.560,342.572 274.269,342.766 274.269 C 342.961 274.269,342.785 274.046,342.377 273.774 C 341.969 273.502,341.088 272.793,340.418 272.199 C 339.749 271.604,339.924 271.827,340.807 272.693 M77.119 271.662 C 77.119 271.713,77.558 272.152,78.095 272.637 L 79.070 273.518 78.188 272.543 C 77.367 271.634,77.119 271.430,77.119 271.662 M387.515 277.119 C 387.516 279.430,387.563 280.335,387.620 279.132 C 387.677 277.928,387.677 276.037,387.619 274.931 C 387.561 273.824,387.515 274.809,387.515 277.119 M105.803 274.494 C 105.680 274.617,103.936 274.794,101.927 274.887 L 98.275 275.055 101.725 275.101 C 104.237 275.135,105.380 275.031,105.926 274.719 C 106.339 274.483,106.530 274.285,106.352 274.279 C 106.173 274.273,105.926 274.370,105.803 274.494 M318.555 274.494 C 318.432 274.617,315.270 274.792,311.529 274.882 L 304.726 275.046 311.178 275.094 C 316.095 275.130,317.843 275.044,318.530 274.730 C 319.025 274.503,319.284 274.306,319.105 274.293 C 318.926 274.280,318.679 274.370,318.555 274.494 M82.023 274.939 C 82.214 275.060,85.476 275.136,89.272 275.106 C 96.717 275.049,95.844 274.923,87.124 274.797 C 84.127 274.754,81.831 274.818,82.023 274.939 M33.692 275.090 C 34.481 275.152,35.697 275.151,36.393 275.088 C 37.090 275.025,36.444 274.974,34.959 274.975 C 33.473 274.976,32.904 275.028,33.692 275.090 M43.152 275.093 C 44.852 275.146,47.553 275.146,49.153 275.092 C 50.754 275.038,49.362 274.995,46.062 274.995 C 42.761 274.995,41.451 275.039,43.152 275.093 M296.699 275.091 C 297.731 275.149,299.419 275.149,300.450 275.091 C 301.482 275.032,300.638 274.984,298.575 274.984 C 296.512 274.984,295.668 275.032,296.699 275.091 M351.613 275.093 C 353.305 275.146,356.073 275.146,357.764 275.093 C 359.456 275.039,358.072 274.995,354.689 274.995 C 351.305 274.995,349.921 275.039,351.613 275.093 M364.209 275.085 C 364.742 275.152,365.687 275.153,366.310 275.088 C 366.932 275.023,366.497 274.969,365.341 274.967 C 364.186 274.966,363.677 275.019,364.209 275.085 M12.661 284.514 C 12.613 286.911,12.685 287.439,13.078 287.590 C 13.771 287.856,124.470 287.813,124.635 287.547 C 124.711 287.423,99.637 287.322,68.914 287.322 L 13.053 287.322 12.886 284.471 L 12.718 281.620 12.661 284.514 M387.090 284.471 L 386.947 287.322 331.086 287.322 C 300.363 287.322,275.289 287.423,275.365 287.547 C 275.555 287.854,386.549 287.825,387.034 287.517 C 387.316 287.338,387.395 286.510,387.327 284.446 L 387.234 281.620 387.090 284.471 " stroke="none" fill="#f5775c" fill-rule="evenodd"></path><path id="path3" d="M198.350 0.300 C 198.350 0.465,198.200 0.600,198.018 0.600 C 197.836 0.600,195.372 1.560,192.542 2.733 C 189.712 3.906,186.924 5.060,186.347 5.298 C 185.769 5.536,185.062 5.859,184.775 6.016 C 184.489 6.173,184.121 6.302,183.958 6.302 C 183.795 6.302,182.950 6.625,182.079 7.020 C 181.208 7.415,178.605 8.511,176.294 9.456 C 172.531 10.994,171.546 11.399,169.392 12.293 C 168.211 12.783,166.381 13.548,165.791 13.798 C 165.461 13.938,163.301 14.817,160.990 15.750 C 158.680 16.684,156.077 17.775,155.206 18.176 C 154.335 18.577,153.510 18.905,153.372 18.905 C 152.844 18.905,151.108 21.000,150.602 22.248 C 149.759 24.326,149.781 66.249,150.628 71.568 C 151.703 78.321,152.895 81.769,156.080 87.336 C 159.693 93.651,167.334 100.927,174.194 104.583 C 175.349 105.199,176.429 105.795,176.594 105.909 C 177.105 106.260,180.682 107.656,183.046 108.428 C 185.131 109.108,186.552 109.463,191.298 110.489 C 192.479 110.744,195.472 110.878,200.000 110.878 C 204.528 110.878,207.521 110.744,208.702 110.489 C 215.034 109.120,217.401 108.436,221.155 106.890 C 227.948 104.093,236.495 97.649,240.543 92.273 C 241.687 90.754,243.407 88.255,243.848 87.472 C 249.646 77.166,249.953 75.058,249.939 45.611 C 249.927 18.581,250.305 20.305,243.811 17.680 C 243.481 17.547,241.320 16.674,239.010 15.740 C 236.699 14.807,234.336 13.845,233.758 13.603 C 232.493 13.072,231.881 12.818,230.308 12.169 C 229.647 11.897,228.873 11.545,228.586 11.388 C 228.300 11.231,227.932 11.103,227.769 11.103 C 227.606 11.103,226.761 10.775,225.890 10.374 C 225.019 9.973,222.416 8.880,220.105 7.944 C 217.794 7.008,215.191 5.918,214.320 5.522 C 213.449 5.125,212.604 4.801,212.441 4.801 C 212.278 4.801,211.910 4.675,211.624 4.520 C 210.637 3.989,209.060 3.301,208.827 3.301 C 208.699 3.301,207.741 2.910,206.698 2.432 C 205.655 1.954,204.092 1.314,203.226 1.011 C 202.359 0.707,201.650 0.356,201.650 0.230 C 201.650 0.103,200.908 0.000,200.000 0.000 C 199.092 0.000,198.350 0.135,198.350 0.300 M203.796 14.258 C 205.669 15.003,207.472 15.738,207.802 15.891 C 208.132 16.043,212.048 17.670,216.504 19.505 C 220.960 21.340,224.910 22.969,225.281 23.124 C 225.653 23.279,226.260 23.532,226.632 23.686 C 227.003 23.840,227.779 24.168,228.357 24.415 C 228.935 24.662,231.122 25.561,233.219 26.412 C 235.315 27.264,237.185 28.148,237.375 28.376 C 237.953 29.072,237.564 69.476,236.955 72.018 C 229.384 103.630,181.569 108.878,165.875 79.820 C 162.614 73.782,162.503 72.762,162.496 48.763 L 162.491 28.359 163.541 27.850 C 164.965 27.160,167.201 26.194,168.730 25.608 C 169.709 25.233,187.160 18.038,190.098 16.798 C 190.979 16.426,192.405 15.832,196.099 14.298 C 200.146 12.618,199.681 12.621,203.796 14.258 M197.899 31.206 C 194.208 31.771,190.791 34.303,188.822 37.932 C 187.560 40.257,187.479 40.318,185.053 40.765 C 175.286 42.565,171.892 54.001,178.862 61.627 L 180.407 63.318 180.028 65.866 C 178.511 76.062,189.096 83.740,198.011 78.911 C 199.962 77.854,200.142 77.839,201.418 78.625 C 210.329 84.113,221.595 76.257,219.953 65.700 L 219.574 63.270 220.785 62.018 C 228.139 54.405,224.896 42.598,214.947 40.765 C 212.523 40.318,212.443 40.258,211.162 37.932 C 208.349 32.823,203.478 30.353,197.899 31.206 M200.905 44.937 C 203.356 51.062,203.713 51.399,208.477 52.102 C 212.883 52.752,212.835 52.503,209.261 56.141 C 206.421 59.031,206.372 59.106,206.560 60.225 C 207.218 64.149,207.664 67.605,207.530 67.738 C 207.445 67.824,205.856 67.067,204.000 66.055 C 199.948 63.846,199.927 63.845,196.780 65.641 C 191.821 68.472,192.161 68.585,192.809 64.324 C 193.081 62.532,193.368 60.593,193.448 60.015 C 193.584 59.024,193.439 58.813,190.869 56.270 C 187.309 52.747,187.307 52.758,191.673 52.096 C 196.268 51.399,196.660 51.020,199.095 44.937 C 199.668 43.503,200.332 43.503,200.905 44.937 M4.028 62.541 C 2.690 63.124,0.993 64.704,0.776 65.570 C 0.673 65.980,0.456 66.317,0.294 66.317 C 0.106 66.317,0.000 71.400,0.000 80.420 C 0.000 89.440,0.106 94.524,0.294 94.524 C 0.456 94.524,0.674 94.863,0.778 95.278 C 1.030 96.281,3.361 98.302,4.538 98.537 C 5.054 98.640,16.775 98.725,30.585 98.725 C 49.714 98.725,55.780 98.810,56.054 99.085 C 56.460 99.491,56.575 110.611,56.179 111.233 C 56.011 111.497,51.538 111.620,38.704 111.714 C 19.237 111.857,20.045 111.767,14.469 114.398 C 7.658 117.613,1.721 124.948,0.742 131.358 C 0.635 132.059,0.424 132.633,0.274 132.633 C 0.110 132.633,0.000 164.091,0.000 211.253 C 0.000 258.942,0.109 289.872,0.276 289.872 C 0.428 289.872,0.645 290.292,0.757 290.804 C 1.546 294.397,5.640 298.451,9.380 299.344 C 9.836 299.452,10.282 299.661,10.373 299.808 C 10.593 300.163,389.407 300.163,389.627 299.808 C 389.718 299.661,390.164 299.452,390.620 299.344 C 394.376 298.447,398.372 294.451,399.269 290.695 C 399.377 290.239,399.586 289.793,399.733 289.702 C 400.094 289.479,400.087 132.633,399.726 132.633 C 399.576 132.633,399.365 132.059,399.258 131.358 C 398.091 123.716,390.468 115.549,382.146 113.023 C 381.155 112.722,379.940 112.327,379.445 112.144 C 378.838 111.919,372.920 111.774,361.296 111.699 C 348.448 111.616,343.989 111.497,343.821 111.233 C 343.425 110.611,343.540 99.491,343.946 99.085 C 344.220 98.810,350.286 98.725,369.415 98.725 C 383.225 98.725,394.946 98.640,395.462 98.537 C 396.639 98.302,398.970 96.281,399.222 95.278 C 399.326 94.863,399.544 94.524,399.706 94.524 C 399.894 94.524,400.000 89.440,400.000 80.420 C 400.000 71.400,399.894 66.317,399.706 66.317 C 399.544 66.317,399.326 65.976,399.222 65.561 C 398.976 64.581,396.874 62.789,395.512 62.397 C 394.800 62.192,372.711 62.120,328.582 62.178 L 262.716 62.266 262.523 67.367 C 262.416 70.173,262.232 72.839,262.113 73.293 L 261.896 74.117 324.571 74.193 L 387.247 74.269 387.247 80.420 L 387.247 86.572 327.560 86.647 L 267.873 86.723 266.195 85.458 C 265.272 84.762,263.711 83.545,262.726 82.753 C 260.633 81.069,260.534 81.072,259.961 82.832 C 259.484 84.295,257.857 88.348,257.444 89.101 C 257.302 89.360,256.845 90.272,256.430 91.128 L 255.674 92.683 259.123 95.456 L 262.572 98.229 262.494 111.605 L 262.416 124.981 200.000 124.981 L 137.584 124.981 137.506 111.591 L 137.428 98.201 139.891 96.287 C 141.245 95.235,142.801 93.968,143.349 93.473 L 144.345 92.573 143.351 90.623 C 142.172 88.309,140.636 84.701,140.034 82.832 C 139.445 81.003,139.519 80.983,135.634 84.022 L 132.183 86.721 72.468 86.646 L 12.753 86.572 12.753 80.420 L 12.753 74.269 75.429 74.193 L 138.104 74.117 137.887 73.293 C 137.768 72.839,137.584 70.173,137.477 67.367 L 137.284 62.266 71.118 62.202 C 16.335 62.149,4.792 62.208,4.028 62.541 M124.949 99.199 C 125.221 99.908,125.160 110.517,124.882 110.956 C 124.634 111.347,69.620 111.551,68.994 111.163 C 68.681 110.970,68.607 99.235,68.917 98.925 C 69.409 98.433,124.759 98.704,124.949 99.199 M331.133 105.026 L 331.133 111.178 303.244 111.254 C 281.132 111.315,275.307 111.253,275.117 110.954 C 274.839 110.516,274.780 99.906,275.051 99.198 C 275.217 98.767,277.891 98.729,303.183 98.798 L 331.133 98.875 331.133 105.026 M124.949 124.106 C 125.190 124.733,125.113 280.402,124.869 284.471 L 124.681 287.622 69.017 287.693 C 34.262 287.737,13.184 287.657,12.903 287.479 C 12.231 287.053,12.218 135.010,12.890 132.933 C 14.279 128.645,18.209 125.272,23.241 124.050 C 25.835 123.420,124.707 123.474,124.949 124.106 M376.354 123.965 C 380.905 124.920,384.595 127.646,386.437 131.413 L 387.547 133.683 387.547 210.439 C 387.547 278.339,387.495 287.227,387.097 287.479 C 386.816 287.657,365.740 287.737,330.983 287.693 L 275.319 287.622 275.131 284.471 C 274.887 280.402,274.810 124.733,275.051 124.106 C 275.282 123.504,373.508 123.367,376.354 123.965 M34.209 137.739 C 30.293 138.009,27.442 139.943,25.878 143.390 L 25.109 145.086 25.170 156.287 C 25.243 169.536,25.259 169.622,28.168 172.299 C 31.014 174.919,31.158 174.944,43.765 174.944 C 57.462 174.944,59.095 174.447,61.457 169.564 L 62.266 167.892 62.357 156.789 C 62.473 142.746,61.917 140.878,56.921 138.529 C 55.313 137.773,40.968 137.274,34.209 137.739 M89.722 137.731 C 80.723 137.905,80.556 137.941,78.058 140.278 C 75.222 142.931,75.182 143.136,75.080 155.694 C 74.970 169.066,75.312 170.558,79.075 173.147 C 81.642 174.913,81.891 174.944,93.680 174.944 C 107.476 174.944,108.869 174.531,111.328 169.712 L 112.378 167.654 112.471 157.033 C 112.582 144.302,112.441 143.465,109.698 140.485 C 107.090 137.651,105.457 137.426,89.722 137.731 M262.508 206.752 C 262.559 244.794,262.510 278.518,262.400 281.695 L 262.200 287.472 254.590 287.472 L 246.979 287.472 246.886 253.788 C 246.801 222.842,246.751 219.985,246.277 218.630 C 244.774 214.337,241.222 211.012,236.909 209.860 C 234.067 209.101,164.732 209.281,162.487 210.054 C 157.767 211.678,154.758 214.940,153.501 219.793 C 153.098 221.352,153.038 225.805,153.038 254.499 L 153.038 287.416 150.119 287.635 C 146.877 287.878,138.126 287.664,137.796 287.333 C 137.558 287.096,137.329 138.442,137.565 137.827 C 137.689 137.503,148.835 137.446,200.066 137.509 L 262.416 137.584 262.508 206.752 M296.024 137.651 C 291.874 138.333,289.112 140.724,287.949 144.639 C 287.242 147.018,287.246 165.672,287.953 168.054 C 288.864 171.121,291.065 173.417,294.111 174.478 C 296.008 175.138,316.485 175.162,318.345 174.506 C 321.298 173.464,323.501 171.188,324.501 168.147 C 325.399 165.418,325.089 145.357,324.116 143.205 C 323.200 141.177,320.691 138.846,318.758 138.228 C 317.441 137.807,298.068 137.315,296.024 137.651 M345.346 137.752 C 342.453 138.221,339.101 141.094,338.110 143.952 C 337.647 145.286,337.584 146.759,337.584 156.293 C 337.584 168.972,337.657 169.380,340.402 172.126 C 343.149 174.873,343.551 174.944,356.275 174.943 C 368.398 174.943,368.729 174.897,371.345 172.813 C 374.584 170.235,374.759 169.402,374.848 156.189 L 374.922 145.086 374.137 143.390 C 373.129 141.212,371.280 139.374,369.138 138.422 L 367.442 137.668 356.910 137.626 C 351.118 137.603,345.914 137.660,345.346 137.752 M49.962 156.339 L 49.962 162.491 43.811 162.491 L 37.659 162.491 37.578 156.648 C 37.533 153.435,37.563 150.630,37.646 150.415 C 37.763 150.109,39.105 150.043,43.879 150.106 L 49.962 150.188 49.962 156.339 M99.856 156.264 L 99.775 162.491 93.862 162.572 C 86.533 162.673,87.073 163.373,87.488 154.314 L 87.684 150.038 93.811 150.038 L 99.937 150.038 99.856 156.264 M159.514 150.578 C 157.536 151.244,155.089 153.520,154.027 155.682 L 153.188 157.389 153.100 172.635 C 153.002 189.700,153.059 190.320,154.986 192.944 C 157.687 196.625,158.665 196.849,171.987 196.849 L 183.059 196.849 184.928 195.988 C 187.219 194.931,188.772 193.353,189.790 191.047 L 190.563 189.296 190.480 173.193 L 190.398 157.089 189.663 155.597 C 188.727 153.695,186.911 151.879,184.996 150.931 L 183.496 150.188 172.243 150.134 C 162.470 150.088,160.796 150.146,159.514 150.578 M216.056 150.538 C 214.116 151.217,212.309 152.554,211.249 154.094 C 209.425 156.746,209.452 156.444,209.452 173.623 L 209.452 189.330 210.218 191.064 C 211.228 193.354,212.786 194.933,215.072 195.988 L 216.941 196.849 228.013 196.849 C 241.315 196.849,242.365 196.609,244.964 192.979 C 246.820 190.386,246.812 190.472,246.812 173.143 L 246.812 157.389 245.982 155.701 C 244.897 153.493,242.743 151.499,240.559 150.682 C 238.262 149.822,218.434 149.706,216.056 150.538 M312.512 153.713 C 312.756 158.093,312.679 161.390,312.315 162.122 C 312.073 162.608,311.543 162.646,306.138 162.572 L 300.225 162.491 300.144 156.264 L 300.063 150.038 306.184 150.038 L 312.306 150.038 312.512 153.713 M362.341 156.339 L 362.341 162.491 356.189 162.491 L 350.038 162.491 349.956 156.648 C 349.911 153.435,349.941 150.630,350.024 150.415 C 350.141 150.109,351.483 150.043,356.257 150.106 L 362.341 150.188 362.341 156.339 M178.095 175.094 L 178.095 187.397 171.868 187.478 L 165.641 187.559 165.641 175.094 L 165.641 162.628 171.868 162.710 L 178.095 162.791 178.095 175.094 M234.359 173.411 C 234.359 182.956,234.305 184.203,233.884 184.364 C 232.945 184.724,222.496 184.566,222.116 184.186 C 221.724 183.795,221.570 163.226,221.955 162.841 C 222.066 162.731,224.901 162.641,228.257 162.641 L 234.359 162.641 234.359 173.411 M31.958 187.967 C 29.060 188.883,26.518 191.240,25.685 193.782 C 25.068 195.665,24.940 216.772,25.535 218.455 C 26.422 220.959,28.030 222.737,30.608 224.060 L 32.258 224.906 43.166 224.995 C 57.638 225.114,59.893 224.321,61.960 218.388 C 62.617 216.500,62.617 196.103,61.960 194.215 C 60.941 191.291,58.641 189.027,55.685 188.041 C 53.759 187.398,33.953 187.336,31.958 187.967 M81.219 188.281 C 78.597 189.359,77.204 190.676,75.964 193.248 L 75.169 194.899 75.169 206.302 L 75.169 217.704 75.945 219.355 C 76.933 221.455,78.620 223.142,80.720 224.130 L 82.371 224.906 93.623 224.906 C 106.693 224.906,107.040 224.844,109.673 222.029 C 112.414 219.098,112.378 219.310,112.378 206.302 L 112.378 194.899 111.549 193.211 C 110.465 191.003,108.309 189.008,106.125 188.191 C 103.324 187.143,83.816 187.214,81.219 188.281 M294.524 187.960 C 291.650 188.885,289.198 191.113,288.197 193.707 C 287.248 196.168,287.322 217.061,288.288 219.132 C 290.749 224.414,292.292 224.906,306.377 224.906 L 317.629 224.906 319.280 224.130 C 321.380 223.142,323.067 221.455,324.055 219.355 L 324.831 217.704 324.831 206.302 L 324.831 194.899 324.055 193.248 C 323.067 191.149,321.380 189.461,319.280 188.473 L 317.629 187.697 306.677 187.635 C 298.417 187.588,295.429 187.668,294.524 187.960 M344.336 188.048 C 341.472 188.926,339.041 191.296,338.011 194.216 C 337.373 196.023,337.398 216.545,338.040 218.388 C 339.069 221.342,341.380 223.599,344.381 224.579 C 346.942 225.417,367.179 225.167,369.108 224.274 C 371.654 223.096,373.645 220.895,374.489 218.325 C 375.102 216.459,374.962 195.709,374.323 193.787 C 373.451 191.161,370.959 188.894,367.936 187.977 C 365.836 187.339,346.458 187.398,344.336 188.048 M49.962 206.302 L 49.962 212.303 43.736 212.384 L 37.509 212.465 37.509 206.302 L 37.509 200.138 43.736 200.219 L 49.962 200.300 49.962 206.302 M99.925 206.302 L 99.925 212.453 93.806 212.453 C 87.708 212.453,87.686 212.451,87.525 211.778 C 87.290 210.797,87.263 201.838,87.493 200.925 L 87.687 200.150 93.806 200.150 L 99.925 200.150 99.925 206.302 M312.505 200.648 C 312.731 201.237,312.702 211.442,312.472 212.041 C 312.345 212.372,311.110 212.453,306.194 212.453 L 300.075 212.453 300.075 206.302 L 300.075 200.150 306.194 200.150 C 311.617 200.150,312.336 200.207,312.505 200.648 M362.491 206.308 L 362.491 212.465 356.264 212.384 L 350.038 212.303 349.956 206.611 C 349.911 203.480,349.940 200.746,350.021 200.534 C 350.134 200.239,351.599 200.150,356.330 200.150 L 362.491 200.150 362.491 206.308 M234.209 254.764 L 234.209 287.622 200.000 287.622 L 165.791 287.622 165.714 255.064 C 165.672 237.157,165.701 222.336,165.780 222.129 C 165.894 221.830,172.910 221.768,200.066 221.829 L 234.209 221.905 234.209 254.764 M31.369 238.158 C 29.004 239.010,26.664 241.287,25.810 243.569 C 25.258 245.047,25.210 245.990,25.164 256.341 L 25.114 267.517 25.881 269.213 C 26.861 271.381,28.712 273.226,30.857 274.175 L 32.548 274.923 43.552 274.929 C 56.552 274.937,56.676 274.916,59.432 272.201 C 62.366 269.311,62.416 269.045,62.416 256.264 C 62.416 243.637,62.341 243.221,59.598 240.477 C 56.837 237.717,56.472 237.653,43.575 237.694 C 34.855 237.722,32.310 237.819,31.369 238.158 M81.549 238.114 C 78.706 239.158,76.503 241.449,75.515 244.390 C 74.694 246.834,74.780 266.406,75.621 268.655 C 76.631 271.354,78.990 273.658,81.631 274.525 C 83.243 275.053,104.524 275.028,105.926 274.495 C 111.770 272.277,112.528 270.203,112.528 256.423 C 112.528 242.532,111.659 240.132,105.892 238.097 C 104.137 237.478,83.241 237.492,81.549 238.114 M294.035 238.102 C 288.328 240.202,287.472 242.571,287.472 256.264 C 287.472 270.223,288.214 272.271,294.074 274.495 C 295.756 275.134,316.772 275.052,318.737 274.400 C 320.697 273.749,323.204 271.418,324.116 269.398 C 325.089 267.246,325.399 247.185,324.501 244.456 C 323.501 241.415,321.298 239.139,318.345 238.097 C 316.616 237.487,295.695 237.491,294.035 238.102 M343.436 238.409 C 338.213 240.542,337.584 242.452,337.584 256.174 C 337.584 269.033,337.615 269.202,340.427 272.045 C 343.299 274.947,343.335 274.953,356.528 274.937 L 367.568 274.923 369.200 274.177 C 371.299 273.215,373.149 271.353,374.129 269.213 L 374.906 267.517 374.847 256.342 C 374.770 241.934,374.181 240.251,368.482 238.159 C 365.970 237.237,345.814 237.438,343.436 238.409 M197.749 244.940 C 194.094 246.931,193.848 247.673,193.848 256.736 C 193.848 262.695,193.934 264.201,194.327 265.155 C 196.459 270.327,203.491 270.156,205.787 264.877 C 206.584 263.043,206.273 249.723,205.391 247.954 C 204.025 245.213,200.094 243.663,197.749 244.940 M49.962 256.264 L 49.962 262.416 43.811 262.416 L 37.659 262.416 37.578 256.573 C 37.533 253.360,37.563 250.555,37.646 250.340 C 37.763 250.034,39.105 249.968,43.879 250.031 L 49.962 250.113 49.962 256.264 M99.856 256.339 L 99.937 262.566 93.780 262.566 C 88.116 262.566,87.622 262.524,87.620 262.041 C 87.619 261.752,87.540 259.199,87.444 256.368 C 87.205 249.329,86.595 249.931,93.862 250.031 L 99.775 250.113 99.856 256.339 M312.368 250.543 C 312.726 251.213,312.755 253.351,312.481 258.740 L 312.285 262.566 306.180 262.566 L 300.075 262.566 300.075 256.464 C 300.075 253.108,300.165 250.273,300.275 250.163 C 300.836 249.601,312.052 249.954,312.368 250.543 M362.341 256.264 L 362.341 262.416 356.189 262.416 L 350.038 262.416 349.956 256.573 C 349.911 253.360,349.941 250.555,350.024 250.340 C 350.141 250.034,351.483 249.968,356.257 250.031 L 362.341 250.113 362.341 256.264 " stroke="none" fill="#2e4454" fill-rule="evenodd"></path><path id="path4" d="M196.849 0.293 C 196.219 0.655,194.261 1.501,190.248 3.145 C 188.350 3.923,186.392 4.739,185.896 4.958 C 185.401 5.177,184.456 5.579,183.796 5.850 C 183.136 6.120,182.326 6.454,181.995 6.591 C 181.665 6.728,180.855 7.063,180.195 7.336 C 179.535 7.608,178.760 7.960,178.474 8.117 C 178.187 8.274,177.819 8.402,177.657 8.402 C 177.494 8.402,176.648 8.722,175.777 9.112 C 174.906 9.503,173.586 10.061,172.843 10.353 C 172.101 10.644,170.780 11.203,169.909 11.593 C 169.038 11.984,168.205 12.303,168.058 12.303 C 167.911 12.303,167.408 12.497,166.941 12.735 C 166.474 12.972,165.551 13.387,164.891 13.655 C 162.927 14.455,162.219 14.759,161.669 15.039 C 161.383 15.185,160.998 15.304,160.815 15.304 C 160.631 15.304,159.988 15.521,159.385 15.786 C 158.783 16.052,157.884 16.446,157.389 16.662 C 152.326 18.876,151.395 19.533,150.307 21.665 C 149.627 22.998,149.413 67.968,150.069 71.568 C 150.250 72.558,150.510 73.976,150.646 74.719 C 150.910 76.151,151.630 78.969,151.988 79.970 C 152.586 81.644,155.350 87.365,155.681 87.615 C 155.795 87.701,156.151 88.245,156.472 88.822 C 156.793 89.400,157.198 90.036,157.373 90.235 C 157.547 90.435,158.162 91.242,158.740 92.029 C 160.614 94.583,167.537 101.266,168.752 101.695 C 168.939 101.761,169.160 101.898,169.242 101.998 C 170.066 103.002,179.394 108.027,180.434 108.027 C 180.649 108.027,180.953 108.143,181.110 108.286 C 181.267 108.428,181.935 108.686,182.596 108.859 C 183.256 109.032,184.606 109.405,185.596 109.688 C 192.749 111.734,204.002 112.214,210.053 110.732 C 211.256 110.437,213.750 109.869,214.854 109.639 C 215.266 109.553,215.874 109.367,216.204 109.226 C 216.534 109.085,217.676 108.681,218.742 108.328 C 222.151 107.197,229.797 103.169,230.758 101.998 C 230.840 101.898,231.061 101.761,231.248 101.695 C 232.463 101.266,239.386 94.583,241.260 92.029 C 241.838 91.242,242.446 90.429,242.611 90.223 C 243.167 89.526,243.677 88.675,243.855 88.147 C 243.952 87.858,244.130 87.622,244.251 87.622 C 244.538 87.622,247.579 81.486,247.885 80.290 C 248.015 79.784,248.345 78.627,248.620 77.719 C 249.124 76.058,249.344 74.999,249.931 71.418 C 250.583 67.442,250.364 22.981,249.686 21.653 C 248.984 20.275,247.633 18.922,246.304 18.262 C 244.381 17.309,241.841 16.204,241.572 16.204 C 241.296 16.204,239.700 15.567,234.809 13.503 C 233.983 13.155,233.038 12.757,232.708 12.618 C 232.378 12.479,231.328 12.014,230.374 11.584 C 229.421 11.154,228.543 10.803,228.424 10.803 C 228.218 10.804,223.053 8.718,219.355 7.141 C 218.942 6.965,218.335 6.713,218.005 6.581 C 217.674 6.448,216.483 5.926,215.358 5.420 C 214.232 4.915,213.184 4.501,213.028 4.501 C 212.872 4.501,212.511 4.375,212.224 4.220 C 211.237 3.689,209.660 3.001,209.427 3.001 C 209.299 3.001,208.273 2.587,207.148 2.081 C 206.022 1.576,204.764 1.020,204.351 0.846 C 203.938 0.672,203.366 0.411,203.080 0.265 C 202.439 -0.061,201.650 -0.080,201.650 0.230 C 201.650 0.356,202.359 0.707,203.226 1.011 C 204.092 1.314,205.655 1.954,206.698 2.432 C 207.741 2.910,208.699 3.301,208.827 3.301 C 209.060 3.301,210.637 3.989,211.624 4.520 C 211.910 4.675,212.278 4.801,212.441 4.801 C 212.604 4.801,213.449 5.125,214.320 5.522 C 215.191 5.918,217.794 7.008,220.105 7.944 C 222.416 8.880,225.019 9.973,225.890 10.374 C 226.761 10.775,227.606 11.103,227.769 11.103 C 227.932 11.103,228.300 11.231,228.586 11.388 C 228.873 11.545,229.614 11.883,230.233 12.139 C 231.505 12.664,233.315 13.420,234.209 13.798 C 234.539 13.938,236.699 14.815,239.010 15.745 C 251.159 20.640,249.926 17.270,249.939 45.611 C 249.953 75.058,249.646 77.166,243.848 87.472 C 238.776 96.486,228.130 104.781,216.954 108.428 C 214.869 109.108,213.448 109.463,208.702 110.489 C 206.245 111.020,193.755 111.020,191.298 110.489 C 186.552 109.463,185.131 109.108,183.046 108.428 C 180.682 107.656,177.105 106.260,176.594 105.909 C 176.429 105.795,175.349 105.199,174.194 104.583 C 167.334 100.927,159.693 93.651,156.080 87.336 C 152.895 81.769,151.703 78.321,150.628 71.568 C 149.781 66.249,149.759 24.326,150.602 22.248 C 151.108 21.000,152.844 18.905,153.372 18.905 C 153.510 18.905,154.335 18.577,155.206 18.176 C 156.077 17.775,158.680 16.681,160.990 15.745 C 163.301 14.809,165.664 13.845,166.242 13.603 C 166.819 13.361,167.562 13.051,167.892 12.914 C 168.222 12.776,169.032 12.439,169.692 12.163 C 170.353 11.888,171.163 11.550,171.493 11.413 C 171.823 11.275,173.983 10.392,176.294 9.451 C 178.605 8.509,181.208 7.415,182.079 7.020 C 182.950 6.625,183.795 6.302,183.958 6.302 C 184.121 6.302,184.489 6.173,184.775 6.016 C 185.062 5.859,185.769 5.536,186.347 5.298 C 186.924 5.060,189.712 3.906,192.542 2.733 C 195.372 1.560,197.836 0.600,198.018 0.600 C 198.200 0.600,198.350 0.465,198.350 0.300 C 198.350 -0.061,197.474 -0.065,196.849 0.293 M188.147 17.554 C 187.734 17.790,187.532 17.983,187.697 17.983 C 187.862 17.983,188.335 17.790,188.747 17.554 C 189.160 17.319,189.362 17.126,189.197 17.126 C 189.032 17.126,188.560 17.319,188.147 17.554 M162.441 30.608 C 162.441 31.845,162.494 32.352,162.559 31.733 C 162.624 31.114,162.624 30.101,162.559 29.482 C 162.494 28.863,162.441 29.370,162.441 30.608 M237.455 30.308 C 237.455 31.380,237.510 31.819,237.576 31.283 C 237.643 30.746,237.643 29.869,237.576 29.332 C 237.510 28.796,237.455 29.235,237.455 30.308 M3.810 62.097 C 2.505 62.705,0.600 64.444,0.600 65.025 C 0.600 65.240,0.465 65.416,0.300 65.416 C 0.135 65.416,0.000 65.619,0.000 65.866 C 0.000 66.603,0.573 66.377,0.778 65.561 C 1.024 64.581,3.126 62.789,4.488 62.397 C 5.200 62.192,27.289 62.120,71.418 62.178 L 137.284 62.266 137.466 67.367 C 137.566 70.173,137.798 72.873,137.982 73.368 C 138.275 74.158,138.300 74.048,138.186 72.468 C 138.114 71.478,137.967 68.777,137.860 66.467 C 137.752 64.156,137.528 62.097,137.362 61.890 C 136.809 61.202,5.291 61.405,3.810 62.097 M262.635 61.890 C 262.468 62.097,262.246 64.089,262.142 66.317 C 262.037 68.545,261.892 71.245,261.819 72.318 C 261.704 73.998,261.732 74.144,262.019 73.368 C 262.202 72.873,262.434 70.173,262.534 67.367 L 262.716 62.266 328.582 62.178 C 372.711 62.120,394.800 62.192,395.512 62.397 C 396.874 62.789,398.976 64.581,399.222 65.561 C 399.427 66.377,400.000 66.603,400.000 65.866 C 400.000 65.619,399.865 65.416,399.700 65.416 C 399.535 65.416,399.400 65.239,399.400 65.023 C 399.400 64.366,397.603 62.745,396.172 62.113 C 394.482 61.365,263.238 61.147,262.635 61.890 M139.825 82.146 C 140.466 84.279,142.008 87.987,143.351 90.623 L 144.345 92.573 143.349 93.473 C 142.801 93.968,141.245 95.235,139.891 96.287 L 137.428 98.201 137.506 111.591 L 137.584 124.981 200.000 124.981 L 262.416 124.981 262.494 111.605 L 262.572 98.229 259.123 95.456 L 255.674 92.683 256.430 91.128 C 256.845 90.272,257.310 89.346,257.463 89.070 C 258.541 87.121,260.605 81.318,260.219 81.323 C 259.968 81.326,259.265 82.798,259.265 83.320 C 259.265 83.530,259.074 84.144,258.840 84.686 C 258.606 85.228,258.184 86.212,257.902 86.872 C 257.620 87.532,256.934 89.031,256.377 90.204 C 254.981 93.141,254.684 92.588,259.813 96.585 L 262.266 98.497 262.266 111.664 L 262.266 124.831 200.000 124.831 L 137.734 124.831 137.734 111.664 L 137.734 98.496 138.860 97.651 C 139.479 97.186,140.053 96.725,140.135 96.627 C 140.218 96.528,141.264 95.726,142.461 94.844 C 144.962 93.001,144.977 92.938,143.623 90.155 C 143.066 89.009,142.379 87.532,142.098 86.872 C 141.816 86.212,141.394 85.228,141.160 84.686 C 140.926 84.144,140.735 83.530,140.735 83.320 C 140.735 82.798,140.032 81.326,139.781 81.323 C 139.669 81.321,139.688 81.692,139.825 82.146 M0.000 94.974 C 0.000 95.221,0.135 95.424,0.300 95.424 C 0.465 95.424,0.600 95.601,0.600 95.817 C 0.600 96.033,1.039 96.661,1.575 97.212 C 3.589 99.280,1.943 99.159,30.308 99.325 L 55.964 99.475 55.964 105.176 L 55.964 110.878 39.460 111.066 C 21.040 111.277,20.463 111.329,15.904 113.204 C 11.847 114.872,4.501 120.546,4.501 122.011 C 4.501 122.215,4.400 122.426,4.276 122.481 C 3.608 122.778,1.639 126.512,0.900 128.882 C 0.695 129.542,0.408 130.317,0.263 130.604 C -0.082 131.287,-0.075 132.633,0.274 132.633 C 0.424 132.633,0.635 132.059,0.742 131.358 C 1.721 124.948,7.658 117.613,14.469 114.398 C 20.045 111.767,19.237 111.857,38.704 111.714 C 51.538 111.620,56.011 111.497,56.179 111.233 C 56.575 110.611,56.460 99.491,56.054 99.085 C 55.780 98.810,49.714 98.725,30.585 98.725 C 16.775 98.725,5.054 98.640,4.538 98.537 C 3.361 98.302,1.030 96.281,0.778 95.278 C 0.573 94.462,0.000 94.238,0.000 94.974 M399.222 95.278 C 398.970 96.281,396.639 98.302,395.462 98.537 C 394.946 98.640,383.225 98.725,369.415 98.725 C 350.286 98.725,344.220 98.810,343.946 99.085 C 343.540 99.491,343.425 110.611,343.821 111.233 C 343.989 111.497,348.448 111.616,361.296 111.699 C 372.920 111.774,378.838 111.919,379.445 112.144 C 379.940 112.327,381.155 112.722,382.146 113.023 C 390.468 115.549,398.091 123.716,399.258 131.358 C 399.365 132.059,399.576 132.633,399.726 132.633 C 400.099 132.633,400.075 130.915,399.700 130.683 C 399.535 130.581,399.400 130.240,399.400 129.925 C 399.400 129.610,399.209 128.909,398.975 128.367 C 398.741 127.825,398.314 126.842,398.027 126.182 C 397.443 124.841,396.070 122.634,395.724 122.481 C 395.600 122.426,395.499 122.216,395.499 122.015 C 395.499 120.835,389.398 115.761,385.896 114.029 C 384.824 113.498,383.730 112.954,383.465 112.821 C 383.003 112.588,380.296 111.900,378.095 111.456 C 377.517 111.340,369.617 111.162,360.540 111.061 L 344.036 110.878 344.036 105.176 L 344.036 99.475 369.692 99.325 C 398.057 99.159,396.411 99.280,398.425 97.212 C 398.961 96.661,399.400 96.033,399.400 95.817 C 399.400 95.601,399.535 95.424,399.700 95.424 C 399.865 95.424,400.000 95.221,400.000 94.974 C 400.000 94.238,399.427 94.462,399.222 95.278 M68.917 98.925 C 68.607 99.235,68.681 110.970,68.994 111.163 C 69.620 111.551,124.634 111.347,124.882 110.956 C 125.160 110.517,125.221 99.908,124.949 99.199 C 124.759 98.704,69.409 98.433,68.917 98.925 M275.051 99.198 C 274.780 99.906,274.839 110.516,275.117 110.954 C 275.307 111.253,281.132 111.315,303.244 111.254 L 331.133 111.178 331.133 105.026 L 331.133 98.875 303.183 98.798 C 277.891 98.729,275.217 98.767,275.051 99.198 M124.595 101.950 C 124.584 103.312,124.564 104.629,124.553 104.876 C 124.528 105.400,115.110 105.563,114.790 105.045 C 114.691 104.884,113.557 104.834,112.147 104.928 C 107.980 105.206,93.535 105.359,93.040 105.130 C 92.352 104.811,87.639 104.755,87.449 105.063 C 87.217 105.439,71.201 105.403,70.968 105.026 C 70.866 104.861,70.385 104.726,69.900 104.726 L 69.017 104.726 69.017 102.041 L 69.017 99.355 96.817 99.415 L 124.617 99.475 124.595 101.950 M330.983 101.876 C 330.983 105.505,331.476 105.326,321.481 105.326 C 316.989 105.326,313.241 105.208,313.152 105.064 C 313.063 104.920,311.806 104.868,310.358 104.947 C 306.747 105.146,291.814 105.141,288.599 104.941 C 287.136 104.849,285.901 104.898,285.806 105.051 C 285.570 105.433,275.855 105.407,275.618 105.024 C 275.471 104.787,275.335 100.508,275.445 99.567 C 275.458 99.453,287.959 99.360,303.226 99.360 L 330.983 99.360 330.983 101.876 M124.939 126.932 C 124.939 128.500,124.990 129.141,125.052 128.357 C 125.114 127.573,125.114 126.290,125.052 125.506 C 124.990 124.722,124.939 125.364,124.939 126.932 M274.977 126.932 C 274.977 128.500,275.027 129.141,275.089 128.357 C 275.151 127.573,275.151 126.290,275.089 125.506 C 275.027 124.722,274.977 125.364,274.977 126.932 M383.783 127.907 C 385.027 129.232,385.296 129.470,385.296 129.245 C 385.296 129.197,384.655 128.555,383.871 127.819 L 382.446 126.482 383.783 127.907 M12.393 136.834 C 12.393 137.742,12.449 138.113,12.518 137.659 C 12.587 137.206,12.587 136.463,12.518 136.009 C 12.449 135.555,12.393 135.926,12.393 136.834 M387.483 136.684 C 387.485 137.509,387.543 137.811,387.612 137.355 C 387.681 136.899,387.679 136.224,387.608 135.855 C 387.537 135.486,387.480 135.859,387.483 136.684 M37.646 150.415 C 37.563 150.630,37.533 153.435,37.578 156.648 L 37.659 162.491 43.811 162.491 L 49.962 162.491 49.962 156.339 L 49.962 150.188 43.879 150.106 C 39.105 150.043,37.763 150.109,37.646 150.415 M87.488 154.314 C 87.073 163.373,86.533 162.673,93.862 162.572 L 99.775 162.491 99.856 156.264 L 99.937 150.038 93.811 150.038 L 87.684 150.038 87.488 154.314 M300.144 156.264 L 300.225 162.491 306.138 162.572 C 311.543 162.646,312.073 162.608,312.315 162.122 C 312.679 161.390,312.756 158.093,312.512 153.713 L 312.306 150.038 306.184 150.038 L 300.063 150.038 300.144 156.264 M350.024 150.415 C 349.941 150.630,349.911 153.435,349.956 156.648 L 350.038 162.491 356.189 162.491 L 362.341 162.491 362.341 156.339 L 362.341 150.188 356.257 150.106 C 351.483 150.043,350.141 150.109,350.024 150.415 M165.641 175.094 L 165.641 187.559 171.868 187.478 L 178.095 187.397 178.095 175.094 L 178.095 162.791 171.868 162.710 L 165.641 162.628 165.641 175.094 M221.955 162.841 C 221.570 163.226,221.724 183.795,222.116 184.186 C 222.496 184.566,232.945 184.724,233.884 184.364 C 234.305 184.203,234.359 182.956,234.359 173.411 L 234.359 162.641 228.257 162.641 C 224.901 162.641,222.066 162.731,221.955 162.841 M37.509 206.302 L 37.509 212.465 43.736 212.384 L 49.962 212.303 49.962 206.302 L 49.962 200.300 43.736 200.219 L 37.509 200.138 37.509 206.302 M87.493 200.925 C 87.263 201.838,87.290 210.797,87.525 211.778 C 87.686 212.451,87.708 212.453,93.806 212.453 L 99.925 212.453 99.925 206.302 L 99.925 200.150 93.806 200.150 L 87.687 200.150 87.493 200.925 M300.075 206.302 L 300.075 212.453 306.194 212.453 C 311.110 212.453,312.345 212.372,312.472 212.041 C 312.702 211.442,312.731 201.237,312.505 200.648 C 312.336 200.207,311.617 200.150,306.194 200.150 L 300.075 200.150 300.075 206.302 M350.021 200.534 C 349.940 200.746,349.911 203.480,349.956 206.611 L 350.038 212.303 356.264 212.384 L 362.491 212.465 362.491 206.308 L 362.491 200.150 356.330 200.150 C 351.599 200.150,350.134 200.239,350.021 200.534 M165.780 222.129 C 165.701 222.336,165.672 237.157,165.714 255.064 L 165.791 287.622 200.000 287.622 L 234.209 287.622 234.209 254.764 L 234.209 221.905 200.066 221.829 C 172.910 221.768,165.894 221.830,165.780 222.129 M233.833 222.310 C 234.369 222.418,234.048 281.469,233.512 281.486 C 233.235 281.495,231.253 281.481,229.107 281.455 C 224.109 281.396,177.086 281.395,171.343 281.455 C 168.950 281.479,166.765 281.493,166.489 281.485 C 165.889 281.468,165.652 222.720,166.250 222.350 C 166.496 222.198,233.080 222.159,233.833 222.310 M197.847 244.291 C 196.804 244.593,194.887 246.297,194.004 247.706 C 193.324 248.792,193.234 264.028,193.899 265.716 C 195.755 270.434,203.649 270.599,206.051 265.970 C 206.767 264.590,206.713 248.852,205.988 247.694 C 204.059 244.612,201.063 243.360,197.847 244.291 M203.365 245.584 C 205.888 247.266,206.152 248.325,206.152 256.759 C 206.152 264.425,206.095 264.806,204.686 266.711 C 202.646 269.469,197.847 269.630,195.453 267.021 C 193.996 265.433,193.848 264.489,193.848 256.736 C 193.848 247.673,194.094 246.931,197.749 244.940 C 199.004 244.257,201.869 244.585,203.365 245.584 M37.646 250.340 C 37.563 250.555,37.533 253.360,37.578 256.573 L 37.659 262.416 43.811 262.416 L 49.962 262.416 49.962 256.264 L 49.962 250.113 43.879 250.031 C 39.105 249.968,37.763 250.034,37.646 250.340 M87.610 250.586 C 87.373 251.027,87.323 252.794,87.444 256.368 C 87.540 259.199,87.619 261.752,87.620 262.041 C 87.622 262.524,88.116 262.566,93.780 262.566 L 99.937 262.566 99.856 256.339 L 99.775 250.113 93.862 250.031 C 88.105 249.952,87.941 249.967,87.610 250.586 M300.275 250.163 C 300.165 250.273,300.075 253.108,300.075 256.464 L 300.075 262.566 306.180 262.566 L 312.285 262.566 312.481 258.740 C 312.968 249.174,313.527 249.962,306.266 249.962 C 303.081 249.962,300.385 250.053,300.275 250.163 M350.024 250.340 C 349.941 250.555,349.911 253.360,349.956 256.573 L 350.038 262.416 356.189 262.416 L 362.341 262.416 362.341 256.264 L 362.341 250.113 356.257 250.031 C 351.483 249.968,350.141 250.034,350.024 250.340 M399.453 290.267 C 399.259 290.732,399.100 291.202,399.100 291.313 C 399.100 293.710,394.003 298.537,390.620 299.344 C 389.526 299.605,389.264 300.075,390.212 300.075 C 390.625 300.075,391.046 299.940,391.148 299.775 C 391.250 299.610,391.534 299.475,391.780 299.475 C 393.631 299.475,399.400 293.738,399.400 291.897 C 399.400 291.675,399.546 291.346,399.725 291.167 C 399.904 290.988,399.996 290.523,399.929 290.132 C 399.808 289.431,399.803 289.432,399.453 290.267 M0.000 290.455 C 0.000 290.775,0.135 291.121,0.300 291.223 C 0.465 291.325,0.600 291.609,0.600 291.855 C 0.600 293.732,6.343 299.475,8.220 299.475 C 8.466 299.475,8.750 299.610,8.852 299.775 C 8.954 299.940,9.375 300.075,9.788 300.075 C 10.736 300.075,10.474 299.605,9.380 299.344 C 5.640 298.451,1.546 294.397,0.757 290.804 C 0.532 289.778,0.000 289.533,0.000 290.455 " stroke="none" fill="#92d3d6" fill-rule="evenodd"></path></g></svg>