<svg id="svg" version="1.1" xmlns="http://www.w3.org/2000/svg" xmlns:xlink="http://www.w3.org/1999/xlink" width="400" height="351.1627906976744" viewBox="0, 0, 400,351.1627906976744"><g id="svgg"><path id="path0" d="M246.356 80.060 C 242.829 80.543,236.692 82.242,233.714 83.560 C 216.117 91.345,204.344 106.187,201.773 123.828 C 200.709 131.133,200.894 138.669,202.269 143.986 C 203.214 147.640,203.746 149.503,204.023 150.132 C 204.193 150.518,204.854 152.019,205.493 153.468 C 209.507 162.576,216.074 170.456,224.151 175.857 C 262.912 201.776,312.750 169.636,305.703 123.266 C 301.598 96.252,274.132 76.256,246.356 80.060 M105.531 80.298 C 105.145 80.378,103.486 80.685,101.844 80.981 C 87.525 83.556,74.419 92.522,66.469 105.180 C 64.979 107.553,61.785 114.398,61.308 116.242 C 61.184 116.725,60.853 117.910,60.574 118.876 C 57.689 128.863,58.410 144.350,62.097 151.599 C 62.276 151.951,62.955 153.424,63.605 154.873 C 75.700 181.791,108.793 193.295,135.171 179.750 C 161.110 166.430,171.346 135.609,158.543 109.374 C 149.843 91.546,131.081 79.948,111.205 80.111 C 108.471 80.133,105.917 80.217,105.531 80.298 M260.573 89.042 C 296.365 94.846,310.089 138.844,283.958 164.011 C 259.039 188.012,217.580 174.747,210.664 140.560 C 206.403 119.495,220.500 95.674,240.217 90.625 C 241.083 90.403,242.186 90.069,242.669 89.883 C 245.963 88.613,255.240 88.177,260.573 89.042 M121.111 90.070 C 156.062 98.133,167.117 142.510,140.021 165.977 C 111.741 190.468,67.691 170.235,67.679 132.748 C 67.670 104.580,93.743 83.755,121.111 90.070 M85.865 114.376 C 77.938 115.393,71.791 122.216,70.411 131.533 C 68.666 143.304,83.187 154.280,94.820 149.983 C 115.725 142.262,107.998 111.536,85.865 114.376 M230.323 114.471 C 223.568 115.707,217.215 122.071,215.974 128.845 C 212.597 147.279,234.949 158.638,247.517 144.874 C 259.356 131.909,247.696 111.290,230.323 114.471 M179.456 179.985 C 170.733 182.975,165.096 188.549,160.298 198.930 C 160.026 199.518,159.643 200.237,159.446 200.527 C 158.726 201.588,153.336 213.460,149.959 221.422 C 148.855 224.025,144.808 234.201,144.233 235.821 C 143.958 236.594,143.009 239.201,142.124 241.615 C 141.239 244.030,139.473 249.245,138.199 253.205 C 136.925 257.164,135.627 261.194,135.315 262.160 C 135.002 263.126,134.541 264.785,134.290 265.847 C 134.038 266.910,133.606 268.648,133.329 269.710 C 129.222 285.446,129.855 293.563,135.707 300.235 C 142.576 308.067,158.568 314.628,177.349 317.317 C 179.377 317.608,182.221 318.029,183.670 318.253 C 187.334 318.819,211.777 318.818,215.277 318.251 C 216.725 318.017,219.333 317.598,221.071 317.322 C 238.811 314.501,250.685 306.728,253.568 296.049 C 254.506 292.574,253.376 280.054,251.911 277.683 C 251.782 277.475,251.476 276.505,251.229 275.527 C 250.769 273.696,249.579 270.074,249.031 268.832 C 248.861 268.446,248.297 267.024,247.778 265.672 C 247.259 264.320,246.620 262.739,246.359 262.160 C 246.097 261.580,245.300 259.763,244.587 258.121 C 242.912 254.265,236.642 241.698,234.249 237.401 C 230.889 231.368,224.974 221.103,223.890 219.423 C 223.306 218.516,222.116 216.627,221.247 215.225 C 216.527 207.610,209.211 197.004,205.092 191.807 C 196.436 180.884,188.076 177.029,179.456 179.985 M189.699 189.692 C 200.121 195.210,231.609 246.589,241.428 274.100 C 248.255 293.228,245.773 300.463,230.553 305.803 C 219.893 309.544,199.642 311.171,185.777 309.402 C 161.642 306.322,144.660 299.581,140.765 291.534 C 138.539 286.938,140.744 274.346,147.181 254.879 C 155.914 228.468,169.587 197.836,174.755 193.102 C 179.800 188.481,185.119 187.267,189.699 189.692 " stroke="none" fill="#070606" fill-rule="evenodd"></path><path id="path1" d="M0.000 175.593 L 0.000 351.185 200.000 351.185 L 400.000 351.185 400.000 175.593 L 400.000 0.000 200.000 0.000 L 0.000 0.000 0.000 175.593 M263.916 80.259 C 305.414 88.268,321.197 139.850,291.318 169.817 C 265.952 195.258,222.942 188.610,206.559 156.716 C 186.288 117.252,220.348 71.850,263.916 80.259 M120.281 80.471 C 161.172 87.409,178.577 136.337,151.355 167.824 C 127.206 195.755,81.191 190.248,64.323 157.407 C 47.262 124.189,68.129 84.535,105.004 80.102 C 111.244 79.352,114.090 79.420,120.281 80.471 M250.044 89.070 C 212.816 93.773,197.175 136.274,222.936 162.728 C 248.208 188.679,292.225 173.428,296.791 137.138 C 300.109 110.763,275.843 85.811,250.044 89.070 M105.707 89.786 C 67.430 95.815,54.519 143.505,84.811 166.969 C 113.327 189.058,154.567 168.850,154.649 132.748 C 154.709 106.867,130.756 85.841,105.707 89.786 M93.654 114.479 C 109.705 118.927,112.562 140.359,98.225 148.762 C 89.218 154.041,77.246 150.671,72.345 141.477 C 64.669 127.074,78.028 110.149,93.654 114.479 M238.293 114.321 C 257.112 119.145,257.435 145.472,238.740 150.653 C 220.138 155.808,207.093 132.036,221.305 118.879 C 225.974 114.556,232.441 112.820,238.293 114.321 M189.464 179.231 C 193.528 180.318,198.092 183.319,201.927 187.424 C 208.591 194.558,223.920 217.513,232.135 232.660 C 232.658 233.626,233.895 235.870,234.882 237.646 C 246.216 258.038,253.486 277.182,254.468 289.224 C 255.830 305.914,238.065 317.715,209.556 319.060 C 201.319 319.449,200.108 319.459,193.299 319.196 C 159.698 317.895,133.925 306.650,130.806 291.930 C 129.230 284.492,131.585 271.615,138.149 251.779 C 140.114 245.840,141.371 242.313,145.232 231.899 C 145.674 230.707,146.376 228.969,146.792 228.035 C 147.208 227.102,148.076 224.996,148.721 223.354 C 156.559 203.401,165.911 186.479,170.378 184.169 C 170.918 183.890,171.933 183.272,172.636 182.796 C 177.729 179.339,184.504 177.904,189.464 179.231 M233.714 259.881 C 233.327 260.050,231.115 261.012,228.797 262.018 C 201.507 273.873,184.164 290.395,183.085 305.567 L 182.870 308.588 189.631 309.042 C 215.670 310.791,236.918 305.935,242.932 296.862 L 244.249 294.874 244.226 290.457 C 244.189 283.723,241.452 274.227,236.168 262.506 C 235.905 261.923,235.526 261.015,235.325 260.486 C 234.934 259.457,234.799 259.406,233.714 259.881 " stroke="none" fill="#f4f3f4" fill-rule="evenodd"></path><path id="path2" d="M109.137 89.104 C 109.768 89.183,110.717 89.181,111.244 89.101 C 111.772 89.021,111.255 88.957,110.097 88.959 C 108.938 88.961,108.506 89.026,109.137 89.104 M290.255 94.469 C 291.009 95.241,291.705 95.874,291.802 95.874 C 291.898 95.874,291.360 95.241,290.606 94.469 C 289.851 93.696,289.155 93.064,289.059 93.064 C 288.962 93.064,289.500 93.696,290.255 94.469 M200.959 128.885 C 200.959 129.561,201.032 129.838,201.120 129.500 C 201.208 129.162,201.208 128.608,201.120 128.270 C 201.032 127.932,200.959 128.209,200.959 128.885 M306.339 129.939 C 306.339 131.001,306.405 131.435,306.485 130.904 C 306.566 130.373,306.566 129.504,306.485 128.973 C 306.405 128.442,306.339 128.876,306.339 129.939 M209.763 132.397 C 209.763 133.459,209.829 133.894,209.909 133.363 C 209.990 132.831,209.990 131.962,209.909 131.431 C 209.829 130.900,209.763 131.335,209.763 132.397 M306.322 135.031 C 306.326 135.803,306.398 136.078,306.482 135.641 C 306.566 135.204,306.563 134.572,306.475 134.236 C 306.387 133.901,306.318 134.258,306.322 135.031 M200.959 135.909 C 200.959 136.585,201.032 136.861,201.120 136.523 C 201.208 136.185,201.208 135.632,201.120 135.294 C 201.032 134.956,200.959 135.233,200.959 135.909 M181.686 188.909 C 174.524 191.541,170.878 196.574,162.582 215.277 C 146.280 252.030,137.127 284.020,140.765 291.534 C 144.291 298.818,159.111 305.331,178.929 308.308 L 182.792 308.888 182.677 306.758 C 182.079 295.614,192.254 282.802,211.414 270.577 C 216.805 267.137,231.018 260.156,234.265 259.353 L 235.167 259.130 230.369 249.758 C 221.050 231.558,210.092 213.641,200.042 200.176 C 192.401 189.937,187.340 186.831,181.686 188.909 M193.245 309.997 C 193.778 310.078,194.569 310.076,195.000 309.993 C 195.432 309.909,194.996 309.843,194.030 309.846 C 193.064 309.848,192.711 309.917,193.245 309.997 M205.004 309.993 C 205.439 310.077,206.150 310.077,206.585 309.993 C 207.019 309.910,206.664 309.841,205.795 309.841 C 204.925 309.841,204.570 309.910,205.004 309.993 " stroke="none" fill="#841c44" fill-rule="evenodd"></path><path id="path3" d="M252.239 79.268 C 252.770 79.349,253.639 79.349,254.170 79.268 C 254.701 79.188,254.267 79.122,253.205 79.122 C 252.142 79.122,251.708 79.188,252.239 79.268 M106.848 79.971 C 107.379 80.051,108.248 80.051,108.780 79.971 C 109.311 79.890,108.876 79.824,107.814 79.824 C 106.752 79.824,106.317 79.890,106.848 79.971 M113.521 79.975 C 114.245 80.051,115.430 80.051,116.155 79.975 C 116.879 79.899,116.286 79.837,114.838 79.837 C 113.389 79.837,112.796 79.899,113.521 79.975 M245.215 79.961 C 245.553 80.049,246.106 80.049,246.444 79.961 C 246.782 79.873,246.506 79.801,245.830 79.801 C 245.154 79.801,244.877 79.873,245.215 79.961 M267.076 81.124 C 267.463 81.290,268.016 81.426,268.306 81.426 C 268.638 81.426,268.573 81.314,268.130 81.124 C 267.744 80.958,267.191 80.822,266.901 80.822 C 266.569 80.822,266.634 80.934,267.076 81.124 M97.629 81.491 C 97.245 81.751,97.387 81.784,98.156 81.612 C 99.448 81.323,99.728 81.122,98.829 81.129 C 98.459 81.132,97.919 81.295,97.629 81.491 M81.914 88.539 C 80.717 89.306,80.330 89.820,81.387 89.239 C 82.193 88.796,83.455 87.820,83.231 87.813 C 83.134 87.811,82.542 88.137,81.914 88.539 M249.258 89.098 C 249.695 89.182,250.327 89.179,250.663 89.091 C 250.998 89.003,250.641 88.935,249.868 88.938 C 249.096 88.942,248.821 89.014,249.258 89.098 M256.629 89.098 C 257.063 89.181,257.774 89.181,258.209 89.098 C 258.644 89.014,258.288 88.946,257.419 88.946 C 256.550 88.946,256.194 89.014,256.629 89.098 M109.306 89.461 C 110.417 89.530,112.234 89.530,113.345 89.461 C 114.456 89.391,113.547 89.334,111.326 89.334 C 109.104 89.334,108.196 89.391,109.306 89.461 M116.330 89.794 C 116.668 89.883,117.221 89.883,117.559 89.794 C 117.897 89.706,117.621 89.634,116.945 89.634 C 116.269 89.634,115.992 89.706,116.330 89.794 M122.739 90.957 C 123.126 91.123,123.679 91.259,123.968 91.259 C 124.300 91.259,124.236 91.147,123.793 90.957 C 123.406 90.791,122.853 90.655,122.564 90.655 C 122.232 90.655,122.297 90.767,122.739 90.957 M215.583 95.435 C 213.762 97.318,211.907 99.412,211.461 100.088 C 210.728 101.199,210.762 101.182,211.809 99.912 C 212.447 99.140,214.386 97.046,216.119 95.259 C 217.851 93.472,219.185 92.011,219.082 92.011 C 218.979 92.011,217.404 93.551,215.583 95.435 M288.323 92.107 C 288.323 92.160,289.548 93.385,291.045 94.829 L 293.766 97.454 291.141 94.732 C 288.703 92.204,288.323 91.850,288.323 92.107 M73.741 95.435 L 70.764 98.507 73.837 95.530 C 76.691 92.765,77.070 92.362,76.814 92.362 C 76.761 92.362,75.379 93.745,73.741 95.435 M148.903 95.347 C 149.558 96.023,150.173 96.576,150.269 96.576 C 150.366 96.576,149.909 96.023,149.254 95.347 C 148.598 94.671,147.983 94.118,147.887 94.118 C 147.790 94.118,148.247 94.671,148.903 95.347 M86.918 96.782 L 85.865 97.688 87.006 96.932 C 87.634 96.517,88.147 96.109,88.147 96.025 C 88.147 95.762,87.999 95.854,86.918 96.782 M227.129 97.810 C 226.018 98.682,225.110 99.472,225.110 99.566 C 225.110 99.659,226.058 99.000,227.217 98.100 C 229.084 96.650,229.542 96.224,229.236 96.225 C 229.188 96.225,228.240 96.939,227.129 97.810 M150.658 97.388 C 150.658 97.449,151.172 97.962,151.800 98.530 L 152.941 99.561 151.910 98.420 C 150.948 97.356,150.658 97.117,150.658 97.388 M279.543 97.371 C 279.543 97.449,280.215 98.046,281.036 98.698 C 281.857 99.350,282.306 99.607,282.033 99.267 C 281.520 98.628,279.543 97.123,279.543 97.371 M293.942 98.091 C 293.942 98.151,294.456 98.665,295.083 99.232 L 296.225 100.263 295.193 99.122 C 294.232 98.058,293.942 97.819,293.942 98.091 M142.054 102.195 C 143.396 103.547,144.573 104.653,144.669 104.653 C 144.766 104.653,143.747 103.547,142.406 102.195 C 141.064 100.843,139.887 99.737,139.791 99.737 C 139.694 99.737,140.713 100.843,142.054 102.195 M153.622 100.906 C 154.162 101.615,154.676 102.195,154.763 102.195 C 155.007 102.195,153.486 100.141,153.037 99.863 C 152.817 99.727,153.081 100.197,153.622 100.906 M222.651 101.668 C 221.798 102.537,221.179 103.248,221.276 103.248 C 221.373 103.248,222.150 102.537,223.003 101.668 C 223.856 100.799,224.475 100.088,224.378 100.088 C 224.281 100.088,223.504 100.799,222.651 101.668 M284.284 101.493 C 285.039 102.265,285.735 102.897,285.832 102.897 C 285.928 102.897,285.390 102.265,284.636 101.493 C 283.881 100.720,283.185 100.088,283.088 100.088 C 282.992 100.088,283.530 100.720,284.284 101.493 M80.421 102.019 C 79.568 102.888,78.949 103.600,79.046 103.600 C 79.143 103.600,79.920 102.888,80.773 102.019 C 81.626 101.150,82.245 100.439,82.148 100.439 C 82.051 100.439,81.274 101.150,80.421 102.019 M287.798 105.619 C 288.728 106.826,289.553 107.814,289.630 107.814 C 289.878 107.814,287.532 104.681,286.805 104.040 C 286.421 103.701,286.867 104.412,287.798 105.619 M218.437 106.760 C 218.025 107.340,217.766 107.814,217.863 107.814 C 217.959 107.814,218.376 107.340,218.788 106.760 C 219.201 106.181,219.460 105.707,219.363 105.707 C 219.266 105.707,218.850 106.181,218.437 106.760 M64.442 107.814 C 63.953 108.780,63.632 109.570,63.728 109.570 C 63.825 109.570,64.304 108.780,64.794 107.814 C 65.283 106.848,65.604 106.058,65.508 106.058 C 65.411 106.058,64.932 106.848,64.442 107.814 M146.795 107.814 C 147.208 108.393,147.625 108.867,147.721 108.867 C 147.818 108.867,147.559 108.393,147.147 107.814 C 146.734 107.234,146.317 106.760,146.221 106.760 C 146.124 106.760,146.383 107.234,146.795 107.814 M158.278 108.336 C 158.599 109.010,158.924 109.499,159.000 109.422 C 159.161 109.262,158.095 107.112,157.854 107.112 C 157.766 107.112,157.956 107.663,158.278 108.336 M75.235 108.428 C 74.326 109.742,74.030 110.272,74.208 110.272 C 74.291 110.272,74.776 109.640,75.288 108.867 C 76.327 107.297,76.281 106.917,75.235 108.428 M205.953 108.900 C 205.644 109.497,205.454 110.049,205.530 110.125 C 205.606 110.201,205.931 109.712,206.253 109.039 C 206.975 107.524,206.725 107.408,205.953 108.900 M62.919 110.814 C 62.331 112.105,62.443 112.381,63.079 111.207 C 63.376 110.659,63.554 110.144,63.473 110.064 C 63.393 109.984,63.144 110.321,62.919 110.814 M292.610 113.246 C 293.226 114.495,293.788 115.459,293.859 115.389 C 294.016 115.232,291.893 110.975,291.658 110.975 C 291.566 110.975,291.994 111.997,292.610 113.246 M204.447 112.219 C 203.858 113.510,203.971 113.786,204.607 112.612 C 204.904 112.063,205.081 111.549,205.001 111.469 C 204.921 111.388,204.671 111.726,204.447 112.219 M149.781 112.730 C 150.080 113.310,150.404 113.784,150.501 113.784 C 150.597 113.784,150.431 113.310,150.132 112.730 C 149.832 112.151,149.508 111.677,149.411 111.677 C 149.315 111.677,149.481 112.151,149.781 112.730 M214.280 113.623 C 213.692 114.915,213.804 115.190,214.440 114.016 C 214.737 113.468,214.915 112.954,214.834 112.874 C 214.754 112.793,214.505 113.131,214.280 113.623 M72.050 113.975 C 71.462 115.266,71.574 115.542,72.210 114.368 C 72.507 113.819,72.685 113.305,72.604 113.225 C 72.524 113.144,72.275 113.482,72.050 113.975 M86.479 114.026 C 86.817 114.114,87.371 114.114,87.709 114.026 C 88.047 113.938,87.770 113.865,87.094 113.865 C 86.418 113.865,86.141 113.938,86.479 114.026 M89.991 114.026 C 90.329 114.114,90.882 114.114,91.220 114.026 C 91.558 113.938,91.282 113.865,90.606 113.865 C 89.930 113.865,89.653 113.938,89.991 114.026 M231.519 114.026 C 231.857 114.114,232.410 114.114,232.748 114.026 C 233.086 113.938,232.809 113.865,232.133 113.865 C 231.457 113.865,231.181 113.938,231.519 114.026 M235.031 114.026 C 235.369 114.114,235.922 114.114,236.260 114.026 C 236.598 113.938,236.321 113.865,235.645 113.865 C 234.969 113.865,234.693 113.938,235.031 114.026 M61.145 115.228 C 60.929 115.848,60.813 116.418,60.888 116.493 C 60.964 116.568,61.202 116.122,61.418 115.501 C 61.635 114.880,61.750 114.311,61.675 114.236 C 61.600 114.161,61.362 114.607,61.145 115.228 M150.683 114.311 C 150.683 114.504,150.909 115.057,151.185 115.540 C 151.461 116.023,151.687 116.260,151.687 116.067 C 151.687 115.874,151.461 115.320,151.185 114.838 C 150.909 114.355,150.683 114.118,150.683 114.311 M294.495 117.647 C 294.624 118.130,294.876 118.762,295.055 119.052 C 295.281 119.418,295.309 119.311,295.145 118.701 C 295.016 118.218,294.764 117.586,294.585 117.296 C 294.359 116.930,294.331 117.037,294.495 117.647 M163.540 123.793 C 163.651 124.759,163.801 125.615,163.873 125.695 C 164.120 125.972,163.933 123.792,163.635 122.915 C 163.434 122.323,163.403 122.609,163.540 123.793 M68.211 127.480 C 68.211 128.156,68.284 128.433,68.372 128.095 C 68.460 127.757,68.460 127.204,68.372 126.866 C 68.284 126.528,68.211 126.804,68.211 127.480 M210.441 127.480 C 210.441 128.156,210.514 128.433,210.602 128.095 C 210.690 127.757,210.690 127.204,210.602 126.866 C 210.514 126.528,210.441 126.804,210.441 127.480 M58.419 129.939 C 58.419 131.580,58.480 132.252,58.554 131.431 C 58.628 130.610,58.628 129.267,58.554 128.446 C 58.480 127.625,58.419 128.297,58.419 129.939 M154.617 128.885 C 154.617 129.754,154.686 130.110,154.769 129.675 C 154.853 129.241,154.853 128.529,154.769 128.095 C 154.686 127.660,154.617 128.016,154.617 128.885 M67.909 132.748 C 67.909 134.776,67.967 135.606,68.038 134.592 C 68.109 133.578,68.109 131.918,68.038 130.904 C 67.967 129.890,67.909 130.720,67.909 132.748 M200.651 132.221 C 200.650 133.960,200.710 134.715,200.783 133.900 C 200.857 133.085,200.858 131.663,200.785 130.739 C 200.713 129.816,200.653 130.483,200.651 132.221 M306.700 132.221 C 306.702 133.573,306.765 134.083,306.841 133.355 C 306.917 132.626,306.916 131.520,306.838 130.896 C 306.761 130.273,306.698 130.869,306.700 132.221 M210.118 132.221 C 210.120 133.380,210.185 133.812,210.263 133.181 C 210.341 132.550,210.340 131.601,210.260 131.074 C 210.180 130.546,210.116 131.062,210.118 132.221 M297.184 132.397 C 297.184 133.073,297.256 133.349,297.345 133.011 C 297.433 132.673,297.433 132.120,297.345 131.782 C 297.256 131.444,297.184 131.721,297.184 132.397 M58.417 135.733 C 58.418 137.278,58.480 137.867,58.554 137.041 C 58.629 136.215,58.627 134.950,58.552 134.231 C 58.477 133.512,58.416 134.188,58.417 135.733 M154.610 136.435 C 154.614 137.208,154.686 137.483,154.770 137.046 C 154.854 136.609,154.851 135.977,154.763 135.641 C 154.675 135.305,154.606 135.663,154.610 136.435 M210.449 137.138 C 210.452 137.910,210.524 138.185,210.608 137.748 C 210.692 137.311,210.689 136.679,210.601 136.344 C 210.513 136.008,210.445 136.365,210.449 137.138 M68.211 138.367 C 68.211 139.043,68.284 139.320,68.372 138.982 C 68.460 138.644,68.460 138.090,68.372 137.752 C 68.284 137.414,68.211 137.691,68.211 138.367 M59.400 143.986 C 59.400 144.276,59.535 144.829,59.701 145.215 C 59.892 145.658,60.003 145.723,60.003 145.391 C 60.003 145.101,59.867 144.548,59.701 144.162 C 59.511 143.719,59.400 143.654,59.400 143.986 M152.966 144.889 C 152.837 145.404,152.799 145.892,152.882 145.975 C 152.965 146.058,153.138 145.705,153.267 145.190 C 153.396 144.675,153.434 144.187,153.352 144.104 C 153.269 144.021,153.095 144.374,152.966 144.889 M212.317 146.093 C 212.446 146.576,212.699 147.208,212.878 147.498 C 213.104 147.864,213.131 147.757,212.968 147.147 C 212.839 146.664,212.587 146.032,212.408 145.742 C 212.182 145.376,212.154 145.483,212.317 146.093 M162.287 147.186 C 162.070 147.806,161.955 148.376,162.030 148.451 C 162.105 148.526,162.343 148.079,162.560 147.459 C 162.776 146.838,162.892 146.269,162.817 146.194 C 162.741 146.119,162.503 146.565,162.287 147.186 M151.067 150.147 C 150.478 151.438,150.591 151.714,151.227 150.540 C 151.524 149.991,151.701 149.477,151.621 149.397 C 151.541 149.316,151.291 149.654,151.067 150.147 M86.479 151.252 C 86.817 151.340,87.371 151.340,87.709 151.252 C 88.047 151.163,87.770 151.091,87.094 151.091 C 86.418 151.091,86.141 151.163,86.479 151.252 M89.991 151.252 C 90.329 151.340,90.882 151.340,91.220 151.252 C 91.558 151.163,91.282 151.091,90.606 151.091 C 89.930 151.091,89.653 151.163,89.991 151.252 M231.519 151.252 C 231.857 151.340,232.410 151.340,232.748 151.252 C 233.086 151.163,232.809 151.091,232.133 151.091 C 231.457 151.091,231.181 151.163,231.519 151.252 M235.031 151.252 C 235.369 151.340,235.922 151.340,236.260 151.252 C 236.598 151.163,236.321 151.091,235.645 151.091 C 234.969 151.091,234.693 151.163,235.031 151.252 M149.254 153.819 C 148.860 154.592,148.616 155.224,148.713 155.224 C 148.809 155.224,149.211 154.592,149.605 153.819 C 149.999 153.047,150.243 152.414,150.146 152.414 C 150.049 152.414,149.648 153.047,149.254 153.819 M62.185 152.941 C 62.185 153.134,62.411 153.687,62.687 154.170 C 62.963 154.653,63.188 154.890,63.188 154.697 C 63.188 154.504,62.963 153.951,62.687 153.468 C 62.411 152.985,62.185 152.748,62.185 152.941 M73.573 154.522 C 73.873 155.101,74.197 155.575,74.294 155.575 C 74.390 155.575,74.224 155.101,73.924 154.522 C 73.625 153.942,73.301 153.468,73.204 153.468 C 73.108 153.468,73.274 153.942,73.573 154.522 M219.751 159.614 C 220.346 160.386,221.436 161.572,222.173 162.248 C 223.049 163.052,222.857 162.748,221.618 161.370 C 218.993 158.450,218.485 157.972,219.751 159.614 M80.421 163.477 C 81.666 164.732,82.763 165.759,82.859 165.759 C 82.956 165.759,82.017 164.732,80.773 163.477 C 79.528 162.221,78.431 161.194,78.335 161.194 C 78.238 161.194,79.177 162.221,80.421 163.477 M210.009 162.599 C 210.421 163.178,210.838 163.652,210.935 163.652 C 211.031 163.652,210.773 163.178,210.360 162.599 C 209.947 162.019,209.531 161.545,209.434 161.545 C 209.338 161.545,209.596 162.019,210.009 162.599 M297.103 162.599 C 296.690 163.178,296.432 163.652,296.528 163.652 C 296.625 163.652,297.041 163.178,297.454 162.599 C 297.867 162.019,298.125 161.545,298.029 161.545 C 297.932 161.545,297.515 162.019,297.103 162.599 M141.860 163.565 L 140.650 164.881 141.967 163.671 C 142.691 163.006,143.284 162.413,143.284 162.354 C 143.284 162.086,142.986 162.339,141.860 163.565 M283.043 164.267 L 281.124 166.286 283.143 164.367 C 284.254 163.311,285.162 162.402,285.162 162.347 C 285.162 162.087,284.827 162.391,283.043 164.267 M224.759 164.881 C 225.414 165.558,226.029 166.111,226.125 166.111 C 226.222 166.111,225.765 165.558,225.110 164.881 C 224.455 164.205,223.839 163.652,223.743 163.652 C 223.646 163.652,224.103 164.205,224.759 164.881 M83.551 166.229 C 84.064 166.868,86.040 168.373,86.040 168.125 C 86.040 168.047,85.369 167.450,84.548 166.798 C 83.727 166.146,83.278 165.889,83.551 166.229 M147.673 171.283 C 145.742 173.143,145.110 173.859,146.269 172.875 C 148.337 171.118,151.663 167.850,151.346 167.884 C 151.258 167.894,149.605 169.423,147.673 171.283 M215.979 169.798 C 217.028 170.860,217.965 171.730,218.062 171.730 C 218.159 171.730,217.379 170.860,216.330 169.798 C 215.281 168.736,214.344 167.867,214.247 167.867 C 214.150 167.867,214.930 168.736,215.979 169.798 M291.121 169.886 L 289.201 171.905 291.220 169.986 C 292.331 168.930,293.240 168.021,293.240 167.966 C 293.240 167.706,292.904 168.010,291.121 169.886 M131.958 170.875 C 131.040 171.352,130.290 171.822,130.290 171.918 C 130.290 172.014,131.080 171.692,132.046 171.203 C 133.011 170.713,133.802 170.237,133.802 170.143 C 133.802 169.911,133.833 169.899,131.958 170.875 M273.222 171.027 C 272.160 171.588,271.414 172.055,271.566 172.064 C 271.939 172.087,275.329 170.356,275.329 170.143 C 275.329 169.909,275.378 169.888,273.222 171.027 M90.255 170.834 C 90.255 170.930,90.729 171.254,91.308 171.554 C 91.888 171.854,92.362 172.020,92.362 171.923 C 92.362 171.827,91.888 171.502,91.308 171.203 C 90.729 170.903,90.255 170.737,90.255 170.834 M234.592 171.554 C 235.075 171.830,235.628 172.056,235.821 172.056 C 236.014 172.056,235.777 171.830,235.294 171.554 C 234.811 171.278,234.258 171.052,234.065 171.052 C 233.872 171.052,234.109 171.278,234.592 171.554 M128.534 172.608 C 128.051 172.884,127.814 173.109,128.007 173.109 C 128.200 173.109,128.753 172.884,129.236 172.608 C 129.719 172.332,129.956 172.106,129.763 172.106 C 129.570 172.106,129.017 172.332,128.534 172.608 M268.832 172.971 C 267.954 173.394,267.925 173.443,268.657 173.264 C 269.652 173.021,270.770 172.451,270.237 172.458 C 270.044 172.461,269.412 172.692,268.832 172.971 M123.617 174.363 C 122.941 174.624,122.625 174.837,122.915 174.837 C 123.205 174.837,123.995 174.624,124.671 174.363 C 125.347 174.103,125.663 173.890,125.373 173.890 C 125.083 173.890,124.293 174.103,123.617 174.363 M264.969 174.188 C 264.527 174.378,264.462 174.490,264.794 174.490 C 265.083 174.490,265.637 174.354,266.023 174.188 C 266.466 173.998,266.530 173.886,266.198 173.886 C 265.909 173.886,265.356 174.022,264.969 174.188 M258.560 175.484 C 258.898 175.572,259.451 175.572,259.789 175.484 C 260.127 175.395,259.851 175.323,259.175 175.323 C 258.499 175.323,258.222 175.395,258.560 175.484 M251.536 175.852 C 252.647 175.922,254.464 175.922,255.575 175.852 C 256.686 175.782,255.777 175.725,253.556 175.725 C 251.335 175.725,250.426 175.782,251.536 175.852 M80.773 176.072 C 80.773 176.168,81.247 176.585,81.826 176.997 C 82.406 177.410,82.880 177.669,82.880 177.572 C 82.880 177.475,82.406 177.059,81.826 176.646 C 81.247 176.234,80.773 175.975,80.773 176.072 M107.024 176.192 C 107.458 176.275,108.169 176.275,108.604 176.192 C 109.039 176.108,108.683 176.039,107.814 176.039 C 106.945 176.039,106.589 176.108,107.024 176.192 M114.047 176.192 C 114.482 176.275,115.193 176.275,115.628 176.192 C 116.062 176.108,115.707 176.039,114.838 176.039 C 113.968 176.039,113.613 176.108,114.047 176.192 M182.177 179.001 C 182.612 179.085,183.323 179.085,183.758 179.001 C 184.192 178.917,183.837 178.849,182.968 178.849 C 182.098 178.849,181.743 178.917,182.177 179.001 M186.040 179.001 C 186.475 179.085,187.186 179.085,187.621 179.001 C 188.055 178.917,187.700 178.849,186.831 178.849 C 185.961 178.849,185.606 178.917,186.040 179.001 M85.689 179.277 C 85.689 179.517,87.839 180.583,88.000 180.422 C 88.076 180.346,87.588 180.021,86.914 179.700 C 86.240 179.379,85.689 179.188,85.689 179.277 M277.085 179.807 C 276.409 180.177,275.982 180.486,276.137 180.494 C 276.509 180.514,278.490 179.484,278.490 179.271 C 278.490 179.041,278.469 179.049,277.085 179.807 M133.099 181.036 C 132.616 181.312,132.379 181.538,132.572 181.538 C 132.766 181.538,133.319 181.312,133.802 181.036 C 134.284 180.760,134.522 180.534,134.328 180.534 C 134.135 180.534,133.582 180.760,133.099 181.036 M265.320 184.021 C 264.878 184.211,264.813 184.323,265.145 184.323 C 265.435 184.323,265.988 184.187,266.374 184.021 C 266.817 183.831,266.882 183.719,266.550 183.719 C 266.260 183.719,265.707 183.855,265.320 184.021 M200.702 186.479 C 202.044 187.831,203.221 188.938,203.317 188.938 C 203.414 188.938,202.395 187.831,201.054 186.479 C 199.712 185.127,198.535 184.021,198.439 184.021 C 198.342 184.021,199.361 185.127,200.702 186.479 M102.985 185.317 C 103.323 185.405,103.876 185.405,104.214 185.317 C 104.552 185.228,104.276 185.156,103.600 185.156 C 102.924 185.156,102.647 185.228,102.985 185.317 M118.788 185.317 C 119.126 185.405,119.680 185.405,120.018 185.317 C 120.356 185.228,120.079 185.156,119.403 185.156 C 118.727 185.156,118.450 185.228,118.788 185.317 M251.010 185.336 C 252.603 185.401,255.211 185.401,256.804 185.336 C 258.398 185.271,257.094 185.218,253.907 185.218 C 250.720 185.218,249.416 185.271,251.010 185.336 M166.945 187.270 C 165.908 188.453,165.303 189.289,165.482 189.289 C 165.570 189.289,166.150 188.657,166.771 187.884 C 167.976 186.384,168.098 185.954,166.945 187.270 M162.072 194.557 C 161.772 195.136,161.606 195.610,161.703 195.610 C 161.799 195.610,162.124 195.136,162.423 194.557 C 162.723 193.977,162.889 193.503,162.792 193.503 C 162.696 193.503,162.372 193.977,162.072 194.557 M158.893 200.563 C 158.202 201.935,157.694 203.114,157.764 203.184 C 157.834 203.254,158.475 202.132,159.189 200.690 C 159.902 199.248,160.410 198.068,160.318 198.068 C 160.225 198.068,159.584 199.191,158.893 200.563 M211.062 199.473 C 211.475 200.053,211.892 200.527,211.988 200.527 C 212.085 200.527,211.826 200.053,211.414 199.473 C 211.001 198.894,210.584 198.420,210.488 198.420 C 210.391 198.420,210.650 198.894,211.062 199.473 M219.446 211.940 C 219.635 212.327,220.048 212.959,220.362 213.345 L 220.934 214.047 220.589 213.345 C 220.400 212.959,219.987 212.327,219.673 211.940 L 219.101 211.238 219.446 211.940 M153.174 212.658 C 152.585 213.949,152.698 214.225,153.334 213.051 C 153.631 212.502,153.808 211.988,153.728 211.908 C 153.648 211.827,153.398 212.165,153.174 212.658 M150.013 220.033 C 149.425 221.324,149.537 221.600,150.173 220.425 C 150.470 219.877,150.648 219.363,150.567 219.283 C 150.487 219.202,150.238 219.540,150.013 220.033 M230.693 230.553 C 231.285 231.699,231.772 232.334,231.769 231.958 C 231.768 231.765,231.443 231.212,231.049 230.729 C 230.572 230.146,230.452 230.087,230.693 230.553 M236.172 240.562 C 236.472 241.141,236.796 241.615,236.892 241.615 C 236.989 241.615,236.823 241.141,236.523 240.562 C 236.224 239.982,235.899 239.508,235.803 239.508 C 235.706 239.508,235.872 239.982,236.172 240.562 M233.011 259.858 C 231.332 260.653,231.630 260.799,233.411 260.055 C 234.102 259.767,234.808 259.618,234.980 259.725 C 235.153 259.831,235.294 259.751,235.294 259.547 C 235.294 259.008,234.609 259.102,233.011 259.858 M235.310 260.273 C 235.277 260.738,236.398 263.105,236.569 262.933 C 236.668 262.834,236.429 262.145,236.037 261.403 C 235.646 260.660,235.318 260.152,235.310 260.273 M228.973 261.508 C 227.910 261.997,226.664 262.545,226.202 262.727 C 225.741 262.909,225.441 263.135,225.536 263.230 C 225.631 263.324,227.035 262.779,228.657 262.017 C 230.279 261.256,231.449 260.630,231.255 260.626 C 231.062 260.623,230.035 261.020,228.973 261.508 M236.923 264.091 C 237.171 265.098,238.427 267.606,238.418 267.076 C 238.414 266.883,238.028 265.935,237.559 264.969 C 237.090 264.004,236.804 263.608,236.923 264.091 M222.915 264.292 C 222.384 264.580,221.949 264.887,221.949 264.973 C 221.949 265.169,223.763 264.410,224.214 264.025 C 224.764 263.555,223.972 263.719,222.915 264.292 M220.105 265.697 C 219.574 265.985,219.140 266.287,219.140 266.367 C 219.140 266.619,221.238 265.794,221.444 265.461 C 221.726 265.005,221.215 265.095,220.105 265.697 M217.559 267.126 C 215.637 268.127,211.765 270.491,211.765 270.663 C 211.765 270.757,212.357 270.480,213.082 270.049 C 213.806 269.617,215.386 268.718,216.594 268.050 C 217.801 267.383,218.788 266.772,218.788 266.693 C 218.788 266.494,218.745 266.509,217.559 267.126 M238.469 267.603 C 238.465 267.700,239.402 270.386,240.552 273.573 C 241.702 276.760,242.648 279.179,242.656 278.949 C 242.672 278.430,239.337 268.906,238.839 268.051 C 238.639 267.708,238.473 267.507,238.469 267.603 M249.543 269.710 C 249.672 270.193,249.924 270.825,250.103 271.115 C 250.329 271.481,250.357 271.374,250.194 270.764 C 250.065 270.281,249.812 269.649,249.633 269.359 C 249.407 268.993,249.380 269.100,249.543 269.710 M208.386 272.566 C 204.790 274.907,199.489 278.892,198.595 279.925 C 198.209 280.371,199.078 279.779,200.527 278.609 C 201.975 277.439,204.978 275.259,207.199 273.766 C 211.426 270.925,211.648 270.764,211.342 270.764 C 211.238 270.764,209.907 271.575,208.386 272.566 M252.552 279.192 C 252.552 279.482,252.687 280.035,252.853 280.421 C 253.044 280.864,253.155 280.929,253.155 280.597 C 253.155 280.307,253.019 279.754,252.853 279.368 C 252.663 278.925,252.552 278.860,252.552 279.192 M242.704 279.751 C 242.685 279.961,242.994 281.384,243.391 282.911 C 243.788 284.439,244.239 287.586,244.393 289.903 C 244.657 293.877,244.676 293.955,244.725 291.266 C 244.786 287.841,242.930 277.260,242.704 279.751 M194.155 284.021 C 190.858 287.398,187.032 292.186,187.630 292.186 C 187.706 292.186,188.805 290.803,190.072 289.113 C 191.339 287.423,193.578 284.876,195.047 283.453 C 197.483 281.093,197.928 280.597,197.607 280.597 C 197.547 280.597,195.993 282.138,194.155 284.021 M130.385 284.460 C 130.385 285.329,130.454 285.685,130.538 285.250 C 130.621 284.816,130.621 284.104,130.538 283.670 C 130.454 283.235,130.385 283.591,130.385 284.460 M253.995 286.743 C 253.999 287.515,254.071 287.790,254.155 287.353 C 254.239 286.916,254.236 286.284,254.148 285.948 C 254.060 285.613,253.992 285.970,253.995 286.743 M130.371 289.025 C 130.371 289.701,130.443 289.978,130.532 289.640 C 130.620 289.302,130.620 288.749,130.532 288.411 C 130.443 288.073,130.371 288.349,130.371 289.025 M254.373 290.957 C 254.375 292.309,254.438 292.819,254.514 292.090 C 254.590 291.362,254.589 290.256,254.512 289.632 C 254.434 289.009,254.372 289.605,254.373 290.957 M186.655 293.591 C 186.355 294.170,186.189 294.644,186.286 294.644 C 186.382 294.644,186.706 294.170,187.006 293.591 C 187.306 293.011,187.472 292.537,187.375 292.537 C 187.279 292.537,186.955 293.011,186.655 293.591 M185.271 296.230 C 184.513 298.044,184.613 298.249,185.467 296.631 C 185.858 295.888,186.098 295.199,185.999 295.100 C 185.899 295.001,185.572 295.509,185.271 296.230 M242.762 297.118 C 241.758 298.635,240.262 300.028,237.388 302.122 C 236.556 302.728,236.569 302.728,237.715 302.122 C 239.347 301.260,242.475 298.378,243.396 296.888 C 244.566 294.995,244.040 295.186,242.762 297.118 M184.078 299.049 C 183.854 299.542,183.681 300.214,183.695 300.543 C 183.708 300.872,183.946 300.523,184.223 299.767 C 184.796 298.203,184.694 297.698,184.078 299.049 M252.559 299.400 C 251.971 300.692,252.083 300.967,252.719 299.793 C 253.016 299.245,253.194 298.731,253.114 298.651 C 253.033 298.570,252.784 298.908,252.559 299.400 M136.435 301.668 C 137.582 302.827,138.600 303.775,138.696 303.775 C 138.793 303.775,137.933 302.827,136.787 301.668 C 135.640 300.509,134.623 299.561,134.526 299.561 C 134.429 299.561,135.289 300.509,136.435 301.668 M250.909 302.458 C 250.367 303.279,250.149 303.765,250.423 303.539 C 250.951 303.103,252.295 300.966,252.042 300.966 C 251.960 300.966,251.450 301.637,250.909 302.458 M182.843 304.028 C 182.723 304.758,182.644 306.146,182.668 307.112 C 182.702 308.448,182.780 308.158,182.998 305.894 C 183.299 302.771,183.216 301.773,182.843 304.028 M233.881 303.714 C 232.815 304.231,231.471 304.845,230.896 305.079 C 230.069 305.416,230.034 305.465,230.729 305.313 C 231.735 305.094,236.704 302.778,236.172 302.777 C 235.979 302.776,234.948 303.198,233.881 303.714 M248.099 305.970 L 246.356 307.814 248.200 306.071 C 249.913 304.452,250.205 304.126,249.943 304.126 C 249.887 304.126,249.058 304.956,248.099 305.970 M227.217 306.242 C 225.877 306.706,225.662 306.848,226.514 306.706 C 227.750 306.501,230.155 305.595,229.500 305.581 C 229.306 305.577,228.279 305.875,227.217 306.242 M143.108 306.767 C 143.494 307.081,144.126 307.494,144.513 307.683 L 145.215 308.028 144.513 307.456 C 144.126 307.142,143.494 306.729,143.108 306.540 L 142.406 306.195 143.108 306.767 M220.018 307.823 L 218.262 308.291 220.011 308.088 C 220.973 307.977,222.158 307.764,222.645 307.616 L 223.529 307.347 222.651 307.351 C 222.169 307.353,220.983 307.565,220.018 307.823 M216.067 308.583 C 216.405 308.671,216.958 308.671,217.296 308.583 C 217.634 308.494,217.357 308.422,216.681 308.422 C 216.005 308.422,215.729 308.494,216.067 308.583 M185.777 309.123 C 188.835 309.623,210.613 309.630,213.345 309.132 C 215.203 308.793,214.996 308.776,211.589 308.983 C 206.623 309.286,193.142 309.286,187.709 308.984 C 184.058 308.782,183.800 308.800,185.777 309.123 M148.903 309.921 C 149.385 310.197,149.939 310.423,150.132 310.423 C 150.325 310.423,150.088 310.197,149.605 309.921 C 149.122 309.645,148.569 309.419,148.376 309.419 C 148.183 309.419,148.420 309.645,148.903 309.921 M152.729 311.533 C 153.578 311.910,154.335 312.156,154.412 312.079 C 154.563 311.928,151.857 310.784,151.442 310.824 C 151.301 310.837,151.880 311.157,152.729 311.533 M238.806 312.204 C 237.744 312.765,236.998 313.232,237.150 313.241 C 237.523 313.263,240.913 311.533,240.913 311.320 C 240.913 311.085,240.962 311.065,238.806 312.204 M229.148 315.716 C 228.706 315.906,228.641 316.017,228.973 316.017 C 229.263 316.017,229.816 315.882,230.202 315.716 C 230.645 315.525,230.710 315.414,230.378 315.414 C 230.088 315.414,229.535 315.550,229.148 315.716 M182.353 318.416 C 182.691 318.504,183.244 318.504,183.582 318.416 C 183.920 318.328,183.644 318.255,182.968 318.255 C 182.291 318.255,182.015 318.328,182.353 318.416 M185.342 318.773 C 185.779 318.857,186.411 318.854,186.747 318.766 C 187.083 318.678,186.725 318.610,185.953 318.614 C 185.180 318.617,184.905 318.689,185.342 318.773 M212.735 318.773 C 213.171 318.857,213.804 318.854,214.139 318.766 C 214.475 318.678,214.118 318.610,213.345 318.614 C 212.572 318.617,212.298 318.689,212.735 318.773 " stroke="none" fill="#9f9b8d" fill-rule="evenodd"></path><path id="path4" d="M249.611 79.622 C 250.242 79.701,251.191 79.699,251.718 79.619 C 252.246 79.539,251.730 79.475,250.571 79.477 C 249.412 79.479,248.980 79.544,249.611 79.622 M255.048 79.624 C 255.773 79.699,256.958 79.699,257.682 79.624 C 258.406 79.548,257.814 79.486,256.365 79.486 C 254.917 79.486,254.324 79.548,255.048 79.624 M110.184 79.967 C 110.619 80.051,111.330 80.051,111.765 79.967 C 112.199 79.883,111.844 79.815,110.975 79.815 C 110.105 79.815,109.750 79.883,110.184 79.967 M99.737 81.129 C 99.366 81.372,99.574 81.407,100.439 81.248 C 101.954 80.971,102.239 80.771,101.112 80.778 C 100.645 80.781,100.026 80.939,99.737 81.129 M251.724 88.758 C 252.744 88.829,254.325 88.828,255.236 88.756 C 256.147 88.684,255.312 88.626,253.380 88.627 C 251.449 88.628,250.703 88.687,251.724 88.758 M105.795 89.443 C 106.133 89.531,106.686 89.531,107.024 89.443 C 107.362 89.355,107.085 89.283,106.409 89.283 C 105.733 89.283,105.457 89.355,105.795 89.443 M115.807 89.449 C 116.244 89.533,116.876 89.530,117.212 89.442 C 117.548 89.354,117.191 89.286,116.418 89.290 C 115.645 89.294,115.371 89.365,115.807 89.449 M235.294 92.537 C 234.811 92.813,234.574 93.039,234.767 93.039 C 234.960 93.039,235.514 92.813,235.996 92.537 C 236.479 92.261,236.716 92.035,236.523 92.035 C 236.330 92.035,235.777 92.261,235.294 92.537 M271.495 92.495 C 271.854 92.822,275.329 94.462,275.329 94.305 C 275.329 94.107,271.975 92.362,271.595 92.362 C 271.460 92.362,271.415 92.422,271.495 92.495 M148.551 95.347 C 149.601 96.409,150.538 97.278,150.634 97.278 C 150.731 97.278,149.952 96.409,148.903 95.347 C 147.853 94.284,146.916 93.415,146.819 93.415 C 146.723 93.415,147.502 94.284,148.551 95.347 M136.962 97.371 C 136.962 97.449,137.634 98.046,138.455 98.698 C 139.276 99.350,139.724 99.607,139.452 99.267 C 138.938 98.628,136.962 97.123,136.962 97.371 M225.263 99.122 L 224.232 100.263 225.373 99.232 C 226.001 98.665,226.514 98.151,226.514 98.091 C 226.514 97.819,226.225 98.058,225.263 99.122 M295.500 100.203 C 296.041 100.912,296.555 101.493,296.642 101.493 C 296.885 101.493,295.365 99.438,294.916 99.160 C 294.696 99.025,294.960 99.494,295.500 100.203 M142.406 102.195 C 143.357 103.161,144.214 103.951,144.311 103.951 C 144.407 103.951,143.708 103.161,142.757 102.195 C 141.806 101.229,140.948 100.439,140.852 100.439 C 140.755 100.439,141.454 101.229,142.406 102.195 M80.224 101.932 L 79.192 103.073 80.334 102.041 C 81.398 101.080,81.636 100.790,81.365 100.790 C 81.305 100.790,80.791 101.304,80.224 101.932 M285.865 103.007 C 285.865 103.068,286.378 103.581,287.006 104.149 L 288.147 105.180 287.116 104.039 C 286.155 102.975,285.865 102.736,285.865 103.007 M101.668 119.403 C 102.423 120.176,103.119 120.808,103.215 120.808 C 103.312 120.808,102.774 120.176,102.019 119.403 C 101.265 118.630,100.569 117.998,100.472 117.998 C 100.375 117.998,100.914 118.630,101.668 119.403 M220.525 119.666 L 219.315 120.983 220.632 119.773 C 221.858 118.647,222.111 118.349,221.842 118.349 C 221.784 118.349,221.191 118.942,220.525 119.666 M295.747 120.808 C 295.747 121.097,295.883 121.651,296.049 122.037 C 296.239 122.480,296.351 122.545,296.351 122.212 C 296.351 121.923,296.215 121.370,296.049 120.983 C 295.859 120.541,295.747 120.476,295.747 120.808 M305.964 125.022 C 305.964 125.698,306.036 125.975,306.124 125.637 C 306.213 125.299,306.213 124.745,306.124 124.407 C 306.036 124.069,305.964 124.346,305.964 125.022 M67.860 128.183 C 67.860 128.859,67.933 129.135,68.021 128.797 C 68.109 128.459,68.109 127.906,68.021 127.568 C 67.933 127.230,67.860 127.507,67.860 128.183 M210.104 128.885 C 210.104 129.754,210.173 130.110,210.257 129.675 C 210.340 129.241,210.340 128.529,210.257 128.095 C 210.173 127.660,210.104 128.016,210.104 128.885 M164.144 132.924 C 164.144 135.821,164.199 136.959,164.265 135.454 C 164.331 133.948,164.330 131.577,164.264 130.186 C 164.197 128.794,164.143 130.026,164.144 132.924 M297.208 129.587 C 297.208 130.650,297.274 131.084,297.354 130.553 C 297.435 130.022,297.435 129.153,297.354 128.622 C 297.274 128.090,297.208 128.525,297.208 129.587 M155.001 132.572 C 155.002 134.504,155.061 135.249,155.132 134.229 C 155.203 133.208,155.202 131.628,155.130 130.717 C 155.058 129.806,155.000 130.641,155.001 132.572 M215.392 132.572 C 215.393 133.924,215.457 134.435,215.533 133.706 C 215.609 132.977,215.608 131.871,215.530 131.248 C 215.452 130.624,215.390 131.220,215.392 132.572 M67.533 132.748 C 67.533 133.810,67.599 134.245,67.679 133.714 C 67.760 133.183,67.760 132.313,67.679 131.782 C 67.599 131.251,67.533 131.686,67.533 132.748 M297.208 135.206 C 297.208 136.269,297.274 136.703,297.354 136.172 C 297.435 135.641,297.435 134.772,297.354 134.241 C 297.274 133.709,297.208 134.144,297.208 135.206 M210.109 135.733 C 210.112 136.699,210.180 137.052,210.261 136.518 C 210.342 135.985,210.339 135.194,210.256 134.763 C 210.173 134.331,210.107 134.767,210.109 135.733 M67.867 137.489 C 67.871 138.262,67.943 138.536,68.027 138.100 C 68.111 137.663,68.108 137.031,68.020 136.695 C 67.932 136.359,67.863 136.716,67.867 137.489 M305.971 139.596 C 305.975 140.369,306.047 140.643,306.131 140.207 C 306.215 139.770,306.212 139.138,306.124 138.802 C 306.036 138.466,305.967 138.824,305.971 139.596 M69.233 144.688 C 69.233 144.978,69.369 145.531,69.535 145.917 C 69.725 146.360,69.836 146.425,69.836 146.093 C 69.836 145.803,69.701 145.250,69.535 144.864 C 69.344 144.421,69.233 144.356,69.233 144.688 M75.680 145.742 C 76.435 146.514,77.131 147.147,77.228 147.147 C 77.324 147.147,76.786 146.514,76.032 145.742 C 75.277 144.969,74.581 144.337,74.484 144.337 C 74.388 144.337,74.926 144.969,75.680 145.742 M101.652 145.830 L 100.263 147.322 101.756 145.934 C 103.144 144.643,103.410 144.337,103.144 144.337 C 103.087 144.337,102.415 145.009,101.652 145.830 M219.491 144.447 C 219.491 144.507,220.004 145.021,220.632 145.588 L 221.773 146.620 220.742 145.478 C 219.781 144.415,219.491 144.176,219.491 144.447 M162.640 145.099 C 162.617 145.421,162.508 145.974,162.397 146.328 C 162.205 146.937,162.215 146.938,162.596 146.345 C 162.817 146.001,162.926 145.448,162.839 145.116 C 162.696 144.573,162.676 144.571,162.640 145.099 M213.872 150.442 C 213.872 150.819,214.917 152.766,215.119 152.766 C 215.216 152.766,215.033 152.252,214.714 151.624 C 214.062 150.342,213.872 150.075,213.872 150.442 M292.434 152.249 C 291.916 153.306,291.566 154.170,291.657 154.170 C 291.894 154.170,293.665 150.616,293.507 150.458 C 293.435 150.386,292.952 151.192,292.434 152.249 M71.642 151.144 C 71.642 151.521,72.687 153.468,72.889 153.468 C 72.986 153.468,72.803 152.954,72.484 152.327 C 71.832 151.045,71.642 150.777,71.642 151.144 M222.827 163.301 C 224.363 164.846,225.699 166.111,225.796 166.111 C 225.892 166.111,224.714 164.846,223.178 163.301 C 221.642 161.756,220.306 160.492,220.210 160.492 C 220.113 160.492,221.291 161.756,222.827 163.301 M284.275 163.389 L 281.826 165.935 284.372 163.486 C 285.773 162.139,286.918 160.994,286.918 160.940 C 286.918 160.682,286.550 161.024,284.275 163.389 M142.045 163.740 L 139.596 166.286 142.142 163.837 C 143.543 162.490,144.688 161.345,144.688 161.291 C 144.688 161.034,144.320 161.375,142.045 163.740 M80.597 164.004 C 81.548 164.969,82.406 165.759,82.502 165.759 C 82.599 165.759,81.899 164.969,80.948 164.004 C 79.997 163.038,79.140 162.248,79.043 162.248 C 78.947 162.248,79.646 163.038,80.597 164.004 M226.289 166.382 C 226.567 166.831,228.622 168.352,228.622 168.108 C 228.622 168.021,228.041 167.507,227.332 166.967 C 226.623 166.426,226.154 166.163,226.289 166.382 M216.155 169.622 C 217.496 170.975,218.673 172.081,218.770 172.081 C 218.866 172.081,217.847 170.975,216.506 169.622 C 215.164 168.270,213.987 167.164,213.891 167.164 C 213.794 167.164,214.813 168.270,216.155 169.622 M290.948 169.710 L 288.499 172.256 291.045 169.807 C 293.410 167.533,293.751 167.164,293.494 167.164 C 293.440 167.164,292.294 168.310,290.948 169.710 M148.718 170.061 L 146.269 172.608 148.815 170.159 C 151.180 167.884,151.521 167.515,151.264 167.515 C 151.210 167.515,150.064 168.661,148.718 170.061 M74.100 170.500 C 74.755 171.176,75.370 171.730,75.467 171.730 C 75.564 171.730,75.107 171.176,74.451 170.500 C 73.796 169.824,73.181 169.271,73.084 169.271 C 72.988 169.271,73.445 169.824,74.100 170.500 M257.858 175.835 C 258.196 175.923,258.749 175.923,259.087 175.835 C 259.425 175.746,259.148 175.674,258.472 175.674 C 257.796 175.674,257.520 175.746,257.858 175.835 M253.121 176.192 C 253.558 176.276,254.190 176.273,254.526 176.185 C 254.861 176.097,254.504 176.028,253.731 176.032 C 252.959 176.036,252.684 176.108,253.121 176.192 M109.494 176.554 C 110.514 176.625,112.095 176.625,113.006 176.553 C 113.917 176.481,113.082 176.422,111.150 176.423 C 109.219 176.424,108.473 176.483,109.494 176.554 M108.780 185.687 C 110.180 185.753,112.471 185.753,113.872 185.687 C 115.272 185.620,114.126 185.565,111.326 185.565 C 108.525 185.565,107.379 185.620,108.780 185.687 M131.074 279.543 C 131.074 280.219,131.146 280.496,131.234 280.158 C 131.323 279.820,131.323 279.267,131.234 278.929 C 131.146 278.591,131.074 278.867,131.074 279.543 M244.885 290.957 C 244.887 292.116,244.952 292.548,245.031 291.916 C 245.109 291.285,245.107 290.337,245.027 289.809 C 244.947 289.282,244.883 289.798,244.885 290.957 M241.072 299.649 L 239.684 301.141 241.176 299.753 C 241.997 298.990,242.669 298.318,242.669 298.261 C 242.669 297.995,242.363 298.261,241.072 299.649 M134.504 299.320 C 134.504 299.380,135.018 299.894,135.645 300.461 L 136.787 301.493 135.755 300.351 C 134.794 299.287,134.504 299.048,134.504 299.320 M247.750 305.970 L 245.654 308.165 247.849 306.069 C 249.056 304.916,250.044 303.928,250.044 303.874 C 250.044 303.615,249.697 303.931,247.750 305.970 M185.162 309.285 C 185.500 309.373,186.054 309.373,186.392 309.285 C 186.730 309.197,186.453 309.124,185.777 309.124 C 185.101 309.124,184.824 309.197,185.162 309.285 M189.381 309.646 C 189.915 309.727,190.705 309.725,191.137 309.641 C 191.569 309.558,191.133 309.492,190.167 309.495 C 189.201 309.497,188.848 309.565,189.381 309.646 M208.516 309.642 C 208.951 309.726,209.662 309.726,210.097 309.642 C 210.531 309.558,210.176 309.490,209.306 309.490 C 208.437 309.490,208.082 309.558,208.516 309.642 M197.820 310.006 C 199.132 310.074,201.186 310.073,202.385 310.005 C 203.584 309.937,202.511 309.881,200.000 309.882 C 197.489 309.882,196.508 309.938,197.820 310.006 M227.041 316.067 C 226.599 316.257,226.534 316.369,226.866 316.369 C 227.155 316.369,227.709 316.233,228.095 316.067 C 228.538 315.876,228.602 315.765,228.270 315.765 C 227.981 315.765,227.428 315.901,227.041 316.067 M219.579 317.714 C 219.917 317.802,220.470 317.802,220.808 317.714 C 221.146 317.625,220.869 317.553,220.193 317.553 C 219.517 317.553,219.241 317.625,219.579 317.714 M187.796 318.773 C 188.231 318.857,188.942 318.857,189.377 318.773 C 189.811 318.689,189.456 318.621,188.586 318.621 C 187.717 318.621,187.362 318.689,187.796 318.773 M209.921 318.773 C 210.356 318.857,211.067 318.857,211.501 318.773 C 211.936 318.689,211.580 318.621,210.711 318.621 C 209.842 318.621,209.486 318.689,209.921 318.773 M195.017 319.139 C 197.684 319.199,201.951 319.198,204.499 319.139 C 207.046 319.079,204.864 319.030,199.649 319.030 C 194.434 319.030,192.349 319.079,195.017 319.139 " stroke="none" fill="#747471" fill-rule="evenodd"></path></g></svg>