<svg id="svg" version="1.1" xmlns="http://www.w3.org/2000/svg" xmlns:xlink="http://www.w3.org/1999/xlink" viewBox="0, 0, 400,400"><g id="svgg"><path id="path0" d="M197.274 107.579 C 197.674 111.797,197.087 133.531,196.578 133.336 C 196.213 133.196,195.616 133.461,195.137 133.976 C 194.687 134.459,194.057 134.754,193.738 134.632 C 193.419 134.509,193.256 134.567,193.375 134.759 C 193.494 134.952,193.233 135.203,192.796 135.317 C 192.321 135.441,192.000 135.863,192.000 136.363 C 192.000 136.823,191.820 137.200,191.600 137.200 C 191.380 137.200,191.200 137.031,191.200 136.825 C 191.200 136.619,190.852 136.476,190.428 136.508 C 190.003 136.540,189.744 136.709,189.851 136.883 C 189.959 137.057,189.837 137.200,189.581 137.200 C 189.313 137.200,189.222 137.479,189.366 137.857 C 189.579 138.409,189.521 138.432,189.000 138.000 C 188.474 137.563,188.423 137.594,188.659 138.209 C 188.850 138.706,188.790 138.841,188.468 138.642 C 188.211 138.483,188.000 138.543,188.000 138.776 C 188.000 139.009,187.719 139.200,187.376 139.200 C 187.009 139.200,186.857 138.994,187.006 138.700 C 187.145 138.425,187.003 138.512,186.690 138.894 C 186.377 139.275,186.004 139.470,185.860 139.327 C 185.717 139.184,185.600 139.271,185.600 139.521 C 185.600 139.771,185.285 139.878,184.900 139.760 C 184.515 139.642,184.650 139.823,185.200 140.162 L 186.200 140.780 184.841 140.649 C 183.387 140.508,182.003 141.415,182.313 142.305 C 182.427 142.632,182.261 142.721,181.839 142.560 C 181.482 142.423,180.922 142.533,180.595 142.804 C 180.160 143.165,180.000 143.173,180.000 142.833 C 180.000 142.578,179.613 142.730,179.139 143.171 C 178.666 143.612,178.122 143.875,177.930 143.756 C 177.737 143.638,177.630 143.779,177.690 144.070 C 177.756 144.389,177.508 144.550,177.065 144.474 C 176.504 144.379,176.387 144.528,176.571 145.108 C 176.735 145.625,176.619 145.867,176.206 145.867 C 175.873 145.867,175.600 145.704,175.600 145.505 C 175.600 145.306,175.317 145.426,174.971 145.771 C 174.626 146.117,174.176 146.400,173.971 146.400 C 173.767 146.400,173.645 146.625,173.700 146.900 C 173.760 147.200,173.361 147.407,172.704 147.418 C 172.101 147.428,171.364 147.770,171.065 148.179 C 170.733 148.633,170.303 148.809,169.961 148.631 C 169.652 148.472,169.715 148.599,170.100 148.914 C 170.887 149.560,171.080 150.318,170.300 149.704 C 169.583 149.138,168.400 149.239,168.400 149.867 C 168.400 150.160,168.220 150.400,168.000 150.400 C 167.780 150.400,167.600 150.673,167.600 151.008 C 167.600 151.449,167.338 151.549,166.644 151.375 C 166.118 151.243,165.568 151.328,165.423 151.563 C 165.260 151.826,165.398 151.899,165.779 151.753 C 166.122 151.621,166.400 151.724,166.400 151.981 C 166.400 152.237,166.220 152.336,166.000 152.200 C 165.780 152.064,165.595 152.188,165.588 152.476 C 165.581 152.789,165.407 152.710,165.156 152.278 C 164.810 151.684,164.627 151.645,164.129 152.059 C 163.594 152.503,163.609 152.596,164.261 152.853 C 164.779 153.057,164.547 153.152,163.487 153.172 C 162.307 153.194,161.895 153.398,161.612 154.100 C 161.413 154.595,161.239 154.781,161.225 154.513 C 161.211 154.235,160.927 154.130,160.566 154.268 C 160.056 154.464,160.037 154.577,160.466 154.850 C 160.760 155.036,160.865 155.213,160.700 155.244 C 160.535 155.275,160.265 155.325,160.100 155.356 C 159.935 155.387,159.547 155.572,159.238 155.768 C 158.852 156.012,158.766 155.979,158.962 155.662 C 159.511 154.772,158.415 155.211,157.014 156.441 C 156.236 157.124,155.594 157.529,155.587 157.341 C 155.579 157.154,155.215 157.430,154.777 157.957 C 154.339 158.483,153.872 158.805,153.740 158.674 C 153.609 158.542,153.198 158.807,152.829 159.264 C 152.183 160.061,143.652 160.455,141.866 159.770 C 141.513 159.634,141.346 160.392,141.270 162.491 C 141.211 164.091,141.063 165.760,140.940 166.200 C 140.723 166.979,140.732 166.980,141.298 166.239 C 141.697 165.716,141.966 165.622,142.161 165.938 C 142.331 166.212,142.022 166.589,141.394 166.876 C 140.562 167.255,140.277 167.248,140.027 166.844 C 139.785 166.452,139.652 166.487,139.458 166.992 C 139.319 167.354,139.024 167.539,138.803 167.402 C 138.581 167.265,138.400 167.340,138.400 167.569 C 138.400 167.798,137.941 168.100,137.380 168.241 C 136.665 168.420,136.291 168.844,136.128 169.662 C 135.916 170.719,135.832 170.772,135.232 170.229 C 134.638 169.691,134.452 169.730,133.432 170.606 C 132.807 171.143,132.094 171.470,131.848 171.333 C 131.539 171.160,131.526 171.221,131.809 171.530 C 132.378 172.154,133.656 172.336,137.700 172.370 L 141.200 172.400 141.200 176.767 C 141.200 179.168,141.335 181.209,141.500 181.301 C 141.665 181.393,141.560 181.408,141.267 181.334 C 140.974 181.260,136.060 181.200,130.346 181.200 L 119.957 181.200 120.026 176.700 C 120.064 174.225,120.237 172.110,120.410 172.000 C 120.583 171.890,116.435 171.800,111.192 171.800 C 102.532 171.800,101.711 171.858,102.229 172.431 C 102.645 172.891,102.800 174.169,102.800 177.131 C 102.800 182.606,102.063 182.417,101.898 176.900 L 101.770 172.600 101.685 176.900 L 101.600 181.200 51.043 181.200 C 5.310 181.200,0.462 181.260,0.243 181.833 C 0.109 182.181,-0.000 207.291,-0.000 237.633 L 0.000 292.800 200.000 292.800 L 400.000 292.800 400.000 236.996 L 400.000 181.191 348.700 181.296 L 297.400 181.400 297.600 176.665 C 297.710 174.061,297.770 171.901,297.734 171.865 C 297.698 171.829,293.648 171.890,288.734 172.000 L 279.800 172.200 279.687 176.700 L 279.574 181.200 268.387 181.200 C 262.234 181.200,257.065 181.200,256.900 181.200 C 256.347 181.200,256.546 172.605,257.100 172.550 C 257.375 172.523,259.276 172.478,261.324 172.450 C 264.067 172.413,265.251 172.234,265.824 171.767 C 266.455 171.253,266.473 171.174,265.920 171.347 C 265.507 171.476,264.744 171.095,263.970 170.372 C 263.065 169.527,262.560 169.302,262.213 169.589 C 261.650 170.056,261.175 169.736,261.428 169.061 C 261.523 168.807,261.106 168.371,260.503 168.092 C 259.677 167.709,259.367 167.699,259.249 168.052 C 259.163 168.310,258.862 168.090,258.580 167.563 C 258.299 167.037,257.738 166.604,257.334 166.603 C 256.236 166.599,256.017 161.377,257.081 160.571 C 257.699 160.102,257.000 160.024,252.100 160.013 C 248.575 160.005,246.400 159.847,246.400 159.600 C 246.400 158.954,245.308 159.142,245.043 159.833 C 244.844 160.350,244.542 160.222,243.387 159.133 C 242.610 158.400,241.815 157.800,241.621 157.800 C 241.426 157.800,241.132 157.665,240.967 157.500 C 240.802 157.335,240.877 157.200,241.133 157.200 C 241.390 157.200,241.600 157.020,241.600 156.800 C 241.600 156.580,241.345 156.400,241.033 156.400 C 240.722 156.400,240.404 156.212,240.327 155.982 C 240.251 155.752,239.786 155.534,239.294 155.497 C 238.789 155.459,238.397 155.162,238.394 154.815 C 238.388 154.272,238.342 154.270,238.000 154.800 C 237.770 155.155,237.610 155.207,237.606 154.927 C 237.603 154.666,237.105 154.396,236.500 154.327 C 235.895 154.257,235.443 153.981,235.495 153.714 C 235.554 153.412,235.328 153.323,234.895 153.478 C 234.513 153.615,234.320 153.594,234.467 153.430 C 234.846 153.008,233.500 151.703,232.900 151.912 C 232.625 152.007,232.400 151.886,232.400 151.643 C 232.400 151.399,232.237 151.200,232.037 151.200 C 231.838 151.200,231.775 151.605,231.897 152.100 C 232.018 152.595,232.006 152.899,231.868 152.776 C 231.731 152.652,231.553 152.122,231.472 151.597 C 231.392 151.072,231.093 150.564,230.808 150.469 C 230.518 150.373,230.404 150.484,230.551 150.720 C 230.695 150.954,230.604 151.274,230.349 151.432 C 230.029 151.630,229.942 151.414,230.071 150.739 C 230.215 149.985,230.081 149.746,229.485 149.701 C 229.059 149.669,228.393 149.356,228.005 149.005 C 227.617 148.654,227.143 148.395,226.950 148.431 C 225.644 148.670,224.864 148.311,224.626 147.361 C 224.403 146.473,224.212 146.360,223.313 146.586 C 222.391 146.817,222.325 146.772,222.779 146.225 C 223.069 145.876,223.119 145.600,222.892 145.600 C 222.668 145.600,222.382 145.870,222.255 146.200 C 221.952 146.989,221.200 146.972,221.200 146.176 C 221.200 145.822,221.009 145.671,220.757 145.826 C 220.464 146.008,220.399 145.832,220.567 145.305 C 220.832 144.468,218.354 142.796,218.067 143.618 C 217.840 144.268,217.304 144.040,217.084 143.200 C 216.969 142.760,216.588 142.400,216.237 142.400 C 215.887 142.400,215.600 142.119,215.600 141.776 C 215.600 141.433,215.431 141.257,215.225 141.385 C 215.018 141.512,214.650 141.298,214.405 140.908 C 214.030 140.309,214.001 140.353,214.216 141.200 C 214.445 142.097,214.375 142.066,213.536 140.894 C 213.021 140.176,212.195 139.482,211.700 139.351 C 211.205 139.220,210.800 138.953,210.800 138.757 C 210.800 138.560,210.518 138.400,210.173 138.400 C 209.829 138.400,208.925 137.926,208.165 137.346 C 207.366 136.737,206.879 136.540,207.009 136.880 C 207.150 137.246,206.992 137.467,206.591 137.467 C 206.116 137.467,206.008 137.222,206.181 136.533 C 206.439 135.504,206.052 135.329,205.221 136.100 C 204.925 136.375,204.780 136.420,204.899 136.200 C 205.019 135.980,204.865 135.568,204.558 135.284 C 204.103 134.863,203.999 134.863,203.994 135.284 C 203.989 135.683,203.910 135.676,203.642 135.255 C 203.351 134.794,203.263 134.794,203.080 135.255 C 202.943 135.600,202.849 135.507,202.825 135.000 C 202.794 134.334,202.723 134.301,202.400 134.800 C 202.056 135.332,201.789 134.806,202.100 134.208 C 202.155 134.102,201.795 133.732,201.300 133.385 C 200.445 132.787,200.400 132.493,200.400 127.577 C 200.400 123.899,200.265 122.400,199.933 122.400 C 199.677 122.400,199.571 122.295,199.699 122.168 C 199.827 122.040,200.307 122.136,200.766 122.382 C 201.495 122.772,201.600 122.716,201.600 121.938 C 201.600 121.069,201.614 121.066,202.187 121.824 C 202.510 122.251,202.783 122.420,202.793 122.200 C 202.804 121.980,202.987 122.070,203.200 122.400 C 203.448 122.784,203.590 122.823,203.594 122.510 C 203.598 122.178,203.992 122.098,204.817 122.263 C 205.733 122.447,206.175 122.321,206.604 121.753 C 206.918 121.339,207.183 121.180,207.193 121.400 C 207.204 121.620,207.387 121.530,207.600 121.200 C 207.905 120.729,207.989 120.718,207.994 121.149 C 207.998 121.543,208.141 121.581,208.500 121.283 C 209.065 120.814,213.459 120.371,214.310 120.698 C 214.770 120.874,214.774 120.970,214.334 121.250 C 213.902 121.523,213.900 121.589,214.324 121.594 C 214.612 121.597,214.760 121.742,214.652 121.915 C 214.545 122.088,214.878 122.265,215.392 122.308 C 216.077 122.364,216.297 122.200,216.215 121.692 C 216.153 121.312,216.282 120.775,216.500 120.500 C 216.771 120.159,216.723 119.785,216.349 119.323 C 216.047 118.951,216.003 118.768,216.250 118.916 C 216.534 119.086,216.700 118.823,216.700 118.200 C 216.700 117.658,216.543 117.312,216.350 117.431 C 216.157 117.550,216.000 117.356,216.000 117.000 C 216.000 116.589,216.182 116.462,216.500 116.653 C 216.791 116.828,216.750 116.639,216.400 116.200 C 216.050 115.761,216.009 115.572,216.300 115.747 C 216.618 115.938,216.800 115.811,216.800 115.400 C 216.800 115.044,216.620 114.864,216.400 115.000 C 216.180 115.136,216.000 114.977,216.000 114.647 C 216.000 114.317,216.180 113.936,216.400 113.800 C 216.956 113.456,216.904 109.711,216.338 109.362 C 216.029 109.171,215.982 109.262,216.197 109.638 C 216.456 110.093,216.414 110.104,215.979 109.700 C 215.338 109.106,214.649 109.032,214.997 109.595 C 215.143 109.832,214.960 109.883,214.541 109.722 C 214.110 109.557,214.025 109.392,214.320 109.293 C 215.344 108.952,214.729 108.495,213.369 108.586 C 212.582 108.638,211.705 108.448,211.419 108.162 C 210.813 107.556,209.222 107.572,209.328 108.183 C 209.367 108.412,209.085 108.547,208.700 108.482 C 208.315 108.418,208.000 108.563,208.000 108.806 C 208.000 109.049,207.832 109.144,207.628 109.017 C 207.423 108.891,207.142 108.970,207.004 109.193 C 206.866 109.417,206.384 109.600,205.934 109.600 C 205.327 109.600,205.178 109.782,205.358 110.300 C 205.590 110.967,205.576 110.967,205.057 110.300 C 204.502 109.588,203.770 109.304,204.174 109.958 C 204.296 110.155,204.126 110.419,203.798 110.546 C 203.469 110.672,203.200 110.579,203.200 110.338 C 203.200 110.038,203.024 110.048,202.636 110.370 C 202.288 110.659,201.980 110.691,201.833 110.454 C 201.702 110.242,201.821 109.977,202.098 109.866 C 202.374 109.754,202.060 109.652,201.400 109.638 C 200.484 109.618,200.342 109.704,200.800 110.000 C 201.130 110.213,201.220 110.385,201.000 110.381 C 200.780 110.378,200.240 110.086,199.800 109.733 C 199.150 109.213,199.131 109.138,199.700 109.334 C 200.216 109.511,200.400 109.362,200.400 108.764 C 200.400 108.221,200.234 108.052,199.900 108.253 C 199.512 108.486,199.505 108.424,199.866 107.977 C 200.256 107.494,200.081 107.397,198.792 107.379 C 197.946 107.368,197.262 107.458,197.274 107.579 M137.567 169.233 C 137.108 169.692,136.626 169.960,136.496 169.829 C 136.365 169.699,136.605 169.329,137.029 169.009 C 138.179 168.139,138.519 168.281,137.567 169.233 M175.276 182.995 L 175.114 184.391 159.857 184.500 L 144.600 184.610 160.124 184.705 C 170.347 184.768,175.563 184.937,175.400 185.200 C 175.242 185.455,169.663 185.600,159.976 185.600 C 150.148 185.600,144.788 185.459,144.767 185.200 C 144.748 184.980,144.733 184.170,144.733 183.400 C 144.733 182.630,144.748 181.910,144.767 181.800 C 144.785 181.690,151.694 181.600,160.120 181.600 L 175.439 181.600 175.276 182.995 M215.182 182.178 C 215.446 182.496,215.582 183.171,215.485 183.678 C 215.326 184.513,215.304 184.498,215.254 183.524 C 215.177 181.992,214.400 181.676,214.400 183.176 L 214.400 184.400 199.600 184.400 L 184.800 184.400 184.800 183.400 C 184.800 182.717,184.578 182.398,184.100 182.394 C 183.502 182.389,183.487 182.331,184.000 182.000 C 185.062 181.314,214.604 181.482,215.182 182.178 M224.400 182.049 C 224.400 181.725,228.607 181.600,239.518 181.600 L 254.636 181.600 254.731 183.000 L 254.825 184.400 239.413 184.400 L 224.000 184.400 224.000 183.480 C 224.000 182.974,223.775 182.308,223.500 181.999 C 223.075 181.522,223.104 181.518,223.700 181.968 C 224.170 182.324,224.400 182.350,224.400 182.049 M254.546 185.214 C 254.005 185.755,223.515 185.546,223.333 185.000 C 223.245 184.737,228.620 184.637,239.071 184.709 C 249.536 184.781,254.807 184.953,254.546 185.214 M214.400 185.200 C 214.400 185.459,209.200 185.600,199.600 185.600 C 190.000 185.600,184.800 185.459,184.800 185.200 C 184.800 184.941,190.000 184.800,199.600 184.800 C 209.200 184.800,214.400 184.941,214.400 185.200 M56.400 187.800 C 56.400 188.166,56.773 188.400,57.353 188.400 C 58.053 188.400,58.358 188.667,58.498 189.400 C 58.671 190.307,58.564 190.400,57.337 190.400 C 56.096 190.400,56.005 190.318,56.235 189.404 C 56.413 188.694,56.300 188.336,55.842 188.161 C 55.032 187.850,55.003 187.200,55.800 187.200 C 56.130 187.200,56.400 187.470,56.400 187.800 M86.934 188.300 C 86.780 188.905,86.673 189.682,86.696 190.026 C 86.728 190.489,86.451 190.610,85.632 190.490 C 84.284 190.292,84.309 188.400,85.659 188.400 C 86.080 188.400,86.529 188.130,86.655 187.800 C 87.042 186.792,87.232 187.132,86.934 188.300 M108.620 188.400 C 109.276 188.400,109.609 188.631,109.628 189.100 C 109.652 189.702,109.707 189.688,110.021 189.000 C 110.350 188.280,110.377 188.300,110.293 189.200 C 110.219 189.998,109.957 190.220,109.000 190.298 C 107.279 190.439,106.294 189.561,106.638 188.192 C 106.866 187.282,106.973 187.208,107.276 187.750 C 107.476 188.107,108.081 188.400,108.620 188.400 M286.620 188.400 C 287.358 188.400,287.610 188.622,287.640 189.300 C 287.678 190.163,287.693 190.159,288.000 189.200 C 288.194 188.595,288.336 188.464,288.360 188.867 C 288.438 190.176,287.921 190.800,286.757 190.800 C 285.995 190.800,285.600 190.595,285.600 190.200 C 285.600 189.870,285.330 189.600,285.000 189.600 C 284.334 189.600,284.297 189.427,284.664 188.054 C 284.879 187.250,284.971 187.205,285.278 187.754 C 285.477 188.109,286.081 188.400,286.620 188.400 M331.345 187.800 C 331.176 188.239,331.395 188.400,332.157 188.400 C 332.933 188.400,333.200 188.605,333.200 189.200 C 333.200 190.468,333.073 190.598,331.781 190.642 C 330.219 190.695,329.930 187.315,331.487 187.206 C 331.536 187.203,331.471 187.470,331.345 187.800 M354.183 188.028 C 354.056 188.232,354.398 188.400,354.943 188.400 C 355.488 188.400,356.014 188.175,356.112 187.900 C 356.210 187.625,356.445 187.545,356.634 187.722 C 356.823 187.899,356.789 188.168,356.559 188.322 C 355.758 188.856,355.614 189.943,356.322 190.113 C 356.949 190.264,356.948 190.299,356.299 190.581 C 355.575 190.896,353.343 190.524,353.716 190.150 C 353.832 190.035,353.780 189.427,353.600 188.800 C 353.420 188.173,353.372 187.562,353.492 187.441 C 353.836 187.098,354.440 187.611,354.183 188.028 M367.096 188.330 C 368.199 188.168,368.291 188.233,368.010 188.975 C 367.837 189.429,367.673 189.980,367.644 190.200 C 367.616 190.420,366.863 190.606,365.971 190.614 C 364.553 190.625,364.437 190.562,365.051 190.114 C 365.437 189.831,365.551 189.600,365.303 189.600 C 365.056 189.600,364.869 189.063,364.887 188.407 C 364.916 187.385,364.990 187.307,365.396 187.862 C 365.716 188.300,366.266 188.452,367.096 188.330 M385.461 188.259 C 385.549 189.764,384.319 190.967,383.024 190.642 C 381.532 190.267,381.494 188.014,382.985 188.299 C 383.573 188.412,384.229 188.228,384.613 187.844 C 385.428 187.029,385.389 187.010,385.461 188.259 M13.531 189.444 C 13.429 190.338,10.068 191.435,10.000 190.597 C 10.000 190.596,9.834 190.016,9.631 189.309 L 9.263 188.024 11.031 188.266 C 12.361 188.449,12.800 188.376,12.800 187.974 C 12.800 187.592,12.923 187.563,13.231 187.871 C 13.468 188.108,13.603 188.816,13.531 189.444 M34.387 188.400 C 34.837 188.400,35.178 188.774,35.298 189.400 C 35.458 190.238,35.336 190.400,34.545 190.400 C 34.025 190.400,33.600 190.209,33.600 189.976 C 33.600 189.743,33.419 189.665,33.197 189.802 C 32.551 190.201,32.259 188.852,32.841 188.151 C 33.173 187.750,33.426 187.678,33.519 187.956 C 33.600 188.200,33.991 188.400,34.387 188.400 M53.131 189.000 C 53.236 190.559,51.412 191.069,50.171 189.829 C 49.139 188.797,49.476 188.146,50.953 188.319 C 51.697 188.405,52.427 188.279,52.576 188.038 C 52.979 187.387,53.028 187.471,53.131 189.000 M104.334 189.100 C 103.827 191.100,101.240 191.469,101.529 189.500 C 101.719 188.208,103.411 187.900,103.724 189.100 C 103.837 189.531,103.925 189.377,103.954 188.700 C 103.979 188.095,104.161 187.600,104.357 187.600 C 104.563 187.600,104.553 188.236,104.334 189.100 M122.000 188.791 C 122.000 190.971,119.036 191.387,118.722 189.251 C 118.536 187.982,120.968 187.881,121.364 189.141 C 121.478 189.504,121.514 189.310,121.443 188.712 C 121.373 188.114,121.470 187.719,121.658 187.836 C 121.846 187.952,122.000 188.382,122.000 188.791 M124.805 188.096 C 125.445 188.495,125.776 188.486,126.500 188.049 C 127.207 187.622,127.293 187.619,126.900 188.033 C 126.625 188.323,126.400 188.974,126.400 189.480 C 126.400 190.113,126.166 190.400,125.649 190.400 C 124.703 190.400,123.840 189.394,124.133 188.631 C 124.255 188.312,124.140 187.964,123.878 187.857 C 123.615 187.751,123.537 187.649,123.705 187.632 C 123.873 187.614,124.368 187.823,124.805 188.096 M282.498 188.600 C 282.393 189.150,282.238 189.600,282.153 189.600 C 282.069 189.600,282.000 189.150,282.000 188.600 C 282.000 188.050,282.155 187.600,282.345 187.600 C 282.534 187.600,282.603 188.050,282.498 188.600 M302.805 188.096 C 303.439 188.492,303.764 188.490,304.409 188.087 C 305.157 187.620,305.181 187.642,304.719 188.381 C 304.296 189.059,304.340 189.277,305.010 189.820 C 305.444 190.172,305.575 190.345,305.300 190.206 C 305.025 190.067,304.800 190.143,304.800 190.376 C 304.800 190.609,304.350 190.800,303.800 190.800 C 303.250 190.800,302.797 190.575,302.794 190.300 C 302.789 189.934,302.695 189.946,302.442 190.345 C 301.931 191.152,301.619 190.059,302.037 188.927 C 302.249 188.354,302.194 187.986,301.880 187.858 C 301.616 187.751,301.537 187.649,301.705 187.632 C 301.873 187.614,302.368 187.823,302.805 188.096 M316.600 189.139 C 316.600 190.595,316.531 190.681,315.316 190.726 C 313.840 190.782,313.547 190.488,313.866 189.269 C 314.139 188.226,315.456 188.107,315.745 189.100 C 315.913 189.678,315.945 189.660,315.928 189.000 C 315.899 187.843,315.964 187.600,316.300 187.600 C 316.465 187.600,316.600 188.293,316.600 189.139 M359.466 188.500 C 359.384 188.995,359.394 189.175,359.488 188.900 C 359.582 188.625,360.050 188.386,360.529 188.369 C 361.008 188.353,361.715 188.278,362.100 188.205 C 362.610 188.107,362.800 188.332,362.800 189.035 C 362.800 189.626,362.567 190.000,362.200 190.000 C 361.870 190.000,361.600 190.191,361.600 190.425 C 361.600 190.664,361.030 190.796,360.300 190.725 C 359.000 190.600,357.928 187.600,359.183 187.600 C 359.421 187.600,359.548 188.005,359.466 188.500 M75.050 188.556 C 75.822 189.227,75.458 190.330,74.415 190.483 C 73.750 190.581,73.292 190.575,73.397 190.470 C 73.502 190.365,73.291 190.062,72.929 189.797 C 71.865 189.020,72.546 187.924,73.891 188.246 C 74.501 188.393,75.023 188.532,75.050 188.556 M93.311 189.071 C 93.405 189.560,93.373 189.941,93.241 189.917 C 93.108 189.893,92.730 189.977,92.400 190.104 C 91.287 190.533,89.623 190.687,89.836 190.342 C 89.952 190.154,89.857 190.000,89.624 190.000 C 89.218 190.000,89.018 188.713,89.369 188.367 C 90.051 187.695,93.154 188.249,93.311 189.071 M98.533 189.265 C 98.749 190.091,98.585 190.195,96.500 190.555 C 95.519 190.725,95.200 190.635,95.200 190.190 C 95.200 189.865,95.425 189.645,95.700 189.700 C 95.975 189.755,96.190 189.431,96.177 188.981 C 96.145 187.865,98.233 188.117,98.533 189.265 M115.962 189.100 C 115.723 189.729,115.767 190.002,116.110 190.006 C 116.489 190.011,116.491 190.081,116.118 190.318 C 114.877 191.107,112.541 190.380,112.706 189.256 C 112.850 188.280,113.021 188.183,114.584 188.191 C 116.201 188.199,116.284 188.254,115.962 189.100 M131.700 188.395 C 132.088 188.398,132.411 188.712,132.425 189.100 C 132.445 189.636,132.535 189.590,132.812 188.900 C 133.011 188.405,133.264 188.000,133.375 188.000 C 133.629 188.000,133.189 189.253,132.721 189.861 C 132.500 190.148,132.558 190.386,132.875 190.492 C 133.271 190.624,131.348 190.583,129.557 190.422 C 129.424 190.410,129.334 189.851,129.357 189.181 C 129.393 188.165,129.534 187.997,130.200 188.175 C 130.640 188.293,131.315 188.392,131.700 188.395 M271.200 188.657 C 271.200 188.920,271.321 189.449,271.468 189.833 C 271.651 190.309,271.587 190.439,271.268 190.242 C 271.011 190.083,270.800 190.143,270.800 190.376 C 270.800 190.609,270.300 190.800,269.689 190.800 C 268.510 190.800,267.017 189.451,267.322 188.662 C 267.565 188.034,271.200 188.029,271.200 188.657 M276.558 189.340 C 276.936 190.747,276.878 190.800,274.938 190.800 C 273.113 190.800,273.090 190.784,273.787 190.015 C 274.177 189.583,274.404 188.987,274.290 188.690 C 274.139 188.296,274.385 188.195,275.205 188.315 C 275.934 188.422,276.409 188.782,276.558 189.340 M280.833 188.400 C 281.419 188.400,281.600 188.684,281.600 189.600 C 281.600 190.944,280.423 191.247,279.100 190.243 C 277.971 189.386,278.304 187.724,279.512 188.188 C 279.816 188.304,280.411 188.400,280.833 188.400 M294.163 189.400 C 294.129 190.530,294.023 190.607,292.342 190.719 L 290.556 190.837 290.711 189.510 C 290.941 187.540,294.223 187.436,294.163 189.400 M299.294 189.659 C 299.461 190.797,299.415 190.836,298.034 190.720 C 296.732 190.611,296.600 190.489,296.600 189.392 C 296.600 187.600,299.027 187.841,299.294 189.659 M309.700 188.395 C 310.088 188.398,310.411 188.712,310.425 189.100 C 310.445 189.636,310.535 189.590,310.812 188.900 C 311.011 188.405,311.264 188.000,311.375 188.000 C 311.623 188.000,311.194 189.246,310.741 189.837 C 310.557 190.077,310.535 190.402,310.692 190.558 C 310.848 190.715,310.227 190.799,309.312 190.745 C 308.397 190.691,307.738 190.501,307.847 190.323 C 307.957 190.145,307.902 190.000,307.724 190.000 C 307.546 190.000,307.400 189.541,307.400 188.979 C 307.400 188.154,307.553 188.000,308.200 188.174 C 308.640 188.292,309.315 188.392,309.700 188.395 M322.479 189.000 C 321.926 191.275,318.965 191.751,319.370 189.500 C 319.565 188.418,319.539 188.351,319.215 189.100 C 319.001 189.595,318.730 190.000,318.613 190.000 C 318.496 190.000,318.400 189.595,318.400 189.100 C 318.400 188.279,318.588 188.200,320.536 188.200 C 322.471 188.200,322.655 188.276,322.479 189.000 M325.104 188.988 C 325.001 189.531,325.070 189.881,325.258 189.764 C 325.446 189.648,325.600 189.293,325.600 188.976 C 325.600 188.628,325.996 188.400,326.600 188.400 C 327.200 188.400,327.600 188.629,327.600 188.971 C 327.600 189.286,327.883 189.826,328.229 190.171 C 328.914 190.857,325.962 191.145,324.937 190.493 C 324.504 190.218,324.644 188.000,325.093 188.000 C 325.203 188.000,325.208 188.445,325.104 188.988 M340.011 189.979 C 339.220 191.457,336.488 191.143,336.715 189.600 C 336.910 188.270,339.200 187.717,339.200 189.000 C 339.200 189.969,339.996 189.687,340.046 188.700 C 340.080 188.056,340.144 187.993,340.272 188.479 C 340.370 188.853,340.253 189.528,340.011 189.979 M344.400 189.645 C 344.400 190.890,343.401 191.241,342.480 190.320 C 341.469 189.309,341.895 188.123,343.200 188.315 C 344.216 188.464,344.400 188.668,344.400 189.645 M391.200 189.224 C 391.200 189.651,391.009 190.000,390.776 190.000 C 390.543 190.000,390.464 190.180,390.600 190.400 C 390.746 190.637,390.291 190.800,389.484 190.800 C 387.474 190.800,387.330 188.522,389.327 188.314 C 390.945 188.145,391.200 188.269,391.200 189.224 M18.405 188.700 C 18.408 188.865,18.508 189.362,18.627 189.805 C 18.824 190.539,18.684 190.597,17.022 190.464 C 16.020 190.385,15.200 190.138,15.200 189.917 C 15.200 189.696,15.470 189.618,15.800 189.745 C 16.208 189.901,16.400 189.723,16.400 189.187 C 16.400 188.428,18.392 187.944,18.405 188.700 M22.046 189.100 C 22.091 189.767,22.102 189.767,22.276 189.100 C 22.564 187.998,23.492 188.283,23.675 189.529 C 23.825 190.553,23.745 190.641,22.820 190.470 C 21.756 190.273,21.217 189.748,21.206 188.900 C 21.197 188.122,21.994 188.312,22.046 189.100 M29.908 189.400 C 29.839 190.237,29.621 190.400,28.568 190.400 C 27.443 190.400,27.331 190.295,27.502 189.400 C 27.653 188.610,27.934 188.400,28.842 188.400 C 29.823 188.400,29.979 188.546,29.908 189.400 M41.200 189.000 C 41.200 189.330,41.391 189.600,41.624 189.600 C 42.724 189.600,41.426 190.333,40.103 190.459 C 38.711 190.591,38.594 190.520,38.516 189.501 C 38.439 188.496,38.552 188.400,39.816 188.400 C 40.780 188.400,41.200 188.582,41.200 189.000 M46.400 188.869 C 46.400 189.126,46.661 189.626,46.981 189.979 C 47.506 190.559,47.391 190.617,45.791 190.587 C 43.885 190.551,43.254 190.261,44.035 189.778 C 44.347 189.585,44.421 189.643,44.238 189.938 C 44.081 190.192,44.143 190.400,44.376 190.400 C 44.609 190.400,44.800 189.950,44.800 189.400 C 44.800 188.667,45.013 188.400,45.600 188.400 C 46.040 188.400,46.400 188.611,46.400 188.869 M63.600 189.056 C 63.600 189.417,63.915 189.970,64.300 190.286 C 64.942 190.812,64.918 190.841,64.000 190.635 C 63.450 190.512,62.620 190.408,62.155 190.405 C 61.471 190.401,61.347 190.210,61.502 189.400 C 61.727 188.222,63.600 187.914,63.600 189.056 M69.600 189.200 C 69.600 189.640,69.780 190.000,70.000 190.000 C 70.220 190.000,70.400 190.152,70.400 190.337 C 70.400 190.522,69.762 190.567,68.983 190.437 C 68.203 190.307,67.573 190.065,67.583 189.900 C 67.592 189.735,67.600 189.330,67.600 189.000 C 67.600 188.627,67.978 188.400,68.600 188.400 C 69.333 188.400,69.600 188.613,69.600 189.200 M81.200 189.400 C 81.200 190.244,81.013 190.400,80.000 190.400 C 78.987 190.400,78.800 190.244,78.800 189.400 C 78.800 188.556,78.987 188.400,80.000 188.400 C 81.013 188.400,81.200 188.556,81.200 189.400 M350.682 189.500 C 350.510 190.804,349.143 191.200,348.171 190.228 C 347.825 189.883,347.736 189.600,347.971 189.600 C 348.207 189.600,348.400 189.330,348.400 189.000 C 348.400 188.598,348.802 188.400,349.614 188.400 C 350.706 188.400,350.813 188.510,350.682 189.500 M373.200 189.600 C 373.200 190.659,373.063 190.800,372.033 190.800 C 370.812 190.800,370.406 190.278,370.712 189.100 C 371.061 187.753,373.200 188.183,373.200 189.600 M379.200 189.424 C 379.200 190.004,379.373 190.340,379.600 190.200 C 379.820 190.064,380.000 190.143,380.000 190.376 C 380.000 190.609,379.280 190.800,378.400 190.800 C 376.889 190.800,376.800 190.733,376.800 189.600 C 376.800 188.533,376.933 188.400,378.000 188.400 C 379.021 188.400,379.200 188.553,379.200 189.424 M133.301 193.761 C 133.155 193.996,133.058 194.821,133.085 195.594 L 133.134 197.000 132.820 195.600 C 132.534 194.327,132.501 194.300,132.453 195.300 L 132.400 196.400 71.233 196.400 C 22.662 196.400,10.030 196.503,9.888 196.900 C 9.559 197.821,9.312 197.015,9.489 195.600 L 9.664 194.200 71.132 194.200 C 115.044 194.200,132.578 194.076,132.522 193.767 C 132.479 193.528,132.697 193.333,133.005 193.333 C 133.313 193.333,133.446 193.526,133.301 193.761 M391.119 193.956 C 391.220 194.261,391.133 194.406,390.924 194.277 C 390.705 194.141,390.618 194.539,390.718 195.221 L 390.891 196.400 329.545 196.499 L 268.200 196.597 329.181 196.700 C 362.721 196.756,390.297 196.937,390.461 197.101 C 390.990 197.630,268.355 197.261,267.718 196.732 C 267.044 196.172,267.195 194.159,267.900 194.300 C 268.175 194.355,268.379 194.265,268.353 194.100 C 268.327 193.935,268.327 193.664,268.353 193.499 C 268.449 192.886,390.914 193.341,391.119 193.956 M158.000 196.400 C 158.000 196.643,159.800 196.800,162.600 196.800 L 167.200 196.800 167.200 206.000 L 167.200 215.200 162.200 215.200 L 157.200 215.200 157.200 205.600 C 157.200 199.467,157.344 196.000,157.600 196.000 C 157.820 196.000,158.000 196.180,158.000 196.400 M167.911 205.700 L 167.822 215.400 167.611 206.000 C 167.409 196.981,167.429 196.000,167.824 196.000 C 167.921 196.000,167.960 200.365,167.911 205.700 M205.200 206.000 L 205.200 215.200 201.000 215.200 L 196.800 215.200 196.800 206.000 L 196.800 196.800 201.000 196.800 L 205.200 196.800 205.200 206.000 M231.899 210.700 C 231.829 213.285,231.772 211.170,231.772 206.000 C 231.772 200.830,231.829 198.715,231.899 201.300 C 231.968 203.885,231.968 208.115,231.899 210.700 M241.200 206.000 L 241.200 215.200 237.000 215.200 L 232.800 215.200 232.800 206.000 L 232.800 196.800 237.000 196.800 L 241.200 196.800 241.200 206.000 M59.620 206.400 L 63.600 206.400 63.600 215.600 L 63.600 224.800 59.900 224.795 C 53.824 224.786,54.399 225.743,54.405 215.653 C 54.411 206.734,54.604 204.549,55.278 205.754 C 55.573 206.281,56.373 206.400,59.620 206.400 M91.986 214.955 L 92.024 224.709 87.412 224.773 L 82.800 224.837 82.800 215.619 L 82.800 206.400 87.200 206.400 C 89.620 206.400,91.579 206.265,91.553 206.100 C 91.478 205.628,91.584 205.200,91.774 205.200 C 91.870 205.200,91.965 209.590,91.986 214.955 M120.000 215.398 L 120.000 224.748 114.814 224.748 L 109.628 224.748 109.514 215.474 L 109.400 206.200 114.300 206.334 C 117.787 206.429,119.200 206.336,119.200 206.010 C 119.200 205.759,119.380 205.664,119.600 205.800 C 119.848 205.953,120.000 209.596,120.000 215.398 M37.400 215.433 L 37.400 224.600 32.500 224.726 L 27.600 224.853 27.600 215.639 L 27.600 206.426 32.100 206.303 C 34.575 206.235,36.780 206.200,37.000 206.223 C 37.254 206.251,37.400 209.618,37.400 215.433 M343.752 225.960 C 343.608 226.092,343.410 225.975,343.312 225.700 C 343.185 225.343,341.938 225.200,338.967 225.200 L 334.800 225.200 334.800 216.000 L 334.800 206.800 339.200 206.800 C 342.404 206.800,343.625 206.664,343.693 206.300 C 343.744 206.025,343.837 210.282,343.900 215.760 C 343.963 221.237,343.896 225.827,343.752 225.960 M27.099 220.300 C 27.029 222.885,26.972 220.770,26.972 215.600 C 26.972 210.430,27.029 208.315,27.099 210.900 C 27.168 213.485,27.168 217.715,27.099 220.300 M288.400 216.000 L 288.400 225.200 284.000 225.200 L 279.600 225.200 279.600 216.000 L 279.600 206.800 284.000 206.800 L 288.400 206.800 288.400 216.000 M316.800 216.000 L 316.800 225.200 312.280 225.200 C 309.558 225.200,307.587 225.373,307.325 225.635 C 307.012 225.948,306.815 225.948,306.622 225.635 C 306.472 225.393,306.629 225.200,306.976 225.200 C 307.523 225.200,307.600 224.066,307.600 216.000 L 307.600 206.800 312.200 206.800 L 316.800 206.800 316.800 216.000 M361.899 220.877 C 361.830 223.585,361.773 221.480,361.773 216.200 C 361.772 210.920,361.829 208.705,361.899 211.277 C 361.968 213.849,361.968 218.169,361.899 220.877 M371.286 216.100 L 371.400 225.400 366.900 225.276 L 362.400 225.152 362.400 215.976 L 362.400 206.800 366.786 206.800 L 371.172 206.800 371.286 216.100 M211.606 235.900 C 211.611 236.498,211.669 236.513,212.000 236.000 C 212.254 235.608,212.390 241.643,212.394 253.433 C 212.397 263.352,212.325 271.542,212.234 271.633 C 212.142 271.725,207.012 271.750,200.834 271.688 L 189.600 271.576 189.600 253.388 L 189.600 235.200 200.600 235.200 C 210.807 235.200,211.600 235.250,211.606 235.900 M36.600 237.426 C 37.385 237.636,37.396 237.893,37.200 250.920 L 37.000 264.200 32.052 264.313 C 27.637 264.413,27.131 264.356,27.352 263.780 C 27.489 263.425,27.600 257.569,27.600 250.767 L 27.600 238.400 32.000 238.400 L 36.400 238.400 36.494 251.300 L 36.588 264.200 36.706 251.800 C 36.856 236.035,37.400 237.655,31.896 237.499 L 27.400 237.371 31.600 237.291 C 33.910 237.247,36.160 237.308,36.600 237.426 M61.700 237.495 C 60.545 237.576,58.655 237.576,57.500 237.495 C 56.345 237.414,57.290 237.348,59.600 237.348 C 61.910 237.348,62.855 237.414,61.700 237.495 M89.315 237.494 C 88.168 237.575,86.188 237.576,84.915 237.496 C 83.642 237.416,84.580 237.351,87.000 237.350 C 89.420 237.349,90.462 237.414,89.315 237.494 M120.000 237.500 C 120.000 237.665,118.245 237.749,116.100 237.687 C 110.113 237.514,109.673 237.326,115.100 237.260 C 117.795 237.227,120.000 237.335,120.000 237.500 M241.200 250.625 L 241.200 263.600 237.233 263.600 C 235.051 263.600,233.026 263.660,232.733 263.734 C 232.440 263.808,232.290 263.809,232.400 263.735 C 232.510 263.661,232.510 257.839,232.400 250.797 C 232.290 243.755,232.245 237.860,232.299 237.697 C 232.354 237.533,234.379 237.456,236.799 237.525 L 241.200 237.650 241.200 250.625 M343.605 264.155 C 343.332 264.428,343.200 264.404,343.200 264.080 C 343.200 263.737,342.000 263.600,339.000 263.600 L 334.800 263.600 334.800 251.000 L 334.800 238.400 338.957 238.400 C 342.519 238.400,343.163 238.300,343.457 237.700 C 343.657 237.292,343.844 242.588,343.905 250.375 C 343.974 259.020,343.868 263.892,343.605 264.155 M64.706 251.275 C 64.623 261.037,64.490 263.778,64.100 263.700 C 63.825 263.645,63.600 263.780,63.600 264.000 C 63.600 264.240,62.000 264.400,59.600 264.400 L 55.600 264.400 55.600 251.400 L 55.600 238.400 59.576 238.400 C 62.098 238.400,63.655 238.235,63.832 237.949 C 64.602 236.703,64.803 239.770,64.706 251.275 M91.638 238.154 C 91.312 238.547,91.189 242.400,91.212 251.454 L 91.245 264.200 87.023 264.314 L 82.800 264.427 82.800 251.414 L 82.800 238.400 86.976 238.400 C 89.329 238.400,91.261 238.225,91.400 238.000 C 91.536 237.780,91.749 237.600,91.873 237.600 C 91.997 237.600,91.891 237.849,91.638 238.154 M163.000 238.000 L 158.600 238.242 162.900 238.321 L 167.200 238.400 167.200 250.800 C 167.200 257.620,167.201 263.335,167.202 263.500 C 167.203 263.665,165.268 263.813,162.902 263.828 L 158.600 263.856 163.000 263.607 L 167.400 263.358 162.700 263.279 L 158.000 263.200 158.000 250.880 C 158.000 236.363,157.525 237.573,163.180 237.679 L 167.400 237.758 163.000 238.000 M27.200 250.776 C 27.200 258.863,27.053 263.644,26.800 263.800 C 26.536 263.963,26.400 259.604,26.400 251.024 C 26.400 242.608,26.542 238.000,26.800 238.000 C 27.058 238.000,27.200 242.525,27.200 250.776 M311.833 238.400 L 315.600 238.400 315.600 251.000 L 315.600 263.600 311.600 263.600 C 308.062 263.600,307.599 263.681,307.587 264.300 C 307.576 264.933,307.519 264.926,306.987 264.224 C 306.362 263.396,306.071 238.863,306.679 238.254 C 306.833 238.101,307.207 238.071,307.512 238.188 C 307.816 238.304,309.761 238.400,311.833 238.400 M371.289 250.776 L 371.178 263.552 366.554 263.676 C 364.011 263.744,361.856 263.725,361.765 263.633 C 361.674 263.542,361.641 257.782,361.692 250.833 L 361.783 238.200 362.000 251.000 L 362.217 263.800 362.308 251.113 L 362.400 238.426 366.900 238.299 C 369.375 238.228,371.400 238.132,371.400 238.085 C 371.400 238.038,371.350 243.749,371.289 250.776 M109.899 257.275 C 109.833 260.864,109.779 258.040,109.778 251.000 C 109.778 243.960,109.833 241.024,109.899 244.475 C 109.966 247.926,109.966 253.686,109.899 257.275 M119.200 251.400 L 119.200 264.400 114.800 264.400 L 110.400 264.400 110.400 251.400 L 110.400 238.400 114.800 238.400 L 119.200 238.400 119.200 251.400 M288.889 251.400 C 288.950 258.550,288.865 264.400,288.700 264.400 C 288.535 264.400,288.400 264.209,288.400 263.976 C 288.400 263.695,286.883 263.593,283.900 263.676 L 279.400 263.800 279.511 251.100 L 279.622 238.400 284.200 238.400 L 288.779 238.400 288.889 251.400 M306.800 251.000 C 306.800 259.133,306.942 263.600,307.200 263.600 C 307.458 263.600,307.600 259.133,307.600 251.000 C 307.600 242.867,307.458 238.400,307.200 238.400 C 306.942 238.400,306.800 242.867,306.800 251.000 M316.699 257.275 C 316.633 260.864,316.579 258.040,316.578 251.000 C 316.578 243.960,316.633 241.024,316.699 244.475 C 316.766 247.926,316.766 253.686,316.699 257.275 M71.433 273.600 L 132.400 273.600 132.400 274.800 L 132.400 276.000 71.200 276.000 C 24.838 276.000,10.000 276.113,10.000 276.467 C 10.000 277.746,9.483 276.200,9.444 274.806 C 9.412 273.613,9.539 273.244,9.933 273.395 C 10.226 273.508,37.901 273.600,71.433 273.600 M391.043 276.633 C 390.909 276.981,390.800 277.566,390.800 277.933 C 390.800 279.085,267.455 278.759,267.272 277.605 C 267.145 276.801,267.258 276.800,328.872 276.702 L 390.600 276.604 329.400 276.400 L 268.200 276.196 329.743 276.098 C 385.723 276.009,391.264 276.057,391.043 276.633 " stroke="none" fill="#dcdcdc" fill-rule="evenodd"></path><path id="path1" d="M211.200 108.000 C 211.200 108.220,211.335 108.414,211.500 108.431 C 211.665 108.447,212.114 108.521,212.498 108.595 C 213.331 108.754,213.803 108.173,213.162 107.776 C 212.914 107.623,212.553 107.746,212.361 108.049 C 212.109 108.448,212.011 108.462,212.006 108.100 C 212.003 107.825,211.820 107.600,211.600 107.600 C 211.380 107.600,211.200 107.780,211.200 108.000 M202.098 109.866 C 201.821 109.977,201.702 110.242,201.833 110.454 C 201.980 110.691,202.288 110.659,202.636 110.370 C 203.024 110.048,203.200 110.038,203.200 110.338 C 203.200 110.579,203.469 110.672,203.798 110.546 C 204.126 110.419,204.296 110.155,204.174 109.958 C 203.938 109.577,202.926 109.532,202.098 109.866 M216.292 113.842 C 216.131 114.002,216.000 114.409,216.000 114.747 C 216.000 115.197,216.118 115.242,216.445 114.915 C 216.690 114.670,216.821 114.263,216.737 114.010 C 216.652 113.757,216.452 113.681,216.292 113.842 M216.088 116.641 C 216.043 117.193,216.168 117.543,216.367 117.420 C 216.566 117.297,216.690 116.933,216.643 116.610 C 216.492 115.584,216.174 115.602,216.088 116.641 M213.282 120.950 C 213.565 121.252,214.037 121.407,214.331 121.294 C 214.778 121.123,214.778 121.032,214.334 120.750 C 213.410 120.165,212.678 120.303,213.282 120.950 M207.600 121.200 C 207.600 121.420,207.398 121.555,207.150 121.500 C 206.903 121.445,206.612 121.642,206.504 121.939 C 206.347 122.369,206.478 122.387,207.154 122.025 C 207.901 121.625,208.337 120.800,207.800 120.800 C 207.690 120.800,207.600 120.980,207.600 121.200 M201.612 121.900 C 201.604 122.537,201.833 122.800,202.400 122.800 C 202.840 122.800,203.200 122.609,203.200 122.376 C 203.200 122.143,203.031 122.057,202.825 122.185 C 202.618 122.312,202.264 122.098,202.037 121.708 C 201.665 121.070,201.623 121.089,201.612 121.900 M194.000 134.420 L 193.000 135.222 194.100 134.747 C 194.705 134.485,195.200 134.120,195.200 133.936 C 195.200 133.479,195.145 133.502,194.000 134.420 M201.894 133.839 C 201.763 133.971,201.758 134.346,201.883 134.673 C 202.069 135.157,202.174 135.168,202.450 134.734 C 203.039 133.803,202.614 133.119,201.894 133.839 M202.832 135.100 C 202.854 135.588,202.929 135.635,203.080 135.255 C 203.263 134.794,203.351 134.794,203.642 135.255 C 203.913 135.681,203.989 135.648,203.994 135.100 C 203.997 134.715,203.730 134.400,203.400 134.400 C 203.070 134.400,202.814 134.715,202.832 135.100 M191.200 136.400 C 191.200 136.840,191.380 137.200,191.600 137.200 C 191.820 137.200,192.000 136.840,192.000 136.400 C 192.000 135.960,191.820 135.600,191.600 135.600 C 191.380 135.600,191.200 135.960,191.200 136.400 M206.000 136.958 C 206.000 137.587,207.101 137.634,207.339 137.015 C 207.434 136.767,207.172 136.538,206.756 136.507 C 206.340 136.475,206.000 136.679,206.000 136.958 M187.572 138.234 C 187.318 138.540,186.922 138.675,186.693 138.534 C 186.451 138.384,186.396 138.470,186.562 138.738 C 186.920 139.317,188.000 139.346,188.000 138.776 C 188.000 138.543,188.180 138.464,188.400 138.600 C 188.620 138.736,188.800 138.646,188.800 138.400 C 188.800 138.154,189.025 138.082,189.300 138.241 C 189.575 138.399,189.660 138.374,189.488 138.186 C 188.972 137.619,188.064 137.641,187.572 138.234 M184.811 139.985 C 184.309 140.302,184.326 140.397,184.928 140.628 C 185.317 140.777,185.747 140.787,185.884 140.649 C 186.021 140.512,185.913 140.400,185.643 140.400 C 185.373 140.400,185.264 140.220,185.400 140.000 C 185.704 139.507,185.571 139.504,184.811 139.985 M181.200 141.924 C 181.200 142.139,181.485 142.424,181.833 142.557 C 182.223 142.707,182.406 142.618,182.308 142.325 C 182.109 141.727,181.200 141.398,181.200 141.924 M216.562 142.862 C 216.385 143.148,216.452 143.215,216.738 143.038 C 217.012 142.869,217.200 143.007,217.200 143.376 C 217.200 143.719,217.380 144.000,217.600 144.000 C 218.066 144.000,218.085 143.886,217.757 143.033 C 217.471 142.287,216.962 142.214,216.562 142.862 M220.400 145.624 C 220.400 145.857,220.580 145.936,220.800 145.800 C 221.020 145.664,221.200 145.811,221.200 146.126 C 221.200 146.794,223.077 146.923,223.473 146.282 C 223.632 146.024,223.477 145.962,223.066 146.119 C 222.631 146.286,222.400 146.171,222.400 145.787 C 222.400 145.428,222.013 145.200,221.400 145.200 C 220.850 145.200,220.400 145.391,220.400 145.624 M173.200 146.747 C 173.200 146.964,172.885 147.224,172.500 147.324 C 171.959 147.466,172.000 147.518,172.676 147.554 C 173.647 147.605,174.242 146.997,173.607 146.604 C 173.383 146.466,173.200 146.530,173.200 146.747 M224.800 147.730 C 224.800 148.047,225.257 148.394,225.816 148.501 C 226.458 148.624,226.777 148.530,226.683 148.248 C 226.600 148.001,226.368 147.797,226.167 147.794 C 225.965 147.791,225.575 147.645,225.300 147.470 C 224.984 147.270,224.800 147.366,224.800 147.730 M169.828 148.755 C 169.707 148.950,169.877 149.332,170.204 149.604 C 170.618 149.947,170.800 149.961,170.800 149.649 C 170.800 149.402,170.575 149.197,170.300 149.194 C 169.967 149.190,170.000 149.058,170.400 148.800 C 170.761 148.567,170.810 148.410,170.524 148.406 C 170.262 148.403,169.949 148.560,169.828 148.755 M167.298 150.175 C 166.370 150.603,166.289 151.230,167.125 151.508 C 167.386 151.595,167.600 151.397,167.600 151.067 C 167.600 150.737,167.825 150.386,168.100 150.288 C 168.375 150.190,168.510 150.031,168.400 149.935 C 168.290 149.838,167.794 149.947,167.298 150.175 M229.399 150.001 C 229.193 150.334,229.233 150.427,229.510 150.256 C 229.762 150.100,229.997 150.365,230.072 150.894 C 230.148 151.430,230.318 151.620,230.488 151.359 C 230.645 151.116,230.538 150.594,230.248 150.198 C 229.836 149.635,229.652 149.592,229.399 150.001 M165.039 151.537 C 164.937 151.702,165.018 152.100,165.220 152.419 C 165.495 152.853,165.589 152.868,165.594 152.476 C 165.597 152.188,165.780 152.064,166.000 152.200 C 166.220 152.336,166.400 152.276,166.400 152.066 C 166.400 151.575,165.284 151.141,165.039 151.537 M235.000 153.746 C 235.440 154.092,236.061 154.380,236.380 154.387 C 237.203 154.405,236.421 153.753,235.200 153.404 C 234.229 153.125,234.223 153.135,235.000 153.746 M159.207 155.340 C 158.705 156.146,158.717 156.162,159.397 155.600 C 159.796 155.270,160.230 155.030,160.361 155.067 C 160.868 155.208,160.806 154.888,160.289 154.689 C 159.988 154.574,159.502 154.867,159.207 155.340 M240.967 157.500 C 241.132 157.665,241.426 157.800,241.621 157.800 C 241.815 157.800,242.598 158.388,243.360 159.106 C 244.201 159.900,244.848 160.247,245.007 159.989 C 245.364 159.411,244.397 158.316,243.749 158.564 C 243.185 158.781,242.596 158.179,243.098 157.900 C 243.264 157.807,243.175 157.786,242.900 157.853 C 242.625 157.920,242.400 157.801,242.400 157.587 C 242.400 157.374,242.010 157.200,241.533 157.200 C 241.057 157.200,240.802 157.335,240.967 157.500 M153.867 157.867 C 153.484 158.249,153.538 158.800,153.957 158.800 C 154.154 158.800,154.418 158.530,154.545 158.200 C 154.779 157.590,154.353 157.381,153.867 157.867 M147.200 159.588 L 141.800 159.811 146.935 160.006 C 150.755 160.150,152.176 160.072,152.484 159.700 C 152.712 159.425,152.831 159.237,152.749 159.282 C 152.667 159.327,150.170 159.465,147.200 159.588 M249.100 159.897 C 250.695 159.973,253.305 159.973,254.900 159.897 C 256.495 159.821,255.190 159.759,252.000 159.759 C 248.810 159.759,247.505 159.821,249.100 159.897 M256.880 160.742 C 256.186 161.182,256.381 166.464,257.100 166.701 C 257.472 166.825,257.600 166.041,257.600 163.633 C 257.600 161.855,257.555 160.403,257.500 160.406 C 257.445 160.409,257.166 160.561,256.880 160.742 M141.364 166.149 C 141.237 166.479,140.879 166.652,140.567 166.532 C 140.255 166.412,140.000 166.514,140.000 166.757 C 140.000 167.362,140.891 167.314,141.784 166.661 C 142.298 166.285,142.381 166.035,142.058 165.836 C 141.802 165.677,141.491 165.818,141.364 166.149 M137.029 169.009 C 136.605 169.329,136.365 169.699,136.496 169.829 C 136.626 169.960,137.108 169.692,137.567 169.233 C 138.519 168.281,138.179 168.139,137.029 169.009 M135.028 169.555 C 134.907 169.750,135.077 170.132,135.404 170.404 C 135.900 170.815,136.000 170.755,136.000 170.049 C 136.000 169.191,135.432 168.902,135.028 169.555 M131.800 171.600 C 131.253 172.485,132.196 172.713,136.682 172.775 C 139.262 172.810,141.286 172.752,141.179 172.646 C 141.073 172.539,139.291 172.415,137.219 172.369 C 133.065 172.278,131.899 172.088,132.228 171.555 C 132.349 171.360,132.357 171.200,132.247 171.200 C 132.137 171.200,131.936 171.380,131.800 171.600 M101.923 171.900 C 101.623 172.620,102.087 181.200,102.425 181.200 C 103.019 181.200,102.900 172.912,102.300 172.524 C 102.025 172.346,105.850 172.105,110.800 171.988 L 119.800 171.777 110.924 171.688 C 106.042 171.640,101.991 171.735,101.923 171.900 M265.590 171.981 C 265.255 172.178,263.095 172.397,260.790 172.469 L 256.600 172.600 256.600 176.900 C 256.600 182.654,257.362 182.821,257.514 177.100 L 257.627 172.800 262.014 172.800 C 265.646 172.800,266.400 172.697,266.400 172.200 C 266.400 171.508,266.399 171.508,265.590 171.981 M279.692 172.075 C 279.779 172.336,280.109 172.620,280.425 172.705 C 280.892 172.832,280.887 172.782,280.400 172.441 C 279.971 172.142,282.314 171.988,288.600 171.903 L 297.400 171.784 288.467 171.692 C 281.715 171.622,279.572 171.716,279.692 172.075 M297.626 176.270 C 297.590 178.838,297.455 181.112,297.325 181.322 C 297.195 181.532,297.339 181.621,297.644 181.519 C 298.293 181.304,298.698 171.600,298.057 171.600 C 297.855 171.600,297.661 173.701,297.626 176.270 M120.027 176.600 C 119.985 179.577,120.111 181.200,120.381 181.200 C 120.649 181.200,120.800 179.536,120.800 176.600 C 120.800 174.070,120.640 172.000,120.445 172.000 C 120.250 172.000,120.062 174.070,120.027 176.600 M144.600 182.000 C 144.437 182.264,149.588 182.400,159.753 182.400 C 169.588 182.400,175.242 182.255,175.400 182.000 C 175.563 181.736,170.412 181.600,160.247 181.600 C 150.412 181.600,144.758 181.745,144.600 182.000 M184.000 182.005 C 183.602 182.266,188.723 182.392,199.200 182.379 L 215.000 182.360 215.253 183.480 C 215.503 184.589,215.506 184.590,215.553 183.580 C 215.579 183.019,215.384 182.344,215.120 182.080 C 214.509 181.469,184.927 181.398,184.000 182.005 M223.462 182.000 C 223.716 182.330,224.006 183.050,224.107 183.600 C 224.288 184.582,224.292 184.580,224.346 183.500 L 224.400 182.400 239.373 182.400 L 254.347 182.400 254.523 183.500 C 254.647 184.271,254.690 184.151,254.668 183.100 L 254.636 181.600 239.518 181.600 C 228.607 181.600,224.400 181.725,224.400 182.049 C 224.400 182.343,224.158 182.308,223.700 181.949 C 223.091 181.471,223.060 181.478,223.462 182.000 M144.694 185.100 C 144.936 185.731,175.006 185.838,175.394 185.209 C 175.550 184.958,170.074 184.779,160.069 184.709 C 147.744 184.623,144.542 184.704,144.694 185.100 M223.333 185.000 C 223.515 185.546,254.005 185.755,254.546 185.214 C 254.807 184.953,249.536 184.781,239.071 184.709 C 228.620 184.637,223.245 184.737,223.333 185.000 M184.800 185.200 C 184.800 185.459,190.000 185.600,199.600 185.600 C 209.200 185.600,214.400 185.459,214.400 185.200 C 214.400 184.941,209.200 184.800,199.600 184.800 C 190.000 184.800,184.800 184.941,184.800 185.200 M55.200 187.557 C 55.200 187.754,55.470 188.018,55.800 188.145 C 56.165 188.285,56.400 188.145,56.400 187.787 C 56.400 187.464,56.130 187.200,55.800 187.200 C 55.470 187.200,55.200 187.361,55.200 187.557 M86.540 188.400 C 86.379 189.205,86.061 189.600,85.574 189.600 C 84.340 189.600,84.340 190.300,85.574 190.481 C 86.449 190.610,86.729 190.497,86.696 190.026 C 86.673 189.682,86.780 188.905,86.934 188.300 C 87.089 187.695,87.117 187.200,86.998 187.200 C 86.878 187.200,86.672 187.740,86.540 188.400 M106.635 188.205 C 106.294 189.560,107.286 190.438,109.000 190.298 C 109.964 190.219,110.215 190.003,110.274 189.200 C 110.317 188.622,110.262 188.496,110.145 188.900 C 110.011 189.361,109.542 189.600,108.771 189.600 C 107.925 189.600,107.598 189.406,107.594 188.900 C 107.582 187.524,106.925 187.047,106.635 188.205 M284.661 188.066 C 284.297 189.426,284.335 189.600,285.000 189.600 C 285.330 189.600,285.600 189.870,285.600 190.200 C 285.600 191.332,287.945 190.960,288.240 189.781 C 288.381 189.221,288.384 188.651,288.248 188.515 C 288.112 188.378,288.000 188.625,288.000 189.064 C 288.000 189.723,287.791 189.831,286.800 189.685 C 286.031 189.572,285.598 189.274,285.594 188.855 C 285.582 187.599,284.933 187.050,284.661 188.066 M330.976 187.506 C 329.882 188.264,330.503 190.686,331.781 190.642 C 333.114 190.596,333.506 189.794,332.189 189.809 C 331.528 189.816,331.385 189.574,331.421 188.509 C 331.444 187.789,331.450 187.203,331.432 187.206 C 331.414 187.209,331.209 187.344,330.976 187.506 M353.503 187.430 C 353.377 187.557,353.420 188.173,353.600 188.800 C 353.780 189.427,353.832 190.035,353.716 190.150 C 353.343 190.524,355.575 190.896,356.299 190.581 C 356.929 190.307,356.934 190.260,356.343 190.117 C 355.662 189.952,355.756 188.400,356.447 188.400 C 356.641 188.400,356.800 188.220,356.800 188.000 C 356.800 187.178,356.006 187.638,355.764 188.600 C 355.493 189.681,354.432 189.981,354.350 189.000 C 354.258 187.900,354.202 187.668,353.967 187.433 C 353.838 187.305,353.630 187.304,353.503 187.430 M364.888 188.376 C 364.869 189.049,365.021 189.600,365.227 189.600 C 365.687 189.600,365.706 188.386,365.255 187.676 C 365.035 187.328,364.911 187.564,364.888 188.376 M384.900 187.465 C 384.625 187.576,384.400 188.102,384.400 188.633 C 384.400 189.333,384.179 189.600,383.600 189.600 C 383.160 189.600,382.800 189.341,382.800 189.024 C 382.800 188.707,382.620 188.336,382.400 188.200 C 382.167 188.056,382.000 188.460,382.000 189.169 C 382.000 190.140,382.206 190.437,383.024 190.642 C 384.319 190.967,385.549 189.764,385.461 188.259 C 385.428 187.677,385.400 187.215,385.400 187.232 C 385.400 187.249,385.175 187.354,384.900 187.465 M12.579 188.542 C 12.243 189.878,10.400 190.096,10.400 188.800 C 10.400 188.360,10.143 188.000,9.828 188.000 C 9.373 188.000,9.332 188.266,9.628 189.297 C 9.833 190.011,10.000 190.596,10.000 190.597 C 10.068 191.435,13.429 190.338,13.531 189.444 C 13.711 187.882,12.930 187.143,12.579 188.542 M32.855 188.129 C 32.216 188.905,32.580 190.380,33.247 189.713 C 33.478 189.482,33.607 188.882,33.534 188.380 C 33.412 187.550,33.351 187.528,32.855 188.129 M52.667 187.867 C 52.520 188.013,52.400 188.463,52.400 188.867 C 52.400 189.984,50.572 189.845,50.204 188.700 C 49.960 187.938,49.886 187.908,49.728 188.499 C 49.462 189.497,50.534 190.400,51.984 190.400 C 53.154 190.400,53.220 190.319,53.131 189.000 C 53.027 187.455,53.042 187.492,52.667 187.867 M104.000 188.600 C 104.000 189.436,103.810 189.600,102.843 189.600 C 102.206 189.600,101.599 189.825,101.494 190.100 C 101.364 190.438,101.731 190.600,102.628 190.600 C 103.825 190.600,103.990 190.455,104.334 189.100 C 104.553 188.236,104.563 187.600,104.357 187.600 C 104.161 187.600,104.000 188.050,104.000 188.600 M121.504 188.612 C 121.677 189.515,121.569 189.600,120.247 189.600 C 118.400 189.600,118.356 190.261,120.189 190.475 C 121.119 190.583,121.647 190.455,121.789 190.086 C 122.110 189.248,122.041 188.073,121.658 187.836 C 121.470 187.719,121.401 188.069,121.504 188.612 M123.968 187.856 C 124.181 187.964,124.255 188.312,124.133 188.631 C 124.011 188.950,124.133 189.478,124.404 189.805 C 124.959 190.474,126.400 190.615,126.400 190.000 C 126.400 189.780,126.053 189.600,125.628 189.600 C 125.141 189.600,124.808 189.279,124.728 188.731 C 124.658 188.254,124.370 187.817,124.090 187.761 C 123.810 187.706,123.754 187.748,123.968 187.856 M282.000 188.600 C 282.000 189.150,282.069 189.600,282.153 189.600 C 282.238 189.600,282.393 189.150,282.498 188.600 C 282.603 188.050,282.534 187.600,282.345 187.600 C 282.155 187.600,282.000 188.050,282.000 188.600 M301.970 187.857 C 302.197 187.971,302.225 188.418,302.037 188.927 C 301.619 190.059,301.931 191.152,302.442 190.345 C 302.695 189.946,302.789 189.934,302.794 190.300 C 302.797 190.575,303.250 190.800,303.800 190.800 C 304.350 190.800,304.800 190.609,304.800 190.376 C 304.800 190.143,305.008 190.081,305.262 190.238 C 305.548 190.415,305.615 190.348,305.438 190.062 C 305.281 189.808,304.636 189.600,304.004 189.600 C 303.131 189.600,302.825 189.392,302.728 188.731 C 302.658 188.254,302.370 187.817,302.090 187.761 C 301.810 187.706,301.755 187.748,301.970 187.857 M315.954 187.900 C 315.929 188.065,315.940 188.515,315.979 188.900 C 316.026 189.363,315.771 189.600,315.225 189.600 C 314.716 189.600,314.390 189.332,314.375 188.900 C 314.356 188.382,314.252 188.444,313.974 189.137 C 313.467 190.401,313.790 190.784,315.316 190.726 C 316.531 190.681,316.600 190.595,316.600 189.139 C 316.600 187.855,316.106 186.908,315.954 187.900 M358.876 189.100 C 358.996 190.549,361.600 191.816,361.600 190.425 C 361.600 190.191,361.870 190.000,362.200 190.000 C 362.562 190.000,362.800 189.630,362.800 189.067 C 362.800 188.504,362.562 188.133,362.200 188.133 C 361.870 188.133,361.600 188.463,361.600 188.867 C 361.600 189.420,361.296 189.600,360.357 189.600 C 359.230 189.600,359.137 189.506,359.364 188.600 C 359.516 187.996,359.444 187.600,359.183 187.600 C 358.929 187.600,358.803 188.216,358.876 189.100 M72.522 188.658 C 72.373 189.046,72.540 189.513,72.929 189.797 C 73.291 190.062,73.502 190.365,73.397 190.470 C 73.292 190.575,73.745 190.581,74.403 190.485 C 75.851 190.272,76.001 189.600,74.600 189.600 C 73.867 189.600,73.600 189.387,73.600 188.800 C 73.600 187.835,72.875 187.739,72.522 188.658 M89.456 188.278 C 89.038 188.695,89.165 190.000,89.624 190.000 C 89.857 190.000,89.952 190.154,89.836 190.342 C 89.623 190.687,91.287 190.533,92.400 190.104 C 92.730 189.977,93.108 189.893,93.241 189.917 C 93.373 189.941,93.397 189.519,93.294 188.980 C 93.069 187.804,92.400 187.669,92.400 188.800 C 92.400 189.387,92.133 189.600,91.400 189.600 C 90.796 189.600,90.400 189.372,90.400 189.024 C 90.400 188.355,89.829 187.904,89.456 188.278 M112.720 189.165 C 112.542 190.378,114.813 191.148,116.118 190.318 C 116.491 190.081,116.489 190.011,116.110 190.006 C 115.762 190.002,115.723 189.729,115.975 189.067 C 116.243 188.362,116.191 188.133,115.765 188.133 C 115.454 188.133,115.200 188.463,115.200 188.867 C 115.200 189.333,114.909 189.600,114.400 189.600 C 113.867 189.600,113.600 189.333,113.600 188.800 C 113.600 187.568,112.912 187.853,112.720 189.165 M129.357 189.201 C 129.334 189.860,129.424 190.410,129.557 190.422 C 131.348 190.583,133.271 190.624,132.875 190.492 C 132.558 190.386,132.500 190.148,132.721 189.861 C 133.297 189.113,133.635 187.931,133.195 188.203 C 132.978 188.337,132.800 188.687,132.800 188.980 C 132.800 189.285,132.234 189.579,131.472 189.667 C 130.274 189.807,130.162 189.734,130.319 188.911 C 130.432 188.322,130.300 188.000,129.947 188.001 C 129.616 188.001,129.383 188.475,129.357 189.201 M267.369 188.537 C 267.025 189.432,268.427 190.800,269.689 190.800 C 270.300 190.800,270.800 190.609,270.800 190.376 C 270.800 190.143,271.011 190.083,271.268 190.242 C 271.587 190.439,271.651 190.309,271.468 189.833 C 271.321 189.449,271.200 188.879,271.200 188.567 C 271.200 188.255,271.020 188.000,270.800 188.000 C 270.580 188.000,270.400 188.360,270.400 188.800 C 270.400 189.387,270.133 189.600,269.400 189.600 C 268.796 189.600,268.400 189.372,268.400 189.024 C 268.400 188.199,267.637 187.839,267.369 188.537 M278.667 188.267 C 278.181 188.752,278.390 189.704,279.100 190.243 C 280.063 190.974,281.600 190.947,281.600 190.200 C 281.600 189.827,281.222 189.600,280.600 189.600 C 279.867 189.600,279.600 189.387,279.600 188.800 C 279.600 188.003,279.174 187.760,278.667 188.267 M290.722 189.419 L 290.556 190.837 292.342 190.719 C 294.084 190.603,295.382 188.133,293.700 188.133 C 293.425 188.133,293.200 188.463,293.200 188.867 C 293.200 189.333,292.909 189.600,292.400 189.600 C 291.867 189.600,291.600 189.333,291.600 188.800 C 291.600 187.429,290.896 187.925,290.722 189.419 M307.400 189.000 C 307.400 189.550,307.546 190.000,307.724 190.000 C 307.902 190.000,307.957 190.145,307.847 190.323 C 307.738 190.501,308.397 190.691,309.312 190.745 C 310.227 190.799,310.848 190.715,310.692 190.558 C 310.535 190.402,310.557 190.077,310.741 189.837 C 311.302 189.105,311.626 187.937,311.195 188.203 C 310.978 188.337,310.800 188.707,310.800 189.024 C 310.800 189.397,310.378 189.600,309.600 189.600 C 308.667 189.600,308.400 189.422,308.400 188.800 C 308.400 188.360,308.175 188.000,307.900 188.000 C 307.625 188.000,307.400 188.450,307.400 189.000 M318.400 189.090 C 318.400 190.160,318.998 190.015,319.297 188.873 C 319.415 188.421,319.278 188.133,318.945 188.133 C 318.637 188.133,318.400 188.549,318.400 189.090 M321.716 188.800 C 321.568 189.367,321.170 189.600,320.353 189.600 C 319.595 189.600,319.200 189.805,319.200 190.200 C 319.200 190.946,321.326 191.025,321.893 190.300 C 322.488 189.540,322.777 188.000,322.325 188.000 C 322.105 188.000,321.831 188.360,321.716 188.800 M324.683 189.099 C 324.424 190.455,324.901 190.786,327.129 190.794 C 328.716 190.799,328.805 190.747,328.215 190.158 C 327.803 189.746,327.102 189.571,326.259 189.669 C 325.075 189.807,324.962 189.732,325.119 188.911 C 325.215 188.410,325.203 188.000,325.093 188.000 C 324.983 188.000,324.799 188.495,324.683 189.099 M340.046 188.700 C 340.007 189.471,339.777 189.600,338.443 189.600 C 337.428 189.600,336.805 189.809,336.655 190.200 C 336.475 190.671,336.764 190.800,337.998 190.800 C 339.680 190.800,340.628 189.832,340.272 188.479 C 340.144 187.993,340.080 188.056,340.046 188.700 M342.000 188.896 C 342.000 189.415,342.216 190.056,342.480 190.320 C 343.156 190.996,344.400 190.918,344.400 190.200 C 344.400 189.867,344.044 189.600,343.600 189.600 C 343.160 189.600,342.800 189.341,342.800 189.024 C 342.800 188.707,342.620 188.336,342.400 188.200 C 342.177 188.062,342.000 188.369,342.000 188.896 M367.716 188.800 C 367.587 189.293,367.170 189.600,366.630 189.600 C 366.148 189.600,365.437 189.831,365.051 190.114 C 364.437 190.562,364.553 190.625,365.971 190.614 C 366.863 190.606,367.616 190.420,367.644 190.200 C 367.673 189.980,367.850 189.395,368.038 188.900 C 368.226 188.405,368.278 188.000,368.153 188.000 C 368.028 188.000,367.831 188.360,367.716 188.800 M390.400 188.776 C 390.400 189.841,388.544 189.950,388.288 188.900 C 388.194 188.515,388.118 188.785,388.119 189.500 C 388.122 190.712,388.214 190.800,389.484 190.800 C 390.291 190.800,390.746 190.637,390.600 190.400 C 390.464 190.180,390.543 190.000,390.776 190.000 C 391.314 190.000,391.333 188.530,390.800 188.200 C 390.580 188.064,390.400 188.323,390.400 188.776 M21.206 188.900 C 21.217 189.757,21.759 190.273,22.863 190.478 C 23.642 190.622,23.872 190.531,23.721 190.138 C 23.607 189.842,23.174 189.600,22.757 189.600 C 22.341 189.600,22.000 189.330,22.000 189.000 C 22.000 188.670,21.820 188.400,21.600 188.400 C 21.380 188.400,21.203 188.625,21.206 188.900 M29.600 189.000 C 29.600 189.369,29.225 189.600,28.624 189.600 C 28.087 189.600,27.536 189.780,27.400 190.000 C 27.254 190.236,27.700 190.400,28.489 190.400 C 29.626 190.400,29.838 190.251,29.908 189.400 C 29.954 188.850,29.903 188.400,29.796 188.400 C 29.688 188.400,29.600 188.670,29.600 189.000 M38.551 189.401 C 38.597 190.541,38.676 190.594,40.103 190.459 C 42.155 190.263,42.426 189.600,40.453 189.600 C 39.269 189.600,38.813 189.420,38.680 188.900 C 38.582 188.515,38.524 188.740,38.551 189.401 M350.400 189.000 C 350.400 189.421,349.975 189.600,348.971 189.600 C 347.673 189.600,347.600 189.657,348.171 190.228 C 349.143 191.200,350.510 190.804,350.682 189.500 C 350.762 188.895,350.731 188.400,350.614 188.400 C 350.496 188.400,350.400 188.670,350.400 189.000 M15.200 190.025 C 15.200 190.187,16.010 190.384,17.000 190.463 C 18.260 190.563,18.800 190.454,18.800 190.100 C 18.800 189.756,18.221 189.615,17.000 189.662 C 16.010 189.699,15.200 189.862,15.200 190.025 M33.600 190.000 C 33.600 190.220,34.061 190.400,34.624 190.400 C 35.204 190.400,35.540 190.227,35.400 190.000 C 35.264 189.780,34.803 189.600,34.376 189.600 C 33.949 189.600,33.600 189.780,33.600 190.000 M43.800 190.000 C 43.498 190.489,43.397 190.459,45.674 190.547 C 47.153 190.605,47.459 190.512,47.125 190.110 C 46.626 189.508,44.800 189.422,44.800 190.000 C 44.800 190.220,44.609 190.400,44.376 190.400 C 44.143 190.400,44.064 190.220,44.200 190.000 C 44.336 189.780,44.357 189.600,44.247 189.600 C 44.137 189.600,43.936 189.780,43.800 190.000 M56.000 190.000 C 56.000 190.220,56.641 190.400,57.424 190.400 C 58.271 190.400,58.747 190.238,58.600 190.000 C 58.464 189.780,57.823 189.600,57.176 189.600 C 56.529 189.600,56.000 189.780,56.000 190.000 M61.400 190.000 C 61.263 190.222,61.564 190.402,62.076 190.405 C 62.584 190.408,63.450 190.512,64.000 190.635 C 64.965 190.852,64.973 190.837,64.224 190.230 C 63.350 189.521,61.775 189.393,61.400 190.000 M67.373 189.956 C 67.638 190.385,70.400 190.756,70.400 190.362 C 70.400 189.970,69.306 189.600,68.144 189.600 C 67.599 189.600,67.252 189.760,67.373 189.956 M78.800 190.000 C 78.800 190.220,79.340 190.400,80.000 190.400 C 80.660 190.400,81.200 190.220,81.200 190.000 C 81.200 189.780,80.660 189.600,80.000 189.600 C 79.340 189.600,78.800 189.780,78.800 190.000 M95.200 190.250 C 95.200 190.601,95.645 190.682,96.700 190.523 C 99.017 190.172,99.308 189.539,97.100 189.652 C 95.898 189.714,95.200 189.933,95.200 190.250 M273.600 190.200 C 273.170 190.719,273.353 190.800,274.951 190.800 C 276.328 190.800,276.800 190.647,276.800 190.200 C 276.800 189.785,276.383 189.600,275.449 189.600 C 274.706 189.600,273.874 189.870,273.600 190.200 M296.498 190.100 C 296.588 190.375,297.321 190.656,298.128 190.724 C 299.319 190.825,299.549 190.731,299.354 190.224 C 299.056 189.448,296.243 189.326,296.498 190.100 M370.655 190.200 C 370.787 190.542,371.383 190.800,372.043 190.800 C 372.805 190.800,373.200 190.595,373.200 190.200 C 373.200 189.782,372.779 189.600,371.813 189.600 C 370.744 189.600,370.478 189.738,370.655 190.200 M376.800 190.200 C 376.800 190.633,377.244 190.800,378.400 190.800 C 379.280 190.800,380.000 190.609,380.000 190.376 C 380.000 190.143,379.820 190.064,379.600 190.200 C 379.380 190.336,379.200 190.257,379.200 190.024 C 379.200 189.791,378.660 189.600,378.000 189.600 C 377.200 189.600,376.800 189.800,376.800 190.200 M132.704 194.967 C 132.931 196.987,133.319 197.527,133.155 195.594 C 133.090 194.821,133.155 193.996,133.301 193.761 C 133.446 193.526,133.330 193.333,133.043 193.333 C 132.668 193.333,132.572 193.796,132.704 194.967 M267.862 193.931 C 267.062 194.816,267.004 196.139,267.738 196.748 C 268.358 197.263,390.856 197.614,390.538 197.100 C 390.436 196.935,362.933 196.800,329.420 196.800 L 268.488 196.800 268.336 195.500 L 268.184 194.200 329.408 194.200 L 390.632 194.200 390.527 195.400 C 390.431 196.499,390.452 196.483,390.779 195.210 C 390.975 194.445,391.050 193.680,390.944 193.510 C 390.467 192.738,268.564 193.156,267.862 193.931 M9.501 195.500 C 9.398 196.325,9.388 197.085,9.479 197.188 C 9.794 197.549,10.388 196.193,10.394 195.100 C 10.403 193.462,9.716 193.770,9.501 195.500 M157.200 205.600 C 157.200 213.867,157.283 215.200,157.800 215.200 C 158.420 215.200,158.748 198.172,158.157 196.633 C 157.431 194.740,157.200 196.905,157.200 205.600 M167.524 196.300 C 167.456 196.465,167.495 200.830,167.611 206.000 L 167.822 215.400 167.911 205.700 C 167.991 196.963,167.924 195.329,167.524 196.300 M231.772 206.000 C 231.772 211.170,231.829 213.285,231.899 210.700 C 231.968 208.115,231.968 203.885,231.899 201.300 C 231.829 198.715,231.772 200.830,231.772 206.000 M54.661 206.066 C 54.523 206.580,54.408 210.907,54.405 215.682 L 54.400 224.364 55.700 224.604 C 56.415 224.735,58.530 224.780,60.400 224.703 L 63.800 224.563 59.700 224.481 L 55.600 224.400 55.594 215.300 C 55.588 206.778,55.282 203.747,54.661 206.066 M91.550 205.400 C 91.523 205.510,91.455 205.780,91.400 206.000 C 91.345 206.220,91.278 210.444,91.250 215.386 L 91.200 224.373 87.100 224.509 L 83.000 224.645 87.512 224.677 L 92.024 224.709 91.986 214.955 C 91.954 206.713,91.841 204.236,91.550 205.400 M119.200 214.976 L 119.200 224.400 114.800 224.400 L 110.400 224.400 110.400 215.267 C 110.400 208.227,110.285 206.133,109.900 206.133 C 109.511 206.133,109.425 208.200,109.514 215.441 L 109.628 224.748 114.814 224.748 L 120.000 224.748 120.000 215.398 C 120.000 209.596,119.848 205.953,119.600 205.800 C 119.338 205.638,119.200 208.796,119.200 214.976 M36.400 215.154 L 36.400 224.374 32.100 224.513 L 27.800 224.652 32.600 224.626 L 37.400 224.600 37.400 215.433 C 37.400 208.456,37.281 206.227,36.900 206.100 C 36.510 205.970,36.400 207.955,36.400 215.154 M343.443 206.633 C 343.016 207.745,343.164 226.000,343.600 226.000 C 343.856 226.000,344.000 222.400,344.000 216.000 C 344.000 206.249,343.945 205.324,343.443 206.633 M26.972 215.600 C 26.972 220.770,27.029 222.885,27.099 220.300 C 27.168 217.715,27.168 213.485,27.099 210.900 C 27.029 208.315,26.972 210.430,26.972 215.600 M315.600 216.000 C 315.600 223.911,315.684 225.200,316.200 225.200 C 316.716 225.200,316.800 223.911,316.800 216.000 C 316.800 208.089,316.716 206.800,316.200 206.800 C 315.684 206.800,315.600 208.089,315.600 216.000 M361.773 216.200 C 361.773 221.480,361.830 223.585,361.899 220.877 C 361.968 218.169,361.968 213.849,361.899 211.277 C 361.829 208.705,361.772 210.920,361.773 216.200 M189.600 235.800 C 189.600 236.319,191.089 236.400,200.600 236.400 C 210.111 236.400,211.600 236.319,211.600 235.800 C 211.600 235.281,210.111 235.200,200.600 235.200 C 191.089 235.200,189.600 235.281,189.600 235.800 M211.900 236.133 C 211.424 237.296,211.526 272.234,212.004 271.756 C 212.268 271.492,212.372 265.090,212.304 253.376 C 212.247 243.489,212.065 235.730,211.900 236.133 M31.785 237.499 C 34.661 237.584,36.277 237.796,36.479 238.114 C 36.649 238.381,36.791 244.270,36.795 251.200 L 36.802 263.800 32.001 263.676 C 28.728 263.592,27.200 263.692,27.200 263.989 C 27.200 264.286,28.763 264.389,32.100 264.312 L 37.000 264.200 37.200 250.920 C 37.433 235.455,38.136 237.167,31.600 237.290 L 27.400 237.370 31.785 237.499 M57.500 237.495 C 58.655 237.576,60.545 237.576,61.700 237.495 C 62.855 237.414,61.910 237.348,59.600 237.348 C 57.290 237.348,56.345 237.414,57.500 237.495 M84.915 237.496 C 86.188 237.576,88.168 237.575,89.315 237.494 C 90.462 237.414,89.420 237.349,87.000 237.350 C 84.580 237.351,83.642 237.416,84.915 237.496 M111.200 237.447 C 113.485 237.738,120.001 237.777,120.000 237.500 C 120.000 237.335,117.795 237.227,115.100 237.260 C 112.405 237.293,110.650 237.377,111.200 237.447 M232.299 237.697 C 232.245 237.860,232.290 243.755,232.400 250.797 C 232.519 258.436,232.452 263.601,232.233 263.600 C 232.032 263.600,231.942 263.645,232.033 263.701 C 232.125 263.756,234.270 263.700,236.800 263.575 L 241.400 263.348 237.100 263.274 L 232.800 263.200 232.800 250.800 L 232.800 238.400 237.000 238.400 C 239.347 238.400,241.200 238.235,241.200 238.025 C 241.200 237.584,232.445 237.261,232.299 237.697 M343.500 237.433 C 343.335 237.598,343.200 243.769,343.200 251.147 C 343.200 260.210,343.332 264.428,343.605 264.155 C 343.868 263.892,343.974 259.042,343.905 250.441 C 343.847 243.122,343.665 237.268,343.500 237.433 M63.821 238.004 C 63.405 239.083,63.768 263.601,64.200 263.601 C 64.730 263.601,64.954 239.004,64.433 238.075 C 64.106 237.494,64.022 237.484,63.821 238.004 M158.480 238.080 C 157.861 238.699,157.783 263.200,158.400 263.200 C 158.658 263.200,158.800 258.738,158.800 250.614 L 158.800 238.027 163.100 237.898 L 167.400 237.770 163.180 237.685 C 160.328 237.628,158.804 237.756,158.480 238.080 M26.400 251.024 C 26.400 259.604,26.536 263.963,26.800 263.800 C 27.053 263.644,27.200 258.863,27.200 250.776 C 27.200 242.525,27.058 238.000,26.800 238.000 C 26.542 238.000,26.400 242.608,26.400 251.024 M306.667 238.267 C 306.067 238.867,306.370 263.407,306.987 264.224 C 307.519 264.926,307.576 264.933,307.587 264.300 C 307.594 263.915,307.420 263.600,307.200 263.600 C 306.562 263.600,306.661 238.523,307.300 238.265 C 307.579 238.152,307.609 238.049,307.367 238.032 C 307.128 238.014,306.813 238.120,306.667 238.267 M109.778 251.000 C 109.779 258.040,109.833 260.864,109.899 257.275 C 109.966 253.686,109.966 247.926,109.899 244.475 C 109.833 241.024,109.778 243.960,109.778 251.000 M288.486 251.300 C 288.439 258.505,288.535 264.400,288.700 264.400 C 288.865 264.401,288.954 260.576,288.898 255.900 C 288.704 239.729,288.572 238.254,288.486 251.300 M316.578 251.000 C 316.579 258.040,316.633 260.864,316.699 257.275 C 316.766 253.686,316.766 247.926,316.699 244.475 C 316.633 241.024,316.578 243.960,316.578 251.000 M361.686 250.876 C 361.638 257.848,361.735 263.636,361.900 263.739 C 362.065 263.841,362.154 260.117,362.098 255.462 C 361.908 239.679,361.771 238.160,361.686 250.876 M163.000 263.600 L 158.600 263.842 162.876 263.921 C 165.385 263.967,167.255 263.835,167.400 263.600 C 167.536 263.380,167.592 263.236,167.524 263.279 C 167.456 263.323,165.420 263.467,163.000 263.600 M55.600 264.000 C 55.600 264.240,57.200 264.400,59.600 264.400 C 62.000 264.400,63.600 264.240,63.600 264.000 C 63.600 263.760,62.000 263.600,59.600 263.600 C 57.200 263.600,55.600 263.760,55.600 264.000 M82.800 264.000 C 82.800 264.241,84.459 264.400,86.976 264.400 C 89.329 264.400,91.261 264.225,91.400 264.000 C 91.559 263.743,90.071 263.600,87.224 263.600 C 84.541 263.600,82.800 263.757,82.800 264.000 M110.400 264.000 C 110.400 264.242,112.133 264.400,114.800 264.400 C 117.467 264.400,119.200 264.242,119.200 264.000 C 119.200 263.758,117.467 263.600,114.800 263.600 C 112.133 263.600,110.400 263.758,110.400 264.000 M9.444 274.811 C 9.483 276.201,10.000 277.743,10.000 276.467 C 10.000 276.114,24.918 275.976,71.300 275.901 L 132.600 275.803 71.526 275.700 L 10.453 275.597 10.326 274.530 C 10.122 272.804,9.395 273.035,9.444 274.811 M329.300 276.300 L 390.400 276.403 390.400 277.668 C 390.400 279.194,390.598 279.058,390.933 277.300 L 391.180 276.000 329.690 276.099 L 268.200 276.197 329.300 276.300 M267.272 277.700 C 267.342 278.195,267.580 278.600,267.800 278.600 C 268.020 278.600,268.258 278.195,268.328 277.700 C 268.416 277.081,268.251 276.800,267.800 276.800 C 267.349 276.800,267.184 277.081,267.272 277.700 " stroke="none" fill="#d4d4d4" fill-rule="evenodd"></path><path id="path2" d="" stroke="none" fill="#dce0d8" fill-rule="evenodd"></path><path id="path3" d="" stroke="none" fill="#dce0d8" fill-rule="evenodd"></path><path id="path4" d="" stroke="none" fill="#dce0d8" fill-rule="evenodd"></path></g></svg>